<svg xmlns="http://www.w3.org/2000/svg" xmlns:xlink="http://www.w3.org/1999/xlink" fill="none" version="1.1" width="84.85107421875" height="80.64453125" viewBox="0 0 84.85107421875 80.64453125"><defs><linearGradient x1="0.01712007075548172" y1="0.977439820766449" x2="0.9844654202461243" y2="0.977439820766449" id="master_svg0_0_1256"><stop offset="0%" stop-color="#FFD44F" stop-opacity="1"/><stop offset="100%" stop-color="#FFA607" stop-opacity="1"/></linearGradient><linearGradient x1="-0.019005849957466125" y1="1.0070708990097046" x2="1.0014619827270508" y2="1.0070708990097046" id="master_svg1_0_1299"><stop offset="0%" stop-color="#FF66A9" stop-opacity="1"/><stop offset="100%" stop-color="#F53689" stop-opacity="1"/></linearGradient><linearGradient x1="-0.012676742859184742" y1="1.003913402557373" x2="1.0082886219024658" y2="1.003913402557373" id="master_svg2_0_1309"><stop offset="0%" stop-color="#51DFD4" stop-opacity="1"/><stop offset="100%" stop-color="#1BE068" stop-opacity="1"/></linearGradient><linearGradient x1="0.0025960032362490892" y1="1.000828742980957" x2="0.999265193939209" y2="1.000828742980957" id="master_svg3_0_1325"><stop offset="0%" stop-color="#51DFD4" stop-opacity="1"/><stop offset="100%" stop-color="#1BE068" stop-opacity="1"/></linearGradient><linearGradient x1="0" y1="0" x2="0" y2="0" id="master_svg4_0_430"><stop offset="0%" stop-color="#51DFD4" stop-opacity="1"/><stop offset="100%" stop-color="#1BE068" stop-opacity="1"/></linearGradient><linearGradient x1="-0.2840000092983246" y1="1.247499942779541" x2="1.2519999742507935" y2="1.247499942779541" id="master_svg5_0_1330"><stop offset="0%" stop-color="#51DFD4" stop-opacity="1"/><stop offset="100%" stop-color="#1BE068" stop-opacity="1"/></linearGradient><linearGradient x1="0" y1="0" x2="0" y2="0" id="master_svg6_0_430"><stop offset="0%" stop-color="#51DFD4" stop-opacity="1"/><stop offset="100%" stop-color="#1BE068" stop-opacity="1"/></linearGradient></defs><g style="mix-blend-mode:passthrough"><g style="mix-blend-mode:passthrough"><path d="M41.58927294311523,78.5710376548767C41.423272943115236,78.5710376548767,41.257572943115235,78.56993765487671,41.092072943115234,78.5676376548767C41.092072943115234,78.5676376548767,41.06437294311523,80.56743765487671,41.06437294311523,80.56743765487671C41.23907294311523,80.56983765487671,41.41407294311524,80.5710376548767,41.58927294311523,80.5710376548767C41.58927294311523,80.5710376548767,41.58927294311523,78.5710376548767,41.58927294311523,78.5710376548767C41.58927294311523,78.5710376548767,41.58927294311523,78.5710376548767,41.58927294311523,78.5710376548767ZM35.18747294311524,77.9905376548767C34.86257294311524,77.93083765487671,34.539272943115236,77.86673765487672,34.21747294311523,77.79823765487671C34.21747294311523,77.79823765487671,33.800772943115234,79.75433765487671,33.800772943115234,79.75433765487671C34.140872943115234,79.82673765487671,34.48267294311523,79.89453765487671,34.82617294311524,79.9576376548767C34.82617294311524,79.9576376548767,35.18747294311524,77.9905376548767,35.18747294311524,77.9905376548767C35.18747294311524,77.9905376548767,35.18747294311524,77.9905376548767,35.18747294311524,77.9905376548767ZM28.542472943115236,76.07473765487671C28.235872943115233,75.95233765487671,27.931372943115235,75.8257376548767,27.629072943115233,75.69503765487671C27.629072943115233,75.69503765487671,26.835472943115235,77.5308376548767,26.835472943115235,77.5308376548767C27.154972943115233,77.6690376548767,27.476872943115236,77.80283765487671,27.800972943115234,77.93223765487672C27.800972943115234,77.93223765487672,28.542472943115236,76.07473765487671,28.542472943115236,76.07473765487671C28.542472943115236,76.07473765487671,28.542472943115236,76.07473765487671,28.542472943115236,76.07473765487671ZM22.402772943115234,72.88943765487672C22.126072943115233,72.70943765487671,21.852072943115235,72.52553765487671,21.580872943115235,72.33793765487671C21.580872943115235,72.33793765487671,20.443272943115236,73.98293765487671,20.443272943115236,73.98293765487671C20.729872943115236,74.18113765487671,21.019372943115233,74.3753376548767,21.311672943115234,74.56563765487671C21.311672943115234,74.56563765487671,22.402772943115234,72.88943765487672,22.402772943115234,72.88943765487672C22.402772943115234,72.88943765487672,22.402772943115234,72.88943765487672,22.402772943115234,72.88943765487672ZM17.000872943115233,68.56633765487672C16.764572943115233,68.33593765487672,16.531472943115233,68.1023376548767,16.301672943115236,67.8654376548767C16.301672943115236,67.8654376548767,14.866272943115234,69.25813765487672,14.866272943115234,69.25813765487672C15.108972943115234,69.50833765487671,15.355172943115234,69.7551376548767,15.604872943115234,69.99843765487671C15.604872943115234,69.99843765487671,17.000872943115233,68.56633765487672,17.000872943115233,68.56633765487672C17.000872943115233,68.56633765487672,17.000872943115233,68.56633765487672,17.000872943115233,68.56633765487672ZM12.540412943115234,63.27663765487671C12.353442943115235,63.00503765487671,12.170172943115235,62.73063765487671,11.990682943115235,62.45363765487671C11.990682943115235,62.45363765487671,10.312162943115235,63.54103765487671,10.312162943115235,63.54103765487671C10.501812943115233,63.83383765487671,10.695432943115234,64.12363765487672,10.892972943115234,64.41063765487671C10.892972943115234,64.41063765487671,12.540412943115234,63.27663765487671,12.540412943115234,63.27663765487671C12.540412943115234,63.27663765487671,12.540412943115234,63.27663765487671,12.540412943115234,63.27663765487671ZM9.195032943115233,57.221337654876706C9.064852943115234,56.91883765487671,8.938782943115235,56.61403765487671,8.816872943115234,56.30723765487671C8.816872943115234,56.30723765487671,6.958202943115234,57.04573765487671,6.958202943115234,57.04573765487671C7.087052943115234,57.37003765487671,7.220312943115234,57.69213765487671,7.357902943115235,58.01183765487671C7.357902943115235,58.01183765487671,9.195032943115233,57.221337654876706,9.195032943115233,57.221337654876706C9.195032943115233,57.221337654876706,9.195032943115233,57.221337654876706,9.195032943115233,57.221337654876706ZM7.1005729431152345,50.62923765487671C7.032352943115234,50.30743765487671,6.968492943115234,49.98403765487671,6.9090829431152345,49.65903765487671C6.9090829431152345,49.65903765487671,4.941689943115234,50.01873765487671,4.941689943115234,50.01873765487671C5.004476943115234,50.36223765487671,5.071960943115235,50.70403765487671,5.144069943115234,51.04413765487671C5.144069943115234,51.04413765487671,7.1005729431152345,50.62923765487671,7.1005729431152345,50.62923765487671C7.1005729431152345,50.62923765487671,7.1005729431152345,50.62923765487671,7.1005729431152345,50.62923765487671ZM6.334592943115235,43.75333765487671C6.332312943115234,43.58783765487671,6.331172943115234,43.42213765487671,6.331172943115234,43.25603765487671C6.331172943115234,43.25603765487671,4.331172943115234,43.25603765487671,4.331172943115234,43.25603765487671C4.331172943115234,43.43123765487671,4.332379943115234,43.60623765487671,4.334784943115235,43.78093765487671C4.334784943115235,43.78093765487671,6.334592943115235,43.75333765487671,6.334592943115235,43.75333765487671C6.334592943115235,43.75333765487671,6.334592943115235,43.75333765487671,6.334592943115235,43.75333765487671ZM6.331172943115234,43.25603765487671C6.331172943115234,43.09003765487671,6.332312943115234,42.924237654876706,6.334592943115235,42.75873765487671C6.334592943115235,42.75873765487671,4.334784943115235,42.73123765487671,4.334784943115235,42.73123765487671C4.332379943115234,42.905837654876706,4.331172943115234,43.08083765487671,4.331172943115234,43.25603765487671C4.331172943115234,43.25603765487671,6.331172943115234,43.25603765487671,6.331172943115234,43.25603765487671C6.331172943115234,43.25603765487671,6.331172943115234,43.25603765487671,6.331172943115234,43.25603765487671ZM6.9090829431152345,36.85303765487671C6.968492943115234,36.52803765487671,7.032352943115234,36.204637654876706,7.1005729431152345,35.88283765487671C7.1005729431152345,35.88283765487671,5.144070943115234,35.46803765487671,5.144070943115234,35.46803765487671C5.071960943115235,35.80813765487671,5.004477943115234,36.14993765487671,4.941689943115234,36.49333765487671C4.941689943115234,36.49333765487671,6.9090829431152345,36.85303765487671,6.9090829431152345,36.85303765487671C6.9090829431152345,36.85303765487671,6.9090829431152345,36.85303765487671,6.9090829431152345,36.85303765487671ZM8.816872943115234,30.20483765487671C8.938782943115235,29.89803765487671,9.064852943115234,29.59333765487671,9.195032943115233,29.290837654876707C9.195032943115233,29.290837654876707,7.357902943115235,28.50023765487671,7.357902943115235,28.50023765487671C7.220312943115234,28.82003765487671,7.087052943115234,29.14203765487671,6.958202943115234,29.46643765487671C6.958202943115234,29.46643765487671,8.816872943115234,30.20483765487671,8.816872943115234,30.20483765487671C8.816872943115234,30.20483765487671,8.816872943115234,30.20483765487671,8.816872943115234,30.20483765487671ZM11.990682943115235,24.05853765487671C12.170172943115235,23.781437654876708,12.353442943115235,23.507037654876708,12.540422943115235,23.23543765487671C12.540422943115235,23.23543765487671,10.892972943115234,22.101437654876708,10.892972943115234,22.101437654876708C10.695442943115236,22.388437654876707,10.501812943115233,22.67833765487671,10.312162943115235,22.97103765487671C10.312162943115235,22.97103765487671,11.990682943115235,24.05853765487671,11.990682943115235,24.05853765487671C11.990682943115235,24.05853765487671,11.990682943115235,24.05853765487671,11.990682943115235,24.05853765487671ZM16.301672943115236,18.64663765487671C16.531472943115233,18.40983765487671,16.764572943115233,18.176137654876708,17.000872943115233,17.94583765487671C17.000872943115233,17.94583765487671,15.604872943115234,16.51363765487671,15.604872943115234,16.51363765487671C15.355172943115234,16.756937654876708,15.108972943115234,17.00373765487671,14.866272943115234,17.253937654876708C14.866272943115234,17.253937654876708,16.301672943115236,18.64663765487671,16.301672943115236,18.64663765487671C16.301672943115236,18.64663765487671,16.301672943115236,18.64663765487671,16.301672943115236,18.64663765487671ZM21.580872943115235,14.174147654876709C21.852072943115235,13.98657765487671,22.126072943115233,13.802717654876709,22.402772943115234,13.622637654876709C22.402772943115234,13.622637654876709,21.311672943115234,11.94646765487671,21.311672943115234,11.94646765487671C21.019372943115233,12.136747654876709,20.729872943115236,12.33101765487671,20.443272943115236,12.52919765487671C20.443272943115236,12.52919765487671,21.580872943115235,14.174147654876709,21.580872943115235,14.174147654876709C21.580872943115235,14.174147654876709,21.580872943115235,14.174147654876709,21.580872943115235,14.174147654876709ZM27.629072943115233,10.81704765487671C27.931372943115235,10.686347654876709,28.235872943115233,10.559767654876708,28.542472943115236,10.437377654876709C28.542472943115236,10.437377654876709,27.800972943115234,8.57990765487671,27.800972943115234,8.57990765487671C27.476872943115236,8.709297654876709,27.154972943115233,8.84310765487671,26.835472943115235,8.98126765487671C26.835472943115235,8.98126765487671,27.629072943115233,10.81704765487671,27.629072943115233,10.81704765487671C27.629072943115233,10.81704765487671,27.629072943115233,10.81704765487671,27.629072943115233,10.81704765487671ZM34.21747294311523,8.71390765487671C34.539272943115236,8.64536765487671,34.86257294311524,8.581237654876709,35.18747294311524,8.521557654876709C35.18747294311524,8.521557654876709,34.82617294311524,6.554464654876709,34.82617294311524,6.554464654876709C34.48267294311523,6.617548654876709,34.140872943115234,6.685349654876709,33.800772943115234,6.757797654876709C33.800772943115234,6.757797654876709,34.21747294311523,8.71390765487671,34.21747294311523,8.71390765487671C34.21747294311523,8.71390765487671,34.21747294311523,8.71390765487671,34.21747294311523,8.71390765487671ZM41.092072943115234,7.944477654876708C41.257572943115235,7.942187654876709,41.423272943115236,7.941037654876709,41.58927294311523,7.941037654876709C41.58927294311523,7.941037654876709,41.58927294311523,5.941037654876709,41.58927294311523,5.941037654876709C41.41407294311524,5.941037654876709,41.23907294311523,5.942249654876709,41.06437294311523,5.944667654876709C41.06437294311523,5.944667654876709,41.092072943115234,7.944477654876708,41.092072943115234,7.944477654876708C41.092072943115234,7.944477654876708,41.092072943115234,7.944477654876708,41.092072943115234,7.944477654876708ZM41.58927294311523,7.941037654876709C41.75537294311523,7.941037654876709,41.921072943115234,7.942187654876709,42.086572943115236,7.944477654876708C42.086572943115236,7.944477654876708,42.114172943115236,5.944667654876709,42.114172943115236,5.944667654876709C41.939472943115234,5.942249654876709,41.76457294311523,5.941037654876709,41.58927294311523,5.941037654876709C41.58927294311523,5.941037654876709,41.58927294311523,7.941037654876709,41.58927294311523,7.941037654876709C41.58927294311523,7.941037654876709,41.58927294311523,7.941037654876709,41.58927294311523,7.941037654876709ZM47.99117294311523,8.521557654876709C48.31607294311524,8.581237654876709,48.639372943115234,8.64536765487671,48.961072943115234,8.71390765487671C48.961072943115234,8.71390765487671,49.37777294311523,6.757797654876709,49.37777294311523,6.757797654876709C49.03767294311523,6.685348654876709,48.69587294311523,6.617547654876709,48.35247294311523,6.5544636548767095C48.35247294311523,6.5544636548767095,47.99117294311523,8.521557654876709,47.99117294311523,8.521557654876709C47.99117294311523,8.521557654876709,47.99117294311523,8.521557654876709,47.99117294311523,8.521557654876709ZM54.63607294311524,10.437377654876709C54.942672943115234,10.559767654876708,55.24717294311523,10.686347654876709,55.549472943115234,10.81704765487671C55.549472943115234,10.81704765487671,56.343172943115235,8.98126765487671,56.343172943115235,8.98126765487671C56.023572943115234,8.84310765487671,55.701672943115234,8.709297654876709,55.37757294311523,8.57990765487671C55.37757294311523,8.57990765487671,54.63607294311524,10.437377654876709,54.63607294311524,10.437377654876709C54.63607294311524,10.437377654876709,54.63607294311524,10.437377654876709,54.63607294311524,10.437377654876709ZM60.77587294311523,13.622647654876708C61.052472943115234,13.802717654876709,61.326472943115235,13.98657765487671,61.597672943115235,14.174157654876709C61.597672943115235,14.174157654876709,62.73537294311524,12.529207654876709,62.73537294311524,12.529207654876709C62.44877294311524,12.33101765487671,62.15927294311523,12.136747654876709,61.866972943115236,11.94646765487671C61.866972943115236,11.94646765487671,60.77587294311523,13.622647654876708,60.77587294311523,13.622647654876708C60.77587294311523,13.622647654876708,60.77587294311523,13.622647654876708,60.77587294311523,13.622647654876708ZM66.17777294311523,17.94583765487671C66.41407294311523,18.176137654876708,66.64717294311524,18.40983765487671,66.87697294311523,18.64663765487671C66.87697294311523,18.64663765487671,68.31237294311524,17.253937654876708,68.31237294311524,17.253937654876708C68.06957294311523,17.00373765487671,67.82337294311523,16.756937654876708,67.57377294311524,16.51363765487671C67.57377294311524,16.51363765487671,66.17777294311523,17.94583765487671,66.17777294311523,17.94583765487671C66.17777294311523,17.94583765487671,66.17777294311523,17.94583765487671,66.17777294311523,17.94583765487671ZM70.63817294311524,23.23543765487671C70.82517294311523,23.507037654876708,71.00847294311524,23.781437654876708,71.18797294311524,24.05853765487671C71.18797294311524,24.05853765487671,72.86647294311524,22.97103765487671,72.86647294311524,22.97103765487671C72.67677294311524,22.67833765487671,72.48317294311524,22.388437654876707,72.28567294311523,22.101437654876708C72.28567294311523,22.101437654876708,70.63817294311524,23.23543765487671,70.63817294311524,23.23543765487671C70.63817294311524,23.23543765487671,70.63817294311524,23.23543765487671,70.63817294311524,23.23543765487671ZM73.98357294311523,29.290837654876707C74.11377294311524,29.59333765487671,74.23987294311523,29.89803765487671,74.36177294311524,30.20483765487671C74.36177294311524,30.20483765487671,76.22037294311524,29.46643765487671,76.22037294311524,29.46643765487671C76.09157294311524,29.14203765487671,75.95827294311523,28.82003765487671,75.82067294311524,28.50023765487671C75.82067294311524,28.50023765487671,73.98357294311523,29.290837654876707,73.98357294311523,29.290837654876707C73.98357294311523,29.290837654876707,73.98357294311523,29.290837654876707,73.98357294311523,29.290837654876707ZM76.07807294311523,35.88283765487671C76.14627294311524,36.204637654876706,76.21007294311524,36.52803765487671,76.26947294311523,36.85303765487671C76.26947294311523,36.85303765487671,78.23687294311523,36.49333765487671,78.23687294311523,36.49333765487671C78.17417294311524,36.14993765487671,78.10667294311523,35.80813765487671,78.03457294311524,35.46803765487671C78.03457294311524,35.46803765487671,76.07807294311523,35.88283765487671,76.07807294311523,35.88283765487671C76.07807294311523,35.88283765487671,76.07807294311523,35.88283765487671,76.07807294311523,35.88283765487671ZM76.84397294311523,42.75873765487671C76.84627294311524,42.924237654876706,76.84747294311524,43.09003765487671,76.84747294311524,43.25603765487671C76.84747294311524,43.25603765487671,78.84747294311524,43.25603765487671,78.84747294311524,43.25603765487671C78.84747294311524,43.08083765487671,78.84627294311524,42.905837654876706,78.84377294311524,42.73123765487671C78.84377294311524,42.73123765487671,76.84397294311523,42.75873765487671,76.84397294311523,42.75873765487671C76.84397294311523,42.75873765487671,76.84397294311523,42.75873765487671,76.84397294311523,42.75873765487671ZM76.84747294311524,43.25603765487671C76.84747294311524,43.42213765487671,76.84627294311524,43.58783765487671,76.84397294311523,43.75333765487671C76.84397294311523,43.75333765487671,78.84377294311524,43.78093765487671,78.84377294311524,43.78093765487671C78.84627294311524,43.60623765487671,78.84747294311524,43.43123765487671,78.84747294311524,43.25603765487671C78.84747294311524,43.25603765487671,76.84747294311524,43.25603765487671,76.84747294311524,43.25603765487671C76.84747294311524,43.25603765487671,76.84747294311524,43.25603765487671,76.84747294311524,43.25603765487671ZM76.26947294311523,49.65903765487671C76.21007294311524,49.98403765487671,76.14627294311524,50.30743765487671,76.07807294311523,50.62923765487671C76.07807294311523,50.62923765487671,78.03457294311524,51.04413765487671,78.03457294311524,51.04413765487671C78.10667294311523,50.70403765487671,78.17417294311524,50.36223765487671,78.23687294311523,50.01873765487671C78.23687294311523,50.01873765487671,76.26947294311523,49.65903765487671,76.26947294311523,49.65903765487671C76.26947294311523,49.65903765487671,76.26947294311523,49.65903765487671,76.26947294311523,49.65903765487671ZM74.36177294311524,56.30723765487671C74.23987294311523,56.61403765487671,74.11377294311524,56.91883765487671,73.98357294311523,57.221337654876706C73.98357294311523,57.221337654876706,75.82067294311524,58.01183765487671,75.82067294311524,58.01183765487671C75.95827294311523,57.69213765487671,76.09157294311524,57.37003765487671,76.22037294311524,57.04573765487671C76.22037294311524,57.04573765487671,74.36177294311524,56.30723765487671,74.36177294311524,56.30723765487671C74.36177294311524,56.30723765487671,74.36177294311524,56.30723765487671,74.36177294311524,56.30723765487671ZM71.18797294311524,62.45363765487671C71.00847294311524,62.73063765487671,70.82517294311523,63.00503765487671,70.63817294311524,63.27663765487671C70.63817294311524,63.27663765487671,72.28567294311523,64.41063765487671,72.28567294311523,64.41063765487671C72.48317294311524,64.1237376548767,72.67677294311524,63.83383765487671,72.86647294311524,63.54103765487671C72.86647294311524,63.54103765487671,71.18797294311524,62.45363765487671,71.18797294311524,62.45363765487671C71.18797294311524,62.45363765487671,71.18797294311524,62.45363765487671,71.18797294311524,62.45363765487671ZM66.87697294311523,67.8654376548767C66.64717294311524,68.1023376548767,66.41407294311523,68.33593765487672,66.17767294311523,68.56633765487672C66.17767294311523,68.56633765487672,67.57377294311524,69.99843765487671,67.57377294311524,69.99843765487671C67.82337294311523,69.7551376548767,68.06957294311523,69.50833765487671,68.31237294311524,69.25813765487672C68.31237294311524,69.25813765487672,66.87697294311523,67.8654376548767,66.87697294311523,67.8654376548767C66.87697294311523,67.8654376548767,66.87697294311523,67.8654376548767,66.87697294311523,67.8654376548767ZM61.597672943115235,72.33793765487671C61.326472943115235,72.52553765487671,61.052472943115234,72.70943765487671,60.77587294311523,72.88943765487672C60.77587294311523,72.88943765487672,61.866972943115236,74.56563765487671,61.866972943115236,74.56563765487671C62.15927294311523,74.3753376548767,62.44877294311524,74.18113765487671,62.735272943115234,73.98293765487671C62.735272943115234,73.98293765487671,61.597672943115235,72.33793765487671,61.597672943115235,72.33793765487671C61.597672943115235,72.33793765487671,61.597672943115235,72.33793765487671,61.597672943115235,72.33793765487671ZM55.549472943115234,75.69503765487671C55.24717294311523,75.8257376548767,54.942672943115234,75.95233765487671,54.63607294311524,76.07473765487671C54.63607294311524,76.07473765487671,55.37757294311523,77.93223765487672,55.37757294311523,77.93223765487672C55.701672943115234,77.80283765487671,56.023572943115234,77.6690376548767,56.343172943115235,77.5308376548767C56.343172943115235,77.5308376548767,55.549472943115234,75.69503765487671,55.549472943115234,75.69503765487671C55.549472943115234,75.69503765487671,55.549472943115234,75.69503765487671,55.549472943115234,75.69503765487671ZM48.961072943115234,77.79823765487671C48.639372943115234,77.86673765487672,48.31607294311524,77.93083765487671,47.99117294311523,77.9905376548767C47.99117294311523,77.9905376548767,48.35247294311523,79.9576376548767,48.35247294311523,79.9576376548767C48.69587294311523,79.89453765487671,49.03767294311523,79.82673765487671,49.37777294311523,79.75433765487671C49.37777294311523,79.75433765487671,48.961072943115234,77.79823765487671,48.961072943115234,77.79823765487671C48.961072943115234,77.79823765487671,48.961072943115234,77.79823765487671,48.961072943115234,77.79823765487671ZM42.086572943115236,78.5676376548767C41.921072943115234,78.56993765487671,41.75537294311523,78.5710376548767,41.58927294311523,78.5710376548767C41.58927294311523,78.5710376548767,41.58927294311523,80.5710376548767,41.58927294311523,80.5710376548767C41.76457294311523,80.5710376548767,41.939472943115234,80.56983765487671,42.114172943115236,80.56743765487671C42.114172943115236,80.56743765487671,42.086572943115236,78.5676376548767,42.086572943115236,78.5676376548767C42.086572943115236,78.5676376548767,42.086572943115236,78.5676376548767,42.086572943115236,78.5676376548767Z" fill="#EAEEF9" fill-opacity="1"/></g><g style="mix-blend-mode:passthrough"><path d="M53.116278916015624,5.99178599533081C53.76054891601562,5.99178599533081,54.28321891601563,5.46770599533081,54.28321891601563,4.82201599533081C54.28321891601563,4.177034995330811,53.76054891601562,3.6529459953308105,53.116278916015624,3.6529459953308105C52.47130591601562,3.6529459953308105,51.948638916015625,4.177034995330811,51.948638916015625,4.82201599533081C51.948638916015625,5.46770599533081,52.47130591601562,5.99178599533081,53.116278916015624,5.99178599533081C53.116278916015624,5.99178599533081,53.116278916015624,5.99178599533081,53.116278916015624,5.99178599533081Z" fill="url(#master_svg0_0_1256)" fill-opacity="1"/></g><g style="mix-blend-mode:passthrough"><path d="M1.9542701051351645,18.248421318969726C2.4307101051351645,17.812511318969726,2.4634201051351647,17.073662318969728,2.0289401051351645,16.596506318969727C1.5937401051351645,16.120061918969725,0.8556031051351646,16.086640318969728,0.3798691051351646,16.522551318969725C-0.09586399486483542,16.957751318969727,-0.12928589486483544,17.697311318969728,0.3052031051351646,18.173751318969728C0.7404031051351646,18.650911318969726,1.4785401051351645,18.683621318969728,1.9542701051351645,18.248421318969726C1.9542701051351645,18.248421318969726,1.9542701051351645,18.248421318969726,1.9542701051351645,18.248421318969726Z" fill="#32D697" fill-opacity="1"/></g><g style="mix-blend-mode:passthrough"><path d="M73.4476907397461,20.28078569946289C73.9234307397461,19.84558569946289,73.95685073974609,19.10603069946289,73.5216507397461,18.62958669946289C73.0871607397461,18.15243109946289,72.3483177397461,18.11971969946289,71.87258473974609,18.55491969946289C71.3968512397461,18.99083069946289,71.3634287397461,19.73038569946289,71.79862873974609,20.20683569946289C72.23311773974609,20.68327569946289,72.9719607397461,20.71669569946289,73.4476907397461,20.28078569946289C73.4476907397461,20.28078569946289,73.4476907397461,20.28078569946289,73.4476907397461,20.28078569946289Z" fill="#32D697" fill-opacity="1"/></g><g style="mix-blend-mode:passthrough"><path d="M33.63736028381348,21.481870651245117C33.63736028381348,21.481870651245117,35.169050283813476,26.45040065124512,35.169050283813476,26.45040065124512C35.169050283813476,26.45040065124512,30.135140283813477,30.61538065124512,30.135140283813477,30.61538065124512C30.135140283813477,30.61538065124512,26.04981028381348,24.258050651245117,26.04981028381348,24.258050651245117C26.04981028381348,24.258050651245117,25.028650283813477,22.65094065124512,25.028650283813477,22.65094065124512C25.028650283813477,22.65094065124512,25.101183583813476,22.577690651245117,25.101183583813476,22.577690651245117C25.101183583813476,22.577690651245117,26.341360283813476,21.627648651245117,26.341360283813476,21.627648651245117C26.341360283813476,21.627648651245117,33.63736028381348,21.481870651245117,33.63736028381348,21.481870651245117C33.63736028381348,21.481870651245117,33.63736028381348,21.481870651245117,33.63736028381348,21.481870651245117Z" fill="#AFB8C7" fill-opacity="1"/></g><g style="mix-blend-mode:passthrough"><path d="M33.63747781616211,21.481971326904297C33.63747781616211,21.481971326904297,28.82253781616211,25.427931326904297,28.82253781616211,25.427931326904297C28.82253781616211,25.427931326904297,26.04991781616211,24.258151326904297,26.04991781616211,24.258151326904297C26.04991781616211,24.258151326904297,24.29916221616211,23.454601326904296,24.29916221616211,23.454601326904296C24.29916221616211,23.454601326904296,24.22591781616211,23.308821326904297,24.22591781616211,23.308821326904297C24.22591781616211,23.308821326904297,25.02876181616211,22.6510413269043,25.02876181616211,22.6510413269043C25.02876181616211,22.6510413269043,25.10129581616211,22.577801326904297,25.10129581616211,22.577801326904297C25.10129581616211,22.577801326904297,26.341477816162108,21.627751326904296,26.341477816162108,21.627751326904296C26.341477816162108,21.627751326904296,28.45773781616211,20.020641326904297,28.45773781616211,20.020641326904297C28.45773781616211,20.020641326904297,33.63747781616211,21.481971326904297,33.63747781616211,21.481971326904297C33.63747781616211,21.481971326904297,33.63747781616211,21.481971326904297,33.63747781616211,21.481971326904297Z" fill="#FFFFFF" fill-opacity="1"/></g><g style="mix-blend-mode:passthrough"><path d="M24.22591781616211,23.308732986450195C24.22591781616211,23.308732986450195,29.04084781616211,25.354602986450196,29.04084781616211,25.354602986450196C29.04084781616211,25.354602986450196,30.208497816162108,30.688642986450194,30.208497816162108,30.688642986450194C30.208497816162108,30.688642986450194,25.32031781616211,28.642772986450197,25.32031781616211,28.642772986450197C25.32031781616211,28.642772986450197,24.22591781616211,23.308732986450195,24.22591781616211,23.308732986450195C24.22591781616211,23.308732986450195,24.22591781616211,23.308732986450195,24.22591781616211,23.308732986450195Z" fill="#D8DEED" fill-opacity="1"/></g><g style="mix-blend-mode:passthrough"><path d="M5.477218151092529,80.64444732666016C5.477218151092529,80.64444732666016,79.96321815109253,80.64444732666016,79.96321815109253,80.64444732666016C79.96321815109253,80.64444732666016,79.96321815109253,78.64444732666016,79.96321815109253,78.64444732666016C79.96321815109253,78.64444732666016,5.477218151092529,78.64444732666016,5.477218151092529,78.64444732666016C5.477218151092529,78.64444732666016,5.477218151092529,80.64444732666016,5.477218151092529,80.64444732666016C5.477218151092529,80.64444732666016,5.477218151092529,80.64444732666016,5.477218151092529,80.64444732666016Z" fill="#EBF0F6" fill-opacity="1"/></g><g style="mix-blend-mode:passthrough"><path d="M75.43987305664062,78.84103021240234C75.43987305664062,78.84103021240234,74.71027305664063,78.84103021240234,74.71027305664063,78.84103021240234C74.49125505664063,78.84103021240234,74.27223305664063,78.69454021240234,74.19970005664062,78.47552021240234C74.19970005664062,78.47552021240234,73.54263305664062,73.94503021240234,73.54263305664062,73.94503021240234C73.54263305664062,73.94503021240234,76.60681305664062,73.94503021240234,76.60681305664062,73.94503021240234C76.60681305664062,73.94503021240234,75.95045305664063,78.47552021240234,75.95045305664063,78.47552021240234C75.87721305664063,78.69454021240234,75.65819305664063,78.84103021240234,75.43987305664062,78.84103021240234C75.43987305664062,78.84103021240234,75.43987305664062,78.84103021240234,75.43987305664062,78.84103021240234Z" fill="#AFB8C7" fill-opacity="1"/></g><g style="mix-blend-mode:passthrough"><path d="M16.711145061035158,78.84068900146484C16.711145061035158,78.84068900146484,14.449805061035157,78.84068900146484,14.449805061035157,78.84068900146484C14.230786061035156,78.84068900146484,14.011764061035157,78.69419900146484,13.939231061035157,78.47517900146484C13.939231061035157,78.47517900146484,13.282875061035156,76.21028900146484,13.282875061035156,76.21028900146484C13.282875061035156,76.21028900146484,17.878785061035156,76.21028900146484,17.878785061035156,76.21028900146484C17.878785061035156,76.21028900146484,17.221715061035155,78.47517900146484,17.221715061035155,78.47517900146484C17.149185061035155,78.69419900146484,16.930165061035154,78.84068900146484,16.711145061035158,78.84068900146484C16.711145061035158,78.84068900146484,16.711145061035158,78.84068900146484,16.711145061035158,78.84068900146484Z" fill="#AFB8C7" fill-opacity="1"/></g><g style="mix-blend-mode:passthrough"><path d="M45.018011036376954,78.84068900146484C45.018011036376954,78.84068900146484,42.829211036376954,78.84068900146484,42.829211036376954,78.84068900146484C42.61019203637695,78.84068900146484,42.39188103637695,78.69419900146484,42.318637036376956,78.47517900146484C42.318637036376956,78.47517900146484,41.66228103637695,76.21028900146484,41.66228103637695,76.21028900146484C41.66228103637695,76.21028900146484,46.25819103637696,76.21028900146484,46.25819103637696,76.21028900146484C46.25819103637696,76.21028900146484,45.60184103637695,78.47517900146484,45.60184103637695,78.47517900146484C45.52859103637695,78.69419900146484,45.30957103637695,78.84068900146484,45.018011036376954,78.84068900146484C45.018011036376954,78.84068900146484,45.018011036376954,78.84068900146484,45.018011036376954,78.84068900146484Z" fill="#AFB8C7" fill-opacity="1"/></g><g style="mix-blend-mode:passthrough"><path d="M77.62840369567871,73.65271307373047C77.62840369567871,73.65271307373047,28.312183695678712,73.65271307373047,28.312183695678712,73.65271307373047C24.80996369567871,73.65271307373047,21.96480369567871,70.80324307373047,21.96480369567871,67.29604307373047C21.96480369567871,63.78884307373047,24.80996369567871,60.93871307373047,28.312183695678712,60.93871307373047C28.312183695678712,60.93871307373047,77.62840369567871,60.93871307373047,77.62840369567871,60.93871307373047C81.1307036956787,60.93871307373047,83.9758036956787,63.78884307373047,83.9758036956787,67.29604307373047C83.9758036956787,70.80324307373047,81.1307036956787,73.65271307373047,77.62840369567871,73.65271307373047C77.62840369567871,73.65271307373047,77.62840369567871,73.65271307373047,77.62840369567871,73.65271307373047Z" fill="#EAEEF9" fill-opacity="1"/></g><g style="mix-blend-mode:passthrough"><path d="M28.238813406982423,59.98876953125C28.238813406982423,59.98876953125,77.62832340698242,59.98876953125,77.62832340698242,59.98876953125C81.64112340698242,59.98876953125,84.85112340698242,63.27694953125,84.85112340698242,67.29613953125C84.85112340698242,71.31466953125,81.56792340698243,74.60276953125,77.55582340698243,74.60276953125C77.55582340698243,74.60276953125,28.238813406982423,74.60276953125,28.238813406982423,74.60276953125C24.22601340698242,74.60276953125,20.943523406982422,71.31466953125,20.943523406982422,67.29613953125C20.943523406982422,63.27694953125,24.22601340698242,59.98876953125,28.238813406982423,59.98876953125C28.238813406982423,59.98876953125,28.238813406982423,59.98876953125,28.238813406982423,59.98876953125ZM28.23896340698242,72.70276953125C28.23896340698242,72.70276953125,77.62842340698242,72.70276953125,77.62842340698242,72.70276953125C80.62012340698243,72.70276953125,83.02722340698242,70.29136953125,82.95472340698242,67.29619953125C82.95472340698242,64.30028953125,80.54682340698241,61.88891953125,77.55592340698243,61.88891953125C77.55592340698243,61.88891953125,28.23896340698242,61.88891953125,28.23896340698242,61.88891953125C25.248023406982423,61.88891953125,22.840203406982422,64.30028953125,22.840203406982422,67.29619953125C22.840203406982422,70.29136953125,25.248023406982423,72.70276953125,28.23896340698242,72.70276953125C28.23896340698242,72.70276953125,28.23896340698242,72.70276953125,28.23896340698242,72.70276953125Z" fill-rule="evenodd" fill="#C3C9D4" fill-opacity="1"/></g><g style="mix-blend-mode:passthrough"><path d="M77.40995279052734,71.02222406738281C79.50488279052735,71.02222406738281,81.20301279052734,69.32125406738281,81.20301279052734,67.22276406738281C81.20301279052734,65.12427406738281,79.50488279052735,63.42329406738281,77.40995279052734,63.42329406738281C75.31430279052735,63.42329406738281,73.61617279052734,65.12427406738281,73.61617279052734,67.22276406738281C73.61617279052734,69.32125406738281,75.31430279052735,71.02222406738281,77.40995279052734,71.02222406738281C77.40995279052734,71.02222406738281,77.40995279052734,71.02222406738281,77.40995279052734,71.02222406738281Z" fill="#C3C9D4" fill-opacity="1"/></g><g style="mix-blend-mode:passthrough"><path d="M77.41070341064453,69.26860225341797C78.53852341064453,69.26860225341797,79.45301341064453,68.35269225341797,79.45301341064453,67.22274225341796C79.45301341064453,66.09278325341796,78.53852341064453,65.17687225341797,77.41070341064453,65.17687225341797C76.28217241064453,65.17687225341797,75.36768341064453,66.09278325341796,75.36768341064453,67.22274225341796C75.36768341064453,68.35269225341797,76.28217241064453,69.26860225341797,77.41070341064453,69.26860225341797C77.41070341064453,69.26860225341797,77.41070341064453,69.26860225341797,77.41070341064453,69.26860225341797Z" fill="#AFB8C7" fill-opacity="1"/></g><g style="mix-blend-mode:passthrough"><path d="M63.69444481689453,71.02222406738281C65.79008481689453,71.02222406738281,67.48821481689453,69.32125406738281,67.48821481689453,67.22276406738281C67.48821481689453,65.12427406738281,65.79008481689453,63.42329406738281,63.69444481689453,63.42329406738281C61.59950481689453,63.42329406738281,59.90137481689453,65.12427406738281,59.90137481689453,67.22276406738281C59.90137481689453,69.32125406738281,61.59950481689453,71.02222406738281,63.69444481689453,71.02222406738281C63.69444481689453,71.02222406738281,63.69444481689453,71.02222406738281,63.69444481689453,71.02222406738281Z" fill="#C3C9D4" fill-opacity="1"/></g><g style="mix-blend-mode:passthrough"><path d="M63.69486783935547,69.26860225341797C64.82268783935547,69.26860225341797,65.73717783935547,68.35269225341797,65.73717783935547,67.22274225341796C65.73717783935547,66.09278325341796,64.82268783935547,65.17687225341797,63.69486783935547,65.17687225341797C62.56633683935547,65.17687225341797,61.65184783935547,66.09278325341796,61.65184783935547,67.22274225341796C61.65184783935547,68.35269225341797,62.56633683935547,69.26860225341797,63.69486783935547,69.26860225341797C63.69486783935547,69.26860225341797,63.69486783935547,69.26860225341797,63.69486783935547,69.26860225341797Z" fill="#AFB8C7" fill-opacity="1"/></g><g style="mix-blend-mode:passthrough"><path d="M50.05182901123047,71.02222406738281C52.14675901123047,71.02222406738281,53.84488901123047,69.32125406738281,53.84488901123047,67.22276406738281C53.84488901123047,65.12427406738281,52.14675901123047,63.42329406738281,50.05182901123047,63.42329406738281C47.95617901123047,63.42329406738281,46.25804901123047,65.12427406738281,46.25804901123047,67.22276406738281C46.25804901123047,69.32125406738281,47.95617901123047,71.02222406738281,50.05182901123047,71.02222406738281C50.05182901123047,71.02222406738281,50.05182901123047,71.02222406738281,50.05182901123047,71.02222406738281Z" fill="#C3C9D4" fill-opacity="1"/></g><g style="mix-blend-mode:passthrough"><path d="M50.05257581665039,69.26860225341797C51.18039581665039,69.26860225341797,52.09488581665039,68.35269225341797,52.09488581665039,67.22274225341796C52.09488581665039,66.09278325341796,51.18039581665039,65.17687225341797,50.05257581665039,65.17687225341797C48.924044816650394,65.17687225341797,48.00955581665039,66.09278325341796,48.00955581665039,67.22274225341796C48.00955581665039,68.35269225341797,48.924044816650394,69.26860225341797,50.05257581665039,69.26860225341797C50.05257581665039,69.26860225341797,50.05257581665039,69.26860225341797,50.05257581665039,69.26860225341797Z" fill="#AFB8C7" fill-opacity="1"/></g><g style="opacity:0.20000000298023224;"><path d="M50.8548014074707,59.98863983154297C50.8548014074707,59.98863983154297,44.7271614074707,59.98863983154297,44.7271614074707,59.98863983154297C44.7271614074707,59.98863983154297,44.7271614074707,74.60263983154297,44.7271614074707,74.60263983154297C44.7271614074707,74.60263983154297,50.8548014074707,74.60263983154297,50.8548014074707,74.60263983154297C50.8548014074707,74.60263983154297,50.8548014074707,59.98863983154297,50.8548014074707,59.98863983154297C50.8548014074707,59.98863983154297,50.8548014074707,59.98863983154297,50.8548014074707,59.98863983154297Z" fill="#36475E" fill-opacity="1"/></g><g style="mix-blend-mode:passthrough"><path d="M47.06103909301758,78.84075662841796C47.06103909301758,78.84075662841796,12.554361093017578,78.84075662841796,12.554361093017578,78.84075662841796C12.262095093017578,78.84075662841796,11.970539093017578,78.54848662841798,11.970539093017578,78.25622662841796C11.970539093017578,78.25622662841796,11.970539093017578,76.28288962841796,11.970539093017578,76.28288962841796C11.970539093017578,75.99062362841796,12.262095093017578,75.69835662841797,12.554361093017578,75.69835662841797C12.554361093017578,75.69835662841797,47.13423909301758,75.69835662841797,47.13423909301758,75.69835662841797C47.42583909301758,75.69835662841797,47.71813909301758,75.99062362841796,47.71813909301758,76.28288962841796C47.71813909301758,76.28288962841796,47.71813909301758,78.25622662841796,47.71813909301758,78.25622662841796C47.64483909301758,78.54848662841798,47.42583909301758,78.84075662841796,47.06103909301758,78.84075662841796C47.06103909301758,78.84075662841796,47.06103909301758,78.84075662841796,47.06103909301758,78.84075662841796Z" fill="#AFB8C7" fill-opacity="1"/></g><g style="mix-blend-mode:passthrough"><path d="M49.10333038024903,41.06454403320313C49.10333038024903,41.06454403320313,49.10333038024903,73.65263403320313,49.10333038024903,73.65263403320313C49.10333038024903,75.33373403320311,47.78983038024902,76.64853403320313,46.11233038024903,76.64853403320313C46.11233038024903,76.64853403320313,13.209960380249024,76.64853403320313,13.209960380249024,76.64853403320313C12.553610380249022,76.64853403320313,11.896540380249023,76.42953403320313,11.385960380249024,76.06403403320311C10.948630380249023,75.77173403320313,10.656363380249024,75.33373403320311,10.438052380249024,74.89493403320313C10.291563680249023,74.52943403320313,10.219030380249023,74.09143403320311,10.219030380249023,73.65263403320313C10.219030380249023,73.65263403320313,10.219030380249023,41.06454403320313,10.219030380249023,41.06454403320313C10.219030380249023,39.38347403320312,11.531740380249023,38.068634033203125,13.209960380249024,38.068634033203125C13.209960380249024,38.068634033203125,46.11233038024903,38.068634033203125,46.11233038024903,38.068634033203125C46.914530380249026,38.068634033203125,47.644130380249024,38.36090103320313,48.154630380249024,38.872190033203125C48.37373038024902,39.09121403320312,48.59273038024902,39.38347403320312,48.738530380249024,39.748994033203125C48.811730380249024,39.89547403320312,48.88423038024902,40.041254033203124,48.88423038024902,40.187744033203124C49.10333038024903,40.406764033203125,49.10333038024903,40.69903403320313,49.10333038024903,41.06454403320313C49.10333038024903,40.99130403320312,49.10333038024903,40.99130403320312,49.10333038024903,41.06454403320313C49.10333038024903,41.06454403320313,49.10333038024903,41.06454403320313,49.10333038024903,41.06454403320313Z" fill="#D8DEED" fill-opacity="1"/></g><g style="opacity:0.800000011920929;"><path d="M49.103657307434084,41.063823126220704C49.103657307434084,41.063823126220704,49.103657307434084,73.6526231262207,49.103657307434084,73.6526231262207C49.103657307434084,75.3330231262207,47.790957307434084,76.64852312622071,46.11275730743408,76.64852312622071C46.11275730743408,76.64852312622071,13.210357307434082,76.64852312622071,13.210357307434082,76.64852312622071C12.553997307434082,76.64852312622071,11.896935307434083,76.4295231262207,11.386357307434082,76.0640231262207C11.386357307434082,76.0640231262207,48.155057307434085,38.9454231262207,48.155057307434085,38.9454231262207C48.37405730743408,39.164445126220706,48.59315730743408,39.4567121262207,48.73885730743408,39.822223126220706C48.812157307434084,39.9680031262207,48.88465730743408,40.1144931262207,48.88465730743408,40.2602631262207C49.03115730743408,40.5525331262207,49.103657307434084,40.844803126220704,49.103657307434084,41.063823126220704C49.103657307434084,40.991293126220704,49.103657307434084,40.991293126220704,49.103657307434084,41.063823126220704C49.103657307434084,41.063823126220704,49.103657307434084,41.063823126220704,49.103657307434084,41.063823126220704Z" fill="#C3C9D4" fill-opacity="1"/></g><g style="mix-blend-mode:passthrough"><path d="M13.210103332641602,73.79909141235352C13.064325332641602,73.79909141235352,13.064325332641602,73.72589141235352,13.064325332641602,73.65259141235352C13.064325332641602,73.65259141235352,13.064325332641602,73.58009141235351,13.064325332641602,73.58009141235351C13.064325332641602,73.58009141235351,13.064325332641602,41.064524412353514,13.064325332641602,41.064524412353514C13.064325332641602,40.99128041235352,46.1857253326416,40.844791412353516,46.1857253326416,40.844791412353516C46.331525332641604,40.844791412353516,46.331525332641604,40.918035812353516,46.331525332641604,40.918035812353516C46.331525332641604,40.918035812353516,46.331525332641604,40.99128041235352,46.331525332641604,40.99128041235352C46.331525332641604,40.99128041235352,46.331525332641604,73.58009141235351,46.331525332641604,73.58009141235351C46.331525332641604,73.65259141235352,46.258325332641604,73.79909141235352,46.1125253326416,73.79909141235352C46.1125253326416,73.79909141235352,13.210103332641602,73.79909141235352,13.210103332641602,73.79909141235352C13.210103332641602,73.79909141235352,13.064325332641602,73.72589141235352,13.210103332641602,73.79909141235352C13.210103332641602,73.79909141235352,13.210103332641602,73.79909141235352,13.210103332641602,73.79909141235352Z" fill="#EAEEF9" fill-opacity="1"/></g><g style="mix-blend-mode:passthrough"><path d="M18.754915237426758,64.3724059375C18.754915237426758,67.4415559375,21.23527523742676,69.92613593749999,24.29944523742676,69.92613593749999C24.518475237426756,69.92613593749999,24.66424523742676,69.92613593749999,24.88327523742676,69.8529359375C24.88327523742676,69.8529359375,36.92021523742676,68.3183559375,36.92021523742676,68.3183559375C36.92021523742676,68.3183559375,37.066015237426754,68.3183559375,37.066015237426754,68.3183559375C38.963315237426755,67.9528459375,40.34921523742676,66.3457359375,40.34921523742676,64.3724059375C40.34921523742676,62.3997759375,38.89001523742676,60.7194259375,36.92021523742676,60.4271559375C36.87861523742676,60.3851359375,36.86091523742676,60.3672159375,36.83951523742675,60.3595859375C36.82361523742676,60.3539159375,36.80571523742675,60.3539159375,36.774515237426755,60.3539159375C36.774515237426755,60.3539159375,25.248075237426757,58.8925781375,25.248075237426757,58.8925781375C25.101585237426757,58.8193359375,24.88327523742676,58.8193359375,24.737495237426756,58.8193359375C24.737495237426756,58.8193359375,24.66424523742676,58.8193359375,24.66424523742676,58.8193359375C24.66424523742676,58.8193359375,24.518475237426756,58.8193359375,24.518475237426756,58.8193359375C24.518475237426756,58.8193359375,24.29944523742676,58.8193359375,24.29944523742676,58.8193359375C21.23527523742676,58.8193359375,18.754915237426758,61.3039559375,18.754915237426758,64.3724059375C18.754915237426758,64.3724059375,18.754915237426758,64.3724059375,18.754915237426758,64.3724059375ZM19.921235237426757,64.3725259375C19.921235237426757,61.9618559375,21.891015237426757,59.9885259375,24.298835237426758,59.9885259375C24.33004523742676,59.9885259375,24.34795523742676,59.9885259375,24.36384523742676,59.9942059375C24.385255237426758,60.0018359375,24.40298523742676,60.0197459375,24.44461523742676,60.0617659375C24.44461523742676,60.0617659375,24.517855237426758,60.0617659375,24.517855237426758,60.0617659375C24.517855237426758,60.0617659375,24.59039523742676,60.0617659375,24.59039523742676,60.0617659375C24.663725237426757,60.0617659375,24.73688523742676,60.0801059375,24.80994523742676,60.0984459375C24.882835237426757,60.1167259375,24.95563523742676,60.1350059375,25.02843523742676,60.1350059375C25.02843523742676,60.1350059375,36.48231523742676,61.5963459375,36.48231523742676,61.5963459375C36.48231523742676,61.5963459375,36.628115237426755,61.5963459375,36.628115237426755,61.5963459375C38.08731523742676,61.8153659375,39.18171523742676,62.9844359375,39.18171523742676,64.4457659375C39.18171523742676,65.8338659375,38.159815237426756,67.00363593750001,36.77381523742676,67.22265593750001C36.77381523742676,67.22265593750001,36.701315237426755,67.22265593750001,36.701315237426755,67.22265593750001C36.701315237426755,67.22265593750001,24.80941523742676,68.7572359375,24.80941523742676,68.7572359375C24.80941523742676,68.7572359375,24.298835237426758,68.7572359375,24.298835237426758,68.7572359375C21.891015237426757,68.7572359375,19.921235237426757,66.7839059375,19.921235237426757,64.3725259375C19.921235237426757,64.3725259375,19.921235237426757,64.3725259375,19.921235237426757,64.3725259375Z" fill-rule="evenodd" fill="#CCD3E0" fill-opacity="1"/></g><g style="mix-blend-mode:passthrough"><path d="M24.299253406982423,67.73412340820312C26.152413406982422,67.73412340820312,27.65499340698242,66.22941340820313,27.65499340698242,64.37270340820312C27.65499340698242,62.51670340820313,26.152413406982422,61.011993408203125,24.299253406982423,61.011993408203125C22.446103406982424,61.011993408203125,20.943523406982422,62.51670340820313,20.943523406982422,64.37270340820312C20.943523406982422,66.22941340820313,22.446103406982424,67.73412340820312,24.299253406982423,67.73412340820312C24.299253406982423,67.73412340820312,24.299253406982423,67.73412340820312,24.299253406982423,67.73412340820312Z" fill="#C3C9D4" fill-opacity="1"/></g><g style="mix-blend-mode:passthrough"><path d="M24.299444793701173,66.19948497436523C25.307084793701172,66.19948497436523,26.12344479370117,65.38170497436523,26.12344479370117,64.37334497436524C26.12344479370117,63.36428297436523,25.307084793701172,62.546504974365234,24.299444793701173,62.546504974365234C23.292511793701173,62.546504974365234,22.475444793701172,63.36428297436523,22.475444793701172,64.37334497436524C22.475444793701172,65.38170497436523,23.292511793701173,66.19948497436523,24.299444793701173,66.19948497436523C24.299444793701173,66.19948497436523,24.299444793701173,66.19948497436523,24.299444793701173,66.19948497436523Z" fill="#AFB8C7" fill-opacity="1"/></g><g style="mix-blend-mode:passthrough"><path d="M36.33704379394531,66.34590430541992C37.424333793945316,66.34590430541992,38.30682379394531,65.46270430541992,38.30682379394531,64.37327430541993C38.30682379394531,63.283144305419924,37.424333793945316,62.39994430541992,36.33704379394531,62.39994430541992C35.24904179394531,62.39994430541992,34.36726379394531,63.283144305419924,34.36726379394531,64.37327430541993C34.36726379394531,65.46270430541992,35.24904179394531,66.34590430541992,36.33704379394531,66.34590430541992C36.33704379394531,66.34590430541992,36.33704379394531,66.34590430541992,36.33704379394531,66.34590430541992Z" fill="#C3C9D4" fill-opacity="1"/></g><g style="mix-blend-mode:passthrough"><path d="M36.33793790283203,65.4690933984375C36.94237790283203,65.4690933984375,37.43233790283203,64.9784233984375,37.43233790283203,64.3725533984375C37.43233790283203,63.7674003984375,36.94237790283203,63.2767333984375,36.33793790283203,63.2767333984375C35.73349390283203,63.2767333984375,35.24353790283203,63.7674003984375,35.24353790283203,64.3725533984375C35.24353790283203,64.9784233984375,35.73349390283203,65.4690933984375,36.33793790283203,65.4690933984375C36.33793790283203,65.4690933984375,36.33793790283203,65.4690933984375,36.33793790283203,65.4690933984375Z" fill="#AFB8C7" fill-opacity="1"/></g><g style="mix-blend-mode:passthrough"><path d="M41.88172487182617,54.2898417956543C41.88172487182617,54.2898417956543,17.077464871826173,54.2898417956543,17.077464871826173,54.2898417956543C16.20138087182617,54.2898417956543,15.545024871826172,53.55881179565429,15.545024871826172,52.7552617956543C15.545024871826172,52.7552617956543,15.545024871826172,47.128951795654295,15.545024871826172,47.128951795654295C15.545024871826172,46.2521497956543,16.274624871826173,45.5943717956543,17.077464871826173,45.5943717956543C17.077464871826173,45.5943717956543,41.88172487182617,45.5943717956543,41.88172487182617,45.5943717956543C42.75712487182617,45.5943717956543,43.41342487182617,46.3253937956543,43.41342487182617,47.128951795654295C43.41342487182617,47.128951795654295,43.41342487182617,52.7552617956543,43.41342487182617,52.7552617956543C43.48672487182617,53.55881179565429,42.75712487182617,54.2898417956543,41.88172487182617,54.2898417956543C41.88172487182617,54.2898417956543,41.88172487182617,54.2898417956543,41.88172487182617,54.2898417956543Z" fill="#36475E" fill-opacity="1"/></g><g style="mix-blend-mode:passthrough"><path d="M19.33887872619629,50.85588836669922C19.33887872619629,50.85588836669922,17.87967872619629,50.85588836669922,17.87967872619629,50.85588836669922C17.87967872619629,50.85588836669922,17.87967872619629,52.317218366699215,17.87967872619629,52.317218366699215C17.87967872619629,52.317218366699215,19.33887872619629,52.317218366699215,19.33887872619629,52.317218366699215C19.33887872619629,52.317218366699215,19.33887872619629,50.85588836669922,19.33887872619629,50.85588836669922C19.33887872619629,50.85588836669922,19.33887872619629,50.85588836669922,19.33887872619629,50.85588836669922Z" fill="url(#master_svg1_0_1299)" fill-opacity="1"/></g><g style="opacity:0.4000000059604645;"><path d="M22.986194238891603,50.85588836669922C22.986194238891603,50.85588836669922,21.5277042388916,50.85588836669922,21.5277042388916,50.85588836669922C21.5277042388916,50.85588836669922,21.5277042388916,52.317218366699215,21.5277042388916,52.317218366699215C21.5277042388916,52.317218366699215,22.986194238891603,52.317218366699215,22.986194238891603,52.317218366699215C22.986194238891603,52.317218366699215,22.986194238891603,50.85588836669922,22.986194238891603,50.85588836669922C22.986194238891603,50.85588836669922,22.986194238891603,50.85588836669922,22.986194238891603,50.85588836669922Z" fill="#AFB8C7" fill-opacity="1"/></g><g style="mix-blend-mode:passthrough"><path d="M26.560680017700196,50.85588836669922C26.560680017700196,50.85588836669922,25.102190017700195,50.85588836669922,25.102190017700195,50.85588836669922C25.102190017700195,50.85588836669922,25.102190017700195,52.317218366699215,25.102190017700195,52.317218366699215C25.102190017700195,52.317218366699215,26.560680017700196,52.317218366699215,26.560680017700196,52.317218366699215C26.560680017700196,52.317218366699215,26.560680017700196,50.85588836669922,26.560680017700196,50.85588836669922C26.560680017700196,50.85588836669922,26.560680017700196,50.85588836669922,26.560680017700196,50.85588836669922Z" fill="#AFB8C7" fill-opacity="1"/></g><g style="opacity:0.4000000059604645;"><path d="M30.209415530395507,50.85588836669922C30.209415530395507,50.85588836669922,28.750215530395508,50.85588836669922,28.750215530395508,50.85588836669922C28.750215530395508,50.85588836669922,28.750215530395508,52.317218366699215,28.750215530395508,52.317218366699215C28.750215530395508,52.317218366699215,30.209415530395507,52.317218366699215,30.209415530395507,52.317218366699215C30.209415530395507,52.317218366699215,30.209415530395507,50.85588836669922,30.209415530395507,50.85588836669922C30.209415530395507,50.85588836669922,30.209415530395507,50.85588836669922,30.209415530395507,50.85588836669922Z" fill="#AFB8C7" fill-opacity="1"/></g><g style="mix-blend-mode:passthrough"><path d="M33.78390321655274,50.85588836669922C33.78390321655274,50.85588836669922,32.324703216552734,50.85588836669922,32.324703216552734,50.85588836669922C32.324703216552734,50.85588836669922,32.324703216552734,52.317218366699215,32.324703216552734,52.317218366699215C32.324703216552734,52.317218366699215,33.78390321655274,52.317218366699215,33.78390321655274,52.317218366699215C33.78390321655274,52.317218366699215,33.78390321655274,50.85588836669922,33.78390321655274,50.85588836669922C33.78390321655274,50.85588836669922,33.78390321655274,50.85588836669922,33.78390321655274,50.85588836669922Z" fill="#AFB8C7" fill-opacity="1"/></g><g style="opacity:0.5;"><path d="M37.43192872924805,50.85588836669922C37.43192872924805,50.85588836669922,35.97272872924805,50.85588836669922,35.97272872924805,50.85588836669922C35.97272872924805,50.85588836669922,35.97272872924805,52.317218366699215,35.97272872924805,52.317218366699215C35.97272872924805,52.317218366699215,37.43192872924805,52.317218366699215,37.43192872924805,52.317218366699215C37.43192872924805,52.317218366699215,37.43192872924805,50.85588836669922,37.43192872924805,50.85588836669922C37.43192872924805,50.85588836669922,37.43192872924805,50.85588836669922,37.43192872924805,50.85588836669922Z" fill="#AFB8C7" fill-opacity="1"/></g><g style="mix-blend-mode:passthrough"><path d="M19.33887872619629,47.713321685791016C19.33887872619629,47.713321685791016,17.87967872619629,47.713321685791016,17.87967872619629,47.713321685791016C17.87967872619629,47.713321685791016,17.87967872619629,49.17465168579101,17.87967872619629,49.17465168579101C17.87967872619629,49.17465168579101,19.33887872619629,49.17465168579101,19.33887872619629,49.17465168579101C19.33887872619629,49.17465168579101,19.33887872619629,47.713321685791016,19.33887872619629,47.713321685791016C19.33887872619629,47.713321685791016,19.33887872619629,47.713321685791016,19.33887872619629,47.713321685791016Z" fill="#AFB8C7" fill-opacity="1"/></g><g style="opacity:0.4000000059604645;"><path d="M22.985868548583984,47.713321685791016C22.985868548583984,47.713321685791016,21.526668548583984,47.713321685791016,21.526668548583984,47.713321685791016C21.526668548583984,47.713321685791016,21.526668548583984,49.17465168579101,21.526668548583984,49.17465168579101C21.526668548583984,49.17465168579101,22.985868548583984,49.17465168579101,22.985868548583984,49.17465168579101C22.985868548583984,49.17465168579101,22.985868548583984,47.713321685791016,22.985868548583984,47.713321685791016C22.985868548583984,47.713321685791016,22.985868548583984,47.713321685791016,22.985868548583984,47.713321685791016Z" fill="#AFB8C7" fill-opacity="1"/></g><g style="mix-blend-mode:passthrough"><path d="M26.560680017700196,47.713321685791016C26.560680017700196,47.713321685791016,25.102190017700195,47.713321685791016,25.102190017700195,47.713321685791016C25.102190017700195,47.713321685791016,25.102190017700195,49.17465168579101,25.102190017700195,49.17465168579101C25.102190017700195,49.17465168579101,26.560680017700196,49.17465168579101,26.560680017700196,49.17465168579101C26.560680017700196,49.17465168579101,26.560680017700196,47.713321685791016,26.560680017700196,47.713321685791016C26.560680017700196,47.713321685791016,26.560680017700196,47.713321685791016,26.560680017700196,47.713321685791016Z" fill="url(#master_svg2_0_1309)" fill-opacity="1"/></g><g style="mix-blend-mode:passthrough"><path d="M30.209415530395507,47.713321685791016C30.209415530395507,47.713321685791016,28.750215530395508,47.713321685791016,28.750215530395508,47.713321685791016C28.750215530395508,47.713321685791016,28.750215530395508,49.17465168579101,28.750215530395508,49.17465168579101C28.750215530395508,49.17465168579101,30.209415530395507,49.17465168579101,30.209415530395507,49.17465168579101C30.209415530395507,49.17465168579101,30.209415530395507,47.713321685791016,30.209415530395507,47.713321685791016C30.209415530395507,47.713321685791016,30.209415530395507,47.713321685791016,30.209415530395507,47.713321685791016Z" fill="#AFB8C7" fill-opacity="1"/></g><g style="opacity:0.5;"><path d="M33.78390321655274,47.713321685791016C33.78390321655274,47.713321685791016,32.324703216552734,47.713321685791016,32.324703216552734,47.713321685791016C32.324703216552734,47.713321685791016,32.324703216552734,49.17465168579101,32.324703216552734,49.17465168579101C32.324703216552734,49.17465168579101,33.78390321655274,49.17465168579101,33.78390321655274,49.17465168579101C33.78390321655274,49.17465168579101,33.78390321655274,47.713321685791016,33.78390321655274,47.713321685791016C33.78390321655274,47.713321685791016,33.78390321655274,47.713321685791016,33.78390321655274,47.713321685791016Z" fill="#AFB8C7" fill-opacity="1"/></g><g style="mix-blend-mode:passthrough"><path d="M37.43192872924805,47.713321685791016C37.43192872924805,47.713321685791016,35.97272872924805,47.713321685791016,35.97272872924805,47.713321685791016C35.97272872924805,47.713321685791016,35.97272872924805,49.17465168579101,35.97272872924805,49.17465168579101C35.97272872924805,49.17465168579101,37.43192872924805,49.17465168579101,37.43192872924805,49.17465168579101C37.43192872924805,49.17465168579101,37.43192872924805,47.713321685791016,37.43192872924805,47.713321685791016C37.43192872924805,47.713321685791016,37.43192872924805,47.713321685791016,37.43192872924805,47.713321685791016Z" fill="#AFB8C7" fill-opacity="1"/></g><g style="opacity:0.5;"><path d="M41.1524601928711,50.85588836669922C41.1524601928711,50.85588836669922,39.693260192871094,50.85588836669922,39.693260192871094,50.85588836669922C39.693260192871094,50.85588836669922,39.693260192871094,52.317218366699215,39.693260192871094,52.317218366699215C39.693260192871094,52.317218366699215,41.1524601928711,52.317218366699215,41.1524601928711,52.317218366699215C41.1524601928711,52.317218366699215,41.1524601928711,50.85588836669922,41.1524601928711,50.85588836669922C41.1524601928711,50.85588836669922,41.1524601928711,50.85588836669922,41.1524601928711,50.85588836669922Z" fill="#AFB8C7" fill-opacity="1"/></g><g style="mix-blend-mode:passthrough"><path d="M41.1524601928711,47.713321685791016C41.1524601928711,47.713321685791016,39.693260192871094,47.713321685791016,39.693260192871094,47.713321685791016C39.693260192871094,47.713321685791016,39.693260192871094,49.17465168579101,39.693260192871094,49.17465168579101C39.693260192871094,49.17465168579101,41.1524601928711,49.17465168579101,41.1524601928711,49.17465168579101C41.1524601928711,49.17465168579101,41.1524601928711,47.713321685791016,41.1524601928711,47.713321685791016C41.1524601928711,47.713321685791016,41.1524601928711,47.713321685791016,41.1524601928711,47.713321685791016Z" fill="#AFB8C7" fill-opacity="1"/></g><g style="mix-blend-mode:passthrough"><path d="M53.261545949554446,27.838468551635742C53.261545949554446,27.838468551635742,46.185345949554446,36.75295855163574,46.185345949554446,36.75295855163574C46.185345949554446,36.75295855163574,45.16344594955444,38.068468551635746,45.16344594955444,38.068468551635746C45.16344594955444,38.068468551635746,13.647695949554443,38.068468551635746,13.647695949554443,38.068468551635746C13.647695949554443,38.068468551635746,12.480055949554444,36.75295855163574,12.480055949554444,36.75295855163574C12.480055949554444,36.75295855163574,4.600945949554443,27.838468551635742,4.600945949554443,27.838468551635742C4.600945949554443,27.838468551635742,53.261545949554446,27.838468551635742,53.261545949554446,27.838468551635742C53.261545949554446,27.838468551635742,53.261545949554446,27.838468551635742,53.261545949554446,27.838468551635742Z" fill="#D8DEED" fill-opacity="1"/></g><g style="mix-blend-mode:passthrough"><path d="M23.131586430664065,17.828356810913085C23.131586430664065,17.828356810913085,19.849096430664062,21.847546810913087,19.849096430664062,21.847546810913087C19.849096430664062,21.847546810913087,13.574966430664062,20.020716810913086,13.574966430664062,20.020716810913086C13.574966430664062,20.020716810913086,16.639146430664063,13.078846810913086,16.639146430664063,13.078846810913086C16.639146430664063,13.078846810913086,17.36874643066406,11.325246810913086,17.36874643066406,11.325246810913086C17.36874643066406,11.325246810913086,17.44127643066406,11.325246810913086,17.44127643066406,11.325246810913086C17.44127643066406,11.325246810913086,18.973726430664062,11.837246810913086,18.973726430664062,11.837246810913086C18.973726430664062,11.837246810913086,23.131586430664065,17.828356810913085,23.131586430664065,17.828356810913085C23.131586430664065,17.828356810913085,23.131586430664065,17.828356810913085,23.131586430664065,17.828356810913085Z" fill="#AFB8C7" fill-opacity="1"/></g><g style="mix-blend-mode:passthrough"><path d="M23.13145569824219,17.828234753723144C23.13145569824219,17.828234753723144,17.222837698242188,16.001394753723144,17.222837698242188,16.001394753723144C17.222837698242188,16.001394753723144,16.639015698242186,13.078724753723144,16.639015698242186,13.078724753723144C16.639015698242186,13.078724753723144,16.274215698242188,11.179347753723144,16.274215698242188,11.179347753723144C16.274215698242188,11.179347753723144,16.346748998242187,10.959614753723145,16.346748998242187,10.959614753723145C16.346748998242187,10.959614753723145,17.368615698242188,11.325125753723144,17.368615698242188,11.325125753723144C17.368615698242188,11.325125753723144,17.441145698242188,11.325125753723144,17.441145698242188,11.325125753723144C17.441145698242188,11.325125753723144,18.97359569824219,11.837125753723145,18.97359569824219,11.837125753723145C18.97359569824219,11.837125753723145,21.453945698242187,12.640684753723145,21.453945698242187,12.640684753723145C21.453945698242187,12.640684753723145,23.13145569824219,17.828234753723144,23.13145569824219,17.828234753723144C23.13145569824219,17.828234753723144,23.13145569824219,17.828234753723144,23.13145569824219,17.828234753723144Z" fill="#FFFFFF" fill-opacity="1"/></g><g style="mix-blend-mode:passthrough"><path d="M16.34746423461914,10.959614753723145C16.34746423461914,10.959614753723145,17.36861423461914,16.074634753723146,17.36861423461914,16.074634753723146C17.36861423461914,16.074634753723146,13.57484423461914,20.020594753723145,13.57484423461914,20.020594753723145C13.57484423461914,20.020594753723145,12.55368423461914,14.905574753723144,12.55368423461914,14.905574753723144C12.55368423461914,14.905574753723144,16.34746423461914,10.959614753723145,16.34746423461914,10.959614753723145C16.34746423461914,10.959614753723145,16.34746423461914,10.959614753723145,16.34746423461914,10.959614753723145Z" fill="#D8DEED" fill-opacity="1"/></g><g style="mix-blend-mode:passthrough"><path d="M46.33211443115234,11.90974047668457C46.33211443115234,11.90974047668457,43.778514431152345,16.44023047668457,43.778514431152345,16.44023047668457C43.778514431152345,16.44023047668457,37.358604431152344,15.70920047668457,37.358604431152344,15.70920047668457C37.358604431152344,15.70920047668457,39.10936443115234,8.32929047668457,39.10936443115234,8.32929047668457C39.10936443115234,8.32929047668457,39.619934431152345,6.50316047668457,39.619934431152345,6.50316047668457C39.619934431152345,6.50316047668457,39.693184431152346,6.50316047668457,39.693184431152346,6.50316047668457C39.693184431152346,6.50316047668457,41.22491443115234,6.72218247668457,41.22491443115234,6.72218247668457C41.22491443115234,6.72218247668457,46.33211443115234,11.90974047668457,46.33211443115234,11.90974047668457C46.33211443115234,11.90974047668457,46.33211443115234,11.90974047668457,46.33211443115234,11.90974047668457Z" fill="#AFB8C7" fill-opacity="1"/></g><g style="mix-blend-mode:passthrough"><path d="M46.331502578125,11.909625658569336C46.331502578125,11.909625658569336,40.203152578125,11.179315658569337,40.203152578125,11.179315658569337C40.203152578125,11.179315658569337,39.108748578125,8.329185658569337,39.108748578125,8.329185658569337C39.108748578125,8.329185658569337,38.452392578125,6.502337658569336,38.452392578125,6.502337658569336C38.452392578125,6.502337658569336,38.524925878125,6.283315658569336,38.524925878125,6.283315658569336C38.524925878125,6.283315658569336,39.619322578125,6.502337658569336,39.619322578125,6.502337658569336C39.619322578125,6.502337658569336,39.692572578125,6.502337658569336,39.692572578125,6.502337658569336C39.692572578125,6.502337658569336,41.224302578125,6.722071658569336,41.224302578125,6.722071658569336C41.224302578125,6.722071658569336,43.850432578125,7.086871658569336,43.850432578125,7.086871658569336C43.850432578125,7.086871658569336,46.331502578125,11.909625658569336,46.331502578125,11.909625658569336C46.331502578125,11.909625658569336,46.331502578125,11.909625658569336,46.331502578125,11.909625658569336Z" fill="#D8DEED" fill-opacity="1"/></g><g style="mix-blend-mode:passthrough"><path d="M38.525555723876955,6.283315658569336C38.525555723876955,6.283315658569336,40.42279572387695,11.179315658569337,40.42279572387695,11.179315658569337C40.42279572387695,11.179315658569337,37.35861572387695,15.709805658569335,37.35861572387695,15.709805658569335C37.35861572387695,15.709805658569335,35.46208572387695,10.813805658569336,35.46208572387695,10.813805658569336C35.46208572387695,10.813805658569336,38.525555723876955,6.283315658569336,38.525555723876955,6.283315658569336C38.525555723876955,6.283315658569336,38.525555723876955,6.283315658569336,38.525555723876955,6.283315658569336Z" fill="#FFFFFF" fill-opacity="1"/></g><g style="opacity:0.800000011920929;"><path d="M46.18464354705811,36.75318908691406C46.18464354705811,36.75318908691406,45.163543547058104,38.06874908691406,45.163543547058104,38.06874908691406C45.163543547058104,38.06874908691406,13.647783547058106,38.06874908691406,13.647783547058106,38.06874908691406C13.647783547058106,38.06874908691406,12.480143547058105,36.75318908691406,12.480143547058105,36.75318908691406C12.480143547058105,36.75318908691406,46.18464354705811,36.75318908691406,46.18464354705811,36.75318908691406C46.18464354705811,36.75318908691406,46.18464354705811,36.75318908691406,46.18464354705811,36.75318908691406Z" fill="#C3C9D4" fill-opacity="1"/></g><g style="mix-blend-mode:passthrough"><path d="M72.0842442565918,59.98938551025391C72.0842442565918,59.98938551025391,60.6310842565918,59.98938551025391,60.6310842565918,59.98938551025391C59.828244256591795,59.98938551025391,59.0986442565918,59.3315855102539,59.0986442565918,58.454785510253906C59.0986442565918,58.454785510253906,59.0986442565918,46.983165510253905,59.0986442565918,46.983165510253905C59.0986442565918,46.17889651025391,59.7550002565918,45.448585510253906,60.6310842565918,45.448585510253906C60.6310842565918,45.448585510253906,72.0842442565918,45.448585510253906,72.0842442565918,45.448585510253906C72.88704425659179,45.448585510253906,73.6166442565918,46.10636351025391,73.6166442565918,46.983165510253905C73.6166442565918,46.983165510253905,73.6166442565918,58.454785510253906,73.6166442565918,58.454785510253906C73.6166442565918,59.3315855102539,72.9603442565918,59.98938551025391,72.0842442565918,59.98938551025391C72.0842442565918,59.98938551025391,72.0842442565918,59.98938551025391,72.0842442565918,59.98938551025391Z" fill="url(#master_svg3_0_1325)" fill-opacity="1"/></g><g style="mix-blend-mode:passthrough"><path d="M65.44523004760742,55.38567918579102C65.22621004760742,55.38567918579102,65.00719004760742,55.31242918579102,64.86141004760742,55.166649185791016C64.86141004760742,55.166649185791016,63.256430047607424,53.48629918579102,63.256430047607424,53.48629918579102C62.89163004760742,53.12078918579102,62.89163004760742,52.609499185791016,63.256430047607424,52.243989185791015C63.62123004760742,51.878479185791015,64.13181004760742,51.878479185791015,64.49661004760742,52.243989185791015C64.49661004760742,52.243989185791015,65.44523004760742,53.26656918579101,65.44523004760742,53.26656918579101C65.44523004760742,53.26656918579101,68.29039004760742,50.417142185791015,68.29039004760742,50.417142185791015C68.65519004760742,50.05163148579101,69.16576004760742,50.05163148579101,69.53056004760742,50.417142185791015C69.89536004760743,50.78265318579101,69.89536004760743,51.29393918579102,69.53056004760742,51.65944918579102C69.53056004760742,51.65944918579102,66.10159004760742,55.09340918579102,66.10159004760742,55.09340918579102C65.88256004760743,55.23989918579102,65.66354004760743,55.38567918579102,65.44523004760742,55.38567918579102C65.44523004760742,55.38567918579102,65.44523004760742,55.38567918579102,65.44523004760742,55.38567918579102Z" fill="#FFFFFF" fill-opacity="1"/></g><g style="mix-blend-mode:passthrough"><path d="M72.08980560302734,42.66675544921875C72.08980560302734,42.66675544921875,72.08980560302734,38.40008544921875,72.08980560302734,38.40008544921875C72.08980560302734,38.40008544921875,70.58980560302734,38.40008544921875,70.58980560302734,38.40008544921875C70.58980560302734,38.40008544921875,70.58980560302734,42.66675544921875,70.58980560302734,42.66675544921875C70.58980560302734,42.66675544921875,72.08980560302734,42.66675544921875,72.08980560302734,42.66675544921875C72.08980560302734,42.66675544921875,72.08980560302734,42.66675544921875,72.08980560302734,42.66675544921875Z" fill="url(#master_svg4_0_430)" fill-opacity="1"/></g><g style="mix-blend-mode:passthrough"><path d="M75.42569601074219,43.90821493041992C75.42569601074219,43.90821493041992,76.84791601074218,42.48599493041992,76.84791601074218,42.48599493041992C76.84791601074218,42.48599493041992,75.78725601074218,41.42533493041992,75.78725601074218,41.42533493041992C75.78725601074218,41.42533493041992,74.36503601074219,42.847554930419925,74.36503601074219,42.847554930419925C74.36503601074219,42.847554930419925,75.42569601074219,43.90821493041992,75.42569601074219,43.90821493041992C75.42569601074219,43.90821493041992,75.42569601074219,43.90821493041992,75.42569601074219,43.90821493041992Z" fill="url(#master_svg5_0_1330)" fill-opacity="1"/></g><g style="mix-blend-mode:passthrough"><path d="M76.31852722167969,47.68340301513672C76.31852722167969,47.68340301513672,78.45185722167969,47.68340301513672,78.45185722167969,47.68340301513672C78.45185722167969,47.68340301513672,78.45185722167969,46.18340301513672,78.45185722167969,46.18340301513672C78.45185722167969,46.18340301513672,76.31852722167969,46.18340301513672,76.31852722167969,46.18340301513672C76.31852722167969,46.18340301513672,76.31852722167969,47.68340301513672,76.31852722167969,47.68340301513672C76.31852722167969,47.68340301513672,76.31852722167969,47.68340301513672,76.31852722167969,47.68340301513672Z" fill="url(#master_svg6_0_430)" fill-opacity="1"/></g><g style="mix-blend-mode:passthrough"><path d="M39.5368537902832,4.09173C39.5368537902832,4.09173,39.5368537902832,0,39.5368537902832,0C39.5368537902832,0,38.5368537902832,0,38.5368537902832,0C38.5368537902832,0,38.5368537902832,4.09173,38.5368537902832,4.09173C38.5368537902832,4.09173,39.5368537902832,4.09173,39.5368537902832,4.09173C39.5368537902832,4.09173,39.5368537902832,4.09173,39.5368537902832,4.09173Z" fill="#D8DEED" fill-opacity="1"/></g><g style="mix-blend-mode:passthrough"><path d="M42.6732063293457,4.96853266418457C42.6732063293457,4.96853266418457,42.6732063293457,2.0451526641845703,42.6732063293457,2.0451526641845703C42.6732063293457,2.0451526641845703,41.6732063293457,2.0451526641845703,41.6732063293457,2.0451526641845703C41.6732063293457,2.0451526641845703,41.6732063293457,4.96853266418457,41.6732063293457,4.96853266418457C41.6732063293457,4.96853266418457,42.6732063293457,4.96853266418457,42.6732063293457,4.96853266418457C42.6732063293457,4.96853266418457,42.6732063293457,4.96853266418457,42.6732063293457,4.96853266418457Z" fill="#D8DEED" fill-opacity="1"/></g><g style="mix-blend-mode:passthrough"><path d="M20.2039737701416,10.375093708953857C20.2039737701416,10.375093708953857,20.2039737701416,6.502383708953857,20.2039737701416,6.502383708953857C20.2039737701416,6.502383708953857,19.2039737701416,6.502383708953857,19.2039737701416,6.502383708953857C19.2039737701416,6.502383708953857,19.2039737701416,10.375093708953857,19.2039737701416,10.375093708953857C19.2039737701416,10.375093708953857,20.2039737701416,10.375093708953857,20.2039737701416,10.375093708953857C20.2039737701416,10.375093708953857,20.2039737701416,10.375093708953857,20.2039737701416,10.375093708953857Z" fill="#D8DEED" fill-opacity="1"/></g><g style="mix-blend-mode:passthrough"><path d="M16.263856887817383,10.37522891052246C16.263856887817383,10.37522891052246,16.263856887817383,4.968648910522461,16.263856887817383,4.968648910522461C16.263856887817383,4.968648910522461,15.263856887817383,4.968648910522461,15.263856887817383,4.968648910522461C15.263856887817383,4.968648910522461,15.263856887817383,10.37522891052246,15.263856887817383,10.37522891052246C15.263856887817383,10.37522891052246,16.263856887817383,10.37522891052246,16.263856887817383,10.37522891052246C16.263856887817383,10.37522891052246,16.263856887817383,10.37522891052246,16.263856887817383,10.37522891052246Z" fill="#D8DEED" fill-opacity="1"/></g><g style="mix-blend-mode:passthrough"><path d="M16.868284225463867,8.036895751953125C16.868284225463867,8.036895751953125,16.868284225463867,9.425695751953125,16.868284225463867,9.425695751953125C16.868284225463867,9.425695751953125,17.868284225463867,9.425695751953125,17.868284225463867,9.425695751953125C17.868284225463867,9.425695751953125,17.868284225463867,8.036895751953125,17.868284225463867,8.036895751953125C17.868284225463867,8.036895751953125,16.868284225463867,8.036895751953125,16.868284225463867,8.036895751953125C16.868284225463867,8.036895751953125,16.868284225463867,8.036895751953125,16.868284225463867,8.036895751953125Z" fill="#D8DEED" fill-opacity="1"/></g><g style="mix-blend-mode:passthrough"><path d="M27.644001007080078,19.436030036621094C27.644001007080078,19.436030036621094,27.644001007080078,16.147850036621094,27.644001007080078,16.147850036621094C27.644001007080078,16.147850036621094,26.644001007080078,16.147850036621094,26.644001007080078,16.147850036621094C26.644001007080078,16.147850036621094,26.644001007080078,19.436030036621094,26.644001007080078,19.436030036621094C26.644001007080078,19.436030036621094,27.644001007080078,19.436030036621094,27.644001007080078,19.436030036621094C27.644001007080078,19.436030036621094,27.644001007080078,19.436030036621094,27.644001007080078,19.436030036621094Z" fill="#D8DEED" fill-opacity="1"/></g><g style="mix-blend-mode:passthrough"><path d="M30.198240280151367,18.63179765686035C30.198240280151367,18.63179765686035,30.198240280151367,17.24370765686035,30.198240280151367,17.24370765686035C30.198240280151367,17.24370765686035,29.198240280151367,17.24370765686035,29.198240280151367,17.24370765686035C29.198240280151367,17.24370765686035,29.198240280151367,18.63179765686035,29.198240280151367,18.63179765686035C29.198240280151367,18.63179765686035,30.198240280151367,18.63179765686035,30.198240280151367,18.63179765686035C30.198240280151367,18.63179765686035,30.198240280151367,18.63179765686035,30.198240280151367,18.63179765686035Z" fill="#D8DEED" fill-opacity="1"/></g><g style="mix-blend-mode:passthrough"><path d="M32.605398178100586,19.43598098815918C32.605398178100586,19.43598098815918,32.605398178100586,12.34834098815918,32.605398178100586,12.34834098815918C32.605398178100586,12.34834098815918,31.605398178100586,12.34834098815918,31.605398178100586,12.34834098815918C31.605398178100586,12.34834098815918,31.605398178100586,19.43598098815918,31.605398178100586,19.43598098815918C31.605398178100586,19.43598098815918,32.605398178100586,19.43598098815918,32.605398178100586,19.43598098815918C32.605398178100586,19.43598098815918,32.605398178100586,19.43598098815918,32.605398178100586,19.43598098815918Z" fill="#D8DEED" fill-opacity="1"/></g></g></svg>