<svg xmlns="http://www.w3.org/2000/svg" xmlns:xlink="http://www.w3.org/1999/xlink" fill="none" version="1.1" width="91.7891845703125" height="108.447509765625" viewBox="0 0 91.7891845703125 108.447509765625"><defs><filter id="master_svg0_0_5465" filterUnits="objectBoundingBox" color-interpolation-filters="sRGB" x="-24" y="-18" width="91.78919982910156" height="108.4474983215332"><feFlood flood-opacity="0" result="BackgroundImageFix"/><feColorMatrix in="SourceAlpha" type="matrix" values="0 0 0 0 0 0 0 0 0 0 0 0 0 0 0 0 0 0 127 0"/><feOffset dy="6" dx="0"/><feGaussianBlur stdDeviation="6"/><feColorMatrix type="matrix" values="0 0 0 0 0.23441359400749207 0 0 0 0 0.28367942571640015 0 0 0 0 0.38277003169059753 0 0 0 0.15742802619934082 0"/><feBlend mode="normal" in2="BackgroundImageFix" result="effect1_dropShadow"/><feBlend mode="normal" in="SourceGraphic" in2="effect1_dropShadow" result="shape"/></filter><linearGradient x1="0.0037332321517169476" y1="1.0034379959106445" x2="0.9987562298774719" y2="1.0034379959106445" id="master_svg1_0_733"><stop offset="0%" stop-color="#51DFD4" stop-opacity="1"/><stop offset="100%" stop-color="#1BE068" stop-opacity="1"/></linearGradient><linearGradient x1="-0.0013863107888028026" y1="1.0021393299102783" x2="0.9992186427116394" y2="1.0021393299102783" id="master_svg2_0_736"><stop offset="0%" stop-color="#51DFD4" stop-opacity="1"/><stop offset="100%" stop-color="#1BE068" stop-opacity="1"/></linearGradient><linearGradient x1="0.018742797896265984" y1="0.9779898524284363" x2="0.9859583377838135" y2="0.9779898524284363" id="master_svg3_0_742"><stop offset="0%" stop-color="#FFD44F" stop-opacity="1"/><stop offset="100%" stop-color="#FFA607" stop-opacity="1"/></linearGradient><linearGradient x1="0.005013622343540192" y1="0.9948570728302002" x2="1.0007526874542236" y2="0.9948570728302002" id="master_svg4_0_685"><stop offset="0%" stop-color="#FFD44F" stop-opacity="1"/><stop offset="100%" stop-color="#FFA607" stop-opacity="1"/></linearGradient><linearGradient x1="-0.04540882632136345" y1="0.5145052671432495" x2="0.3587898015975952" y2="0.8224464058876038" id="master_svg5_0_691"><stop offset="0%" stop-color="#FAA404" stop-opacity="1"/><stop offset="100%" stop-color="#FF7904" stop-opacity="0.00009999999747378752"/></linearGradient><linearGradient x1="-1.1770882935024929e-8" y1="0.5416666865348816" x2="1.40625" y2="-0.2916666567325592" id="master_svg6_0_694"><stop offset="0%" stop-color="#FFFFFF" stop-opacity="1"/><stop offset="99.98999834060669%" stop-color="#FFB93C" stop-opacity="1"/><stop offset="100%" stop-color="#FFA607" stop-opacity="1"/></linearGradient></defs><g style="mix-blend-mode:passthrough"><g style="mix-blend-mode:passthrough"><g style="mix-blend-mode:passthrough"><path d="M47.29089491271973,87.359375C47.12889491271973,87.359375,46.96719491271973,87.358375,46.80569491271973,87.356375C46.80569491271973,87.356375,46.780694912719724,89.356175,46.780694912719724,89.356175C46.950494912719726,89.358275,47.120594912719724,89.359375,47.29089491271973,89.359375C47.29089491271973,89.359375,47.29089491271973,87.359375,47.29089491271973,87.359375C47.29089491271973,87.359375,47.29089491271973,87.359375,47.29089491271973,87.359375ZM41.03849491271973,86.847775C40.72019491271973,86.795075,40.40319491271973,86.738475,40.08749491271973,86.677975C40.08749491271973,86.677975,39.71089491271972,88.642175,39.71089491271972,88.642175C40.04319491271973,88.705875,40.376994912719724,88.765475,40.71209491271973,88.820875C40.71209491271973,88.820875,41.03849491271973,86.847775,41.03849491271973,86.847775C41.03849491271973,86.847775,41.03849491271973,86.847775,41.03849491271973,86.847775ZM34.50319491271973,85.156375C34.19969491271973,85.048175,33.89789491271973,84.936175,33.59799491271973,84.820475C33.59799491271973,84.820475,32.878294912719724,86.686475,32.878294912719724,86.686475C33.19409491271973,86.808275,33.51179491271972,86.926175,33.83139491271973,87.040175C33.83139491271973,87.040175,34.50319491271973,85.156375,34.50319491271973,85.156375C34.50319491271973,85.156375,34.50319491271973,85.156375,34.50319491271973,85.156375ZM28.370594912719728,82.332175C28.091194912719725,82.172075,27.813794912719725,82.008575,27.538694912719727,81.841575C27.538694912719727,81.841575,26.501194912719725,83.551475,26.501194912719725,83.551475C26.790694912719726,83.727075,27.082494912719728,83.899175,27.376494912719725,84.067575C27.376494912719725,84.067575,28.370594912719728,82.332175,28.370594912719728,82.332175C28.370594912719728,82.332175,28.370594912719728,82.332175,28.370594912719728,82.332175ZM22.827094912719726,78.473775C22.579794912719727,78.267375,22.335094912719725,78.057875,22.092994912719725,77.845375C22.092994912719725,77.845375,20.773694912719726,79.348475,20.773694912719726,79.348475C21.028194912719727,79.571875,21.285494912719727,79.792175,21.54559491271973,80.009175C21.54559491271973,80.009175,22.827094912719726,78.473775,22.827094912719726,78.473775C22.827094912719726,78.473775,22.827094912719726,78.473775,22.827094912719726,78.473775ZM18.035394912719724,73.710775C17.82749491271973,73.464775,17.622594912719727,73.216075,17.420694912719725,72.964875C17.420694912719725,72.964875,15.861754912719727,74.217875,15.861754912719727,74.217875C16.074004912719726,74.481875,16.289434912719727,74.743275,16.507994912719727,75.001775C16.507994912719727,75.001775,18.035394912719724,73.710775,18.035394912719724,73.710775C18.035394912719724,73.710775,18.035394912719724,73.710775,18.035394912719724,73.710775ZM14.135624912719727,68.192875C13.973234912719725,67.914975,13.814144912719726,67.63477499999999,13.658434912719727,67.352475C13.658434912719727,67.352475,11.907154912719726,68.318375,11.907154912719726,68.318375C12.070844912719727,68.615175,12.238064912719727,68.909675,12.408764912719725,69.201775C12.408764912719725,69.201775,14.135624912719727,68.192875,14.135624912719727,68.192875C14.135624912719727,68.192875,14.135624912719727,68.192875,14.135624912719727,68.192875ZM11.244374912719728,62.086075C11.132434912719727,61.784575,11.024084912719726,61.481375,10.919364912719725,61.176375C10.919364912719725,61.176375,9.027794912719727,61.825975,9.027794912719727,61.825975C9.137874912719727,62.146575,9.251784912719726,62.465275,9.369454912719727,62.782175C9.369454912719727,62.782175,11.244374912719728,62.086075,11.244374912719728,62.086075C11.244374912719728,62.086075,11.244374912719728,62.086075,11.244374912719728,62.086075ZM9.449104912719726,55.572875C9.390684912719728,55.256475,9.336044912719727,54.938675,9.285214912719727,54.619575C9.285214912719727,54.619575,7.310115912719727,54.934175,7.310115912719727,54.934175C7.363521912719727,55.269475,7.420945912719727,55.603475,7.482337912719727,55.935975C7.482337912719727,55.935975,9.449104912719726,55.572875,9.449104912719726,55.572875C9.449104912719726,55.572875,9.449104912719726,55.572875,9.449104912719726,55.572875ZM8.794814912719726,48.845075C8.792874912719727,48.683375,8.791894912719727,48.521475,8.791894912719727,48.359375C8.791894912719727,48.359375,6.791894912719727,48.359375,6.791894912719727,48.359375C6.791894912719727,48.529575,6.792919912719727,48.699475,6.7949639127197266,48.869175C6.7949639127197266,48.869175,8.794814912719726,48.845075,8.794814912719726,48.845075C8.794814912719726,48.845075,8.794814912719726,48.845075,8.794814912719726,48.845075ZM8.791894912719727,48.359375C8.791894912719727,48.197275,8.792874912719727,48.035375,8.794814912719726,47.873675C8.794814912719726,47.873675,6.7949639127197266,47.849575,6.7949639127197266,47.849575C6.792919912719727,48.019275,6.791894912719727,48.189175,6.791894912719727,48.359375C6.791894912719727,48.359375,8.791894912719727,48.359375,8.791894912719727,48.359375C8.791894912719727,48.359375,8.791894912719727,48.359375,8.791894912719727,48.359375ZM9.285214912719727,42.099175C9.336044912719727,41.780075,9.390684912719728,41.462275,9.449104912719726,41.145875C9.449104912719726,41.145875,7.482336912719727,40.782775,7.482336912719727,40.782775C7.420944912719727,41.115375,7.363520912719727,41.449275,7.310114912719727,41.784575C7.310114912719727,41.784575,9.285214912719727,42.099175,9.285214912719727,42.099175C9.285214912719727,42.099175,9.285214912719727,42.099175,9.285214912719727,42.099175ZM10.919364912719725,35.542375C11.024084912719726,35.237375,11.132434912719727,34.934174999999996,11.244364912719726,34.632675C11.244364912719726,34.632675,9.369444912719727,33.936575000000005,9.369444912719727,33.936575000000005C9.251774912719727,34.253475,9.137874912719727,34.572175,9.027784912719726,34.892775C9.027784912719726,34.892775,10.919364912719725,35.542375,10.919364912719725,35.542375C10.919364912719725,35.542375,10.919364912719725,35.542375,10.919364912719725,35.542375ZM13.658424912719727,29.366275C13.814144912719726,29.083975,13.973224912719726,28.803775,14.135624912719727,28.525875C14.135624912719727,28.525875,12.408764912719725,27.516975,12.408764912719725,27.516975C12.238064912719727,27.809075,12.070834912719727,28.103575,11.907154912719726,28.400375C11.907154912719726,28.400375,13.658424912719727,29.366275,13.658424912719727,29.366275C13.658424912719727,29.366275,13.658424912719727,29.366275,13.658424912719727,29.366275ZM17.42059491271973,23.753875C17.622594912719727,23.502675,17.82749491271973,23.253975,18.035394912719724,23.007975000000002C18.035394912719724,23.007975000000002,16.507984912719728,21.716974999999998,16.507984912719728,21.716974999999998C16.289434912719727,21.975475,16.074004912719726,22.236874999999998,15.861754912719727,22.500975C15.861754912719727,22.500975,17.42059491271973,23.753875,17.42059491271973,23.753875C17.42059491271973,23.753875,17.42059491271973,23.753875,17.42059491271973,23.753875ZM22.092994912719725,18.873375C22.335094912719725,18.660875,22.579794912719727,18.451475000000002,22.827094912719726,18.244975C22.827094912719726,18.244975,21.54559491271973,16.709575,21.54559491271973,16.709575C21.285494912719727,16.926625,21.028194912719727,17.146895,20.773694912719726,17.370275C20.773694912719726,17.370275,22.092994912719725,18.873375,22.092994912719725,18.873375C22.092994912719725,18.873375,22.092994912719725,18.873375,22.092994912719725,18.873375ZM27.538694912719727,14.877144999999999C27.813794912719725,14.710215,28.091194912719725,14.546685,28.370594912719728,14.386585C28.370594912719728,14.386585,27.376494912719725,12.651145,27.376494912719725,12.651145C27.082494912719728,12.819595,26.790694912719726,12.991665000000001,26.501194912719725,13.167285C26.501194912719725,13.167285,27.538694912719727,14.877144999999999,27.538694912719727,14.877144999999999C27.538694912719727,14.877144999999999,27.538694912719727,14.877144999999999,27.538694912719727,14.877144999999999ZM33.59799491271973,11.898315C33.89789491271973,11.782625,34.19969491271973,11.670625000000001,34.50319491271973,11.562375C34.50319491271973,11.562375,33.83139491271973,9.678605000000001,33.83139491271973,9.678605000000001C33.51179491271972,9.792575,33.19409491271973,9.910485,32.878294912719724,10.032275C32.878294912719724,10.032275,33.59799491271973,11.898315,33.59799491271973,11.898315C33.59799491271973,11.898315,33.59799491271973,11.898315,33.59799491271973,11.898315ZM40.08749491271973,10.040805C40.40319491271973,9.980285,40.72019491271973,9.923675,41.03849491271973,9.871005C41.03849491271973,9.871005,40.71209491271973,7.897828,40.71209491271973,7.897828C40.376994912719724,7.953267,40.04319491271973,8.012871,39.71089491271972,8.076587C39.71089491271972,8.076587,40.08749491271973,10.040805,40.08749491271973,10.040805C40.08749491271973,10.040805,40.08749491271973,10.040805,40.08749491271973,10.040805ZM46.80569491271973,9.362404999999999C46.96719491271973,9.360385,47.12889491271973,9.359375,47.29089491271973,9.359375C47.29089491271973,9.359375,47.29089491271973,7.359375,47.29089491271973,7.359375C47.120594912719724,7.359375,46.950494912719726,7.36044,46.78059491271973,7.362564C46.78059491271973,7.362564,46.80569491271973,9.362404999999999,46.80569491271973,9.362404999999999C46.80569491271973,9.362404999999999,46.80569491271973,9.362404999999999,46.80569491271973,9.362404999999999ZM47.29089491271973,9.359375C47.45289491271973,9.359375,47.614594912719724,9.360385,47.77609491271973,9.362404999999999C47.77609491271973,9.362404999999999,47.801094912719726,7.362564,47.801094912719726,7.362564C47.631294912719724,7.36044,47.461194912719726,7.359375,47.29089491271973,7.359375C47.29089491271973,7.359375,47.29089491271973,9.359375,47.29089491271973,9.359375C47.29089491271973,9.359375,47.29089491271973,9.359375,47.29089491271973,9.359375ZM53.54329491271972,9.871005C53.861594912719724,9.923675,54.178594912719724,9.980285,54.494294912719724,10.040805C54.494294912719724,10.040805,54.87089491271973,8.076587,54.87089491271973,8.076587C54.538594912719724,8.012871,54.20479491271973,7.953266,53.86969491271973,7.897827C53.86969491271973,7.897827,53.54329491271972,9.871005,53.54329491271972,9.871005C53.54329491271972,9.871005,53.54329491271972,9.871005,53.54329491271972,9.871005ZM60.07849491271973,11.562375C60.381994912719726,11.670625000000001,60.683794912719726,11.782625,60.98379491271972,11.898315C60.98379491271972,11.898315,61.70349491271973,10.032275,61.70349491271973,10.032275C61.387694912719724,9.910485,61.069894912719725,9.792575,60.75039491271973,9.678605000000001C60.75039491271973,9.678605000000001,60.07849491271973,11.562375,60.07849491271973,11.562375C60.07849491271973,11.562375,60.07849491271973,11.562375,60.07849491271973,11.562375ZM66.21109491271972,14.386585C66.49059491271973,14.546685,66.76789491271973,14.710215,67.04299491271973,14.877144999999999C67.04299491271973,14.877144999999999,68.08049491271973,13.167285,68.08049491271973,13.167285C67.79109491271973,12.991665000000001,67.49929491271973,12.819595,67.20519491271972,12.651145C67.20519491271972,12.651145,66.21109491271972,14.386585,66.21109491271972,14.386585C66.21109491271972,14.386585,66.21109491271972,14.386585,66.21109491271972,14.386585ZM71.75459491271972,18.244975C72.00189491271972,18.451475000000002,72.24669491271973,18.660875,72.48869491271972,18.873375C72.48869491271972,18.873375,73.80809491271972,17.370275,73.80809491271972,17.370275C73.55359491271973,17.146895,73.29629491271973,16.926625,73.03619491271972,16.709575C73.03619491271972,16.709575,71.75459491271972,18.244975,71.75459491271972,18.244975C71.75459491271972,18.244975,71.75459491271972,18.244975,71.75459491271972,18.244975ZM76.54629491271973,23.007975000000002C76.75419491271973,23.253975,76.95919491271972,23.502675,77.16109491271973,23.753875C77.16109491271973,23.753875,78.71999491271973,22.500975,78.71999491271973,22.500975C78.50779491271973,22.236874999999998,78.29229491271973,21.975475,78.07379491271972,21.716974999999998C78.07379491271972,21.716974999999998,76.54629491271973,23.007975000000002,76.54629491271973,23.007975000000002C76.54629491271973,23.007975000000002,76.54629491271973,23.007975000000002,76.54629491271973,23.007975000000002ZM80.44609491271973,28.525875C80.60849491271972,28.803775,80.76759491271973,29.083975,80.92329491271973,29.366275C80.92329491271973,29.366275,82.67459491271973,28.400375,82.67459491271973,28.400375C82.51089491271972,28.103575,82.34369491271973,27.809075,82.17299491271973,27.516975C82.17299491271973,27.516975,80.44609491271973,28.525875,80.44609491271973,28.525875C80.44609491271973,28.525875,80.44609491271973,28.525875,80.44609491271973,28.525875ZM83.33739491271973,34.632675C83.44929491271972,34.934174999999996,83.55769491271973,35.237375,83.66239491271973,35.542375C83.66239491271973,35.542375,85.55399491271973,34.892775,85.55399491271973,34.892775C85.44389491271973,34.572175,85.32999491271973,34.253475,85.21229491271973,33.936575000000005C85.21229491271973,33.936575000000005,83.33739491271973,34.632675,83.33739491271973,34.632675C83.33739491271973,34.632675,83.33739491271973,34.632675,83.33739491271973,34.632675ZM85.13269491271973,41.145875C85.19109491271972,41.462275,85.24569491271973,41.780075,85.29649491271972,42.099175C85.29649491271972,42.099175,87.27169491271972,41.784575,87.27169491271972,41.784575C87.21819491271972,41.449275,87.16079491271972,41.115275,87.09939491271973,40.782775C87.09939491271973,40.782775,85.13269491271973,41.145875,85.13269491271973,41.145875C85.13269491271973,41.145875,85.13269491271973,41.145875,85.13269491271973,41.145875ZM85.78689491271973,47.873675C85.78889491271973,48.035375,85.78989491271973,48.197275,85.78989491271973,48.359375C85.78989491271973,48.359375,87.78989491271973,48.359375,87.78989491271973,48.359375C87.78989491271973,48.189175,87.78879491271972,48.019275,87.78679491271973,47.849575C87.78679491271973,47.849575,85.78689491271973,47.873675,85.78689491271973,47.873675C85.78689491271973,47.873675,85.78689491271973,47.873675,85.78689491271973,47.873675ZM85.78989491271973,48.359375C85.78989491271973,48.521475,85.78889491271973,48.683375,85.78689491271973,48.845075C85.78689491271973,48.845075,87.78679491271973,48.869175,87.78679491271973,48.869175C87.78879491271972,48.699475,87.78989491271973,48.529575,87.78989491271973,48.359375C87.78989491271973,48.359375,85.78989491271973,48.359375,85.78989491271973,48.359375C85.78989491271973,48.359375,85.78989491271973,48.359375,85.78989491271973,48.359375ZM85.29649491271972,54.619575C85.24569491271973,54.938675,85.19109491271972,55.256475,85.13269491271973,55.572875C85.13269491271973,55.572875,87.09939491271973,55.935975,87.09939491271973,55.935975C87.16079491271972,55.603475,87.21819491271972,55.269475,87.27169491271972,54.934175C87.27169491271972,54.934175,85.29649491271972,54.619575,85.29649491271972,54.619575C85.29649491271972,54.619575,85.29649491271972,54.619575,85.29649491271972,54.619575ZM83.66239491271973,61.176375C83.55769491271973,61.481375,83.44929491271972,61.784575,83.33739491271973,62.086075C83.33739491271973,62.086075,85.21229491271973,62.782175,85.21229491271973,62.782175C85.32999491271973,62.465275,85.44389491271973,62.146575,85.55399491271973,61.825975C85.55399491271973,61.825975,83.66239491271973,61.176375,83.66239491271973,61.176375C83.66239491271973,61.176375,83.66239491271973,61.176375,83.66239491271973,61.176375ZM80.92329491271973,67.352475C80.76759491271973,67.63477499999999,80.60849491271972,67.914975,80.44609491271973,68.192875C80.44609491271973,68.192875,82.17299491271973,69.201775,82.17299491271973,69.201775C82.34369491271973,68.909675,82.51089491271972,68.615175,82.67459491271973,68.318375C82.67459491271973,68.318375,80.92329491271973,67.352475,80.92329491271973,67.352475C80.92329491271973,67.352475,80.92329491271973,67.352475,80.92329491271973,67.352475ZM77.16109491271973,72.964875C76.95919491271972,73.216075,76.75419491271973,73.464775,76.54629491271973,73.710775C76.54629491271973,73.710775,78.07379491271972,75.001775,78.07379491271972,75.001775C78.29229491271973,74.743275,78.50779491271973,74.481875,78.71999491271973,74.217775C78.71999491271973,74.217775,77.16109491271973,72.964875,77.16109491271973,72.964875C77.16109491271973,72.964875,77.16109491271973,72.964875,77.16109491271973,72.964875ZM72.48869491271972,77.845375C72.24669491271973,78.057875,72.00189491271972,78.267375,71.75459491271972,78.473775C71.75459491271972,78.473775,73.03619491271972,80.009175,73.03619491271972,80.009175C73.29629491271973,79.792175,73.55359491271973,79.571875,73.80809491271972,79.348475C73.80809491271972,79.348475,72.48869491271972,77.845375,72.48869491271972,77.845375C72.48869491271972,77.845375,72.48869491271972,77.845375,72.48869491271972,77.845375ZM67.04299491271973,81.841575C66.76789491271973,82.008575,66.49059491271973,82.172075,66.21109491271972,82.332175C66.21109491271972,82.332175,67.20519491271972,84.067575,67.20519491271972,84.067575C67.49929491271973,83.899175,67.79109491271973,83.727075,68.08049491271973,83.551475C68.08049491271973,83.551475,67.04299491271973,81.841575,67.04299491271973,81.841575C67.04299491271973,81.841575,67.04299491271973,81.841575,67.04299491271973,81.841575ZM60.98379491271972,84.820475C60.683794912719726,84.936175,60.381994912719726,85.048175,60.07849491271973,85.156375C60.07849491271973,85.156375,60.75039491271973,87.040175,60.75039491271973,87.040175C61.069894912719725,86.926175,61.387694912719724,86.808275,61.70349491271973,86.686475C61.70349491271973,86.686475,60.98379491271972,84.820475,60.98379491271972,84.820475C60.98379491271972,84.820475,60.98379491271972,84.820475,60.98379491271972,84.820475ZM54.494294912719724,86.677975C54.178594912719724,86.738475,53.861594912719724,86.795075,53.54329491271972,86.847775C53.54329491271972,86.847775,53.86969491271973,88.820875,53.86969491271973,88.820875C54.20479491271973,88.765475,54.538594912719724,88.705875,54.87089491271973,88.642175C54.87089491271973,88.642175,54.494294912719724,86.677975,54.494294912719724,86.677975C54.494294912719724,86.677975,54.494294912719724,86.677975,54.494294912719724,86.677975ZM47.77609491271973,87.356375C47.614594912719724,87.358375,47.45289491271973,87.359375,47.29089491271973,87.359375C47.29089491271973,87.359375,47.29089491271973,89.359375,47.29089491271973,89.359375C47.461194912719726,89.359375,47.631294912719724,89.358275,47.801094912719726,89.356175C47.801094912719726,89.356175,47.77609491271973,87.356375,47.77609491271973,87.356375C47.77609491271973,87.356375,47.77609491271973,87.356375,47.77609491271973,87.356375Z" fill="#EAEEF9" fill-opacity="1"/></g><g style="mix-blend-mode:passthrough"><path d="M80.38854199752808,48.359350985717775C80.38854199752808,56.08825098571777,77.80074199752808,63.20005098571777,73.50984199752807,68.94245098571778C71.19464199752807,72.02045098571777,68.26644199752808,74.68485098571777,64.99734199752808,76.80685098571777C59.68544199752807,80.29155098571778,53.35194199752807,82.33905098571778,46.54174199752808,82.33905098571778C27.813541997528077,82.33905098571778,12.694941997528076,67.09155098571777,12.694941997528076,48.359350985717775C12.694941997528076,29.552650985717776,27.813541997528077,14.305150985717773,46.54174199752808,14.305150985717773C53.35194199752807,14.305150985717773,59.68544199752807,16.359390985717774,64.99734199752808,19.776340985717773C68.26644199752808,21.898370985717772,71.12614199752807,24.630550985717775,73.50984199752807,27.70855098571777C77.86854199752807,33.450950985717775,80.38854199752808,40.630550985717775,80.38854199752808,48.359350985717775C80.38854199752808,48.359350985717775,80.38854199752808,48.359350985717775,80.38854199752808,48.359350985717775Z" fill="#EAEEF9" fill-opacity="1"/></g><g style="mix-blend-mode:passthrough"><path d="M20.281380205993653,14.108533325881957C20.88952020599365,13.911923325881958,21.221720205993652,13.254293325881958,21.024430205993653,12.644128325881958C20.82647020599365,12.033959325881957,20.17359020599365,11.701755325881958,19.565450205993653,11.898366025881957C18.957315205993652,12.094976325881959,18.62443420599365,12.752603325881958,18.822399605993652,13.362773325881959C19.019688205993653,13.972943325881959,19.673247205993654,14.305143325881957,20.281380205993653,14.108533325881957C20.281380205993653,14.108533325881957,20.281380205993653,14.108533325881957,20.281380205993653,14.108533325881957Z" fill="#EAEEF9" fill-opacity="1"/></g><g style="mix-blend-mode:passthrough"><path d="M7.2508714059810835,52.739041821289064C7.859011405981083,52.542431821289064,8.191211405981083,51.88480182128906,7.993921405981084,51.27463482128906C7.795961405981084,50.664464821289066,7.143081405981083,50.32548182128906,6.534941405981083,50.528871821289066C5.926806405981083,50.725481821289065,5.593925405981083,51.38310882128906,5.791890805981083,51.99328182128906C5.9891794059810834,52.60345182128906,6.642738405981083,52.93565182128906,7.2508714059810835,52.739041821289064C7.2508714059810835,52.739041821289064,7.2508714059810835,52.739041821289064,7.2508714059810835,52.739041821289064Z" fill="#EAEEF9" fill-opacity="1"/></g><g style="mix-blend-mode:passthrough" filter="url(#master_svg0_0_5465)"><path d="M67.78921907348632,20.732233378601073C67.78921907348632,20.732233378601073,67.78921907348632,75.70853337860108,67.78921907348632,75.70853337860108C67.78921907348632,77.21363337860107,66.56341907348633,78.44753337860107,65.06511907348633,78.44753337860107C65.06511907348633,78.44753337860107,26.72408907348633,78.44753337860107,26.72408907348633,78.44753337860107C25.22577907348633,78.44753337860107,24.000019073486328,77.21363337860107,24.000019073486328,75.70853337860108C24.000019073486328,75.70853337860108,24.000019073486328,20.732233378601073,24.000019073486328,20.732233378601073C24.000019073486328,19.233933378601073,25.22577907348633,18.000033378601074,26.72408907348633,18.000033378601074C26.72408907348633,18.000033378601074,65.13361907348633,18.000033378601074,65.13361907348633,18.000033378601074C66.63191907348633,18.000033378601074,67.78921907348632,19.233933378601073,67.78921907348632,20.732233378601073C67.78921907348632,20.732233378601073,67.78921907348632,20.732233378601073,67.78921907348632,20.732233378601073Z" fill="#FFFFFF" fill-opacity="1"/></g><g style="mix-blend-mode:passthrough"><path d="M29.7884989251709,35.36952925354004C29.5159559251709,35.36952925354004,29.2434139251709,35.091558253540036,29.2434139251709,34.820372253540036C29.2434139251709,34.54918525354004,29.5159559251709,34.27121925354004,29.7884989251709,34.27121925354004C29.7884989251709,34.27121925354004,62.0007139251709,34.27121925354004,62.0007139251709,34.27121925354004C62.2732139251709,34.27121925354004,62.5458139251709,34.54918525354004,62.5458139251709,34.820372253540036C62.5458139251709,35.091558253540036,62.2732139251709,35.36952925354004,62.0007139251709,35.36952925354004C62.0007139251709,35.36952925354004,29.2434139251709,35.091558253540036,29.7884989251709,35.36952925354004C29.7884989251709,35.36952925354004,29.7884989251709,35.36952925354004,29.7884989251709,35.36952925354004Z" fill="#CED7E2" fill-opacity="1"/></g><g style="mix-blend-mode:passthrough"><path d="M29.7884989251709,39.47126403930664C29.5159559251709,39.47126403930664,29.2434139251709,39.20007303930664,29.2434139251709,38.92210703930664C29.2434139251709,38.65092003930664,29.5159559251709,38.37973403930664,29.7884989251709,38.37973403930664C29.7884989251709,38.37973403930664,62.0007139251709,38.37973403930664,62.0007139251709,38.37973403930664C62.2732139251709,38.37973403930664,62.5458139251709,38.65092003930664,62.5458139251709,38.92210703930664C62.5458139251709,39.20007303930664,62.2732139251709,39.47126403930664,62.0007139251709,39.47126403930664C62.0007139251709,39.47126403930664,29.2434139251709,39.20007303930664,29.7884989251709,39.47126403930664C29.7884989251709,39.47126403930664,29.7884989251709,39.47126403930664,29.7884989251709,39.47126403930664Z" fill="#CED7E2" fill-opacity="1"/></g><g style="mix-blend-mode:passthrough"><path d="M29.7884989251709,43.57294860961914C29.5159559251709,43.57294860961914,29.2434139251709,43.30175760961914,29.2434139251709,43.02379160961914C29.2434139251709,42.75260460961914,29.5159559251709,42.48141860961914,29.7884989251709,42.48141860961914C29.7884989251709,42.48141860961914,62.0007139251709,42.48141860961914,62.0007139251709,42.48141860961914C62.2732139251709,42.48141860961914,62.5458139251709,42.75260460961914,62.5458139251709,43.02379160961914C62.5458139251709,43.30175760961914,62.2732139251709,43.57294860961914,62.0007139251709,43.57294860961914C62.0007139251709,43.57294860961914,29.2434139251709,43.30175760961914,29.7884989251709,43.57294860961914C29.7884989251709,43.57294860961914,29.7884989251709,43.57294860961914,29.7884989251709,43.57294860961914Z" fill="#CED7E2" fill-opacity="1"/></g><g style="mix-blend-mode:passthrough"><path d="M29.7884989251709,47.74241653564453C29.5159559251709,47.74241653564453,29.2434139251709,47.47122553564453,29.2434139251709,47.20003953564453C29.2434139251709,46.92207253564453,29.5159559251709,46.65088653564453,29.7884989251709,46.65088653564453C29.7884989251709,46.65088653564453,62.0007139251709,46.65088653564453,62.0007139251709,46.65088653564453C62.2732139251709,46.65088653564453,62.5458139251709,46.92207253564453,62.5458139251709,47.20003953564453C62.5458139251709,47.47122553564453,62.2732139251709,47.74241653564453,62.0007139251709,47.74241653564453C62.0007139251709,47.74241653564453,29.2434139251709,47.47122553564453,29.7884989251709,47.74241653564453C29.7884989251709,47.74241653564453,29.7884989251709,47.74241653564453,29.7884989251709,47.74241653564453Z" fill="#CED7E2" fill-opacity="1"/></g><g style="mix-blend-mode:passthrough"><path d="M29.7884989251709,51.84414688232422C29.5159559251709,51.84414688232422,29.2434139251709,51.572955882324216,29.2434139251709,51.301769882324216C29.2434139251709,51.02380288232422,29.5159559251709,50.75261688232422,29.7884989251709,50.75261688232422C29.7884989251709,50.75261688232422,62.0007139251709,50.75261688232422,62.0007139251709,50.75261688232422C62.2732139251709,50.75261688232422,62.5458139251709,51.02380288232422,62.5458139251709,51.301769882324216C62.5458139251709,51.572955882324216,62.2732139251709,51.84414688232422,62.0007139251709,51.84414688232422C62.0007139251709,51.84414688232422,29.2434139251709,51.572955882324216,29.7884989251709,51.84414688232422C29.7884989251709,51.84414688232422,29.7884989251709,51.84414688232422,29.7884989251709,51.84414688232422Z" fill="#CED7E2" fill-opacity="1"/></g><g style="mix-blend-mode:passthrough"><path d="M29.7884989251709,55.94583145263672C29.5159559251709,55.94583145263672,29.2434139251709,55.674640452636716,29.2434139251709,55.403454452636716C29.2434139251709,55.12548745263672,29.5159559251709,54.85430145263672,29.7884989251709,54.85430145263672C29.7884989251709,54.85430145263672,43.953913925170895,54.85430145263672,43.953913925170895,54.85430145263672C44.2258139251709,54.85430145263672,44.4983139251709,55.12548745263672,44.4983139251709,55.403454452636716C44.4983139251709,55.674640452636716,44.2258139251709,55.94583145263672,43.953913925170895,55.94583145263672C43.953913925170895,55.94583145263672,29.2434139251709,55.674640452636716,29.7884989251709,55.94583145263672C29.7884989251709,55.94583145263672,29.7884989251709,55.94583145263672,29.7884989251709,55.94583145263672Z" fill="#CED7E2" fill-opacity="1"/></g><g style="mix-blend-mode:passthrough"><path d="M53.41973757324219,25.04414932861328C53.41973757324219,25.04414932861328,38.36951857324219,25.04414932861328,38.36951857324219,25.04414932861328C38.02917957324219,25.04414932861328,37.75663757324219,24.77296132861328,37.75663757324219,24.42719832861328C37.75663757324219,24.08821532861328,38.02917957324219,23.81024932861328,38.36951857324219,23.81024932861328C38.36951857324219,23.81024932861328,53.41973757324219,23.81024932861328,53.41973757324219,23.81024932861328C53.76073757324219,23.81024932861328,54.03253757324219,24.08821532861328,54.03253757324219,24.42719832861328C54.03253757324219,24.77296132861328,53.76073757324219,25.04414932861328,53.41973757324219,25.04414932861328C53.41973757324219,25.04414932861328,53.41973757324219,25.04414932861328,53.41973757324219,25.04414932861328Z" fill="#CED7E2" fill-opacity="1"/></g><g style="mix-blend-mode:passthrough"><path d="M49.60612805908203,28.257701803588866C49.60612805908203,28.257701803588866,42.18307905908203,28.257701803588866,42.18307905908203,28.257701803588866C41.84274005908203,28.257701803588866,41.57019805908203,27.986513803588867,41.57019805908203,27.640750803588865C41.57019805908203,27.301767803588866,41.84274005908203,27.023801803588867,42.18307905908203,27.023801803588867C42.18307905908203,27.023801803588867,49.60612805908203,27.023801803588867,49.60612805908203,27.023801803588867C49.94646805908203,27.023801803588867,50.21900805908203,27.301767803588866,50.21900805908203,27.640750803588865C50.21900805908203,27.986513803588867,49.94646805908203,28.257701803588866,49.60612805908203,28.257701803588866C49.60612805908203,28.257701803588866,49.60612805908203,28.257701803588866,49.60612805908203,28.257701803588866Z" fill="#CED7E2" fill-opacity="1"/></g><g style="mix-blend-mode:passthrough"><path d="M59.41293829345703,68.461084296875C59.41293829345703,68.461084296875,59.395938293457036,68.340974296875,59.395938293457036,68.340974296875C59.26973829345703,67.447964296875,59.17993829345703,66.81179429687501,58.52743829345703,66.617034296875C57.79153829345703,66.429294296875,57.39743829345703,67.024104296875,56.90433829345703,67.768434296875C56.667338293457036,68.126064296875,56.407528293457034,68.518214296875,56.075958293457035,68.874664296875C55.81909829345703,69.130494296875,55.484628293457035,69.347714296875,55.160258293457034,69.558374296875C55.05483829345703,69.626834296875,54.95047829345703,69.694614296875,54.850198293457034,69.762784296875C54.71391829345703,69.830594296875,54.441378293457035,69.966184296875,54.37358829345703,69.695004296875C54.20336829345703,69.182674296875,54.24576829345703,69.148954296875,54.58350829345703,68.880464296875C54.786558293457034,68.719024296875,55.096348293457034,68.472714296875,55.53086829345703,67.986544296875C56.075958293457035,67.369564296875,56.41629829345703,66.617034296875,56.28002829345703,65.728914296875C56.21222829345703,65.179744296875,55.87188829345703,64.698394296875,55.326808293457034,64.494994296875C54.78171829345703,64.291624296875,54.23730829345703,64.359404296875,53.82849829345703,64.840754296875C53.08457829345703,65.745544296875,53.08722829345703,66.361264296875,53.091718293457035,67.400144296875C53.09297829345703,67.692414296875,53.094378293457034,68.018184296875,53.07934829345703,68.393314296875C53.07934829345703,68.528894296875,53.01154829345703,68.664484296875,52.87527829345703,68.732294296875C51.92205829345703,69.281434296875,50.900368293457035,69.627194296875,49.74239829345703,69.762784296875C49.74239829345703,69.762784296875,49.74239829345703,69.695004296875,49.74239829345703,69.695004296875C49.76991829345703,69.658174296875,49.79867829345703,69.620084296875,49.82852829345703,69.580714296875C49.82852829345703,69.580714296875,49.89334829345703,69.495424296875,49.89334829345703,69.495424296875C50.537498293457034,68.648434296875,51.60191829345703,67.248844296875,51.85358829345703,64.976344296875C51.98985829345703,64.020414296875,51.98985829345703,63.125514296875,51.51324829345703,62.237364296875C50.62781829345703,60.596709296875,48.24408829345703,60.806853296875,47.154601293457034,62.786524296875C46.065109293457034,64.908564296875,46.269177293457034,68.189914296875,47.76747829345703,70.033994296875C47.65559829345703,70.123134296875,47.55103829345703,70.213014296875,47.44899229345703,70.300754296875C47.44899229345703,70.300754296875,47.44876729345703,70.300934296875,47.44876729345703,70.300934296875C47.24048029345703,70.479984296875,47.042634293457034,70.650054296875,46.814262293457034,70.786524296875C46.609516293457034,70.922114296875,46.54171949345703,71.267904296875,46.67799129345703,71.471304296875C46.814262293457034,71.742504296875,47.22239829345703,71.810204296875,47.49493829345703,71.606904296875C48.489168293457034,70.796384296875,48.51963829345703,70.781984296875,48.620928293457034,70.734104296875C48.620928293457034,70.734104296875,48.63522829345703,70.727324296875,48.63522829345703,70.727324296875C48.64077829345703,70.724674296875,48.646628293457034,70.721834296875,48.65290829345703,70.71871429687499C48.78892829345703,70.673524296875,48.925258293457034,70.688594296875,49.06148829345703,70.703644296875C49.06148829345703,70.703644296875,49.06161829345703,70.703644296875,49.06161829345703,70.703644296875C49.06161829345703,70.703644296875,49.061698293457034,70.703644296875,49.061698293457034,70.703644296875C49.12976829345703,70.711184296875,49.19781829345703,70.71871429687499,49.26578829345703,70.71871429687499C49.95687829345703,70.71871429687499,50.41602829345703,70.661044296875,50.91096829345703,70.598844296875C50.91096829345703,70.598844296875,51.03663829345703,70.583124296875,51.03663829345703,70.583124296875C51.17960829345703,70.547574296875,51.75354829345703,70.342224296875,52.27674829345703,70.155024296875C52.27674829345703,70.155024296875,52.27931829345703,70.154114296875,52.27931829345703,70.154114296875C52.75246829345703,69.984804296875,53.18344829345703,69.830594296875,53.215618293457034,69.830594296875C53.215618293457034,69.830594296875,53.215618293457034,69.898374296875,53.28408829345703,69.966184296875C53.48815829345703,70.71871429687499,53.89697829345703,70.989924296875,54.71391829345703,70.922114296875C55.326808293457034,70.854304296875,55.87188829345703,70.583124296875,56.34849829345703,70.169584296875C56.892938293457036,69.627194296875,57.77833829345703,68.528894296875,58.25493829345703,67.911954296875C58.32003829345703,68.141814296875,58.35403829345703,68.356204296875,58.38663829345703,68.561764296875C58.42223829345703,68.786714296875,58.456238293457034,69.001094296875,58.52743829345703,69.213654296875C58.800038293457035,69.966184296875,59.549138293457034,70.10177429687499,60.02573829345703,69.484834296875C60.24553829345703,69.238794296875,60.40993829345703,68.958584296875,60.56793829345703,68.689114296875C60.80193829345703,68.290284296875,61.02203829345703,67.914914296875,61.38783829345703,67.708554296875C61.59253829345703,67.640774296875,61.72813829345703,67.437374296875,61.72813829345703,67.233974296875C61.72813829345703,66.82043429687499,61.32003829345703,66.617034296875,60.97903829345703,66.752624296875C60.23053829345703,67.091614296875,59.82173829345703,67.776364296875,59.41293829345703,68.461084296875C59.41293829345703,68.461084296875,59.41293829345703,68.461084296875,59.41293829345703,68.461084296875ZM48.652918293457034,69.417084296875C48.10783829345703,68.732364296875,47.903768293457034,67.986574296875,47.76749829345703,67.159454296875C47.49495829345703,65.932344296875,47.63122829345703,64.698454296875,48.10783829345703,63.539124296875C48.38037829345703,62.922174296875,48.72071829345703,62.447604296875,49.402068293457035,62.305234296875C50.08274829345703,62.169644296875,50.56003829345703,62.305234296875,50.695628293457034,62.989984296875C51.24071829345703,65.315394296875,50.287498293457034,67.573024296875,48.652918293457034,69.417084296875C48.652918293457034,69.417084296875,48.652918293457034,69.417084296875,48.652918293457034,69.417084296875ZM55.19054829345703,66.135714296875C55.259028293457035,65.796754296875,54.78173829345703,65.044184296875,54.37359829345703,65.86453429687501C54.10105829345703,66.481474296875,54.10105829345703,67.091644296875,54.168858293457035,67.776394296875C54.37359829345703,67.572994296875,54.509878293457035,67.437404296875,54.64614829345703,67.234034296875C54.64614829345703,67.234034296875,54.66727829345703,67.198244296875,54.66727829345703,67.198244296875C54.86422829345703,66.864774296875,55.058988293457034,66.535004296875,55.19054829345703,66.135714296875C55.19054829345703,66.135714296875,55.19054829345703,66.135714296875,55.19054829345703,66.135714296875Z" fill-rule="evenodd" fill="url(#master_svg1_0_733)" fill-opacity="1"/></g><g style="mix-blend-mode:passthrough"><path d="M86.10920287475585,44.12205439086914C85.15530287475586,45.48477439086914,84.20210287475587,46.78646439086914,83.38510287475586,48.22375439086914C82.22710287475586,50.135614390869144,81.61430287475586,49.59324439086914,78.75390287475585,50.48138439086914C78.75390287475585,50.48138439086914,81.34170287475587,51.09155439086914,81.34170287475587,51.09155439086914C81.40950287475586,51.09155439086914,81.40950287475586,51.09155439086914,81.47800287475586,51.16612439086914C81.61430287475586,51.30172439086914,81.68210287475586,51.50511439086914,81.54580287475586,51.64070439086914C81.13760287475586,52.32544439086914,80.72880287475586,52.87459439086914,80.32000287475586,53.48479439086914C77.25560287475585,57.59329439086914,72.76070287475586,60.393294390869144,67.72137287475586,61.349194390869144C67.04002287475586,61.48479439086914,66.42714287475586,61.966094390869145,66.15527287475587,62.58309439086914C65.54239287475586,63.81019439086914,64.99731287475586,65.04409439086913,64.38442287475586,66.27119439086914C64.18036287475586,66.61699439086914,63.77154587475586,66.82039439086914,63.36273187475586,66.61699439086914C62.95391857475586,66.41359439086914,62.81832537475586,65.93219439086914,62.95391857475586,65.59329439086915C63.29493587475586,64.84069439086915,63.63527487475586,64.08819439086915,63.97561287475586,63.40339439086914C64.04409287475586,63.26779439086914,64.04409287475586,63.199994390869136,64.11188287475586,63.057694390869145C64.24815287475586,62.58309439086914,64.11188287475586,62.033894390869136,63.97561287475586,61.559394390869144C63.90781287475586,61.349194390869144,63.83934187475586,61.21359439086914,63.83934187475586,61.010194390869145C63.56679987475586,60.12209439086914,63.36273187475586,59.16609439086914,63.36273187475586,58.20339439086914C63.36273187475586,57.11189439086914,63.56679987475586,55.95259439086914,63.83934187475586,54.85429439086914C64.24815287475586,53.07799439086914,64.99731287475586,51.36951439086914,66.01900287475586,49.86443439086914C66.01900287475586,49.796634390869144,66.08680287475586,49.796634390869144,66.08680287475586,49.796634390869144C66.15527287475587,49.796634390869144,66.29154287475586,49.796634390869144,66.29154287475586,49.93222439086914C66.35934287475585,50.20341439086914,66.42714287475586,50.41358439086914,66.56341287475585,50.75256439086914C66.69968287475587,50.135614390869144,66.90442287475585,49.45087439086914,67.17629287475586,48.69833439086914C67.24476287475586,48.42714439086914,67.44883287475587,48.15595439086914,67.65358287475586,47.87799439086914C68.74307287475585,46.78646439086914,69.96883287475586,45.83053439086914,71.33086287475587,45.01019439086914C71.33086287475587,45.01019439086914,71.39866287475586,45.01019439086914,71.39866287475586,45.01019439086914C71.46714287475587,45.01019439086914,71.53493287475587,45.077994390869144,71.53493287475587,45.14578439086914C71.53493287475587,45.55934439086914,71.53493287475587,46.03392439086914,71.53493287475587,46.44748439086914C72.08002287475585,45.62714439086914,72.69290287475586,44.94239439086914,73.37360287475586,44.189854390869144C73.57830287475586,43.98646439086914,73.85020287475587,43.77629439086914,74.12270287475586,43.64070439086914C76.37020287475586,42.82036339086914,78.89020287475586,42.41358409086914,81.40950287475586,42.48138071086914C82.90780287475586,42.54917729086914,84.40610287475586,42.75256739086914,85.76820287475586,43.09155039086914C85.83660287475585,43.09155039086914,85.83660287475585,43.09155039086914,85.90440287475586,43.09155039086914C85.90440287475586,43.09155039086914,85.97290287475586,43.09155039086914,85.97290287475586,43.09155039086914C86.51730287475586,43.43731339086914,86.51730287475586,43.57290439086914,86.10920287475585,44.12205439086914C86.10920287475585,44.12205439086914,86.10920287475585,44.12205439086914,86.10920287475585,44.12205439086914Z" fill="url(#master_svg2_0_736)" fill-opacity="1"/></g><g style="opacity:0.5;"><path d="M81.54576066894532,45.76275460180664C81.54576066894532,45.83055160180664,81.54576066894532,45.96614460180664,81.40956066894532,45.96614460180664C79.43466066894531,46.65089560180664,77.52816066894532,47.53902560180664,75.82516066894532,48.77292560180664C74.12276066894532,49.93224560180664,72.48817066894532,51.30173560180664,71.0583406689453,52.80682560180664C69.62783066894531,54.30512560180664,68.33427066894531,55.94578560180664,67.10851066894531,57.66108560180664C66.49563066894531,58.54918560180664,65.95054066894531,59.369485601806645,65.47393066894531,60.32548560180664C65.20139066894531,60.80678560180664,64.92885066894532,61.21358560180664,64.72478066894531,61.694985601806636C64.5885096689453,61.89838560180664,64.45223866894531,62.16948560180664,64.38444166894531,62.37968560180664C64.38444166894531,62.37968560180664,64.17969666894531,62.71868560180664,64.17969666894531,62.71868560180664C64.17969666894531,62.71868560180664,64.0434246689453,62.98988560180664,64.0434246689453,62.98988560180664C64.17969666894531,62.51528560180664,64.0434246689453,61.96618560180664,63.90783166894531,61.48478560180664C63.839357268945314,61.28138560180664,63.77156066894531,61.14578560180664,63.77156066894531,60.94238560180664C63.97562866894531,60.52888560180664,64.2481706689453,60.05428560180664,64.52071366894532,59.64068560180664C65.06512066894531,58.75258560180664,65.67800066894532,57.796685601806644,66.2908806689453,56.97628560180664C67.51665066894532,55.20004560180664,68.87868066894531,53.55258560180664,70.44546066894532,52.05428560180664C72.01156066894531,50.549195601806645,73.6461406689453,49.17970560180664,75.48476066894531,48.08817560180664C77.32346066894532,46.98987560180664,79.2983606689453,46.10173860180664,81.34176066894531,45.55258560180664C81.40956066894532,45.62716190180664,81.54576066894532,45.69495860180664,81.54576066894532,45.76275460180664C81.54576066894532,45.76275460180664,81.54576066894532,45.76275460180664,81.54576066894532,45.76275460180664Z" fill="#FFFFFF" fill-opacity="1"/></g><g style="mix-blend-mode:passthrough"><path d="M33.6983325024414,71.5729984375C34.242732502441406,71.9864984375,34.924092502441404,71.7085884375,35.400702502441405,71.2340084375C35.76720250244141,70.8658484375,36.133712502441405,70.8238484375,36.508152502441405,70.7809084375C36.89908250244141,70.7361184375,37.29868250244141,70.6903084375,37.71596250244141,70.27129843750001C37.988502502441406,70.0678984375,38.1247725024414,69.7289084375,38.1247725024414,69.3153684375C38.1247725024414,69.1119684375,38.1247725024414,68.9763784375,38.19324250244141,68.7729784375C38.39731250244141,68.2238484375,38.66985250244141,67.6746784375,39.010192502441406,67.2679084375C39.077992502441404,67.2000984375,39.14646250244141,66.9899284375,39.14646250244141,66.8543384375C39.1895125024414,66.3764684375,38.930762502441404,66.0653684375,38.6489925024414,65.7265884375C38.48703250244141,65.5318584375,38.31746250244141,65.3279984375,38.19324250244141,65.0780584375C38.056972502441404,64.7322984375,37.92070250244141,64.2577184375,37.92070250244141,63.8441784375C37.85223250244141,63.5051884375,37.64816250244141,63.1661984375,37.2393425024414,63.0238384375C36.894902502441404,62.9183384375,36.62269250244141,62.8846384375,36.3825625024414,62.8549494375C36.005402502441406,62.8082874375,35.70737250244141,62.7714224375,35.33290250244141,62.4814754375C35.06036250244141,62.2713004375,34.856292502441406,62.1357104375,34.651552502441405,62.0000904375C34.379012502441405,61.8645012475,34.107142502441405,61.7967216375,33.834602502441406,61.9323112375C33.43350250244141,62.0858754375,33.1722325024414,62.2686454375,32.9430725024414,62.4289544375C32.666352502441406,62.6225274375,32.436452502441405,62.7833554375,32.0637525024414,62.8204334375C31.961722502441408,62.8204334375,31.859512502441405,62.8374014375,31.75731250244141,62.8543694375C31.655112502441405,62.8713084375,31.552902502441405,62.8882484375,31.450872502441406,62.8882484375C30.905782502441408,62.8882484375,30.429172502441407,63.3017884375,30.292902502441407,63.8441784375C30.225109502441406,64.0543484375,30.225109502441406,64.2577184375,30.225109502441406,64.5289284375C30.225109502441406,65.1326284375,30.003697502441405,65.4425984375,29.723818502441407,65.8344384375C29.623391502441407,65.9750384375,29.515436502441407,66.1261584375,29.407482502441407,66.3051784375C29.067143502441407,66.9221484375,29.407482502441407,67.4034984375,29.884770502441405,67.9458584375C30.225109502441406,68.3594384375,30.429172502441407,68.8407884375,30.497652502441404,69.3153684375C30.497652502441404,69.5187384375,30.497652502441404,69.6611284375,30.565452502441406,69.8644984375C30.769512502441405,70.6170684375,31.383072502441408,70.6848484375,32.0637525024414,70.7526584375C32.608842502441405,70.8204384375,32.88070250244141,70.9560184375,33.6983325024414,71.5729984375C33.6983325024414,71.5729984375,33.6983325024414,71.5729984375,33.6983325024414,71.5729984375ZM35.94580250244141,69.7288784375C34.31122250244141,70.7525884375,32.26783250244141,70.3390484375,31.178342502441406,68.7729484375C31.178342502441406,68.7729484375,31.178342502441406,68.6983584375,31.110542502441405,68.6983584375C30.156648502441406,67.2000684375,30.565462502441406,65.0780284375,32.131562502441405,64.1220984375C33.698342502441406,63.0915784375,35.87732250244141,63.5051584375,36.899022502441404,65.0780284375C36.9668225024414,65.0780284375,36.9668225024414,65.1458084375,36.9668225024414,65.1458084375C37.920712502441404,66.6509084375,37.51190250244141,68.7729484375,35.94580250244141,69.7288784375C35.94580250244141,69.7288784375,35.94580250244141,69.7288784375,35.94580250244141,69.7288784375Z" fill-rule="evenodd" fill="#CED7E2" fill-opacity="1"/></g><g style="mix-blend-mode:passthrough"><path d="M32.47257269165039,64.59668134448242C33.76613269165039,63.70854634448242,35.53697269165039,64.05430874448243,36.49019269165039,65.41701934448243C37.37562269165039,66.65091934448242,37.035282691650394,68.35938934448242,35.80952269165039,69.24752934448242C35.80952269165039,69.24752934448242,35.74104269165039,69.31532934448242,35.74104269165039,69.31532934448242C34.44748269165039,70.20345934448243,32.67663269165039,69.79667934448243,31.723416691650392,68.49498934448242C30.837992691650392,67.26786934448242,31.17833189165039,65.55938934448243,32.40409269165039,64.66447834448242C32.40409269165039,64.59668134448242,32.40409269165039,64.59668134448242,32.47257269165039,64.59668134448242C32.47257269165039,64.59668134448242,32.47257269165039,64.59668134448242,32.47257269165039,64.59668134448242Z" fill="#CED7E2" fill-opacity="1"/></g><g style="mix-blend-mode:passthrough"><path d="M79.51052626367188,19.0576704196167C80.00408526367187,19.0576704196167,80.40408526367187,18.6508904196167,80.40408526367187,18.1491954196167C80.40408526367187,17.6542804196167,80.00408526367187,17.2475004196167,79.51052626367188,17.2475004196167C79.01764526367188,17.2475004196167,78.61764526367188,17.6542804196167,78.61764526367188,18.1491954196167C78.61764526367188,18.6508904196167,79.01764526367188,19.0576704196167,79.51052626367188,19.0576704196167C79.51052626367188,19.0576704196167,79.51052626367188,19.0576704196167,79.51052626367188,19.0576704196167Z" fill="url(#master_svg3_0_742)" fill-opacity="1"/></g><g style="mix-blend-mode:passthrough"><path d="M16.465791137695312,63.63393811523437C16.829851137695314,63.29495811523437,16.855621137695312,62.72546511523438,16.522741137695313,62.35936311523437C16.189851137695314,61.986482115234374,15.625109137695313,61.966143215234375,15.261041137695312,62.298346115234374C14.896973637695313,62.63732911523437,14.871210937695313,63.20681811523438,15.204092137695312,63.57969811523437C15.536973137695313,63.94580811523438,16.101721137695314,63.97291811523438,16.465791137695312,63.63393811523437C16.465791137695312,63.63393811523437,16.465791137695312,63.63393811523437,16.465791137695312,63.63393811523437Z" fill="#FFBE2C" fill-opacity="1"/></g><g style="mix-blend-mode:passthrough"><path d="M36.89698536315918,13.722076457138062C37.26104536315918,13.38309645713806,37.28613536315918,12.813603457138061,36.95325536315918,12.447501457138062C36.62104536315918,12.074620457138062,36.05562536315918,12.054281557138061,35.69155736315918,12.386484457138062C35.32748946315918,12.72546745713806,35.30240466315918,13.294956457138062,35.63460836315918,13.661056457138061C35.96748936315918,14.033946457138061,36.53223536315918,14.061056457138061,36.89698536315918,13.722076457138062C36.89698536315918,13.722076457138062,36.89698536315918,13.722076457138062,36.89698536315918,13.722076457138062Z" fill="#32D697" fill-opacity="1"/></g><g style="mix-blend-mode:passthrough"><path d="M77.75800177246094,83.46446674560546C78.12206177246094,83.12548674560547,78.14715177246094,82.55599374560546,77.81494177246094,82.18989174560546C77.48206177246094,81.82379014560547,76.91731877246093,81.79667154560546,76.55257277246093,82.12887474560547C76.18850547246093,82.46785774560547,76.16342067246094,83.03734674560548,76.49630177246094,83.41022674560547C76.82850577246094,83.77633674560546,77.39393177246093,83.80344674560547,77.75800177246094,83.46446674560546C77.75800177246094,83.46446674560546,77.75800177246094,83.46446674560546,77.75800177246094,83.46446674560546Z" fill="#32D697" fill-opacity="1"/></g><g style="mix-blend-mode:passthrough"><g style="mix-blend-mode:passthrough"><path d="M41.1264700430288,36.12100126836053C40.92627004302881,37.26140126836053,40.52527004302881,38.34180126836053,40.05777004302881,39.34880126836053C39.99057004302881,39.54890126836053,39.85697004302881,39.75570126836053,39.723270043028805,40.02240126836053C39.3229700430288,40.82940126836053,38.8554700430288,41.503001268360535,38.387270043028806,42.24320126836053C38.18707004302881,42.510001268360526,37.986970043028805,42.776701268360526,37.78607004302881,43.05020126836053C36.5172700430288,44.53070126836053,34.91387004302881,45.80450126836053,33.176870043028806,46.678101268360535C32.8430700430288,46.81820126836053,32.509270043028806,47.01830126836053,32.17477004302881,47.15160126836053C31.640770043028805,47.35170126836053,31.039570043028807,47.62520126836053,30.438370043028808,47.75850126836053C28.167370043028807,48.432101268360526,25.69557004302881,48.565501268360535,23.223670043028807,48.02530126836053C15.074010043028807,46.34470126836053,9.797150043028807,38.27510126836053,11.466992043028807,29.99880126836053C13.136830043028807,21.795861268360532,21.152860043028806,16.48062126836053,29.369770043028808,18.16122226836053C32.24187004302881,18.76810726836053,34.91387004302881,20.18195126836053,36.9847700430288,22.32939126836053C40.6589700430288,25.89734126836053,42.19507004302881,31.072501268360533,41.1264700430288,36.12100126836053C41.1264700430288,36.12100126836053,41.1264700430288,36.12100126836053,41.1264700430288,36.12100126836053Z" fill="url(#master_svg4_0_685)" fill-opacity="1"/></g><g style="mix-blend-mode:passthrough"><path d="M23.758057535934448,45.52580105819702C24.62655753593445,45.72530105819702,25.494357535934448,45.791801058197024,26.36285753593445,45.791801058197024C27.49865753593445,45.791801058197024,28.701057535934446,45.65880105819702,29.903357535934447,45.459201058197024C30.22555753593445,45.367601058197025,30.547757535934448,45.24120105819702,30.89185753593445,45.10620105819702C31.04715753593445,45.045301058197026,31.20685753593445,44.98260105819702,31.37305753593445,44.92060105819702C31.64035753593445,44.787601058197026,31.907757535934447,44.65460105819702,32.17435753593445,44.52160105819702C33.64405753593445,43.716901058197024,34.98005753593445,42.70610105819702,36.04935753593445,41.43590105819702C36.14735753593445,41.33500105819702,36.22935753593445,41.21980105819702,36.31105753593445,41.10510105819702C36.39635753593445,40.98540105819702,36.48115753593444,40.86610105819702,36.58335753593445,40.76430105819702C36.98435753593445,40.159101058197024,37.38545753593445,39.55400105819702,37.719257535934446,38.889001058197024C37.81075753593445,38.74780105819703,37.87085753593445,38.60970105819702,37.92115753593445,38.49400105819702C37.94425753593445,38.440801058197025,37.965357535934444,38.39220105819702,37.98655753593445,38.35030105819702C38.38695753593445,37.47910105819702,38.65425753593445,36.54150105819702,38.85445753593444,35.59720105819702C39.72295753593445,31.37430105819702,38.45405753593445,27.011871058197023,35.381057535934445,23.926231058197022C33.64405753593445,22.183901058197023,31.439557535934448,20.980236058197022,28.968357535934448,20.44157805819702C25.62805753593445,19.703417058197022,22.221187535934448,20.37507705819702,19.349007535934447,22.25040105819702C16.54332753593445,24.132381058197023,14.539657535934449,27.011871058197023,13.871322535934448,30.370201058197022C12.401647535934448,37.273001058197025,16.877167535934447,44.115901058197025,23.758057535934448,45.52580105819702C23.758057535934448,45.52580105819702,23.758057535934448,45.52580105819702,23.758057535934448,45.52580105819702ZM19.950057535934448,23.26126105819702C21.88722753593445,21.98444105819702,24.02455753593445,21.31278105819702,26.296257535934448,21.31278105819702C27.09755753593445,21.31278105819702,27.89955753593445,21.379291058197023,28.634457535934448,21.65194105819702C30.83825753593445,22.11745105819702,32.90905753593445,23.19476105819702,34.512457535934445,24.80409105819702C37.25165753593445,27.617081058197023,38.45395753593445,31.573901058197023,37.65195753593444,35.46420105819702C37.51825753593445,36.33540105819702,37.25165753593445,37.14000105819702,36.850657535934445,37.944701058197026C36.81735753593445,38.01120105819702,36.78395753593445,38.09600105819702,36.75055753593445,38.18080105819702C36.71715753593445,38.26550105819702,36.683657535934444,38.35030105819702,36.65045753593445,38.416801058197024C36.315957535934444,39.02200105819702,35.98215753593445,39.55400105819702,35.58115753593445,40.09270105819702C35.51425753593445,40.19300105819703,35.430257535934444,40.29490105819702,35.34625753593445,40.39690105819702C35.26315753593445,40.49770105819702,35.18005753593445,40.59860105819702,35.11365753593445,40.69780105819702C34.11205753593445,41.83500105819702,32.90905753593445,42.77270105819702,31.57305753593445,43.44430105819702C31.45445753593445,43.52320105819702,31.31215753593445,43.58100105819702,31.16025753593445,43.64270105819702C31.05595753593445,43.68510105819702,30.947157535934448,43.729301058197024,30.83825753593445,43.78350105819702C30.483757535934448,43.93470105819702,30.12935753593445,44.047801058197024,29.803857535934448,44.151601058197016C29.700057535934448,44.18470105819702,29.59925753593445,44.21680105819702,29.502257535934447,44.249001058197024C27.698757535934448,44.787601058197026,25.76155753593445,44.85410105819702,23.95805753593445,44.45510105819702C17.679047535934448,43.11180105819702,13.603865235934448,36.94050105819702,14.939867535934448,30.636201058197024C15.541037535934448,27.617081058197023,17.34454753593445,25.00359105819702,19.950057535934448,23.26126105819702C19.950057535934448,23.26126105819702,19.950057535934448,23.26126105819702,19.950057535934448,23.26126105819702Z" fill-rule="evenodd" fill="#F9B400" fill-opacity="1"/></g><g style="mix-blend-mode:passthrough"><path d="M40.028445515441895,40.1245186706543C39.624745515441894,40.8630186706543,39.220445515441895,41.535018670654296,38.74904551544189,42.20701867065429C38.54654551544189,42.4731186706543,38.34474551544189,42.7393186706543,38.14284551544189,43.012118670654296C36.86284551544189,44.489218670654296,35.24624551544189,45.7600186706543,33.495445515441894,46.6316186706543C33.15818551544189,46.7647186706543,32.821585515441896,46.9709186706543,32.48498551544189,47.1040186706543C31.945875515441895,47.3036186706543,30.715065515441893,48.012118670654296,30.108905515441894,48.15181867065429C30.108905515441894,48.15181867065429,23.403645515441895,40.8330186706543,23.403645515441895,40.8330186706543C23.403645515441895,40.8330186706543,24.981765515441893,40.1245186706543,24.981765515441893,40.1245186706543C24.981765515441893,40.1245186706543,26.421015515441894,38.3812186706543,26.421015515441894,38.3812186706543C26.421015515441894,38.3812186706543,26.421015515441894,35.842818670654296,26.421015515441894,35.842818670654296C26.421015515441894,35.842818670654296,26.756275515441896,34.1794786706543,26.756275515441896,34.1794786706543C26.756275515441896,34.1794786706543,27.091535515441894,31.185398670654298,25.652295515441896,31.185398670654298C27.091535515441894,31.185398670654298,27.091535515441894,29.189348670654297,27.091535515441894,29.189348670654297C27.091535515441894,29.189348670654297,28.432595515441896,26.195269670654298,28.432595515441896,26.195269670654298C28.432595515441896,26.195269670654298,31.449965515441896,25.529918670654297,31.449965515441896,25.529918670654297C31.449965515441896,25.529918670654297,40.83704551544189,38.3812186706543,40.83704551544189,38.3812186706543C40.7693455154419,38.580818670654295,40.09614551544189,39.8583186706543,40.028445515441895,40.1245186706543C40.028445515441895,40.1245186706543,40.028445515441895,40.1245186706543,40.028445515441895,40.1245186706543Z" fill="url(#master_svg5_0_691)" fill-opacity="1"/></g><g style="mix-blend-mode:passthrough" transform="matrix(1,0,0,-1,0,82.19091033935547)"><path d="M30.843879829711916,57.07605516967774C29.660659829711914,57.07605516967774,28.696539829711913,56.648355169677735,27.951549829711915,55.79035516967774C27.206559829711914,54.93245516967774,26.760609829711914,53.74605516967773,26.611089829711915,52.22615516967773C26.611089829711915,52.22615516967773,26.590469829711914,52.047955169677735,26.590469829711914,52.047955169677735C26.590469829711914,52.047955169677735,23.293429829711915,52.047955169677735,23.293429829711915,52.047955169677735C23.293429829711915,52.047955169677735,22.373149829711913,50.790145169677736,22.373149829711913,50.790145169677736C22.373149829711913,50.790145169677736,26.492509829711913,50.790145169677736,26.492509829711913,50.790145169677736C26.492509829711913,50.790145169677736,26.379079829711912,49.89663516967774,26.379079829711912,49.89663516967774C26.379079829711912,49.89663516967774,22.043176829711914,49.89663516967774,22.043176829711914,49.89663516967774C22.043176829711914,49.89663516967774,21.120309829711914,48.63885516967773,21.120309829711914,48.63885516967773C21.120309829711914,48.63885516967773,26.270819829711915,48.63885516967773,26.270819829711915,48.63885516967773C26.270819829711915,48.63885516967773,25.984679829711915,46.07523516967773,25.984679829711915,46.07523516967773C25.984679829711915,46.07523516967773,25.824839829711912,44.57315516967773,25.824839829711912,44.57315516967773C25.644399829711915,42.84448516967773,24.989629829711916,41.97888316967774,23.860539829711914,41.97888316967774C23.860539829711914,41.97888316967774,23.241869829711913,42.08835516967773,23.241869829711913,42.08835516967773C23.241869829711913,42.08835516967773,23.241869829711913,41.095455169677734,23.241869829711913,41.095455169677734C23.241869829711913,41.095455169677734,24.216279829711915,41.27876016967773,24.216279829711915,41.27876016967773C24.654509829711913,41.454427169677736,25.069549829711914,41.719205169677736,25.458799829711914,42.070540169677734C25.987249829711914,42.54662516967773,26.371349829711914,43.08380516967773,26.608509829711913,43.67954516967774C26.845669829711916,44.27273516967774,27.018389829711914,45.13070516967773,27.129239829711914,46.250905169677736C27.129239829711914,46.250905169677736,27.389589829711916,48.63885516967773,27.389589829711916,48.63885516967773C27.389589829711916,48.63885516967773,28.320289829711914,48.63885516967773,28.320289829711914,48.63885516967773C28.320289829711914,48.63885516967773,29.240579829711912,49.89663516967774,29.240579829711912,49.89663516967774C29.240579829711912,49.89663516967774,27.497869829711913,49.89663516967774,27.497869829711913,49.89663516967774C27.497869829711913,49.89663516967774,27.606129829711914,50.986285169677735,27.606129829711914,50.986285169677735C27.606129829711914,50.986285169677735,29.374519829711915,50.986285169677735,29.374519829711915,50.986285169677735C29.374519829711915,50.986285169677735,30.294799829711913,52.047955169677735,30.294799829711913,52.047955169677735C30.294799829711913,52.047955169677735,27.711819829711914,52.047955169677735,27.711819829711914,52.047955169677735C27.711819829711914,52.047955169677735,27.791729829711915,52.74045516967773,27.791729829711915,52.74045516967773C27.925769829711914,54.08465516967773,28.132009829711915,54.980755169677735,28.412989829711915,55.43395516967773C28.693979829711914,55.88715516967773,29.160559829711914,56.11375516967773,29.815329829711914,56.11375516967773C30.091159829711913,56.11375516967773,30.403069829711914,56.05515516967773,30.748499829711914,55.93805516967773C30.748499829711914,55.93805516967773,31.704909829711916,56.97675516967773,31.704909829711916,56.97675516967773C31.351709829711915,57.04295516967773,31.06556982971191,57.07605516967774,30.843879829711916,57.07605516967774C30.843879829711916,57.07605516967774,30.843879829711916,57.07605516967774,30.843879829711916,57.07605516967774Z" fill="url(#master_svg6_0_694)" fill-opacity="1"/></g></g></g></g></svg>