<svg xmlns="http://www.w3.org/2000/svg" xmlns:xlink="http://www.w3.org/1999/xlink" fill="none" version="1.1" width="100.767578125" height="81.866455078125" viewBox="0 0 100.767578125 81.866455078125"><defs><linearGradient x1="0.0012772874906659126" y1="1.0007392168045044" x2="0.9998452663421631" y2="1.0007392168045044" id="master_svg0_0_666"><stop offset="0%" stop-color="#51DFD4" stop-opacity="1"/><stop offset="100%" stop-color="#1BE068" stop-opacity="1"/></linearGradient><linearGradient x1="0.7828632593154907" y1="1.023735523223877" x2="0.7828632593154907" y2="0.4625559449195862" id="master_svg1_0_670"><stop offset="0%" stop-color="#FFFFFF" stop-opacity="1"/><stop offset="100%" stop-color="#E6EDF7" stop-opacity="1"/></linearGradient><linearGradient x1="0.0028607759159058332" y1="1.0035173892974854" x2="1.000726580619812" y2="1.0035173892974854" id="master_svg2_0_520"><stop offset="0%" stop-color="#FF66A9" stop-opacity="1"/><stop offset="100%" stop-color="#F53689" stop-opacity="1"/></linearGradient><linearGradient x1="0.7534716129302979" y1="0.935793936252594" x2="0.7534716129302979" y2="0.43461763858795166" id="master_svg3_0_523"><stop offset="0%" stop-color="#FFFFFF" stop-opacity="1"/><stop offset="100%" stop-color="#E6EDF7" stop-opacity="1"/></linearGradient><linearGradient x1="0.001002845005132258" y1="1.001708745956421" x2="0.9993749260902405" y2="1.001708745956421" id="master_svg4_0_681"><stop offset="0%" stop-color="#FFD44F" stop-opacity="1"/><stop offset="100%" stop-color="#FFA607" stop-opacity="1"/></linearGradient><linearGradient x1="0.005013622343540192" y1="0.9948570728302002" x2="1.0007526874542236" y2="0.9948570728302002" id="master_svg5_0_685"><stop offset="0%" stop-color="#FFD44F" stop-opacity="1"/><stop offset="100%" stop-color="#FFA607" stop-opacity="1"/></linearGradient><linearGradient x1="-0.04540882632136345" y1="0.5145052671432495" x2="0.3587898015975952" y2="0.8224464058876038" id="master_svg6_0_691"><stop offset="0%" stop-color="#FAA404" stop-opacity="1"/><stop offset="100%" stop-color="#FF7904" stop-opacity="0.00009999999747378752"/></linearGradient><linearGradient x1="-1.1770882935024929e-8" y1="0.5416666865348816" x2="1.40625" y2="-0.2916666567325592" id="master_svg7_0_694"><stop offset="0%" stop-color="#FFFFFF" stop-opacity="1"/><stop offset="99.98999834060669%" stop-color="#FFB93C" stop-opacity="1"/><stop offset="100%" stop-color="#FFA607" stop-opacity="1"/></linearGradient></defs><g style="mix-blend-mode:passthrough"><g style="mix-blend-mode:passthrough"><path d="M74.57778258361816,64.73020705947876C87.72068258361817,51.12190705947876,87.34328258361816,29.43610705947876,73.73498258361816,16.29315705947876C60.12668258361816,3.1502570594787596,38.44088258361816,3.5275870594787597,25.297932583618163,17.13590705947876C12.155032583618164,30.74420705947876,12.532362583618164,52.43010705947876,26.140682583618165,65.57300705947875C39.748982583618165,78.71590705947877,61.43488258361816,78.33850705947876,74.57778258361816,64.73020705947876C74.57778258361816,64.73020705947876,74.57778258361816,64.73020705947876,74.57778258361816,64.73020705947876Z" fill="#EAEEF9" fill-opacity="1"/></g><g style="mix-blend-mode:passthrough"><path d="M78.70989017028809,68.72105148181916C78.70989017028809,68.72105148181916,77.99059017028809,68.02635148181915,77.99059017028809,68.02635148181915C77.99059017028809,68.02635148181915,77.99059017028809,68.02635148181915,77.99059017028809,68.02635148181915C77.99059017028809,68.02635148181915,78.70989017028809,68.72105148181916,78.70989017028809,68.72105148181916C78.70989017028809,68.72105148181916,78.70989017028809,68.72105148181916,78.70989017028809,68.72105148181916ZM77.7257901702881,12.161151481819152C77.7257901702881,12.161151481819152,78.42049017028809,11.441851481819153,78.42049017028809,11.441851481819153C78.42049017028809,11.441851481819153,77.7257901702881,12.161151481819152,77.7257901702881,12.161151481819152C77.7257901702881,12.161151481819152,77.7257901702881,12.161151481819152,77.7257901702881,12.161151481819152ZM21.165890170288087,13.145251481819153C21.165890170288087,13.145251481819153,21.885190170288084,13.839951481819153,21.885190170288084,13.839951481819153C21.885190170288084,13.839951481819153,21.165890170288087,13.145251481819153,21.165890170288087,13.145251481819153C21.165890170288087,13.145251481819153,21.165890170288087,13.145251481819153,21.165890170288087,13.145251481819153ZM22.149990170288085,69.70515148181916C22.149990170288085,69.70515148181916,22.844690170288086,68.98585148181915,22.844690170288086,68.98585148181915C22.844690170288086,68.98585148181915,22.844690170288086,68.98585148181915,22.844690170288086,68.98585148181915C22.844690170288086,68.98585148181915,22.149990170288085,69.70515148181916,22.149990170288085,69.70515148181916C22.149990170288085,69.70515148181916,22.149990170288085,69.70515148181916,22.149990170288085,69.70515148181916ZM77.99059017028809,68.02635148181915C77.87729017028809,68.14365148181915,77.76339017028809,68.26005148181915,77.64899017028809,68.37565148181915C77.64899017028809,68.37565148181915,79.07049017028808,69.78265148181916,79.07049017028808,69.78265148181916C79.19059017028809,69.66125148181915,79.31019017028808,69.53895148181915,79.42919017028808,69.41575148181916C79.42919017028808,69.41575148181916,77.99059017028809,68.02635148181915,77.99059017028809,68.02635148181915C77.99059017028809,68.02635148181915,77.99059017028809,68.02635148181915,77.99059017028809,68.02635148181915ZM73.25239017028808,72.20435148181916C72.99219017028808,72.39895148181915,72.7300901702881,72.58985148181915,72.46599017028808,72.77705148181916C72.46599017028808,72.77705148181916,73.62299017028809,74.40845148181916,73.62299017028809,74.40845148181916C73.90059017028808,74.21155148181916,74.17629017028808,74.01085148181916,74.44999017028809,73.80625148181915C74.44999017028809,73.80625148181915,73.25239017028808,72.20435148181916,73.25239017028808,72.20435148181916C73.25239017028808,72.20435148181916,73.25239017028808,72.20435148181916,73.25239017028808,72.20435148181916ZM67.47199017028808,75.78125148181915C67.1821901702881,75.92705148181915,66.89089017028809,76.06905148181916,66.5982901702881,76.20725148181916C66.5982901702881,76.20725148181916,67.45209017028809,78.01585148181915,67.45209017028809,78.01585148181915C67.75989017028809,77.87055148181915,68.06619017028808,77.72115148181915,68.37099017028808,77.56785148181915C68.37099017028808,77.56785148181915,67.47199017028808,75.78125148181915,67.47199017028808,75.78125148181915C67.47199017028808,75.78125148181915,67.47199017028808,75.78125148181915,67.47199017028808,75.78125148181915ZM61.15519017028809,78.29245148181916C60.84449017028808,78.38535148181916,60.532890170288084,78.47445148181916,60.22029017028809,78.55955148181916C60.22029017028809,78.55955148181916,60.745690170288086,80.48925148181915,60.745690170288086,80.48925148181915C61.07429017028809,80.39985148181916,61.401890170288084,80.30625148181915,61.728590170288086,80.20845148181915C61.728590170288086,80.20845148181915,61.15519017028809,78.29245148181916,61.15519017028809,78.29245148181916C61.15519017028809,78.29245148181916,61.15519017028809,78.29245148181916,61.15519017028809,78.29245148181916ZM54.49659017028809,79.66695148181915C54.17449017028809,79.70465148181916,53.85199017028808,79.73835148181915,53.52919017028809,79.76805148181916C53.52919017028809,79.76805148181916,53.712490170288085,81.75965148181915,53.712490170288085,81.75965148181915C54.05169017028808,81.72845148181915,54.39069017028809,81.69295148181915,54.729190170288085,81.65335148181916C54.729190170288085,81.65335148181916,54.49659017028809,79.66695148181915,54.49659017028809,79.66695148181915C54.49659017028809,79.66695148181915,54.49659017028809,79.66695148181915,54.49659017028809,79.66695148181915ZM47.699690170288086,79.86955148181916C47.375990170288084,79.85105148181916,47.05249017028809,79.82865148181915,46.72929017028809,79.80215148181915C46.72929017028809,79.80215148181915,46.56599017028809,81.79545148181916,46.56599017028809,81.79545148181916C46.90569017028809,81.82325148181916,47.245690170288086,81.84695148181915,47.585790170288085,81.86635148181915C47.585790170288085,81.86635148181915,47.699690170288086,79.86955148181916,47.699690170288086,79.86955148181916C47.699690170288086,79.86955148181916,47.699690170288086,79.86955148181916,47.699690170288086,79.86955148181916ZM40.97049017028809,78.89465148181915C40.65519017028809,78.82045148181915,40.34059017028808,78.74235148181916,40.026890170288084,78.66025148181916C40.026890170288084,78.66025148181916,39.520490170288085,80.59505148181916,39.520490170288085,80.59505148181916C39.85039017028809,80.68135148181915,40.18109017028809,80.76355148181915,40.512590170288085,80.84145148181915C40.512590170288085,80.84145148181915,40.97049017028809,78.89465148181915,40.97049017028809,78.89465148181915C40.97049017028809,78.89465148181915,40.97049017028809,78.89465148181915,40.97049017028809,78.89465148181915ZM34.51459017028809,76.76575148181915C34.21729017028808,76.63785148181915,33.92129017028809,76.50605148181916,33.62659017028808,76.37035148181916C33.62659017028808,76.37035148181916,32.79029017028809,78.18715148181916,32.79029017028809,78.18715148181916C33.10019017028809,78.32985148181915,33.411590170288086,78.46835148181916,33.72419017028808,78.60285148181916C33.72419017028808,78.60285148181916,34.51459017028809,76.76575148181915,34.51459017028809,76.76575148181915C34.51459017028809,76.76575148181915,34.51459017028809,76.76575148181915,34.51459017028809,76.76575148181915ZM28.531090170288085,73.54165148181916C28.260790170288086,73.36375148181915,27.992090170288087,73.18205148181916,27.725190170288087,72.99665148181916C27.725190170288087,72.99665148181916,26.584190170288085,74.63925148181916,26.584190170288085,74.63925148181916C26.864790170288085,74.83425148181915,27.147290170288088,75.02525148181915,27.431590170288086,75.21235148181916C27.431590170288086,75.21235148181916,28.531090170288085,73.54165148181916,28.531090170288085,73.54165148181916C28.531090170288085,73.54165148181916,28.531090170288085,73.54165148181916,28.531090170288085,73.54165148181916ZM23.198290170288086,69.32315148181915C23.07989017028809,69.21165148181915,22.962090170288086,69.09915148181915,22.844690170288086,68.98585148181915C22.844690170288086,68.98585148181915,21.455290170288087,70.42445148181915,21.455290170288087,70.42445148181915C21.578490170288084,70.54345148181915,21.702290170288087,70.66155148181916,21.826590170288085,70.77865148181915C21.826590170288085,70.77865148181915,23.198290170288086,69.32315148181915,23.198290170288086,69.32315148181915C23.198290170288086,69.32315148181915,23.198290170288086,69.32315148181915,23.198290170288086,69.32315148181915ZM22.844690170288086,68.98585148181915C22.727390170288086,68.87255148181916,22.610990170288083,68.75865148181916,22.495390170288086,68.64425148181915C22.495390170288086,68.64425148181915,21.088390170288086,70.06575148181915,21.088390170288086,70.06575148181915C21.209790170288088,70.18585148181916,21.332090170288087,70.30545148181915,21.455290170288087,70.42445148181915C21.455290170288087,70.42445148181915,22.844690170288086,68.98585148181915,22.844690170288086,68.98585148181915C22.844690170288086,68.98585148181915,22.844690170288086,68.98585148181915,22.844690170288086,68.98585148181915ZM18.666620170288084,64.24775148181915C18.47206017028809,63.98745148181915,18.281160170288086,63.72535148181915,18.093930170288086,63.461251481819154C18.093930170288086,63.461251481819154,16.462520170288087,64.61825148181916,16.462520170288087,64.61825148181916C16.659400170288087,64.89585148181915,16.860120170288084,65.17155148181915,17.064690170288088,65.44525148181916C17.064690170288088,65.44525148181916,18.666620170288084,64.24775148181915,18.666620170288084,64.24775148181915C18.666620170288084,64.24775148181915,18.666620170288084,64.24775148181915,18.666620170288084,64.24775148181915ZM15.089730170288085,58.467251481819154C14.943900170288085,58.177451481819155,14.801910170288085,57.886151481819155,14.663750170288086,57.593551481819155C14.663750170288086,57.593551481819155,12.855170170288087,58.447351481819155,12.855170170288087,58.447351481819155C13.000460170288086,58.755151481819155,13.149790170288085,59.061451481819155,13.303160170288086,59.366251481819155C13.303160170288086,59.366251481819155,15.089730170288085,58.467251481819154,15.089730170288085,58.467251481819154C15.089730170288085,58.467251481819154,15.089730170288085,58.467251481819154,15.089730170288085,58.467251481819154ZM12.578580170288086,52.150451481819154C12.485600170288086,51.83975148181915,12.396570170288086,51.52815148181915,12.311480170288085,51.215551481819155C12.311480170288085,51.215551481819155,10.381720170288085,51.74095148181915,10.381720170288085,51.74095148181915C10.471170170288087,52.069551481819154,10.564780170288087,52.39715148181915,10.662530170288086,52.72385148181915C10.662530170288086,52.72385148181915,12.578580170288086,52.150451481819154,12.578580170288086,52.150451481819154C12.578580170288086,52.150451481819154,12.578580170288086,52.150451481819154,12.578580170288086,52.150451481819154ZM11.204080170288087,45.491851481819154C11.166360170288087,45.169751481819155,11.132640170288086,44.84725148181915,11.102940170288086,44.524451481819156C11.102940170288086,44.524451481819156,9.111353170288085,44.70775148181915,9.111353170288085,44.70775148181915C9.142575170288087,45.04695148181915,9.178009170288085,45.385951481819156,9.217654170288085,45.72445148181915C9.217654170288085,45.72445148181915,11.204080170288087,45.491851481819154,11.204080170288087,45.491851481819154C11.204080170288087,45.491851481819154,11.204080170288087,45.491851481819154,11.204080170288087,45.491851481819154ZM11.001440170288086,38.69495148181915C11.019900170288086,38.37125148181915,11.042360170288086,38.047751481819155,11.068850170288087,37.724551481819155C11.068850170288087,37.724551481819155,9.075532170288087,37.561251481819156,9.075532170288087,37.561251481819156C9.047696170288086,37.900951481819156,9.024082170288086,38.24095148181915,9.004690170288086,38.58105148181915C9.004690170288086,38.58105148181915,11.001440170288086,38.69495148181915,11.001440170288086,38.69495148181915C11.001440170288086,38.69495148181915,11.001440170288086,38.69495148181915,11.001440170288086,38.69495148181915ZM11.976370170288085,31.965751481819154C12.050520170288086,31.650451481819154,12.128660170288086,31.33585148181915,12.210770170288086,31.022151481819154C12.210770170288086,31.022151481819154,10.275920170288085,30.51575148181915,10.275920170288085,30.51575148181915C10.189600170288086,30.845651481819154,10.107450170288086,31.176351481819154,10.029490170288085,31.507851481819152C10.029490170288085,31.507851481819152,11.976370170288085,31.965751481819154,11.976370170288085,31.965751481819154C11.976370170288085,31.965751481819154,11.976370170288085,31.965751481819154,11.976370170288085,31.965751481819154ZM14.105280170288086,25.50985148181915C14.233180170288087,25.21255148181915,14.364950170288086,24.916551481819152,14.500610170288086,24.621851481819153C14.500610170288086,24.621851481819153,12.683840170288086,23.78555148181915,12.683840170288086,23.78555148181915C12.541180170288087,24.095451481819154,12.402590170288086,24.406851481819153,12.268090170288087,24.719451481819153C12.268090170288087,24.719451481819153,14.105280170288086,25.50985148181915,14.105280170288086,25.50985148181915C14.105280170288086,25.50985148181915,14.105280170288086,25.50985148181915,14.105280170288086,25.50985148181915ZM17.329290170288086,19.52635148181915C17.507230170288086,19.256051481819153,17.688900170288086,18.987351481819154,17.874290170288084,18.720451481819154C17.874290170288084,18.720451481819154,16.231700170288086,17.579451481819152,16.231700170288086,17.579451481819152C16.036770170288086,17.860051481819152,15.845750170288085,18.142551481819154,15.658650170288086,18.426851481819153C15.658650170288086,18.426851481819153,17.329290170288086,19.52635148181915,17.329290170288086,19.52635148181915C17.329290170288086,19.52635148181915,17.329290170288086,19.52635148181915,17.329290170288086,19.52635148181915ZM21.547890170288085,14.193551481819153C21.659390170288084,14.075151481819153,21.77189017028809,13.957351481819153,21.885190170288084,13.839951481819153C21.885190170288084,13.839951481819153,20.446590170288086,12.450551481819152,20.446590170288086,12.450551481819152C20.327590170288087,12.573751481819153,20.209490170288085,12.697551481819152,20.092390170288084,12.821851481819152C20.092390170288084,12.821851481819152,21.547890170288085,14.193551481819153,21.547890170288085,14.193551481819153C21.547890170288085,14.193551481819153,21.547890170288085,14.193551481819153,21.547890170288085,14.193551481819153ZM21.885190170288084,13.839951481819153C21.998490170288086,13.722651481819153,22.112390170288087,13.606251481819152,22.226790170288083,13.490651481819153C22.226790170288083,13.490651481819153,20.805290170288085,12.083651481819153,20.805290170288085,12.083651481819153C20.685190170288088,12.205051481819153,20.565590170288086,12.327351481819154,20.446590170288086,12.450551481819152C20.446590170288086,12.450551481819152,21.885190170288084,13.839951481819153,21.885190170288084,13.839951481819153C21.885190170288084,13.839951481819153,21.885190170288084,13.839951481819153,21.885190170288084,13.839951481819153ZM26.623290170288087,9.661881481819153C26.883590170288088,9.467321481819154,27.145690170288084,9.276421481819153,27.409790170288087,9.089191481819153C27.409790170288087,9.089191481819153,26.252790170288087,7.457791481819153,26.252790170288087,7.457791481819153C25.975190170288087,7.6546614818191525,25.699490170288087,7.855391481819153,25.425790170288085,8.059951481819153C25.425790170288085,8.059951481819153,26.623290170288087,9.661881481819153,26.623290170288087,9.661881481819153C26.623290170288087,9.661881481819153,26.623290170288087,9.661881481819153,26.623290170288087,9.661881481819153ZM32.40379017028809,6.084991481819153C32.69359017028809,5.9391714818191526,32.98489017028808,5.797171481819153,33.27749017028809,5.659011481819153C33.27749017028809,5.659011481819153,32.42369017028808,3.850431481819153,32.42369017028808,3.850431481819153C32.11589017028808,3.9957214818191527,31.809590170288086,4.145061481819153,31.504790170288086,4.298421481819153C31.504790170288086,4.298421481819153,32.40379017028809,6.084991481819153,32.40379017028809,6.084991481819153C32.40379017028809,6.084991481819153,32.40379017028809,6.084991481819153,32.40379017028809,6.084991481819153ZM38.72049017028809,3.573841481819153C39.03129017028809,3.480861481819153,39.342890170288086,3.391831481819153,39.65549017028809,3.3067414818191527C39.65549017028809,3.3067414818191527,39.130090170288085,1.3769814818191528,39.130090170288085,1.3769814818191528C38.80149017028809,1.4664314818191528,38.47389017028809,1.5600414818191528,38.147190170288084,1.6577914818191528C38.147190170288084,1.6577914818191528,38.72049017028809,3.573841481819153,38.72049017028809,3.573841481819153C38.72049017028809,3.573841481819153,38.72049017028809,3.573841481819153,38.72049017028809,3.573841481819153ZM45.37919017028808,2.199341481819153C45.70129017028808,2.161621481819153,46.02379017028809,2.1279014818191526,46.34659017028809,2.098201481819153C46.34659017028809,2.098201481819153,46.163290170288086,0.10661648181915283,46.163290170288086,0.10661648181915283C45.82409017028809,0.13783848181915284,45.48509017028809,0.17327248181915283,45.146590170288086,0.21291648181915282C45.146590170288086,0.21291648181915282,45.37919017028808,2.199341481819153,45.37919017028808,2.199341481819153C45.37919017028808,2.199341481819153,45.37919017028808,2.199341481819153,45.37919017028808,2.199341481819153ZM52.176090170288084,1.9967014818191529C52.49979017028809,2.015161481819153,52.82329017028809,2.0376214818191527,53.14649017028809,2.064111481819153C53.14649017028809,2.064111481819153,53.30979017028809,0.07079448181915284,53.30979017028809,0.07079448181915284C52.97009017028809,0.04295848181915283,52.630090170288085,0.019344481819152833,52.289990170288085,-0.00004851818084716797C52.289990170288085,-0.00004851818084716797,52.176090170288084,1.9967014818191529,52.176090170288084,1.9967014818191529C52.176090170288084,1.9967014818191529,52.176090170288084,1.9967014818191529,52.176090170288084,1.9967014818191529ZM58.90529017028808,2.971631481819153C59.220590170288084,3.045781481819153,59.53519017028809,3.1239214818191527,59.84889017028809,3.206031481819153C59.84889017028809,3.206031481819153,60.355290170288086,1.271181481819153,60.355290170288086,1.271181481819153C60.025390170288084,1.1848614818191527,59.69459017028809,1.1027114818191528,59.363190170288085,1.0247514818191528C59.363190170288085,1.0247514818191528,58.90529017028808,2.971631481819153,58.90529017028808,2.971631481819153C58.90529017028808,2.971631481819153,58.90529017028808,2.971631481819153,58.90529017028808,2.971631481819153ZM65.36119017028808,5.100541481819153C65.65849017028808,5.228441481819153,65.9544901702881,5.360211481819153,66.24919017028809,5.495871481819153C66.24919017028809,5.495871481819153,67.0854901702881,3.6791014818191528,67.0854901702881,3.6791014818191528C66.77559017028808,3.536441481819153,66.46419017028808,3.3978514818191528,66.15159017028809,3.2633514818191527C66.15159017028809,3.2633514818191527,65.36119017028808,5.100541481819153,65.36119017028808,5.100541481819153C65.36119017028808,5.100541481819153,65.36119017028808,5.100541481819153,65.36119017028808,5.100541481819153ZM71.34469017028809,8.324551481819153C71.61499017028808,8.502491481819153,71.88369017028808,8.684161481819153,72.15059017028808,8.869551481819153C72.15059017028808,8.869551481819153,73.29149017028809,7.226961481819153,73.29149017028809,7.226961481819153C73.01099017028808,7.0320314818191525,72.72849017028808,6.8410114818191525,72.4441901702881,6.6539114818191525C72.4441901702881,6.6539114818191525,71.34469017028809,8.324551481819153,71.34469017028809,8.324551481819153C71.34469017028809,8.324551481819153,71.34469017028809,8.324551481819153,71.34469017028809,8.324551481819153ZM76.67749017028808,12.543151481819153C76.79589017028809,12.654651481819153,76.91369017028809,12.767151481819154,77.03109017028808,12.880451481819152C77.03109017028808,12.880451481819152,78.42049017028809,11.441851481819153,78.42049017028809,11.441851481819153C78.29729017028808,11.322851481819153,78.17349017028809,11.204751481819153,78.04919017028809,11.087651481819153C78.04919017028809,11.087651481819153,76.67749017028808,12.543151481819153,76.67749017028808,12.543151481819153C76.67749017028808,12.543151481819153,76.67749017028808,12.543151481819153,76.67749017028808,12.543151481819153ZM77.03109017028808,12.880451481819152C77.14839017028808,12.993751481819153,77.26479017028808,13.107651481819152,77.38039017028808,13.222051481819152C77.38039017028808,13.222051481819152,78.78739017028809,11.800551481819152,78.78739017028809,11.800551481819152C78.66599017028808,11.680451481819153,78.54369017028809,11.560851481819153,78.42049017028809,11.441851481819153C78.42049017028809,11.441851481819153,77.03109017028808,12.880451481819152,77.03109017028808,12.880451481819152C77.03109017028808,12.880451481819152,77.03109017028808,12.880451481819152,77.03109017028808,12.880451481819152ZM81.20909017028809,17.618551481819154C81.40369017028809,17.878851481819154,81.59459017028809,18.14095148181915,81.78179017028809,18.405051481819154C81.78179017028809,18.405051481819154,83.41319017028809,17.248051481819154,83.41319017028809,17.248051481819154C83.21629017028809,16.970451481819154,83.01559017028809,16.694751481819154,82.81099017028808,16.421051481819152C82.81099017028808,16.421051481819152,81.20909017028809,17.618551481819154,81.20909017028809,17.618551481819154C81.20909017028809,17.618551481819154,81.20909017028809,17.618551481819154,81.20909017028809,17.618551481819154ZM84.78589017028808,23.399051481819154C84.93179017028808,23.688851481819153,85.07379017028809,23.980151481819153,85.21199017028809,24.272751481819153C85.21199017028809,24.272751481819153,87.02059017028809,23.418951481819153,87.02059017028809,23.418951481819153C86.87529017028808,23.111151481819153,86.72589017028808,22.804851481819153,86.57259017028808,22.500051481819153C86.57259017028808,22.500051481819153,84.78589017028808,23.399051481819154,84.78589017028808,23.399051481819154C84.78589017028808,23.399051481819154,84.78589017028808,23.399051481819154,84.78589017028808,23.399051481819154ZM87.29709017028809,29.715751481819154C87.39009017028809,30.02655148181915,87.47919017028809,30.338151481819153,87.56429017028809,30.650751481819153C87.56429017028809,30.650751481819153,89.49399017028809,30.125351481819152,89.49399017028809,30.125351481819152C89.40459017028809,29.796751481819154,89.31099017028808,29.469151481819154,89.21319017028809,29.14245148181915C89.21319017028809,29.14245148181915,87.29709017028809,29.715751481819154,87.29709017028809,29.715751481819154C87.29709017028809,29.715751481819154,87.29709017028809,29.715751481819154,87.29709017028809,29.715751481819154ZM88.67169017028809,36.37445148181915C88.70939017028809,36.69655148181915,88.74299017028808,37.019051481819155,88.77279017028809,37.341851481819155C88.77279017028809,37.341851481819155,90.76439017028808,37.15855148181915,90.76439017028808,37.15855148181915C90.73319017028808,36.819351481819155,90.69769017028808,36.480351481819156,90.65809017028809,36.14185148181915C90.65809017028809,36.14185148181915,88.67169017028809,36.37445148181915,88.67169017028809,36.37445148181915C88.67169017028809,36.37445148181915,88.67169017028809,36.37445148181915,88.67169017028809,36.37445148181915ZM88.87429017028809,43.17135148181915C88.85579017028809,43.495051481819154,88.83339017028808,43.818551481819156,88.80689017028809,44.141751481819156C88.80689017028809,44.141751481819156,90.80019017028809,44.305051481819156,90.80019017028809,44.305051481819156C90.82789017028809,43.965351481819155,90.85169017028808,43.62535148181915,90.87109017028808,43.28525148181915C90.87109017028808,43.28525148181915,88.87429017028809,43.17135148181915,88.87429017028809,43.17135148181915C88.87429017028809,43.17135148181915,88.87429017028809,43.17135148181915,88.87429017028809,43.17135148181915ZM87.89939017028809,49.90055148181915C87.82509017028809,50.21585148181915,87.74709017028809,50.530451481819156,87.66499017028809,50.844151481819154C87.66499017028809,50.844151481819154,89.59979017028809,51.35055148181915,89.59979017028809,51.35055148181915C89.68609017028808,51.02065148181915,89.76819017028808,50.689851481819154,89.84619017028808,50.35845148181915C89.84619017028808,50.35845148181915,87.89939017028809,49.90055148181915,87.89939017028809,49.90055148181915C87.89939017028809,49.90055148181915,87.89939017028809,49.90055148181915,87.89939017028809,49.90055148181915ZM85.77049017028808,56.35645148181915C85.64259017028809,56.65375148181915,85.51079017028809,56.949751481819156,85.37509017028809,57.244451481819155C85.37509017028809,57.244451481819155,87.19189017028809,58.080751481819156,87.19189017028809,58.080751481819156C87.33449017028809,57.77085148181915,87.47309017028809,57.45945148181915,87.60759017028809,57.146851481819155C87.60759017028809,57.146851481819155,85.77049017028808,56.35645148181915,85.77049017028808,56.35645148181915C85.77049017028808,56.35645148181915,85.77049017028808,56.35645148181915,85.77049017028808,56.35645148181915ZM82.54639017028809,62.339951481819156C82.36849017028808,62.610251481819155,82.18679017028809,62.87895148181915,82.00139017028809,63.14585148181915C82.00139017028809,63.14585148181915,83.64399017028809,64.28685148181916,83.64399017028809,64.28685148181916C83.83899017028808,64.00625148181915,84.02999017028809,63.72375148181915,84.21709017028809,63.439451481819155C84.21709017028809,63.439451481819155,82.54639017028809,62.339951481819156,82.54639017028809,62.339951481819156C82.54639017028809,62.339951481819156,82.54639017028809,62.339951481819156,82.54639017028809,62.339951481819156ZM78.32789017028809,67.67275148181915C78.21639017028808,67.79115148181916,78.10389017028808,67.90895148181916,77.99059017028809,68.02635148181915C77.99059017028809,68.02635148181915,79.42919017028808,69.41575148181916,79.42919017028808,69.41575148181916C79.54809017028809,69.29255148181915,79.6662901702881,69.16875148181916,79.78339017028809,69.04445148181915C79.78339017028809,69.04445148181915,78.32789017028809,67.67275148181915,78.32789017028809,67.67275148181915C78.32789017028809,67.67275148181915,78.32789017028809,67.67275148181915,78.32789017028809,67.67275148181915Z" fill="#EAEEF9" fill-opacity="1"/></g><g style="mix-blend-mode:passthrough"><path d="M60.11624588623047,50.76320231018066C65.54594588623047,45.142002310180665,65.39004588623047,36.18369231018066,59.767945886230464,30.754752310180663C54.14674588623047,25.325812310180662,45.188435886230465,25.480942310180666,39.75949588623047,31.103002310180663C34.33055588623047,36.724242310180664,34.48568588623047,45.682502310180666,40.10774588623047,51.11150231018067C45.72898588623047,56.541202310180665,54.68724588623047,56.38530231018066,60.11624588623047,50.76320231018066C60.11624588623047,50.76320231018066,60.11624588623047,50.76320231018066,60.11624588623047,50.76320231018066Z" fill="#FFFFFF" fill-opacity="1"/></g><g style="mix-blend-mode:passthrough"><path d="M58.946014404296875,17.79066441772461C59.16201040429687,18.006664417724608,59.390128404296874,18.14439441772461,59.45914440429687,18.185994417724608C59.51326940429688,18.21861441772461,59.56063640429687,18.24504441772461,59.59525040429688,18.263784417724608C59.61299940429687,18.27339441772461,59.62853440429687,18.28159441772461,59.641276404296875,18.28822441772461C59.647675404296876,18.29155441772461,59.653448404296874,18.29452441772461,59.658530404296876,18.29712441772461C59.66107340429687,18.29842441772461,59.663450404296874,18.299634417724608,59.665653404296876,18.30074441772461C59.66675540429687,18.30130441772461,59.667815404296874,18.30184441772461,59.66883040429688,18.302354417724608C59.66933840429687,18.30261441772461,59.669835404296876,18.30286441772461,59.67032140429688,18.303104417724608C59.670564404296876,18.30322441772461,59.67080540429688,18.30334441772461,59.67104240429688,18.30346441772461C59.671161404296875,18.30352441772461,59.67133740429688,18.30361441772461,59.671397404296876,18.30364441772461C59.671572404296874,18.30373441772461,59.67174740429687,18.30382441772461,60.57030440429688,16.51704441772461C61.46886440429687,14.73025569472461,61.46903440429688,14.73034569522461,61.469204404296875,14.730435695184608C61.46926440429687,14.73045569522461,61.46943440429688,14.73054569472461,61.46955440429687,14.73060569472461C61.469784404296874,14.730715694724609,61.47000440429687,14.73083569472461,61.470234404296875,14.730945694724609C61.470684404296875,14.731175694724609,61.471134404296876,14.731405694724609,61.471574404296874,14.73162569772461C61.472454404296876,14.73206569772461,61.47331440429687,14.732505697724608,61.47414440429687,14.732925697724609C61.47581440429688,14.73377569772461,61.47740440429688,14.73457569772461,61.47890440429688,14.73534569772461C61.48190440429688,14.73687569772461,61.484604404296874,14.738275697724609,61.487044404296874,14.73954569772461C61.49186440429688,14.74204571772461,61.495934404296875,14.74420571772461,61.499474404296876,14.74612571772461C61.50568440429687,14.749485717724609,61.51371440429688,14.75395571772461,61.52410440429688,14.76021571772461C61.53287440429688,14.76550571772461,61.555724404296875,14.77949571772461,61.587714404296875,14.802415717724609C61.61301440429688,14.82055571772461,61.686254404296875,14.874055417724609,61.774434404296876,14.96223541772461C61.774434404296876,14.96223541772461,58.946014404296875,17.79066441772461,58.946014404296875,17.79066441772461C58.946014404296875,17.79066441772461,58.946014404296875,17.79066441772461,58.946014404296875,17.79066441772461Z" fill="#C4CFDD" fill-opacity="1"/></g><g style="mix-blend-mode:passthrough"><path d="M40.6793507043457,17.945170917053222C42.7449807043457,16.883570917053223,46.342710704345706,16.484920917053223,49.748240704345704,16.423570917053222C51.388440704345705,16.394020917053222,52.881140704345704,16.442710917053223,53.964640704345705,16.49904091705322C54.505340704345706,16.527160917053223,54.9414407043457,16.55704091705322,55.2400407043457,16.57967091705322C55.3893407043457,16.590970917053223,55.5040407043457,16.600460917053223,55.580040704345706,16.60698091705322C55.6179407043457,16.61025091705322,55.646340704345704,16.612770917053222,55.66444070434571,16.614410917053224C55.67344070434571,16.615230917053225,55.679940704345704,16.615820917053224,55.6838407043457,16.61618091705322C55.685740704345704,16.61636091705322,55.687040704345705,16.616480917053224,55.687640704345704,16.61654091705322C55.687940704345706,16.616570917053224,55.6881407043457,16.616590917053223,55.6881407043457,16.616580917053223C55.6880407043457,16.616580917053223,55.687940704345706,16.616570917053224,55.687940704345706,16.616570917053224C55.6877407043457,16.616550917053225,55.68754070434571,16.616530917053222,55.876640704345704,14.625490917053224C56.0657407043457,12.634448917053223,56.065440704345704,12.634418917053223,56.065040704345705,12.634388917053222C56.0649407043457,12.634368917053223,56.0645407043457,12.634328917053223,56.064140704345704,12.634298917053222C56.0634407043457,12.634238917053223,56.062640704345704,12.634148917053222,56.0615407043457,12.634058917053222C56.05954070434571,12.633858917053223,56.0567407043457,12.633608917053223,56.0533407043457,12.633288917053223C56.0465407043457,12.632658917053222,56.0371407043457,12.631788917053223,56.0250407043457,12.630698917053223C56.0009407043457,12.628518917053222,55.966540704345704,12.625448917053223,55.922240704345704,12.621648917053223C55.833640704345704,12.614038917053223,55.70554070434571,12.603468917053222,55.542340704345705,12.591098917053223C55.2159407043457,12.566368917053223,54.748040704345705,12.534368917053223,54.1723407043457,12.504439117053222C53.022840704345704,12.444669117053223,51.4334407043457,12.392559117053223,49.676140704345706,12.424219107053222C46.286860704345706,12.485279117053222,41.8288407043457,12.857058917053223,38.8509407043457,14.387510917053223C38.8509407043457,14.387510917053223,40.6793507043457,17.945170917053222,40.6793507043457,17.945170917053222C40.6793507043457,17.945170917053222,40.6793507043457,17.945170917053222,40.6793507043457,17.945170917053222Z" fill="#C4CFDD" fill-opacity="1"/></g><g style="mix-blend-mode:passthrough"><path d="M38.43356704711914,16.796602739257814C38.43356704711914,16.796602739257814,36.55309904711914,16.115542739257812,36.55309904711914,16.115542739257812C36.37181934711914,16.616072739257813,36.39756934711914,17.168222739257814,36.62464904711914,17.64971273925781C36.85171904711914,18.131192739257813,37.26137904711914,18.50228273925781,37.76290704711914,18.680802739257814C37.76290704711914,18.680802739257814,38.43356704711914,16.796602739257814,38.43356704711914,16.796602739257814C38.43356704711914,16.796602739257814,38.43356704711914,16.796602739257814,38.43356704711914,16.796602739257814ZM43.23795704711914,16.38376273925781C43.23795704711914,16.38376273925781,39.10423704711914,14.912402739257812,39.10423704711914,14.912402739257812C39.10423704711914,14.912402739257812,37.76290704711914,18.680802739257814,37.76290704711914,18.680802739257814C37.76290704711914,18.680802739257814,41.89661704711914,20.15216273925781,41.89661704711914,20.15216273925781C41.89661704711914,20.15216273925781,43.23795704711914,16.38376273925781,43.23795704711914,16.38376273925781C43.23795704711914,16.38376273925781,43.23795704711914,16.38376273925781,43.23795704711914,16.38376273925781ZM40.31403704711914,17.477652739257813C40.31403704711914,17.477652739257813,41.78540704711914,13.415042739257812,41.78540704711914,13.415042739257812C41.78540704711914,13.415042739257812,38.02446704711914,12.052932739257812,38.02446704711914,12.052932739257812C38.02446704711914,12.052932739257812,36.55309904711914,16.115542739257812,36.55309904711914,16.115542739257812C36.55309904711914,16.115542739257812,40.31403704711914,17.477652739257813,40.31403704711914,17.477652739257813C40.31403704711914,17.477652739257813,40.31403704711914,17.477652739257813,40.31403704711914,17.477652739257813Z" fill="#C4CFDD" fill-opacity="1"/></g><g style="mix-blend-mode:passthrough"><path d="M38.66493950317383,62.676235720703126C38.44239950317383,62.45109972070313,38.205609503173825,62.30987972070312,38.13639950317383,62.26856972070313C38.08099950317383,62.23552002070313,38.03251950317383,62.20882002070312,37.99712950317383,62.18993002070312C37.978979503173825,62.180240020703124,37.96306950317383,62.17197002070313,37.94999950317383,62.165290020703125C37.94343950317383,62.161930020703124,37.93751950317383,62.15893000070312,37.93228950317383,62.156300000703126C37.92967950317383,62.15499000070312,37.92722950317383,62.15376000070312,37.92495950317383,62.15263000070313C37.92382950317383,62.15206000070312,37.92272950317383,62.15152000070312,37.92168950317383,62.15100000070313C37.921159503173826,62.150740000703124,37.92064950317383,62.150489995703126,37.92014950317383,62.150239995703124C37.91989950317383,62.150109995703126,37.91964950317383,62.14998999570312,37.91939950317383,62.14986999570313C37.919279503173826,62.14980999570312,37.919099503173825,62.14971999600313,37.91903950317383,62.14968999596312C37.91884950317383,62.149599996003126,37.91866950317383,62.14950999570313,37.03249950317383,63.942468720703125C36.146320503173826,65.73541872070312,36.14614150317383,65.73533872070313,36.14596250317383,65.73524872070313C36.14590350317383,65.73521872070313,36.14572450317383,65.73512872070313,36.145605503173826,65.73506872070313C36.14536850317383,65.73494872070313,36.14513350317383,65.73483872070312,36.144899503173825,65.73471872070313C36.14443150317383,65.73448872070313,36.14396950317383,65.73425872070312,36.14351350317383,65.73402872070312C36.14260150317383,65.73357872070312,36.14171150317383,65.73313872070312,36.14084450317383,65.73270872070313C36.139110503173825,65.73183872070312,36.13746150317383,65.73101872070312,36.135893503173826,65.73022872070312C36.13276350317383,65.72865872070312,36.129924503173825,65.72721872070312,36.12734250317383,65.72588872070313C36.12223950317383,65.72327872070312,36.11785750317383,65.72098872070312,36.11396650317383,65.71890872070313C36.10711050317383,65.71524872070313,36.09812150317383,65.71031872070313,36.086561503173826,65.70341872070313C36.076714503173825,65.69754872070313,36.05196350317383,65.68251872070313,36.01770450317383,65.65803872070313C35.99053950317383,65.63862872070312,35.912806503173826,65.58193872070312,35.82020950317383,65.48826872070312C35.82020950317383,65.48826872070312,38.66493950317383,62.676235720703126,38.66493950317383,62.676235720703126C38.66493950317383,62.676235720703126,38.66493950317383,62.676235720703126,38.66493950317383,62.676235720703126Z" fill="#C4CFDD" fill-opacity="1"/></g><g style="mix-blend-mode:passthrough"><path d="M56.966550122070316,65.1368139453125C54.74295012207031,65.9165439453125,51.111650122070316,65.8427239453125,47.73619012207031,65.4658479453125C46.10827012207031,65.2840839453125,44.63863012207031,65.0446239453125,43.575360122070315,64.8502839453125C43.04472012207031,64.7532939453125,42.617780122070315,64.6679939453125,42.32587012207031,64.6074839453125C42.179970122070316,64.5772339453125,42.067970122070314,64.5532239453125,41.99380812207031,64.5370739453125C41.95673012207031,64.5289939453125,41.92912412207031,64.5228939453125,41.91148112207031,64.5189639453125C41.90265912207031,64.5170039453125,41.896331122070315,64.5155839453125,41.89255512207031,64.5147339453125C41.89066812207031,64.5143039453125,41.889419122070315,64.5140239453125,41.88881612207031,64.5138939453125C41.88851412207031,64.5138239453125,41.888375122070315,64.5137939453125,41.888397122070316,64.5137939453125C41.888409122070314,64.5137939453125,41.88854812207031,64.5138239453125,41.88855412207031,64.5138339453125C41.88873312207031,64.5138739453125,41.88895412207031,64.5139239453125,41.44578812207031,66.4642039453125C41.00262219007031,68.4144839453125,41.002925190070314,68.4145539453125,41.00326918967031,68.4146339453125C41.00343919007031,68.4146739453125,41.003825190070316,68.4147639453125,41.00416419007031,68.4148339453125C41.004844192070316,68.4149939453125,41.00568819207031,68.4151839453125,41.006696192070315,68.4154139453125C41.008711192070315,68.4158639453125,41.011382192070315,68.4164639453125,41.014701222070315,68.4172139453125C41.021337222070315,68.4187039453125,41.030565222070315,68.4207739453125,41.04232122207031,68.4233939453125C41.06583222207031,68.4286239453125,41.09946422207031,68.4360539453125,41.142720122070315,68.4454739453125C41.22922212207031,68.4643139453125,41.354277122070314,68.4911139453125,41.513910122070314,68.52420394531251C41.833060122070314,68.5903739453125,42.291110122070315,68.6818139453125,42.856160122070314,68.7850939453125C43.98428012207031,68.9912939453125,45.548880122070315,69.2464839453125,47.29233012207031,69.4411439453125C50.65966012207031,69.8171239453125,55.119550122070315,70.0232739453125,58.290150122070315,68.9114739453125C58.290150122070315,68.9114739453125,56.966550122070316,65.1368139453125,56.966550122070316,65.1368139453125C56.966550122070316,65.1368139453125,56.966550122070316,65.1368139453125,56.966550122070316,65.1368139453125Z" fill="#C4CFDD" fill-opacity="1"/></g><g style="mix-blend-mode:passthrough"><path d="M59.02943956298828,66.53374557373047C59.02943956298828,66.53374557373047,60.82479956298828,67.41504557373047,60.82479956298828,67.41504557373047C61.30656956298828,66.43360557373047,60.91094956298828,65.24717557373047,59.93655956298828,64.75129557373047C59.93655956298828,64.75129557373047,59.02943956298828,66.53374557373047,59.02943956298828,66.53374557373047C59.02943956298828,66.53374557373047,59.02943956298828,66.53374557373047,59.02943956298828,66.53374557373047ZM54.26898956298828,66.35519557373047C54.26898956298828,66.35519557373047,58.122329562988284,68.31620557373047,58.122329562988284,68.31620557373047C58.122329562988284,68.31620557373047,59.93655956298828,64.75129557373047,59.93655956298828,64.75129557373047C59.93655956298828,64.75129557373047,56.08320956298828,62.79027557373047,56.08320956298828,62.79027557373047C56.08320956298828,62.79027557373047,54.26898956298828,66.35519557373047,54.26898956298828,66.35519557373047C54.26898956298828,66.35519557373047,54.26898956298828,66.35519557373047,54.26898956298828,66.35519557373047ZM57.23408956298828,65.65244557373047C57.23408956298828,65.65244557373047,55.34256956298828,69.50578557373046,55.34256956298828,69.50578557373046C55.34256956298828,69.50578557373046,58.93327956298828,71.26839557373047,58.93327956298828,71.26839557373047C58.93327956298828,71.26839557373047,60.82479956298828,67.41504557373047,60.82479956298828,67.41504557373047C60.82479956298828,67.41504557373047,57.23408956298828,65.65244557373047,57.23408956298828,65.65244557373047C57.23408956298828,65.65244557373047,57.23408956298828,65.65244557373047,57.23408956298828,65.65244557373047Z" fill="#C4CFDD" fill-opacity="1"/></g><g style="mix-blend-mode:passthrough"><path d="M31.38296767944336,10.674333097991944C31.80716767944336,9.804923097991944,31.44599767944336,8.756953097991943,30.57658767944336,8.332754097991943C29.707177679443358,7.908555097991943,28.65839967944336,8.269730097991943,28.23500867944336,9.139136097991944C27.81080967944336,10.008543097991943,28.17198467944336,11.057323097991944,29.04139067944336,11.480713097991943C29.91079767944336,11.904913097991944,30.95876767944336,11.543743097991943,31.38296767944336,10.674333097991944C31.38296767944336,10.674333097991944,31.38296767944336,10.674333097991944,31.38296767944336,10.674333097991944Z" fill="#EAEEF9" fill-opacity="1"/></g><g style="mix-blend-mode:passthrough"><path d="M18.35156635070801,9.670800914306641C18.606086350708008,9.148835914306641,18.388736350708008,8.52021291430664,17.867576350708006,8.26569391430664C17.34561135070801,8.01117391430664,16.716988350708007,8.22771781430664,16.46246935070801,8.749684914306641C16.20794935070801,9.27084091430664,16.424493250708007,9.90027091430664,16.94646035070801,10.154790914306641C17.467616350708006,10.408500914306641,18.09704635070801,10.191960914306641,18.35156635070801,9.670800914306641C18.35156635070801,9.670800914306641,18.35156635070801,9.670800914306641,18.35156635070801,9.670800914306641Z" fill="#30E092" fill-opacity="1"/></g><g style="mix-blend-mode:passthrough"><path d="M74.81046161132812,77.87559701416015C74.90823161132812,77.30353201416015,74.52443161132813,76.76055701416016,73.95237161132812,76.66278971416016C73.38030661132812,76.56421391416016,72.83733161132812,76.94882101416016,72.73956431132812,77.52088401416016C72.64098851132813,78.09294701416016,73.02559561132813,78.63591701416016,73.59765861132813,78.73368701416015C74.16972161132813,78.83145701416015,74.71269161132813,78.44765701416016,74.81046161132812,77.87559701416015C74.81046161132812,77.87559701416015,74.81046161132812,77.87559701416015,74.81046161132812,77.87559701416015Z" fill="#40DFB3" fill-opacity="1"/></g><g style="mix-blend-mode:passthrough"><path d="M26.73859999267578,69.30755044433593C26.83635999267578,68.73548544433594,26.45256999267578,68.19251044433594,25.88049999267578,68.09474314433594C25.308438992675782,67.99616734433594,24.76546399267578,68.38077444433594,24.666888592675782,68.95283744433594C24.569120792675783,69.52490044433594,24.95291999267578,70.06787044433594,25.52498299267578,70.16564044433593C26.09704999267578,70.26341044433593,26.640019992675782,69.87961044433594,26.73859999267578,69.30755044433593C26.73859999267578,69.30755044433593,26.73859999267578,69.30755044433593,26.73859999267578,69.30755044433593Z" fill="#F94895" fill-opacity="1"/></g><g style="mix-blend-mode:passthrough"><path d="M26.449329565429686,65.11811543457031C26.599619565429688,64.2414354345703,26.010589565429687,63.40839243457031,25.13309956542969,63.25810503457031C24.256419565429688,63.107817434570315,23.423376565429688,63.69684843457031,23.27308916542969,64.57433543457032C23.122801565429686,65.45101543457031,23.711832565429688,66.28405543457032,24.589319565429687,66.43434543457032C25.465999565429687,66.58463543457032,26.299039565429688,65.99560543457031,26.449329565429686,65.11811543457031C26.449329565429686,65.11811543457031,26.449329565429686,65.11811543457031,26.449329565429686,65.11811543457031Z" fill="#EAEEF9" fill-opacity="1"/></g><g style="mix-blend-mode:passthrough"><path d="M99.86976773681641,40.19458995666504C99.86976773681641,44.11748995666504,98.3288677368164,47.62008995666504,95.8070677368164,50.28168995666504C95.5970677368164,50.49258995666504,95.3869677368164,50.70268995666504,95.1760677368164,50.91268995666504C92.5848677368164,53.364189956665044,89.0821677368164,54.83558995666504,85.22876773681641,54.83558995666504C82.14706773681641,54.83558995666504,79.27465773681641,53.85468995666504,76.89267773681641,52.243489956665044C76.19214773681641,51.753089956665036,75.56190773681641,51.26258995666504,74.93166773681641,50.63238995666504C72.2693077368164,47.96998995666504,70.5878677368164,44.32748995666504,70.5878677368164,40.19458995666504C70.5878677368164,32.13806995666504,77.1027577368164,25.55368995666504,85.22876773681641,25.55368995666504C93.28536773681641,25.62398585666504,99.86976773681641,32.13806995666504,99.86976773681641,40.19458995666504C99.86976773681641,40.19458995666504,99.86976773681641,40.19458995666504,99.86976773681641,40.19458995666504Z" fill="#E9F0F8" fill-opacity="1"/></g><g style="mix-blend-mode:passthrough"><path d="M99.80027158203126,40.19458995666504C99.80027158203126,44.46728995666504,97.97817158203125,48.25038995666504,95.10657158203125,50.91268995666504C92.51447158203125,53.364189956665044,89.01187158203125,54.83558995666504,85.15927158203125,54.83558995666504C82.07677158203126,54.83558995666504,79.20435158203125,53.85468995666504,76.82237158203125,52.243489956665044C73.04013158203125,49.58118995666504,70.51837158203125,45.23818995666504,70.51837158203125,40.19458995666504C70.51837158203125,32.13806995666504,77.03326158203124,25.55368995666504,85.15927158203125,25.55368995666504C93.28537158203125,25.55368995666504,99.80027158203126,32.13806995666504,99.80027158203126,40.19458995666504C99.80027158203126,40.19458995666504,99.80027158203126,40.19458995666504,99.80027158203126,40.19458995666504Z" fill="#D8E2EB" fill-opacity="1"/></g><g style="mix-blend-mode:passthrough"><path d="M95.80706351318359,50.2824634765625C95.5970635131836,50.492563476562495,95.38696351318359,50.7026634765625,95.17686351318359,50.9126634765625C92.58476351318359,53.364163476562496,89.08216351318359,54.8355634765625,85.2287635131836,54.8355634765625C82.14709351318359,54.8355634765625,79.2746535131836,53.8546634765625,76.8926735131836,52.243463476562496C76.1921435131836,51.7530634765625,75.5619025131836,51.262563476562505,74.9316635131836,50.6323634765625C75.2112305131836,50.212163476562495,75.84227751318359,49.9317634765625,76.9629735131836,49.4413634765625C76.9629735131836,49.4413634765625,77.4534235131836,49.2312634765625,77.4534235131836,49.2312634765625C78.36404351318359,48.8813634765625,79.55503351318359,48.4612634765625,81.0958835131836,47.7606634765625C81.3059635131836,47.690363476562496,81.51604351318359,47.4803634765625,81.7261235131836,47.339763476562496C81.7964135131836,47.270263476562505,81.8667135131836,47.1296634765625,81.9362035131836,46.989863476562505C82.0064935131836,46.7797634765625,82.07679351318359,46.569663476562496,82.07679351318359,46.3596634765625C82.07679351318359,46.3596634765625,82.07679351318359,43.4168634765625,82.07679351318359,43.4168634765625C82.0064935131836,43.3473634765625,82.0064935131836,43.2770634765625,81.9362035131836,43.2067634765625C81.65663351318359,42.8569634765625,81.51604351318359,42.3664634765625,81.44655351318359,41.946363476562496C81.44655351318359,41.946363476562496,81.1661835131836,41.805763476562504,81.1661835131836,41.805763476562504C80.3953535131836,42.0158634765625,80.4656435131836,41.1754634765625,80.25556351318359,39.6346534765625C80.18527351318359,39.0036034765625,80.25556351318359,38.8638234765625,80.5359435131836,38.7232334765625C80.5359435131836,38.7232334765625,80.74602351318359,38.3733634765625,80.74602351318359,38.3733634765625C80.18527351318359,37.1120834765625,79.9751935131836,36.0616834765625,79.9751935131836,35.1510634765625C79.9751935131836,33.6797034765625,80.6054235131836,32.6987934765625,81.51604351318359,32.2786334765625C81.02558351318359,31.2282344765625,81.02558351318359,30.8775634765625,81.02558351318359,30.8775634765625C81.02558351318359,30.8775634765625,84.1081035131836,31.3680184765625,85.15926351318359,31.1579384765625C86.4900635131836,30.8775634765625,88.59166351318359,31.2282344765625,89.36256351318359,32.9791634765625C90.62296351318359,33.469623476562504,91.11346351318359,34.3099434765625,91.2532635131836,35.1510634765625C91.46416351318359,36.5521334765625,90.62296351318359,38.0929934765625,90.4831635131836,38.6537434765625C90.4831635131836,38.6537434765625,90.4831635131836,38.7232334765625,90.55266351318359,38.7232334765625C90.7635635131836,38.7935234765625,90.83306351318359,39.0036034765625,90.7635635131836,39.5643534765625C90.55266351318359,41.0348634765625,90.62296351318359,41.946363476562496,89.8521635131836,41.7354634765625C89.8521635131836,41.7354634765625,89.15166351318359,42.9264634765625,89.15166351318359,42.9264634765625C89.15166351318359,43.0670634765625,89.08216351318359,43.1365634765625,89.08216351318359,43.2067634765625C89.08216351318359,43.4168634765625,89.08216351318359,43.8370634765625,89.08216351318359,46.2893634765625C89.08216351318359,46.569663476562496,89.15166351318359,46.8492634765625,89.2922635131836,47.1296634765625C89.36256351318359,47.1999634765625,89.36256351318359,47.270263476562505,89.43196351318359,47.339763476562496C89.5725635131836,47.4803634765625,89.78266351318359,47.6200634765625,89.99276351318359,47.7606634765625C91.74366351318359,48.4612634765625,93.0049635131836,48.9508634765625,93.9155635131836,49.3015634765625C94.89646351318359,49.7216634765625,95.45646351318359,50.0020634765625,95.80706351318359,50.2824634765625C95.80706351318359,50.2824634765625,95.80706351318359,50.2824634765625,95.80706351318359,50.2824634765625Z" fill="#FFFFFF" fill-opacity="1"/></g><g style="mix-blend-mode:passthrough"><path d="M95.80706351318359,50.28249364135742C95.5970635131836,50.492573641357424,95.38696351318359,50.70265364135742,95.17686351318359,50.91273364135742C92.58476351318359,53.36500364135742,89.08216351318359,54.835563641357425,85.2287635131836,54.835563641357425C82.14709351318359,54.835563641357425,79.2746535131836,53.85465364135742,76.8926735131836,52.24350364135742C76.1921435131836,51.753053641357425,75.5619025131836,51.26340364135742,74.9316635131836,50.63235364135742C75.2112305131836,50.21219364135742,75.84227751318359,49.931823641357425,76.9629735131836,49.44136364135742C76.9629735131836,49.44136364135742,77.4534235131836,49.23128364135742,77.4534235131836,49.23128364135742C78.36404351318359,48.88142364135742,79.55503351318359,48.46126364135742,81.0958835131836,47.76073064135742C81.3059635131836,47.69043464135742,81.51604351318359,47.48035564135742,81.7261235131836,47.33976364135742C82.5672435131836,48.53075364135742,84.03780351318359,49.37188364135742,85.64976351318359,49.37188364135742C87.2608635131836,49.37188364135742,88.6619635131836,48.601053641357424,89.50226351318359,47.41005954135742C89.64206351318359,47.55065164135742,89.8521635131836,47.69043464135742,90.0630635131836,47.83021864135742C91.8139635131836,48.53075364135742,93.07526351318359,49.021203641357424,93.9858635131836,49.37188364135742C94.89646351318359,49.72174364135742,95.45646351318359,50.002113641357425,95.80706351318359,50.28249364135742C95.80706351318359,50.28249364135742,95.80706351318359,50.28249364135742,95.80706351318359,50.28249364135742Z" fill="url(#master_svg0_0_666)" fill-opacity="1"/></g><g style="mix-blend-mode:passthrough"><path d="M90.48322385253906,38.793488756103514C90.55272385253906,38.44361875610352,90.34262385253906,37.953168756103516,90.27312385253906,37.602498756103515C90.27312385253906,37.53300875610351,90.20282385253907,37.46270875610352,90.20282385253907,37.46270875610352C89.64209385253906,36.27171875610352,88.31131385253906,35.781268756103515,87.05003385253906,35.71177875610351C83.82773385253907,35.57118875610352,83.54816385253906,36.131938756103516,82.56725385253907,35.221318756103514C82.84763385253906,35.71177875610351,82.91712385253906,36.41230875610351,82.42666385253906,37.322928756103515C82.07680385253906,37.953168756103516,81.44656385253906,38.23353875610351,80.88581185253906,38.44361875610352C79.41444685253906,35.151028756103514,80.18527795253907,33.04941875610351,81.58634385253906,32.34888875610351C81.09589385253906,31.298489756103514,81.09589385253906,30.947818756103516,81.09589385253906,30.947818756103516C81.09589385253906,30.947818756103516,84.17840385253906,31.438273756103516,85.22880385253906,31.228193756103515C86.56038385253906,30.947818756103516,88.66199385253907,31.298489756103514,89.43201385253906,33.04941875610351C90.69332385253907,33.53987875610352,91.18372385253906,34.38019875610352,91.32352385253907,35.221318756103514C91.46332385253906,36.62238875610352,90.62302385253906,38.16324875610351,90.48322385253906,38.793488756103514C90.48322385253906,38.793488756103514,90.48322385253906,38.793488756103514,90.48322385253906,38.793488756103514Z" fill="#1C3754" fill-opacity="1"/></g><g style="mix-blend-mode:passthrough"><path d="M82.0065061069336,46.42912673095703C82.0065061069336,46.42912673095703,82.0065061069336,43.48719973095703,82.0065061069336,43.48719973095703C81.9370180069336,43.41690373095703,81.9370180069336,43.34741673095703,81.8667221069336,43.27712073095703C81.8667221069336,43.27712073095703,81.8667221069336,43.13733673095703,81.8667221069336,43.13733673095703C82.0065061069336,43.41690373095703,82.2165851069336,43.62698373095703,82.4969611069336,43.83787173095703C82.4969611069336,43.83787173095703,84.80864210693359,45.449016730957034,84.80864210693359,45.449016730957034C85.36939210693359,45.93866673095703,86.1394221069336,45.93866673095703,86.70017210693359,45.449016730957034C86.70017210693359,45.449016730957034,88.87207210693359,43.48719973095703,88.87207210693359,43.48719973095703C88.9415521069336,43.41690373095703,89.01185210693359,43.34741673095703,89.08215210693359,43.27712073095703C89.08215210693359,43.48719973095703,89.08215210693359,43.90735973095703,89.08215210693359,46.35963673095703C89.08215210693359,46.49941673095703,89.08215210693359,46.63920673095703,89.15244210693359,46.77979673095703C89.15244210693359,46.77979673095703,82.0065061069336,46.77979673095703,82.0065061069336,46.77979673095703C82.0065061069336,46.70949673095703,82.0065061069336,46.56971673095703,82.0065061069336,46.42912673095703C82.0065061069336,46.42912673095703,82.0065061069336,46.42912673095703,82.0065061069336,46.42912673095703Z" fill="url(#master_svg1_0_670)" fill-opacity="1"/></g><g style="mix-blend-mode:passthrough"><path d="M95.1066245727539,50.91273913269043C95.1066245727539,50.91273913269043,94.4490245727539,50.20333913269043,94.4490245727539,50.20333913269043C94.4490245727539,50.20333913269043,94.44202457275391,50.210039132690426,94.44202457275391,50.210039132690426C94.44202457275391,50.210039132690426,95.1066245727539,50.91273913269043,95.1066245727539,50.91273913269043C95.1066245727539,50.91273913269043,95.1066245727539,50.91273913269043,95.1066245727539,50.91273913269043ZM76.8223745727539,52.243439132690426C76.8223745727539,52.243439132690426,76.26562457275391,53.03443913269043,76.26562457275391,53.03443913269043C76.2705345727539,53.037939132690425,76.27548457275391,53.04123913269043,76.2804645727539,53.04473913269043C76.2804645727539,53.04473913269043,76.8223745727539,52.243439132690426,76.8223745727539,52.243439132690426C76.8223745727539,52.243439132690426,76.8223745727539,52.243439132690426,76.8223745727539,52.243439132690426ZM98.83302457275391,40.19453913269043C98.83302457275391,44.18323913269043,97.13442457275391,47.713739132690435,94.4490245727539,50.20333913269043C94.4490245727539,50.20333913269043,95.7642245727539,51.62193913269043,95.7642245727539,51.62193913269043C98.8221245727539,48.78703913269043,100.7675245727539,44.75133913269043,100.7675245727539,40.19453913269043C100.7675245727539,40.19453913269043,98.83302457275391,40.19453913269043,98.83302457275391,40.19453913269043C98.83302457275391,40.19453913269043,98.83302457275391,40.19453913269043,98.83302457275391,40.19453913269043ZM94.44202457275391,50.210039132690426C92.02682457275391,52.49403913269043,88.76102457275391,53.86833913269043,85.15922457275391,53.86833913269043C85.15922457275391,53.86833913269043,85.15922457275391,55.80283913269043,85.15922457275391,55.80283913269043C89.26262457275391,55.80283913269043,93.0023245727539,54.23433913269043,95.77122457275391,51.61553913269043C95.77122457275391,51.61553913269043,94.44202457275391,50.210039132690426,94.44202457275391,50.210039132690426C94.44202457275391,50.210039132690426,94.44202457275391,50.210039132690426,94.44202457275391,50.210039132690426ZM85.15922457275391,53.86833913269043C82.2848245727539,53.86833913269043,79.5990245727539,52.95393913269043,77.3642945727539,51.44233913269043C77.3642945727539,51.44233913269043,76.2804645727539,53.04473913269043,76.2804645727539,53.04473913269043C78.80968457275391,54.75533913269043,81.8687245727539,55.80283913269043,85.15922457275391,55.80283913269043C85.15922457275391,55.80283913269043,85.15922457275391,53.86833913269043,85.15922457275391,53.86833913269043C85.15922457275391,53.86833913269043,85.15922457275391,53.86833913269043,85.15922457275391,53.86833913269043ZM77.37913457275391,51.45253913269043C73.8359545727539,48.95843913269043,71.4856245727539,44.90173913269043,71.4856245727539,40.19453913269043C71.4856245727539,40.19453913269043,69.5511245727539,40.19453913269043,69.5511245727539,40.19453913269043C69.5511245727539,45.57453913269043,72.24432457275391,50.20373913269043,76.26562457275391,53.03443913269043C76.26562457275391,53.03443913269043,77.37913457275391,51.45253913269043,77.37913457275391,51.45253913269043C77.37913457275391,51.45253913269043,77.37913457275391,51.45253913269043,77.37913457275391,51.45253913269043ZM71.4856245727539,40.19453913269043C71.4856245727539,32.66926913269043,77.5704545727539,26.52093913269043,85.15922457275391,26.52093913269043C85.15922457275391,26.52093913269043,85.15922457275391,24.58643913269043,85.15922457275391,24.58643913269043C76.4960845727539,24.58643913269043,69.5511245727539,31.60685913269043,69.5511245727539,40.19453913269043C69.5511245727539,40.19453913269043,71.4856245727539,40.19453913269043,71.4856245727539,40.19453913269043C71.4856245727539,40.19453913269043,71.4856245727539,40.19453913269043,71.4856245727539,40.19453913269043ZM85.15922457275391,26.52093913269043C92.74822457275391,26.52093913269043,98.83302457275391,32.66926913269043,98.83302457275391,40.19453913269043C98.83302457275391,40.19453913269043,100.7675245727539,40.19453913269043,100.7675245727539,40.19453913269043C100.7675245727539,31.60685913269043,93.82262457275391,24.58643913269043,85.15922457275391,24.58643913269043C85.15922457275391,24.58643913269043,85.15922457275391,26.52093913269043,85.15922457275391,26.52093913269043C85.15922457275391,26.52093913269043,85.15922457275391,26.52093913269043,85.15922457275391,26.52093913269043Z" fill="#FFFFFF" fill-opacity="1"/></g><g style="mix-blend-mode:passthrough"><path d="M29.186793750000014,40.1946655090332C29.186793750000014,44.32756550903321,27.435893750000016,48.040265509033205,24.633793750000013,50.63236550903321C23.862893750000016,51.332865509033205,23.022593750000013,51.9631655090332,22.111993750000014,52.5238655090332C20.010393750000013,53.7148655090332,17.558093750000015,54.41536550903321,14.966093750000015,54.41536550903321C12.374793750000014,54.41536550903321,9.922533750000014,53.7148655090332,7.820923750000015,52.5238655090332C7.471063750000014,52.3137655090332,7.1906937500000145,52.102965509033204,6.840013750000014,51.8928655090332C3.1975637500000142,49.3710655090332,0.7460937500000142,45.0983655090332,0.7460937500000142,40.1946655090332C0.7460937500000142,32.3481655090332,7.120393750000014,25.973865509033203,14.966093750000015,25.973865509033203C22.812493750000016,25.973865509033203,29.186793750000014,32.3481655090332,29.186793750000014,40.1946655090332C29.186793750000014,40.1946655090332,29.186793750000014,40.1946655090332,29.186793750000014,40.1946655090332Z" fill="#D8E2EB" fill-opacity="1"/></g><g style="mix-blend-mode:passthrough"><path d="M21.83160894012451,47.3397125C23.022608940124513,47.970012499999996,23.933208940124512,49.0204125,24.49320894012451,50.2114125C24.52240894012451,50.2698125,24.539408940124513,50.3280125,24.559408940124513,50.3963125C24.58760894012451,50.4924125,24.62150894012451,50.6082125,24.70320894012451,50.7721125C23.933208940124512,51.5429125,23.09210894012451,52.1029125,22.181508940124512,52.6636125C22.181508940124512,52.6636125,7.681143940124512,52.6636125,7.681143940124512,52.6636125C7.330471940124512,52.6636125,7.050096840124512,52.3833125,6.980608940124512,52.0326125C6.980608940124512,52.0326125,6.980608940124512,51.892812500000005,6.980608940124512,51.892812500000005C6.980608940124512,51.892812500000005,6.980608940124512,51.7530125,6.980608940124512,51.7530125C7.190688940124511,50.3519125,7.960710940124512,48.8806125,9.22199894012451,47.8997125C9.361778940124513,47.7599125,9.642158940124512,47.5498125,9.922528940124511,47.5498125C8.871328940124512,47.3397125,8.101298940124511,46.9187125,7.681143940124512,46.3588125C6.490153940124512,44.8172125,7.470255940124511,42.436012500000004,10.202908940124512,41.5949125C10.202908940124512,41.5949125,10.833148940124511,41.3847925,10.833148940124511,41.3847925C10.833148940124511,41.3847925,10.833148940124511,41.3153125,10.903438940124511,41.3153125C10.704848940124512,41.1416025,10.497538940124512,41.0381125,10.300138940124512,40.9396025C9.940168940124511,40.7599225,9.613158940124512,40.5967125,9.432078940124512,40.0540125C9.29228894012451,39.5635725,9.432078940124512,39.2136825,9.571858940124512,38.9333225C9.615308940124512,38.9333225,9.631898940124511,38.9064625,9.654838940124511,38.8693525C9.669008940124511,38.8464325,9.685608940124512,38.8195825,9.712448940124512,38.792722499999996C9.775798940124512,38.7294025,9.796168940124511,38.7092025,9.799498940124511,38.6864925C9.803528940124512,38.6590925,9.782748940124511,38.6280225,9.782748940124511,38.513152500000004C9.782748940124511,38.513152500000004,9.782748940124511,38.4428725,9.782748940124511,38.4428725C9.782748940124511,38.4428725,9.782748940124511,38.3725625,9.782748940124511,38.3725625C9.712448940124512,37.3916625,9.782748940124511,36.4115625,10.062318940124513,35.5009425C10.412988940124512,34.5200225,10.972928940124511,33.6788925,11.673468940124511,33.0486725C11.673468940124511,33.0486725,11.743758940124511,32.9783625,11.743758940124511,32.9783625C11.814358940124512,32.9434825,11.884748940124512,32.8906525,11.955038940124512,32.8379225C12.024728940124511,32.7856125,12.094328940124512,32.7334025,12.16391894012451,32.6987925C12.794968940124512,32.2083435,13.564988940124511,31.8576665,14.335818940124511,31.6475835C14.75597894012451,31.577301,15.176138940124511,31.5078125,15.666588940124512,31.5078125C17.908808940124512,31.5078125,19.869808940124514,32.7682825,20.921008940124512,34.6598225C21.34120894012451,35.3603525,21.48090894012451,35.9906025,21.55120894012451,36.6216425C21.55120894012451,36.6216425,21.55120894012451,36.9714925,21.55120894012451,36.9714925C21.55120894012451,36.9714925,21.55120894012451,37.3221725,21.55120894012451,37.3221725C21.55120894012451,37.3221725,21.55120894012451,37.8821125,21.55120894012451,37.8821125C21.55120894012451,38.0574325,21.621308940124514,38.2325725,21.69140894012451,38.4077125C21.761508940124514,38.5828525,21.83160894012451,38.7579925,21.83160894012451,38.9333225C21.901108940124512,39.7736525,21.34120894012451,40.4741825,20.570308940124512,40.6842625C20.43050894012451,41.5254125,20.07990894012451,42.2259125,19.589408940124514,42.8561125C19.169308940124512,43.4864125,18.53900894012451,44.0471125,17.908808940124512,44.6071125C17.908808940124512,44.6071125,17.908808940124512,46.6392125,17.908808940124512,46.6392125C17.908808940124512,46.6392125,17.978308940124514,46.7790125,18.959208940124512,46.849312499999996C18.959208940124512,46.849312499999996,19.239608940124512,46.849312499999996,19.239608940124512,46.849312499999996C19.239608940124512,46.849312499999996,19.79950894012451,46.849312499999996,19.79950894012451,46.849312499999996C20.570308940124512,46.849312499999996,21.20060894012451,47.059312500000004,21.83160894012451,47.3397125C21.83160894012451,47.3397125,21.83160894012451,47.3397125,21.83160894012451,47.3397125ZM12.584078940124511,44.0470125C12.373998940124512,43.8370125,12.16391894012451,43.6269125,12.024138940124512,43.4160125C11.673468940124511,43.6964125,11.463388940124512,43.9768125,11.393898940124512,44.1868125C11.393898940124512,44.607012499999996,11.953838940124513,44.9577125,12.514588940124511,45.3075125C12.549438940124512,45.3428125,12.584498940124512,45.3604125,12.619648940124511,45.3780125C12.654588940124512,45.3955125,12.68962894012451,45.4131125,12.724668940124513,45.4481125C12.829708940124512,45.5180125,12.917178940124511,45.5705125,13.004638940124511,45.6230125C13.092108940124511,45.6756125,13.179578940124511,45.7281125,13.284618940124512,45.7980125C13.425158940124511,45.8682125,13.49545894012451,45.9385125,13.635148940124513,46.0782125C13.635148940124513,46.0782125,13.63528894012451,46.0784125,13.63528894012451,46.0784125C13.63528894012451,46.0784125,13.70557894012451,46.1487125,13.70557894012451,46.1487125C13.70557894012451,46.1487125,13.70557894012451,44.887412499999996,13.70557894012451,44.887412499999996C13.670438940124512,44.887412499999996,13.652858940124512,44.8698125,13.63528894012451,44.8522125C13.617708940124512,44.8346125,13.600138940124513,44.8171125,13.564988940124511,44.8171125C13.564988940124511,44.8171125,13.495498940124513,44.7476125,13.495498940124513,44.7476125C13.425208940124513,44.6773125,13.284618940124512,44.5375125,13.144828940124512,44.4672125C12.93474894012451,44.3274125,12.724668940124513,44.1868125,12.584078940124511,44.0470125C12.584078940124511,44.0470125,12.584078940124511,44.0470125,12.584078940124511,44.0470125Z" fill-rule="evenodd" fill="#FFFFFF" fill-opacity="1"/></g><g style="mix-blend-mode:passthrough"><path d="M24.633721133422853,50.632360434570316C23.86292113342285,51.33289043457031,23.022621133422852,51.96313043457031,22.11202113342285,52.523070434570315C20.010421133422852,53.714060434570314,17.55812113342285,54.41460043457031,14.966061133422851,54.41460043457031C12.374811133422853,54.41460043457031,9.92253113342285,53.714060434570314,7.820931133422851,52.523070434570315C7.471068133422851,52.31299043457031,7.190692133422852,52.10291043457031,6.840021133422852,51.89284043457031C6.840021133422852,51.822540434570314,6.840021133422852,51.822540434570314,6.840021133422852,51.75305043457031C6.840021133422852,51.68276043457031,6.840021133422852,51.68276043457031,6.840021133422852,51.61246043457031C7.050101133422851,50.14190043457031,7.820931133422851,48.74083043457031,9.082221133422852,47.75992043457031C9.292301133422852,47.619330434570315,9.502371133422852,47.479550434570314,9.782751133422853,47.40925043457031C8.731541133422851,47.199172434570315,8.031011133422851,46.77901343457031,7.540556133422852,46.21907043457031C7.540556133422852,46.21907043457031,10.903441133422852,46.21907043457031,10.903441133422852,46.21907043457031C11.81406113342285,47.549840434570314,13.354911133422853,48.39016043457031,15.10665113342285,48.39016043457031C16.57721113342285,48.39016043457031,17.90882113342285,47.75992043457031,18.81942113342285,46.77901343457031C18.889721133422853,46.77901343457031,19.029521133422854,46.77901343457031,19.09982113342285,46.77901343457031C19.23952113342285,46.77901343457031,19.449621133422852,46.77901343457031,19.65972113342285,46.77901343457031C20.43052113342285,46.77901343457031,21.060821133422852,46.989093434570314,21.691821133422852,47.269470434570316C22.882021133422853,47.89971043457031,23.792621133422852,48.95091043457031,24.353421133422852,50.14190043457031C24.563421133422853,50.351980434570315,24.563421133422853,50.49177043457031,24.633721133422853,50.632360434570316C24.633721133422853,50.632360434570316,24.633721133422853,50.632360434570316,24.633721133422853,50.632360434570316Z" fill="url(#master_svg2_0_520)" fill-opacity="1"/></g><g style="mix-blend-mode:passthrough"><path d="M17.908790116577148,44.53761672973633C17.908790116577148,44.53761672973633,17.838490116577148,46.42913672973633,17.838490116577148,46.42913672973633C17.838490116577148,46.42913672973633,12.304510116577148,46.639216729736326,12.304510116577148,46.639216729736326C12.304510116577148,46.639216729736326,12.584885116577148,45.37793472973633,12.584885116577148,45.37793472973633C12.654373116577148,45.44823072973633,12.724669116577148,45.44823072973633,12.79496511657715,45.51771872973633C13.005045116577149,45.65830672973633,13.144828116577148,45.72860672973633,13.354910116577148,45.86838672973633C13.425200116577148,45.938686729736325,13.56580011657715,46.00817672973633,13.70558011657715,46.14876672973633C13.70558011657715,46.14876672973633,13.775880116577149,46.218256729736325,13.775880116577149,46.218256729736325C13.775880116577149,46.218256729736325,13.775880116577149,44.957775729736326,13.775880116577149,44.957775729736326C13.70558011657715,44.957775729736326,13.70558011657715,44.88747972973633,13.635280116577148,44.88747972973633C14.686490116577149,45.37793472973633,16.017260116577148,45.65830672973633,17.908790116577148,44.53761672973633C17.908790116577148,44.53761672973633,17.908790116577148,44.53761672973633,17.908790116577148,44.53761672973633Z" fill="url(#master_svg3_0_523)" fill-opacity="1"/></g><g style="mix-blend-mode:passthrough"><path d="M21.480999368286135,36.9714742779541C20.360299368286135,37.3221442779541,19.239569368286134,37.5322242779541,18.048579368286134,37.391634277954104C16.227349368286134,37.2518542779541,14.476409368286133,36.4810242779541,13.075339368286134,35.2900342779541C12.654379368286133,36.6216142779541,11.464199368286133,37.6025242779541,10.202909368286132,38.1624642779541C10.063125368286133,38.232764277954104,9.852238368286132,38.303054277954104,9.712454468286133,38.372544277954105C9.712454468286133,38.372544277954105,9.712454468286133,38.303054277954104,9.712454468286133,38.303054277954104C9.572670768286132,37.3221442779541,9.642158648286133,36.3412342779541,9.992830368286132,35.4306242779541C10.273205368286133,34.5200042779541,10.833149368286133,33.678884277954104,11.533679368286133,32.9783442779541C11.533679368286133,32.9783442779541,11.603979368286133,32.9088642779541,11.603979368286133,32.9088642779541C11.743759368286133,32.7682642779541,11.884359368286132,32.698784277954104,11.953839368286133,32.6284842779541C12.584889368286133,32.138029277954104,13.354909368286133,31.7881652779541,14.196039368286133,31.5772782779541C14.616199368286132,31.507790177954103,15.106649368286133,31.4374942779541,15.526809368286134,31.4374942779541C17.768199368286133,31.4374942779541,19.800299368286133,32.698784277954104,20.780399368286133,34.5894942779541C21.201399368286133,35.2900342779541,21.341199368286134,35.921074277954105,21.411499368286133,36.5513142779541C21.480999368286135,36.6911042779541,21.480999368286135,36.8316942779541,21.480999368286135,36.9714742779541C21.480999368286135,36.9714742779541,21.480999368286135,36.9714742779541,21.480999368286135,36.9714742779541Z" fill="#1C3754" fill-opacity="1"/></g><g style="mix-blend-mode:passthrough"><path d="M14.476412530517578,49.931806142578125C13.98595253051758,50.562046142578126,13.075342530517577,50.562046142578126,12.304512530517577,50.562046142578126C13.14483253051758,49.79121614257812,12.654372530517577,47.199156142578126,9.853042530517579,47.54982614257813C5.999702530517578,46.77899614257812,6.419856530517578,42.78586614257812,10.202902530517578,41.59487614257812C10.202902530517578,41.59487614257812,10.833142530517577,41.384796142578125,10.833142530517577,41.384796142578125C10.903442530517578,41.384796142578125,10.903442530517578,41.45509204257812,10.973732530517578,41.45509204257812C11.254112530517578,42.22592214257813,11.674272530517579,42.926456142578125,12.094432530517578,43.416916142578124C10.553582530517579,44.747686142578125,12.724672530517578,45.097546142578125,13.705582530517578,46.078456142578126C14.616192530517578,46.568916142578125,15.387022530517578,48.81030614257813,14.476412530517578,49.931806142578125C14.476412530517578,49.931806142578125,14.476412530517578,49.931806142578125,14.476412530517578,49.931806142578125Z" fill="#1C3754" fill-opacity="1"/></g><g style="mix-blend-mode:passthrough"><path d="M24.633793758106233,50.63236521911621C24.633793758106233,50.63236521911621,25.135493758106232,51.18446521911621,25.135493758106232,51.18446521911621C25.135493758106232,51.18446521911621,25.140293758106232,51.17996521911621,25.140293758106232,51.17996521911621C25.140293758106232,51.17996521911621,24.633793758106233,50.63236521911621,24.633793758106233,50.63236521911621C24.633793758106233,50.63236521911621,24.633793758106233,50.63236521911621,24.633793758106233,50.63236521911621ZM22.11199375810623,52.52386521911621C22.11199375810623,52.52386521911621,22.479793758106233,53.17286521911621,22.479793758106233,53.17286521911621C22.487693758106232,53.168465219116214,22.49549375810623,53.16386521911621,22.50319375810623,53.159065219116215C22.50319375810623,53.159065219116215,22.11199375810623,52.52386521911621,22.11199375810623,52.52386521911621C22.11199375810623,52.52386521911621,22.11199375810623,52.52386521911621,22.11199375810623,52.52386521911621ZM7.820923758106232,52.52386521911621C7.820923758106232,52.52386521911621,7.4368937581062315,53.16346521911621,7.4368937581062315,53.16346521911621C7.442263758106232,53.16666521911621,7.447673758106232,53.16986521911621,7.453123758106232,53.17286521911621C7.453123758106232,53.17286521911621,7.820923758106232,52.52386521911621,7.820923758106232,52.52386521911621C7.820923758106232,52.52386521911621,7.820923758106232,52.52386521911621,7.820923758106232,52.52386521911621ZM6.840013758106232,51.89286521911621C6.840013758106232,51.89286521911621,6.415383758106231,52.50616521911621,6.415383758106231,52.50616521911621C6.428833758106232,52.51546521911621,6.442593758106232,52.52436521911621,6.456633758106232,52.532765219116214C6.456633758106232,52.532765219116214,6.840013758106232,51.89286521911621,6.840013758106232,51.89286521911621C6.840013758106232,51.89286521911621,6.840013758106232,51.89286521911621,6.840013758106232,51.89286521911621ZM28.44079375810623,40.19466521911621C28.44079375810623,44.11216521911621,26.78229375810623,47.628665219116215,24.12719375810623,50.08476521911621C24.12719375810623,50.08476521911621,25.140293758106232,51.17996521911621,25.140293758106232,51.17996521911621C28.089493758106233,48.451865219116215,29.932793758106232,44.54296521911621,29.932793758106232,40.19466521911621C29.932793758106232,40.19466521911621,28.44079375810623,40.19466521911621,28.44079375810623,40.19466521911621C28.44079375810623,40.19466521911621,28.44079375810623,40.19466521911621,28.44079375810623,40.19466521911621ZM24.131993758106233,50.080265219116214C23.396293758106232,50.74886521911621,22.59319375810623,51.35146521911621,21.720793758106232,51.888665219116206C21.720793758106232,51.888665219116206,22.50319375810623,53.159065219116215,22.50319375810623,53.159065219116215C23.452093758106233,52.574765219116216,24.32949375810623,51.91686521911621,25.135493758106232,51.18446521911621C25.135493758106232,51.18446521911621,24.131993758106233,50.080265219116214,24.131993758106233,50.080265219116214C24.131993758106233,50.080265219116214,24.131993758106233,50.080265219116214,24.131993758106233,50.080265219116214ZM21.74419375810623,51.87486521911621C19.74929375810623,53.005365219116214,17.42309375810623,53.669365219116216,14.966093758106231,53.669365219116216C14.966093758106231,53.669365219116216,14.966093758106231,55.161365219116206,14.966093758106231,55.161365219116206C17.693093758106233,55.161365219116206,20.27149375810623,54.42436521911621,22.479793758106233,53.17286521911621C22.479793758106233,53.17286521911621,21.74419375810623,51.87486521911621,21.74419375810623,51.87486521911621C21.74419375810623,51.87486521911621,21.74419375810623,51.87486521911621,21.74419375810623,51.87486521911621ZM14.966093758106231,53.669365219116216C12.509793758106232,53.669365219116216,10.183593758106232,53.005365219116214,8.188733758106231,51.87486521911621C8.188733758106231,51.87486521911621,7.453123758106232,53.17286521911621,7.453123758106232,53.17286521911621C9.661463758106231,54.42436521911621,12.23979375810623,55.161365219116206,14.966093758106231,55.161365219116206C14.966093758106231,55.161365219116206,14.966093758106231,53.669365219116216,14.966093758106231,53.669365219116216C14.966093758106231,53.669365219116216,14.966093758106231,53.669365219116216,14.966093758106231,53.669365219116216ZM8.204963758106231,51.88436521911621C8.047643758106231,51.78986521911621,7.904433758106232,51.69436521911621,7.744953758106232,51.58786521911621C7.588783758106231,51.48366521911621,7.416603758106231,51.36866521911621,7.223403758106231,51.25286521911621C7.223403758106231,51.25286521911621,6.456633758106232,52.532765219116214,6.456633758106232,52.532765219116214C6.614103758106232,52.62716521911621,6.757453758106232,52.72256521911621,6.916603758106231,52.82886521911621C7.072443758106232,52.93286521911621,7.244343758106232,53.04786521911621,7.4368937581062315,53.16346521911621C7.4368937581062315,53.16346521911621,8.204963758106231,51.88436521911621,8.204963758106231,51.88436521911621C8.204963758106231,51.88436521911621,8.204963758106231,51.88436521911621,8.204963758106231,51.88436521911621ZM7.264653758106232,51.27946521911621C3.8153837581062318,48.89146521911621,1.4920937581062317,44.843965219116214,1.4920937581062317,40.19466521911621C1.4920937581062317,40.19466521911621,0.00009375810623168945,40.19466521911621,0.00009375810623168945,40.19466521911621C0.00009375810623168945,45.35286521911621,2.5797437581062317,49.85066521911621,6.415383758106231,52.50616521911621C6.415383758106231,52.50616521911621,7.264653758106232,51.27946521911621,7.264653758106232,51.27946521911621C7.264653758106232,51.27946521911621,7.264653758106232,51.27946521911621,7.264653758106232,51.27946521911621ZM1.4920937581062317,40.19466521911621C1.4920937581062317,32.76014521911621,7.532423758106232,26.719865219116212,14.966093758106231,26.719865219116212C14.966093758106231,26.719865219116212,14.966093758106231,25.22786521911621,14.966093758106231,25.22786521911621C6.708363758106231,25.22786521911621,0.00009375810623168945,31.93618521911621,0.00009375810623168945,40.19466521911621C0.00009375810623168945,40.19466521911621,1.4920937581062317,40.19466521911621,1.4920937581062317,40.19466521911621C1.4920937581062317,40.19466521911621,1.4920937581062317,40.19466521911621,1.4920937581062317,40.19466521911621ZM14.966093758106231,26.719865219116212C22.400493758106233,26.719865219116212,28.44079375810623,32.76016521911621,28.44079375810623,40.19466521911621C28.44079375810623,40.19466521911621,29.932793758106232,40.19466521911621,29.932793758106232,40.19466521911621C29.932793758106232,31.936165219116212,23.22449375810623,25.22786521911621,14.966093758106231,25.22786521911621C14.966093758106231,25.22786521911621,14.966093758106231,26.719865219116212,14.966093758106231,26.719865219116212C14.966093758106231,26.719865219116212,14.966093758106231,26.719865219116212,14.966093758106231,26.719865219116212Z" fill="#FFFFFF" fill-opacity="1"/></g><g style="mix-blend-mode:passthrough"><path d="M68.00554776306151,43.98416382141113C67.93604776306152,44.40506382141113,67.79544776306153,44.825263821411134,67.72594776306153,45.245463821411136C67.65564776306152,45.59526382141114,67.51504776306152,45.945963821411134,67.37524776306152,46.29586382141113C67.16514776306153,46.85656382141113,66.95514776306152,47.34706382141113,66.74504776306152,47.837463821411134C66.67474776306153,48.117863821411134,66.53494776306152,48.32796382141113,66.39434776306152,48.60826382141113C65.90384776306152,49.518963821411134,65.34394776306152,50.429563821411136,64.71294776306152,51.269863821411136C64.43334776306153,51.619763821411134,64.22324776306152,51.90006382141114,63.94284776306152,52.250763821411134C62.33174776306153,54.07196382141113,60.44024776306152,55.543363821411134,58.33864776306152,56.66406382141113C57.91844776306152,56.87416382141113,57.56774776306152,57.084263821411135,57.14764776306153,57.22396382141113C56.44704776306152,57.50436382141113,55.74654776306153,57.78476382141113,55.04604776306152,57.924563821411134C54.62584776306152,58.06516382141113,54.275147763061526,58.13466382141113,53.85504776306152,58.20486382141113C51.403547763061525,58.76566382141113,48.81144776306152,58.76566382141113,46.219447763061524,58.20486382141113C36.20186776306152,56.10326382141113,29.827567763061523,46.366163821411135,31.858879763061523,36.34856382141113C33.96048776306152,26.33098382141113,43.697647763061525,19.956683821411133,53.71524776306153,21.987995821411133C57.217947763061524,22.758823821411134,60.44024776306152,24.43946382141113,63.03224776306152,27.031523821411135C67.37524776306152,31.51510382141113,69.26674776306152,37.890163821411136,68.00554776306151,43.98416382141113C68.00554776306151,43.98416382141113,68.00554776306151,43.98416382141113,68.00554776306151,43.98416382141113Z" fill="url(#master_svg4_0_681)" fill-opacity="1"/></g><g style="mix-blend-mode:passthrough"><g style="mix-blend-mode:passthrough"><path d="M68.20953874140777,44.351667350866094C67.96403874140776,45.75056735086609,67.47213874140778,47.07576735086609,66.89863874140777,48.3110673508661C66.81633874140778,48.55646735086609,66.65233874140776,48.81006735086609,66.48833874140777,49.1372673508661C65.99733874140776,50.12706735086609,65.42383874140776,50.95326735086609,64.84963874140777,51.86136735086609C64.60403874140778,52.188567350866094,64.35853874140776,52.51576735086609,64.11213874140776,52.85116735086609C62.55583874140777,54.66726735086609,60.589138741407766,56.229667350866094,58.45843874140777,57.301367350866094C58.04893874140777,57.47316735086609,57.639438741407766,57.718567350866095,57.229138741407766,57.88216735086609C56.574138741407765,58.127567350866094,55.83673874140777,58.462967350866094,55.09933874140776,58.62656735086609C52.31363874140777,59.45276735086609,49.28163874140777,59.61636735086609,46.24953874140777,58.953767350866094C36.25293874140777,56.89226735086609,29.780208741407765,46.99396735086609,31.828479741407765,36.84206735086609C33.876748741407766,26.78006735086609,43.709438741407766,20.260237350866092,53.78843874140777,22.32171735086609C57.311538741407766,23.066137350866093,60.589138741407766,24.800397350866092,63.12923874140777,27.434497350866092C67.63613874140776,31.81104735086609,69.52043874140776,38.159067350866096,68.20953874140777,44.351667350866094C68.20953874140777,44.351667350866094,68.20953874140777,44.351667350866094,68.20953874140777,44.351667350866094Z" fill="url(#master_svg5_0_685)" fill-opacity="1"/></g><g style="mix-blend-mode:passthrough"><path d="M46.90499013442993,55.88777033004761C47.97029013442993,56.132570330047606,49.03489013442993,56.214070330047605,50.10019013442993,56.214070330047605C51.49339013442993,56.214070330047605,52.968290134429935,56.050970330047605,54.44309013442993,55.80627033004761C54.83819013442994,55.693770330047606,55.23339013442993,55.53877033004761,55.65549013442993,55.37317033004761C55.84599013442993,55.29847033004761,56.041890134429934,55.22157033004761,56.24579013442993,55.14547033004761C56.57369013442993,54.98237033004761,56.90159013442993,54.81927033004761,57.22879013442993,54.65607033004761C59.03149013442993,53.6690703300476,60.67029013442993,52.42917033004761,61.98189013442993,50.871170330047605C62.10209013442993,50.74737033004761,62.20269013442993,50.60607033004761,62.30289013442993,50.46527033004761C62.407490134429935,50.3184703300476,62.51159013442993,50.17227033004761,62.63699013442994,50.04727033004761C62.63699013442994,50.04727033004761,62.63699013442994,50.04727033004761,62.63699013442994,50.04727033004761C63.12889013442993,49.30497033004761,63.620690134429935,48.56267033004761,64.03019013442993,47.7469703300476C64.14249013442993,47.57377033004761,64.21609013442993,47.40447033004761,64.27789013442992,47.262470330047606C64.30629013442993,47.19717033004761,64.33219013442994,47.13767033004761,64.35809013442993,47.08617033004761C64.84919013442993,46.017570330047604,65.17709013442993,44.86747033004761,65.42259013442992,43.70917033004761C66.48799013442994,38.52927033004761,64.93159013442994,33.17820033004761,61.16209013442993,29.393270330047606C59.03149013442993,27.256080330047606,56.32739013442993,25.779630330047606,53.296190134429935,25.118902330047607C49.19879013442993,24.213454330047607,45.01989013442993,25.037330330047606,41.49679013442993,27.33766033004761C38.05527013442993,29.646140330047608,35.59751013442993,33.17820033004761,34.77771213442993,37.297570330047606C32.97497013442993,45.76477033004761,38.46476013442993,54.15847033004761,46.90499013442993,55.88777033004761C46.90499013442993,55.88777033004761,46.90499013442993,55.88777033004761,46.90499013442993,55.88777033004761ZM42.23401013442993,28.577490330047606C44.61019013442993,27.011310330047607,47.23189013442993,26.187430330047608,50.018390134429936,26.187430330047608C51.00139013442993,26.187430330047608,51.98509013442993,26.269010330047607,52.886490134429934,26.603450330047608C55.58979013442993,27.174450330047605,58.12989013442993,28.495920330047607,60.09659013442993,30.469960330047606C63.45659013442993,33.92045033004761,64.93139013442993,38.773970330047604,63.94759013442993,43.54597033004761C63.78369013442993,44.614570330047606,63.45659013442993,45.60157033004761,62.96469013442993,46.5885703300476C62.92389013442993,46.67017033004761,62.88289013442993,46.77417033004761,62.84189013442993,46.87817033004761C62.800890134429935,46.98217033004761,62.75999013442993,47.08617033004761,62.71919013442994,47.167670330047606C62.30889013442993,47.9100703300476,61.899390134429936,48.562570330047606,61.407490134429935,49.22337033004761C61.32549013442993,49.346370330047606,61.22249013442993,49.47147033004761,61.119390134429935,49.59647033004761C61.017490134429934,49.72017033004761,60.915590134429934,49.84397033004761,60.83399013442993,49.96567033004761C59.60559013442993,51.360470330047605,58.12989013442993,52.5106703300476,56.49119013442993,53.33457033004761C56.345590134429926,53.43127033004761,56.17109013442993,53.502170330047605,55.98479013442993,53.5778703300476C55.85679013442993,53.62987033004761,55.72329013442993,53.68417033004761,55.58979013442993,53.75057033004761C55.15499013442993,53.936070330047606,54.72019013442993,54.074770330047606,54.320990134429934,54.202070330047604C54.19359013442993,54.24267033004761,54.06989013442993,54.282170330047606,53.95099013442993,54.32157033004761C51.738790134429934,54.98227033004761,49.36259013442993,55.06387033004761,47.150390134429934,54.5744703300476C39.448340134429934,52.92667033004761,34.44961003442993,45.356870330047606,36.08839013442993,37.623770330047606C36.82580013442993,33.92045033004761,39.03803013442993,30.714670330047607,42.23401013442993,28.577490330047606C42.23401013442993,28.577490330047606,42.23401013442993,28.577490330047606,42.23401013442993,28.577490330047606Z" fill-rule="evenodd" fill="#F9B400" fill-opacity="1"/></g><g style="mix-blend-mode:passthrough"><path d="M66.86269399871826,49.26248398742676C66.36749399871826,50.16838398742676,65.87159399871825,50.99268398742676,65.29339399871826,51.81698398742676C65.04499399871827,52.14338398742676,64.79739399871826,52.469883987426755,64.54979399871826,52.80448398742676C62.97969399871826,54.616283987426755,60.996693998718264,56.17508398742676,58.84919399871826,57.244283987426755C58.43549399871826,57.40748398742676,58.022593998718264,57.66048398742676,57.609693998718264,57.82368398742676C56.94839399871826,58.06858398742676,55.43867399871826,58.93768398742676,54.695143998718265,59.10908398742676C54.695143998718265,59.10908398742676,46.47029399871826,50.13158398742676,46.47029399871826,50.13158398742676C46.47029399871826,50.13158398742676,48.406053998718264,49.26248398742676,48.406053998718264,49.26248398742676C48.406053998718264,49.26248398742676,50.17147399871826,47.12418398742676,50.17147399871826,47.12418398742676C50.17147399871826,47.12418398742676,50.17147399871826,44.01048398742676,50.17147399871826,44.01048398742676C50.17147399871826,44.01048398742676,50.582723998718265,41.97018398742676,50.582723998718265,41.97018398742676C50.582723998718265,41.97018398742676,50.993963998718264,38.29754398742676,49.22854399871826,38.29754398742676C50.993963998718264,38.29754398742676,50.993963998718264,35.849133987426754,50.993963998718264,35.849133987426754C50.993963998718264,35.849133987426754,52.63893399871826,32.176520987426755,52.63893399871826,32.176520987426755C52.63893399871826,32.176520987426755,56.34012399871826,31.360383987426758,56.34012399871826,31.360383987426758C56.34012399871826,31.360383987426758,67.85459399871826,47.12418398742676,67.85459399871826,47.12418398742676C67.77149399871826,47.36898398742676,66.94569399871827,48.93598398742676,66.86269399871826,49.26248398742676C66.86269399871826,49.26248398742676,66.86269399871826,49.26248398742676,66.86269399871826,49.26248398742676Z" fill="url(#master_svg6_0_691)" fill-opacity="1"/></g><g style="mix-blend-mode:passthrough" transform="matrix(1,0,0,-1,0,100.90687561035156)"><path d="M55.596732775878905,70.05573780517578C54.145332775878906,70.05573780517578,52.96274277587891,69.53103780517579,52.048912775878904,68.47863780517578C51.1350927758789,67.42623780517579,50.588072775878906,65.97093780517578,50.40467277587891,64.10663780517578C50.40467277587891,64.10663780517578,50.379372775878906,63.888037805175784,50.379372775878906,63.888037805175784C50.379372775878906,63.888037805175784,46.33514277587891,63.888037805175784,46.33514277587891,63.888037805175784C46.33514277587891,63.888037805175784,45.20629277587891,62.345237805175785,45.20629277587891,62.345237805175785C45.20629277587891,62.345237805175785,50.25921277587891,62.345237805175785,50.25921277587891,62.345237805175785C50.25921277587891,62.345237805175785,50.120082775878906,61.24923780517578,50.120082775878906,61.24923780517578C50.120082775878906,61.24923780517578,44.80154277587891,61.24923780517578,44.80154277587891,61.24923780517578C44.80154277587891,61.24923780517578,43.669532775878906,59.706377805175784,43.669532775878906,59.706377805175784C43.669532775878906,59.706377805175784,49.98728277587891,59.706377805175784,49.98728277587891,59.706377805175784C49.98728277587891,59.706377805175784,49.6363027758789,56.56176780517578,49.6363027758789,56.56176780517578C49.6363027758789,56.56176780517578,49.44024277587891,54.71927780517578,49.44024277587891,54.71927780517578C49.218892775878906,52.59884780517578,48.415742775878904,51.537077805175784,47.03077277587891,51.537077805175784C47.03077277587891,51.537077805175784,46.271892775878904,51.67135780517578,46.271892775878904,51.67135780517578C46.271892775878904,51.67135780517578,46.271892775878904,50.45343780517578,46.271892775878904,50.45343780517578C46.271892775878904,50.45343780517578,47.46713277587891,50.67828480517578,47.46713277587891,50.67828480517578C48.004682775878905,50.89376280517578,48.513772775878905,51.218546805175784,48.991232775878906,51.649497805175784C49.63945277587891,52.23347780517578,50.1106027758789,52.89239780517578,50.401512775878906,53.62314780517578C50.69241277587891,54.35077780517578,50.904282775878904,55.40318780517578,51.04024277587891,56.77724780517578C51.04024277587891,56.77724780517578,51.35959277587891,59.706377805175784,51.35959277587891,59.706377805175784C51.35959277587891,59.706377805175784,52.50122277587891,59.706377805175784,52.50122277587891,59.706377805175784C52.50122277587891,59.706377805175784,53.63007277587891,61.24923780517578,53.63007277587891,61.24923780517578C53.63007277587891,61.24923780517578,51.492412775878904,61.24923780517578,51.492412775878904,61.24923780517578C51.492412775878904,61.24923780517578,51.62521277587891,62.585837805175785,51.62521277587891,62.585837805175785C51.62521277587891,62.585837805175785,53.79433277587891,62.585837805175785,53.79433277587891,62.585837805175785C53.79433277587891,62.585837805175785,54.92323277587891,63.888037805175784,54.92323277587891,63.888037805175784C54.92323277587891,63.888037805175784,51.7548527758789,63.888037805175784,51.7548527758789,63.888037805175784C51.7548527758789,63.888037805175784,51.85287277587891,64.73743780517579,51.85287277587891,64.73743780517579C52.01729277587891,66.38633780517578,52.27027277587891,67.48553780517578,52.614932775878906,68.04143780517578C52.9595927758789,68.59733780517578,53.531922775878904,68.87523780517579,54.33503277587891,68.87523780517579C54.67343277587891,68.87523780517579,55.056032775878904,68.80343780517578,55.47973277587891,68.65973780517578C55.47973277587891,68.65973780517578,56.652832775878906,69.93393780517579,56.652832775878906,69.93393780517579C56.21963277587891,70.01513780517578,55.86863277587891,70.05573780517578,55.596732775878905,70.05573780517578C55.596732775878905,70.05573780517578,55.596732775878905,70.05573780517578,55.596732775878905,70.05573780517578Z" fill="url(#master_svg7_0_694)" fill-opacity="1"/></g></g></g></svg>