<svg xmlns="http://www.w3.org/2000/svg" xmlns:xlink="http://www.w3.org/1999/xlink" fill="none" version="1.1" width="82" height="82" viewBox="0 0 82 82"><defs><linearGradient x1="0.0009851754875853658" y1="0.9937863349914551" x2="1.0007036924362183" y2="0.9937863349914551" id="master_svg0_0_1181"><stop offset="0%" stop-color="#51DFD4" stop-opacity="1"/><stop offset="100%" stop-color="#1BE068" stop-opacity="1"/></linearGradient><linearGradient x1="-0.0004527755081653595" y1="1.000490427017212" x2="0.9995472431182861" y2="1.000490427017212" id="master_svg1_0_1184"><stop offset="0%" stop-color="#51DFD4" stop-opacity="1"/><stop offset="100%" stop-color="#1BE068" stop-opacity="1"/></linearGradient><linearGradient x1="0.0009548058733344078" y1="1.000262975692749" x2="1.0005000829696655" y2="1.000262975692749" id="master_svg2_0_1187"><stop offset="0%" stop-color="#51DFD4" stop-opacity="1"/><stop offset="100%" stop-color="#1BE068" stop-opacity="1"/></linearGradient><linearGradient x1="0.005013622343540192" y1="0.9948570728302002" x2="1.0007526874542236" y2="0.9948570728302002" id="master_svg3_0_685"><stop offset="0%" stop-color="#FFD44F" stop-opacity="1"/><stop offset="100%" stop-color="#FFA607" stop-opacity="1"/></linearGradient><linearGradient x1="-0.04540882632136345" y1="0.5145052671432495" x2="0.3587898015975952" y2="0.8224464058876038" id="master_svg4_0_691"><stop offset="0%" stop-color="#FAA404" stop-opacity="1"/><stop offset="100%" stop-color="#FF7904" stop-opacity="0.00009999999747378752"/></linearGradient><linearGradient x1="-1.1770882935024929e-8" y1="0.5416666865348816" x2="1.40625" y2="-0.2916666567325592" id="master_svg5_0_694"><stop offset="0%" stop-color="#FFFFFF" stop-opacity="1"/><stop offset="99.98999834060669%" stop-color="#FFB93C" stop-opacity="1"/><stop offset="100%" stop-color="#FFA607" stop-opacity="1"/></linearGradient></defs><g style="mix-blend-mode:passthrough"><g style="mix-blend-mode:passthrough"></g><g style="mix-blend-mode:passthrough"><path d="M41,80C40.8369,80,40.674,79.999,40.5114,79.997C40.5114,79.997,40.4869,81.9969,40.4869,81.9969C40.6577,81.999,40.8287,82,41,82C41,82,41,80,41,80C41,80,41,80,41,80ZM34.7031,79.4945C34.3823,79.4424,34.0629,79.3865,33.7448,79.3266C33.7448,79.3266,33.3751,81.2922,33.3751,81.2922C33.7096,81.3551,34.0455,81.4139,34.3827,81.4687C34.3827,81.4687,34.7031,79.4945,34.7031,79.4945C34.7031,79.4945,34.7031,79.4945,34.7031,79.4945ZM28.1144,77.8216C27.8082,77.7144,27.5037,77.6035,27.201,77.489C27.201,77.489,26.4933,79.3596,26.4933,79.3596C26.8116,79.4801,27.1319,79.5966,27.4539,79.7093C27.4539,79.7093,28.1144,77.8216,28.1144,77.8216C28.1144,77.8216,28.1144,77.8216,28.1144,77.8216ZM21.9198,75.0225C21.6371,74.8636,21.3565,74.7013,21.0782,74.5356C21.0782,74.5356,20.0551,76.2541,20.0551,76.2541C20.3477,76.4283,20.6427,76.5989,20.9399,76.766C20.9399,76.766,21.9198,75.0225,21.9198,75.0225C21.9198,75.0225,21.9198,75.0225,21.9198,75.0225ZM16.3053,71.1878C16.0544,70.9823,15.8061,70.7738,15.5605,70.5622C15.5605,70.5622,14.2553,72.0776,14.2553,72.0776C14.5134,72.2999,14.7744,72.5191,15.0381,72.7351C15.0381,72.7351,16.3053,71.1878,16.3053,71.1878C16.3053,71.1878,16.3053,71.1878,16.3053,71.1878ZM11.4378,66.4395C11.2262,66.1938,11.0176,65.9455,10.8121,65.6946C10.8121,65.6946,9.26486,66.9619,9.26486,66.9619C9.48083,67.2256,9.70003,67.4866,9.92239,67.7447C9.92239,67.7447,11.4378,66.4395,11.4378,66.4395C11.4378,66.4395,11.4378,66.4395,11.4378,66.4395ZM7.46437,60.9218C7.29867,60.6435,7.13635,60.3629,6.97744,60.0802C6.97744,60.0802,5.23393,61.0601,5.23393,61.0601C5.401,61.3573,5.57166,61.6523,5.74586,61.9449C5.74586,61.9449,7.46437,60.9218,7.46437,60.9218C7.46437,60.9218,7.46437,60.9218,7.46437,60.9218ZM4.51091,54.799C4.39639,54.4963,4.28553,54.1918,4.17838,53.8856C4.17838,53.8856,2.2906,54.5461,2.2906,54.5461C2.40329,54.8682,2.51987,55.1884,2.64031,55.5067C2.64031,55.5067,4.51091,54.799,4.51091,54.799C4.51091,54.799,4.51091,54.799,4.51091,54.799ZM2.67333,48.2552C2.6135,47.9371,2.55754,47.6177,2.50548,47.2969C2.50548,47.2969,0.531305,47.6173,0.531305,47.6173C0.586037,47.9545,0.644884,48.2904,0.707793,48.6249C0.707793,48.6249,2.67333,48.2552,2.67333,48.2552C2.67333,48.2552,2.67333,48.2552,2.67333,48.2552ZM2.003,41.4886C2.001,41.326,2,41.1631,2,41C2,41,0,41,0,41C0,41.1713,0.001051,41.3423,0.003146,41.5131C0.003146,41.5131,2.003,41.4886,2.003,41.4886C2.003,41.4886,2.003,41.4886,2.003,41.4886ZM2,41C2,40.8369,2.001,40.674,2.003,40.5114C2.003,40.5114,0.003146,40.4869,0.003146,40.4869C0.001051,40.6577,0,40.8287,0,41C0,41,2,41,2,41C2,41,2,41,2,41ZM2.50548,34.7031C2.55754,34.3823,2.6135,34.0629,2.67333,33.7448C2.67333,33.7448,0.707793,33.3751,0.707793,33.3751C0.644884,33.7096,0.586037,34.0455,0.531306,34.3827C0.531306,34.3827,2.50548,34.7031,2.50548,34.7031C2.50548,34.7031,2.50548,34.7031,2.50548,34.7031ZM4.17838,28.1144C4.28553,27.8082,4.39639,27.5037,4.51091,27.201C4.51091,27.201,2.64031,26.4933,2.64031,26.4933C2.51988,26.8116,2.40329,27.1318,2.2906,27.4539C2.2906,27.4539,4.17838,28.1144,4.17838,28.1144C4.17838,28.1144,4.17838,28.1144,4.17838,28.1144ZM6.97744,21.9198C7.13635,21.6371,7.29867,21.3565,7.46437,21.0782C7.46437,21.0782,5.74586,20.0551,5.74586,20.0551C5.57166,20.3477,5.401,20.6427,5.23393,20.9399C5.23393,20.9399,6.97744,21.9198,6.97744,21.9198C6.97744,21.9198,6.97744,21.9198,6.97744,21.9198ZM10.8121,16.3054C11.0176,16.0545,11.2262,15.8062,11.4378,15.5605C11.4378,15.5605,9.9224,14.2553,9.9224,14.2553C9.70004,14.5134,9.48084,14.7744,9.26486,15.0381C9.26486,15.0381,10.8121,16.3054,10.8121,16.3054C10.8121,16.3054,10.8121,16.3054,10.8121,16.3054ZM15.5605,11.4378C15.8061,11.2262,16.0544,11.0177,16.3053,10.8122C16.3053,10.8122,15.0381,9.2649,15.0381,9.2649C14.7744,9.48087,14.5134,9.70007,14.2553,9.92243C14.2553,9.92243,15.5605,11.4378,15.5605,11.4378C15.5605,11.4378,15.5605,11.4378,15.5605,11.4378ZM21.0782,7.46444C21.3565,7.29874,21.6371,7.13642,21.9198,6.97751C21.9198,6.97751,20.9399,5.234,20.9399,5.234C20.6427,5.40107,20.3477,5.57173,20.0551,5.74593C20.0551,5.74593,21.0782,7.46444,21.0782,7.46444C21.0782,7.46444,21.0782,7.46444,21.0782,7.46444ZM27.201,4.51097C27.5037,4.39645,27.8082,4.28559,28.1144,4.17845C28.1144,4.17845,27.4539,2.29067,27.4539,2.29067C27.1319,2.40335,26.8116,2.51994,26.4933,2.64038C26.4933,2.64038,27.201,4.51097,27.201,4.51097C27.201,4.51097,27.201,4.51097,27.201,4.51097ZM33.7448,2.67336C34.0629,2.61353,34.3823,2.55756,34.7031,2.5055C34.7031,2.5055,34.3827,0.531331,34.3827,0.531331C34.0455,0.586065,33.7096,0.644914,33.3751,0.707825C33.3751,0.707825,33.7448,2.67336,33.7448,2.67336C33.7448,2.67336,33.7448,2.67336,33.7448,2.67336ZM40.5114,2.003C40.674,2.001,40.8369,2,41,2C41,2,41,0,41,0C40.8287,0,40.6577,0.001051,40.4869,0.003147C40.4869,0.003147,40.5114,2.003,40.5114,2.003C40.5114,2.003,40.5114,2.003,40.5114,2.003ZM41,2C41.1631,2,41.326,2.001,41.4886,2.003C41.4886,2.003,41.5131,0.003147,41.5131,0.003147C41.3423,0.001051,41.1713,0,41,0C41,0,41,2,41,2C41,2,41,2,41,2ZM47.2969,2.5055C47.6177,2.55756,47.9371,2.61353,48.2552,2.67336C48.2552,2.67336,48.6249,0.707825,48.6249,0.707825C48.2904,0.644913,47.9545,0.586065,47.6173,0.531331C47.6173,0.531331,47.2969,2.5055,47.2969,2.5055C47.2969,2.5055,47.2969,2.5055,47.2969,2.5055ZM53.8856,4.17845C54.1918,4.28559,54.4963,4.39645,54.799,4.51097C54.799,4.51097,55.5067,2.64038,55.5067,2.64038C55.1884,2.51994,54.8681,2.40335,54.5461,2.29067C54.5461,2.29067,53.8856,4.17845,53.8856,4.17845C53.8856,4.17845,53.8856,4.17845,53.8856,4.17845ZM60.0802,6.97751C60.3629,7.13642,60.6435,7.29874,60.9218,7.46444C60.9218,7.46444,61.9449,5.74593,61.9449,5.74593C61.6523,5.57173,61.3573,5.40107,61.0601,5.234C61.0601,5.234,60.0802,6.97751,60.0802,6.97751C60.0802,6.97751,60.0802,6.97751,60.0802,6.97751ZM65.6947,10.8122C65.9456,11.0177,66.1939,11.2262,66.4395,11.4378C66.4395,11.4378,67.7447,9.92243,67.7447,9.92243C67.4866,9.70007,67.2256,9.48087,66.9619,9.2649C66.9619,9.2649,65.6947,10.8122,65.6947,10.8122C65.6947,10.8122,65.6947,10.8122,65.6947,10.8122ZM70.5622,15.5605C70.7738,15.8062,70.9824,16.0545,71.1879,16.3054C71.1879,16.3054,72.7351,15.0381,72.7351,15.0381C72.5192,14.7744,72.3,14.5134,72.0776,14.2553C72.0776,14.2553,70.5622,15.5605,70.5622,15.5605C70.5622,15.5605,70.5622,15.5605,70.5622,15.5605ZM74.5356,21.0782C74.7013,21.3565,74.8637,21.6371,75.0226,21.9198C75.0226,21.9198,76.7661,20.9399,76.7661,20.9399C76.599,20.6427,76.4283,20.3477,76.2541,20.0551C76.2541,20.0551,74.5356,21.0782,74.5356,21.0782C74.5356,21.0782,74.5356,21.0782,74.5356,21.0782ZM77.4891,27.201C77.6036,27.5037,77.7145,27.8082,77.8216,28.1144C77.8216,28.1144,79.7094,27.4539,79.7094,27.4539C79.5967,27.1318,79.4801,26.8116,79.3597,26.4933C79.3597,26.4933,77.4891,27.201,77.4891,27.201C77.4891,27.201,77.4891,27.201,77.4891,27.201ZM79.3267,33.7448C79.3865,34.0629,79.4425,34.3823,79.4945,34.7031C79.4945,34.7031,81.4687,34.3827,81.4687,34.3827C81.414,34.0455,81.3551,33.7096,81.2922,33.3751C81.2922,33.3751,79.3267,33.7448,79.3267,33.7448C79.3267,33.7448,79.3267,33.7448,79.3267,33.7448ZM79.997,40.5114C79.999,40.674,80,40.8369,80,41C80,41,82,41,82,41C82,40.8287,81.999,40.6577,81.9969,40.4869C81.9969,40.4869,79.997,40.5114,79.997,40.5114C79.997,40.5114,79.997,40.5114,79.997,40.5114ZM80,41C80,41.1631,79.999,41.326,79.997,41.4886C79.997,41.4886,81.9969,41.5131,81.9969,41.5131C81.999,41.3423,82,41.1713,82,41C82,41,80,41,80,41C80,41,80,41,80,41ZM79.4945,47.2969C79.4425,47.6177,79.3865,47.9371,79.3267,48.2552C79.3267,48.2552,81.2922,48.6249,81.2922,48.6249C81.3551,48.2904,81.414,47.9545,81.4687,47.6173C81.4687,47.6173,79.4945,47.2969,79.4945,47.2969C79.4945,47.2969,79.4945,47.2969,79.4945,47.2969ZM77.8216,53.8856C77.7145,54.1918,77.6036,54.4963,77.4891,54.799C77.4891,54.799,79.3597,55.5067,79.3597,55.5067C79.4801,55.1884,79.5967,54.8682,79.7094,54.5461C79.7094,54.5461,77.8216,53.8856,77.8216,53.8856C77.8216,53.8856,77.8216,53.8856,77.8216,53.8856ZM75.0226,60.0802C74.8637,60.3629,74.7013,60.6435,74.5356,60.9218C74.5356,60.9218,76.2541,61.9449,76.2541,61.9449C76.4283,61.6523,76.599,61.3573,76.7661,61.0601C76.7661,61.0601,75.0226,60.0802,75.0226,60.0802C75.0226,60.0802,75.0226,60.0802,75.0226,60.0802ZM71.1879,65.6946C70.9824,65.9455,70.7738,66.1938,70.5622,66.4395C70.5622,66.4395,72.0776,67.7447,72.0776,67.7447C72.3,67.4866,72.5192,67.2256,72.7351,66.9619C72.7351,66.9619,71.1879,65.6946,71.1879,65.6946C71.1879,65.6946,71.1879,65.6946,71.1879,65.6946ZM66.4395,70.5622C66.1939,70.7738,65.9456,70.9823,65.6947,71.1878C65.6947,71.1878,66.9619,72.7351,66.9619,72.7351C67.2256,72.5191,67.4866,72.2999,67.7447,72.0776C67.7447,72.0776,66.4395,70.5622,66.4395,70.5622C66.4395,70.5622,66.4395,70.5622,66.4395,70.5622ZM60.9218,74.5356C60.6435,74.7013,60.3629,74.8636,60.0802,75.0225C60.0802,75.0225,61.0601,76.766,61.0601,76.766C61.3573,76.5989,61.6523,76.4283,61.9449,76.2541C61.9449,76.2541,60.9218,74.5356,60.9218,74.5356C60.9218,74.5356,60.9218,74.5356,60.9218,74.5356ZM54.799,77.489C54.4963,77.6035,54.1918,77.7144,53.8856,77.8216C53.8856,77.8216,54.5461,79.7093,54.5461,79.7093C54.8681,79.5966,55.1884,79.4801,55.5067,79.3596C55.5067,79.3596,54.799,77.489,54.799,77.489C54.799,77.489,54.799,77.489,54.799,77.489ZM48.2552,79.3266C47.9371,79.3865,47.6177,79.4424,47.2969,79.4945C47.2969,79.4945,47.6173,81.4687,47.6173,81.4687C47.9545,81.4139,48.2904,81.3551,48.6249,81.2922C48.6249,81.2922,48.2552,79.3266,48.2552,79.3266C48.2552,79.3266,48.2552,79.3266,48.2552,79.3266ZM41.4886,79.997C41.326,79.999,41.1631,80,41,80C41,80,41,82,41,82C41.1713,82,41.3423,81.999,41.5131,81.9969C41.5131,81.9969,41.4886,79.997,41.4886,79.997C41.4886,79.997,41.4886,79.997,41.4886,79.997Z" fill="#EAEEF9" fill-opacity="1"/></g><g style="mix-blend-mode:passthrough"><path d="M41.000309375,55.1533796875C48.815609375,55.1533796875,55.150909375,48.8133796875,55.150909375,40.9999796875C55.150909375,33.1866796875,48.815609375,26.8466796875,41.000309375,26.8466796875C33.184939375,26.8466796875,26.849609375,33.1866796875,26.849609375,40.9999796875C26.849609375,48.8133796875,33.184939375,55.1533796875,41.000309375,55.1533796875C41.000309375,55.1533796875,41.000309375,55.1533796875,41.000309375,55.1533796875Z" fill="#FFFFFF" fill-opacity="1"/></g><g style="mix-blend-mode:passthrough"><path d="M52.519728625488284,42.393496171875C52.519728625488284,42.393496171875,38.30902862548828,42.393496171875,38.30902862548828,42.393496171875C38.30902862548828,42.393496171875,38.30902862548828,40.746826171875,38.30902862548828,40.746826171875C38.30902862548828,40.746826171875,52.49902862548828,40.746826171875,52.49902862548828,40.746826171875C52.45832862548828,41.300159171875,52.47832862548828,41.833496171875,52.519728625488284,42.393496171875C52.519728625488284,42.393496171875,52.519728625488284,42.393496171875,52.519728625488284,42.393496171875Z" fill="url(#master_svg0_0_1181)" fill-opacity="1"/></g><g style="mix-blend-mode:passthrough"><path d="M53.05364324951172,44.573183671875C53.05364324951172,44.573183671875,50.85634324951172,44.573183671875,50.85634324951172,44.573183671875C49.70634324951172,44.573183671875,48.78234324951172,45.499843671875,48.78234324951172,46.679843671875C48.78234324951172,46.679843671875,48.78234324951172,59.593213671875,48.78234324951172,59.593213671875C48.78234324951172,61.653213671875,47.11897324951172,63.319813671874996,45.04497324951172,63.319813671874996C45.04497324951172,63.319813671874996,38.32964324951172,63.319813671874996,38.32964324951172,63.319813671874996C38.32964324951172,63.319813671874996,38.32964324951172,61.673213671875004,38.32964324951172,61.673213671875004C38.32964324951172,61.673213671875004,45.04497324951172,61.673213671875004,45.04497324951172,61.673213671875004C46.19497324951172,61.673213671875004,47.13964324951172,60.746513671875,47.13964324951172,59.593213671875C47.13964324951172,59.593213671875,47.13964324951172,46.679843671875,47.13964324951172,46.679843671875C47.13964324951172,44.619843671875,48.80294324951172,42.926513671875,50.85634324951172,42.926513671875C50.85634324951172,42.926513671875,52.60164324951172,42.926513671875,52.60164324951172,42.926513671875C52.70434324951172,43.506513671875,52.84834324951172,44.059843671875,53.05364324951172,44.573183671875C53.05364324951172,44.573183671875,53.05364324951172,44.573183671875,53.05364324951172,44.573183671875Z" fill="url(#master_svg1_0_1184)" fill-opacity="1"/></g><g style="mix-blend-mode:passthrough"><path d="M52.97172862548828,38.520015429687504C52.909728625488285,38.666615429687496,52.86902862548828,38.8266154296875,52.827728625488284,38.9733154296875C52.766328625488285,39.1800154296875,52.70432862548828,39.4066154296875,52.66372862548828,39.6333154296875C52.62232862548828,39.8200154296875,52.60172862548828,39.9800154296875,52.561028625488284,40.166615429687496C52.561028625488284,40.166615429687496,50.83572862548828,40.166615429687496,50.83572862548828,40.166615429687496C48.78232862548828,40.166615429687496,47.11902862548828,38.5000154296875,47.11902862548828,36.4400154296875C47.11902862548828,36.4400154296875,47.11902862548828,23.5266454296875,47.11902862548828,23.5266454296875C47.11902862548828,22.3733154296875,46.17435862548828,21.4199854296875,45.02435862548828,21.4199854296875C45.02435862548828,21.4199854296875,38.30902862548828,21.4199854296875,38.30902862548828,21.4199854296875C38.30902862548828,21.4199854296875,38.30902862548828,19.7733154296875,38.30902862548828,19.7733154296875C38.30902862548828,19.7733154296875,45.02435862548828,19.7733154296875,45.02435862548828,19.7733154296875C47.07769862548828,19.7733154296875,48.76172862548828,21.4466454296875,48.76172862548828,23.5266454296875C48.76172862548828,23.5266454296875,48.76172862548828,36.4400154296875,48.76172862548828,36.4400154296875C48.76172862548828,37.5933154296875,49.68572862548828,38.520015429687504,50.83572862548828,38.520015429687504C50.83572862548828,38.520015429687504,52.86902862548828,38.8266154296875,52.97172862548828,38.520015429687504C52.97172862548828,38.520015429687504,52.97172862548828,38.520015429687504,52.97172862548828,38.520015429687504Z" fill="url(#master_svg2_0_1187)" fill-opacity="1"/></g><g style="mix-blend-mode:passthrough"><path d="M20.833156812744143,69.99330078125C20.833156812744143,69.99330078125,11.531159812744141,69.99330078125,11.531159812744141,69.99330078125C11.30515981274414,69.99330078125,11.09982681274414,69.80663078124999,11.09982681274414,69.55996778125C11.09982681274414,69.55996778125,11.09982681274414,68.63330078125,11.09982681274414,68.63330078125C11.09982681274414,68.63330078125,21.26452681274414,68.63330078125,21.26452681274414,68.63330078125C21.26452681274414,68.63330078125,21.26452681274414,69.55996778125,21.26452681274414,69.55996778125C21.26452681274414,69.78663078125,21.07982681274414,69.99330078125,20.833156812744143,69.99330078125C20.833156812744143,69.99330078125,20.833156812744143,69.99330078125,20.833156812744143,69.99330078125Z" fill="#CED7E2" fill-opacity="1"/></g><g style="mix-blend-mode:passthrough"><path d="M25.14605024902344,69.9933203125C25.14605024902344,69.9933203125,21.902047249023436,69.9933203125,21.902047249023436,69.9933203125C21.758047249023438,69.9933203125,21.655380249023438,69.8733203125,21.655380249023438,69.7466503125C21.655380249023438,69.7466503125,21.655380249023438,68.6533203125,21.655380249023438,68.6533203125C21.655380249023438,68.6533203125,25.413380249023437,68.6533203125,25.413380249023437,68.6533203125C25.413380249023437,68.6533203125,25.413380249023437,69.7466503125,25.413380249023437,69.7466503125C25.413380249023437,69.8733203125,25.290050249023437,69.9933203125,25.14605024902344,69.9933203125C25.14605024902344,69.9933203125,25.14605024902344,69.9933203125,25.14605024902344,69.9933203125Z" fill="#CED7E2" fill-opacity="1"/></g><g style="mix-blend-mode:passthrough"><path d="M36.33829868774414,66.3466796875C36.33829868774414,66.3466796875,34.058998687744136,68.6333796875,34.058998687744136,68.6333796875C33.95629868774414,68.7399796875,33.83299868774414,68.7799796875,33.688998687744146,68.7799796875C33.688998687744146,68.7799796875,7.300998687744141,68.7799796875,7.300998687744141,68.7799796875C7.300998687744141,68.7799796875,7.300998687744141,55.3466796875,7.300998687744141,55.3466796875C7.300998687744141,55.3466796875,35.39369868774414,55.3466796875,35.39369868774414,55.3466796875C35.98899868774414,55.3466796875,36.48169868774414,55.8400126875,36.48169868774414,56.4400096875C36.48169868774414,56.4400096875,36.48169868774414,65.9999796875,36.48169868774414,65.9999796875C36.48169868774414,66.1199796875,36.44099868774414,66.2666796875,36.33829868774414,66.3466796875C36.33829868774414,66.3466796875,36.33829868774414,66.3466796875,36.33829868774414,66.3466796875Z" fill="#AAB9CC" fill-opacity="1"/></g><g style="mix-blend-mode:passthrough"><path d="M7.136896436767579,70.81999433593751C6.972236436767578,70.81999433593751,6.828896436767578,70.6733943359375,6.828896436767578,70.5066943359375C6.828896436767578,70.5066943359375,6.828896436767578,53.1066943359375,6.828896436767578,53.1066943359375C6.828896436767578,53.1066943359375,4.631566436767578,53.1066943359375,4.631566436767578,53.1066943359375C4.466899436767578,53.1066943359375,4.323566436767578,52.9600273359375,4.323566436767578,52.7933613359375C4.323566436767578,52.6266943359375,4.466899436767578,52.4866943359375,4.631566436767578,52.4866943359375C4.631566436767578,52.4866943359375,7.136896436767579,52.4866943359375,7.136896436767579,52.4866943359375C7.300896436767578,52.4866943359375,7.4448964367675785,52.6266943359375,7.4448964367675785,52.7933613359375C7.4448964367675785,52.7933613359375,7.4448964367675785,70.5066943359375,7.4448964367675785,70.5066943359375C7.4448964367675785,70.6733943359375,7.300896436767578,70.81999433593751,7.136896436767579,70.81999433593751C7.136896436767579,70.81999433593751,7.136896436767579,70.81999433593751,7.136896436767579,70.81999433593751Z" fill="#68768C" fill-opacity="1"/></g><g style="mix-blend-mode:passthrough"><path d="M7.17800618725586,57.1800537109375C7.17800618725586,57.1800537109375,6.212673187255859,57.1800537109375,6.212673187255859,57.1800537109375C6.212673187255859,57.1800537109375,6.212673187255859,60.7867237109375,6.212673187255859,60.7867237109375C6.212673187255859,60.7867237109375,7.17800618725586,60.7867237109375,7.17800618725586,60.7867237109375C7.17800618725586,60.7867237109375,7.17800618725586,57.1800537109375,7.17800618725586,57.1800537109375C7.17800618725586,57.1800537109375,7.17800618725586,57.1800537109375,7.17800618725586,57.1800537109375Z" fill="#68768C" fill-opacity="1"/></g><g style="mix-blend-mode:passthrough"><path d="M7.17800618725586,61.67333984375C7.17800618725586,61.67333984375,6.212673187255859,61.67333984375,6.212673187255859,61.67333984375C6.212673187255859,61.67333984375,6.212673187255859,65.28000984375,6.212673187255859,65.28000984375C6.212673187255859,65.28000984375,7.17800618725586,65.28000984375,7.17800618725586,65.28000984375C7.17800618725586,65.28000984375,7.17800618725586,61.67333984375,7.17800618725586,61.67333984375C7.17800618725586,61.67333984375,7.17800618725586,61.67333984375,7.17800618725586,61.67333984375Z" fill="#68768C" fill-opacity="1"/></g><g style="mix-blend-mode:passthrough"><path d="M11.100516187744141,59.5534553527832C11.100516187744141,59.5534553527832,9.29318618774414,59.5534553527832,9.29318618774414,59.5534553527832C9.29318618774414,59.5534553527832,9.29318618774414,60.0267883527832,9.29318618774414,60.0267883527832C9.29318618774414,60.0267883527832,11.100516187744141,60.0267883527832,11.100516187744141,60.0267883527832C11.100516187744141,60.0267883527832,11.100516187744141,59.5534553527832,11.100516187744141,59.5534553527832C11.100516187744141,59.5534553527832,11.100516187744141,59.5534553527832,11.100516187744141,59.5534553527832Z" fill="#68768C" fill-opacity="1"/></g><g style="mix-blend-mode:passthrough"><path d="M11.100516187744141,60.7866096496582C11.100516187744141,60.7866096496582,9.29318618774414,60.7866096496582,9.29318618774414,60.7866096496582C9.29318618774414,60.7866096496582,9.29318618774414,61.2599426496582,9.29318618774414,61.2599426496582C9.29318618774414,61.2599426496582,11.100516187744141,61.2599426496582,11.100516187744141,61.2599426496582C11.100516187744141,61.2599426496582,11.100516187744141,60.7866096496582,11.100516187744141,60.7866096496582C11.100516187744141,60.7866096496582,11.100516187744141,60.7866096496582,11.100516187744141,60.7866096496582Z" fill="#68768C" fill-opacity="1"/></g><g style="mix-blend-mode:passthrough"><path d="M11.100516187744141,62.0200080871582C11.100516187744141,62.0200080871582,9.29318618774414,62.0200080871582,9.29318618774414,62.0200080871582C9.29318618774414,62.0200080871582,9.29318618774414,62.4933410871582,9.29318618774414,62.4933410871582C9.29318618774414,62.4933410871582,11.100516187744141,62.4933410871582,11.100516187744141,62.4933410871582C11.100516187744141,62.4933410871582,11.100516187744141,62.0200080871582,11.100516187744141,62.0200080871582C11.100516187744141,62.0200080871582,11.100516187744141,62.0200080871582,11.100516187744141,62.0200080871582Z" fill="#68768C" fill-opacity="1"/></g><g style="mix-blend-mode:passthrough"><path d="M11.100516187744141,63.2800178527832C11.100516187744141,63.2800178527832,9.29318618774414,63.2800178527832,9.29318618774414,63.2800178527832C9.29318618774414,63.2800178527832,9.29318618774414,63.7533508527832,9.29318618774414,63.7533508527832C9.29318618774414,63.7533508527832,11.100516187744141,63.7533508527832,11.100516187744141,63.7533508527832C11.100516187744141,63.7533508527832,11.100516187744141,63.2800178527832,11.100516187744141,63.2800178527832C11.100516187744141,63.2800178527832,11.100516187744141,63.2800178527832,11.100516187744141,63.2800178527832Z" fill="#68768C" fill-opacity="1"/></g><g style="mix-blend-mode:passthrough"><path d="M11.100516187744141,64.5132942199707C11.100516187744141,64.5132942199707,9.29318618774414,64.5132942199707,9.29318618774414,64.5132942199707C9.29318618774414,64.5132942199707,9.29318618774414,64.9866272199707,9.29318618774414,64.9866272199707C9.29318618774414,64.9866272199707,11.100516187744141,64.9866272199707,11.100516187744141,64.9866272199707C11.100516187744141,64.9866272199707,11.100516187744141,64.5132942199707,11.100516187744141,64.5132942199707C11.100516187744141,64.5132942199707,11.100516187744141,64.5132942199707,11.100516187744141,64.5132942199707Z" fill="#68768C" fill-opacity="1"/></g><g style="opacity:0.4000000059604645;"><path d="M17.424770874023437,66.90671875C20.04477087402344,66.90671875,22.168770874023437,64.77338875,22.168770874023437,62.14671875C22.168770874023437,59.52004875,20.04477087402344,57.38671875,17.424770874023437,57.38671875C14.804770874023438,57.38671875,12.680770874023438,59.52004875,12.680770874023438,62.14671875C12.680770874023438,64.77338875,14.804770874023438,66.90671875,17.424770874023437,66.90671875C17.424770874023437,66.90671875,17.424770874023437,66.90671875,17.424770874023437,66.90671875Z" fill="#68768C" fill-opacity="1"/></g><g style="mix-blend-mode:passthrough"><path d="M20.627562561035155,59.53326671875C20.771562561035157,59.67327671875,20.936232561035155,59.83993671875,21.018232561035155,60.04659671875C21.018232561035155,60.04659671875,21.018392561035157,60.04696671875,21.018392561035157,60.04696671875C21.203002561035156,60.48019671875,21.387602561035155,60.91339671875,21.510892561035156,61.29992671875C21.510892561035156,61.29992671875,21.510892561035156,61.38659671875,21.510892561035156,61.38659671875C21.490472561035155,61.38659671875,21.469982561035156,61.388826718749996,21.449462561035155,61.39105671875C21.40835256103516,61.39547671875,21.367142561035156,61.39996671875,21.326232561035155,61.38659671875C21.249452561035156,61.36718671875,21.172562561035157,61.34204671875,21.094162561035155,61.31637671875C20.983992561035155,61.28033671875,20.870862561035157,61.24331671875,20.750892561035158,61.21993671875C20.155562561035154,61.09326671875,19.539562561035154,61.09326671875,18.882232561035156,61.29992671875C18.914212561035157,61.32693671875,18.942242561035158,61.355226718750004,18.968162561035157,61.38137671875C19.025462561035155,61.43920671875,19.072442561035157,61.48660671875,19.12889256103516,61.48660671875C19.868232561035157,61.52661671875,20.463562561035157,61.83993671875,20.976892561035157,62.33328671875C21.326232561035155,62.65994671875,21.449562561035158,63.09326671875,21.305562561035156,63.54659671875C21.079562561035157,64.24661671875,20.668892561035157,64.82659671875,20.094232561035156,65.27993671875C20.094232561035156,65.27993671875,20.073562561035157,65.27993671875,20.073562561035157,65.27993671875C20.018892561035155,65.12301671875,19.970182561035156,64.96609671875,19.921802561035157,64.81027671875C19.84276256103516,64.55566671875,19.764632561035157,64.30395671875,19.662892561035157,64.05993671875C19.498232561035156,63.67327671875,19.231562561035155,63.31994671875,18.861562561035157,62.97326671875C18.851892561035157,63.00179671875,18.841012561035157,63.02960671875,18.830602561035157,63.05618671875C18.797252561035158,63.14138671875,18.768722561035155,63.21423671875,18.800232561035155,63.25994671875C19.087562561035156,63.81326671875,19.12889256103516,64.39327671875,19.066892561035157,64.98660671875C19.005562561035156,65.45992671875,18.820892561035155,65.85327671875,18.389562561035156,66.09994671875C18.040232561035157,66.30660671875,16.972232561035156,66.43325671875,16.130892561035157,66.05993671875C16.103142561035156,66.05993671875,16.075402561035155,66.04189671875,16.047852561035157,66.02398671875C16.034362561035156,66.01522671875,16.020932561035156,66.00649671875,16.007562561035158,65.99993671875C16.010452561035155,65.99435671875,16.013322561035157,65.98861671875,16.016252561035156,65.98278671875C16.034232561035157,65.94702671875,16.054002561035155,65.90768671875,16.089562561035155,65.87325671875C16.089562561035155,65.87325671875,16.098162561035156,65.86465671875,16.098162561035156,65.86465671875C16.361972561035156,65.60085671875,16.625992561035154,65.33685671875,16.849562561035157,65.05328671875C17.116232561035154,64.69995671875,17.280892561035156,64.28658671875,17.362892561035157,63.83328671875C17.260232561035156,63.85327671875,17.136892561035157,63.87994671875,17.095562561035155,63.93994671875C16.705562561035155,64.57992671875,16.110232561035158,64.92660671875,15.411562561035156,65.13326671875C14.898232561035156,65.27993671875,14.467562561035155,65.11328671875,14.138895561035156,64.69995671875C13.994895561035156,64.53326671875,13.871562561035157,64.35327671875,13.789562561035156,64.16659671875C13.746714561035157,64.05859671875,13.702409561035156,63.95333671875,13.658503561035156,63.84902671875C13.534361561035157,63.55410671875,13.413405461035156,63.26672671875,13.337562561035156,62.94659671875C13.337562561035156,62.94659671875,13.337562561035156,62.82659671875,13.337562561035156,62.82659671875C13.378213561035157,62.83642671875,13.423700761035157,62.84628671875,13.469188561035157,62.85610671875C13.516203561035157,62.86627671875,13.563218561035157,62.87643671875,13.604895561035157,62.88659671875C14.364232561035156,63.15325671875,15.124232561035157,63.19995671875,15.925562561035157,62.94659671875C15.916832561035157,62.93533671875,15.908122561035157,62.92367671875,15.899362561035156,62.91195671875C15.845882561035156,62.84045671875,15.790682561035156,62.76660671875,15.720232561035157,62.76660671875C14.960232561035156,62.71993671875,14.344232561035156,62.39327671875,13.830895561035156,61.87994671875C13.542895561035156,61.56658671875,13.420229261035157,61.19995671875,13.522895561035156,60.78659671875C13.707562561035155,60.06658671875,14.158895561035155,59.48660671875,14.713562561035156,58.99325671875C14.734232561035157,58.97326671875,14.775562561035157,58.97326671875,14.816232561035156,58.97326671875C14.939562561035157,59.85992671875,15.308892561035156,60.63992671875,15.986892561035155,61.29992671875C15.998072561035157,61.26205671875,16.010722561035156,61.22662671875,16.022392561035154,61.19390671875C16.053892561035155,61.10565671875,16.078382561035156,61.03704671875,16.048232561035157,60.99325671875C15.740232561035157,60.43994671875,15.699562561035156,59.83993671875,15.781562561035155,59.21993671875C15.904892561035156,58.15326071875,16.705562561035155,57.83993671875,17.794232561035155,57.98660381875C18.011672561035155,58.00070291875,18.229112561035155,58.05468871875,18.446552561035155,58.10870471875C18.53711256103516,58.13119571875,18.627672561035155,58.15368771875,18.71823256103516,58.17327971875C18.861562561035157,58.19326871875,18.861562561035157,58.25326671875,18.758892561035157,58.35327271875C18.553562561035157,58.53994871875,18.348232561035157,58.74661371875,18.163562561035157,58.95327671875C17.814232561035155,59.38659671875,17.568232561035156,59.85992671875,17.444892561035157,60.39327671875C17.583972561035157,60.43429671875,17.637462561035157,60.45007671875,17.672332561035155,60.43127671875C17.694122561035158,60.41952671875,17.708642561035155,60.39428671875,17.732232561035154,60.35327671875C18.122232561035155,59.71325671875,18.738892561035158,59.34658671875,19.436892561035158,59.15994671875C19.908892561035156,59.03326671875,20.299562561035156,59.17993671875,20.627562561035155,59.53326671875C20.627562561035155,59.53326671875,20.627562561035155,59.53326671875,20.627562561035155,59.53326671875ZM16.069202561035155,62.10665671875C16.048532561035156,62.84664671875,16.644532561035156,63.46664671875,17.363202561035155,63.48666671875C18.122542561035157,63.50665671875,18.739202561035157,62.92666671875,18.739202561035157,62.20666671875C18.759202561035156,61.42666671875,18.18454256103516,60.82665671875,17.424542561035157,60.80664671875C16.705872561035157,60.78665671875,16.089872561035158,61.36666671875,16.069202561035155,62.10665671875C16.069202561035155,62.10665671875,16.069202561035155,62.10665671875,16.069202561035155,62.10665671875Z" fill-rule="evenodd" fill="#68768C" fill-opacity="1"/></g><g style="mix-blend-mode:passthrough"><path d="M17.42426506225586,63.5666845703125C18.20692506225586,63.5666845703125,18.84159506225586,62.9333545703125,18.84159506225586,62.1466845703125C18.84159506225586,61.3600175703125,18.20692506225586,60.7266845703125,17.42426506225586,60.7266845703125C16.64159506225586,60.7266845703125,16.00759506225586,61.3600175703125,16.00759506225586,62.1466845703125C16.00759506225586,62.9333545703125,16.64159506225586,63.5666845703125,17.42426506225586,63.5666845703125C17.42426506225586,63.5666845703125,17.42426506225586,63.5666845703125,17.42426506225586,63.5666845703125Z" fill="#AAB9CC" fill-opacity="1"/></g><g style="opacity:0.4000000059604645;"><path d="M29.109212873535157,66.90671875C31.729212873535158,66.90671875,33.853212873535156,64.77338875,33.853212873535156,62.14671875C33.853212873535156,59.52004875,31.729212873535158,57.38671875,29.109212873535157,57.38671875C26.489882873535155,57.38671875,24.365882873535156,59.52004875,24.365882873535156,62.14671875C24.365882873535156,64.77338875,26.489882873535155,66.90671875,29.109212873535157,66.90671875C29.109212873535157,66.90671875,29.109212873535157,66.90671875,29.109212873535157,66.90671875Z" fill="#68768C" fill-opacity="1"/></g><g style="mix-blend-mode:passthrough"><path d="M32.3134375,59.53326671875C32.4574375,59.67327671875,32.6214375,59.83993671875,32.7041075,60.04659671875C32.7041075,60.04659671875,32.7042675,60.04696671875,32.7042675,60.04696671875C32.8888775,60.48019671875,33.073477499999996,60.91339671875,33.1967675,61.29992671875C33.1967675,61.29992671875,33.1967675,61.38659671875,33.1967675,61.38659671875C33.1760575,61.38659671875,33.1554075,61.388826718749996,33.1348175,61.39105671875C33.0937875,61.39550671875,33.0529475,61.39993671875,33.0121075,61.38659671875C32.9346775,61.36709671875,32.8573575,61.34179671875,32.7786075,61.31600671875C32.6688575,61.28008671875,32.5563175,61.24322671875,32.4367675,61.21993671875C31.841437499999998,61.09326671875,31.225437499999998,61.09326671875,30.5681075,61.29992671875C30.6001475,61.32696671875,30.6281575,61.355316718750004,30.6540475,61.38153671875C30.7111275,61.43926671875,30.7578975,61.48660671875,30.814767500000002,61.48660671875C31.5541075,61.52661671875,32.1494375,61.83993671875,32.6627675,62.33328671875C33.0121075,62.65994671875,33.1347675,63.09326671875,32.9914375,63.54659671875C32.7654375,64.24661671875,32.3547675,64.82659671875,31.7794375,65.27993671875C31.7794375,65.27993671875,31.7594375,65.27993671875,31.7594375,65.27993671875C31.7047675,65.12301671875,31.6560575,64.96609671875,31.6076775,64.81027671875C31.528637500000002,64.55566671875,31.4505075,64.30395671875,31.3487675,64.05993671875C31.1841075,63.67327671875,30.9174375,63.31994671875,30.5474375,62.97326671875C30.5377675,63.00179671875,30.5268875,63.02960671875,30.5164775,63.05618671875C30.483127500000002,63.14138671875,30.4545975,63.21423671875,30.4861075,63.25994671875C30.7734375,63.81326671875,30.814767500000002,64.39327671875,30.7527675,64.98660671875C30.6914375,65.45992671875,30.5067675,65.85327671875,30.0754375,66.09994671875C29.7261075,66.30660671875,28.6581075,66.43325671875,27.8161075,66.05993671875C27.7888975,66.05993671875,27.7613975,66.04202671875,27.7339975,66.02419671875C27.7204375,66.01538671875,27.7068975,66.00656671875,27.6934375,65.99993671875C27.6934375,65.99993671875,27.6993875,65.98794671875,27.6993875,65.98794671875C27.7177075,65.95080671875,27.7381775,65.90933671875,27.7754375,65.87325671875C27.7754375,65.87325671875,27.7840375,65.86465671875,27.7840375,65.86465671875C28.0478475,65.60085671875,28.311867499999998,65.33685671875,28.5354375,65.05328671875C28.802107499999998,64.69995671875,28.9661075,64.28658671875,29.0487675,63.83328671875C28.9461075,63.85327671875,28.8227675,63.87994671875,28.7814375,63.93994671875C28.3914375,64.57992671875,27.7961075,64.92660671875,27.097437499999998,65.13326671875C26.584107500000002,65.27993671875,26.1527675,65.11328671875,25.8247705,64.69995671875C25.6807705,64.53326671875,25.5574375,64.35327671875,25.4754375,64.16659671875C25.4333365,64.06091671875,25.3899285,63.95785671875,25.3469185,63.85574671875C25.2217025,63.55844671875,25.0998552,63.26913671875,25.0234375,62.94659671875C25.0234375,62.94659671875,25.0234375,62.82659671875,25.0234375,62.82659671875C25.0651143,62.83676671875,25.1121297,62.84692671875,25.1591445,62.85708671875C25.2046325,62.86691671875,25.2501195,62.87676671875,25.2907705,62.88659671875C26.0501075,63.15325671875,26.8101075,63.19995671875,27.6107675,62.94659671875C27.6025175,62.93582671875,27.5942675,62.92468671875,27.5859575,62.91348671875C27.5325475,62.84149671875,27.4769775,62.76660671875,27.4054375,62.76660671875C26.6461075,62.71993671875,26.0301075,62.39327671875,25.5161045,61.87994671875C25.2287705,61.56658671875,25.1054375,61.19995671875,25.2081045,60.78659671875C25.3934375,60.06658671875,25.8447705,59.48660671875,26.3994375,58.99325671875C26.4201075,58.97326671875,26.4607675,58.97326671875,26.5021075,58.97326671875C26.6254375,59.85992671875,26.994767500000002,60.63992671875,27.6727675,61.29992671875C27.6840275,61.26116671875,27.6969275,61.22497671875,27.7088075,61.19158671875C27.7398475,61.10443671875,27.7639975,61.03665671875,27.7341075,60.99325671875C27.4261075,60.43994671875,27.385437500000002,59.83993671875,27.4674375,59.21993671875C27.5907675,58.15326071875,28.3914375,57.83993671875,29.4794375,57.98660381875C29.697477499999998,58.00073341875,29.915197499999998,58.05477971875,30.1328075,58.10879671875C30.2232475,58.13125771875,30.3136775,58.15368771875,30.404107500000002,58.17327971875C30.5474375,58.19326871875,30.5474375,58.25326671875,30.4447675,58.35327271875C30.2394375,58.53994871875,30.0341075,58.74661371875,29.8494375,58.95327671875C29.5001075,59.38659671875,29.2541075,59.85992671875,29.1307675,60.39327671875C29.2698475,60.43429671875,29.3233375,60.45007671875,29.3582075,60.43127671875C29.3799975,60.41952671875,29.3945175,60.39428671875,29.418107499999998,60.35327671875C29.8081075,59.71325671875,30.424107499999998,59.34658671875,31.122767500000002,59.15994671875C31.5947675,59.03326671875,31.9847675,59.17993671875,32.3134375,59.53326671875C32.3134375,59.53326671875,32.3134375,59.53326671875,32.3134375,59.53326671875ZM27.7550775,62.10665671875C27.7344075,62.84664671875,28.3304075,63.46664671875,29.0490775,63.48666671875C29.8084175,63.50665671875,30.4244175,62.92666671875,30.4244175,62.20666671875C30.4450775,61.42666671875,29.870417500000002,60.82665671875,29.1104175,60.80664671875C28.3917475,60.78665671875,27.7757475,61.36666671875,27.7550775,62.10665671875C27.7550775,62.10665671875,27.7550775,62.10665671875,27.7550775,62.10665671875Z" fill-rule="evenodd" fill="#68768C" fill-opacity="1"/></g><g style="mix-blend-mode:passthrough"><path d="M29.109380876464844,63.5666845703125C29.892040876464844,63.5666845703125,30.526710876464843,62.9333545703125,30.526710876464843,62.1466845703125C30.526710876464843,61.3600175703125,29.892040876464844,60.7266845703125,29.109380876464844,60.7266845703125C28.326710876464844,60.7266845703125,27.692710876464844,61.3600175703125,27.692710876464844,62.1466845703125C27.692710876464844,62.9333545703125,28.326710876464844,63.5666845703125,29.109380876464844,63.5666845703125C29.109380876464844,63.5666845703125,29.109380876464844,63.5666845703125,29.109380876464844,63.5666845703125Z" fill="#AAB9CC" fill-opacity="1"/></g><g style="mix-blend-mode:passthrough"><path d="M20.833156812744143,49.459853515625C20.833156812744143,49.459853515625,11.531159812744141,49.459853515625,11.531159812744141,49.459853515625C11.30515981274414,49.459853515625,11.09982681274414,49.273183515625,11.09982681274414,49.026520515625C11.09982681274414,49.026520515625,11.09982681274414,48.099853515625,11.09982681274414,48.099853515625C11.09982681274414,48.099853515625,21.26452681274414,48.099853515625,21.26452681274414,48.099853515625C21.26452681274414,48.099853515625,21.26452681274414,49.026520515625,21.26452681274414,49.026520515625C21.26452681274414,49.273183515625,21.07982681274414,49.459853515625,20.833156812744143,49.459853515625C20.833156812744143,49.459853515625,20.833156812744143,49.459853515625,20.833156812744143,49.459853515625Z" fill="#CED7E2" fill-opacity="1"/></g><g style="mix-blend-mode:passthrough"><path d="M25.14605024902344,49.4599951171875C25.14605024902344,49.4599951171875,21.902047249023436,49.4599951171875,21.902047249023436,49.4599951171875C21.758047249023438,49.4599951171875,21.655380249023438,49.3333251171875,21.655380249023438,49.2133251171875C21.655380249023438,49.2133251171875,21.655380249023438,48.1199951171875,21.655380249023438,48.1199951171875C21.655380249023438,48.1199951171875,25.413380249023437,48.1199951171875,25.413380249023437,48.1199951171875C25.413380249023437,48.1199951171875,25.413380249023437,49.2133251171875,25.413380249023437,49.2133251171875C25.413380249023437,49.3333251171875,25.290050249023437,49.4599951171875,25.14605024902344,49.4599951171875C25.14605024902344,49.4599951171875,25.14605024902344,49.4599951171875,25.14605024902344,49.4599951171875Z" fill="#CED7E2" fill-opacity="1"/></g><g style="mix-blend-mode:passthrough"><path d="M36.33829868774414,45.833251953125C36.33829868774414,45.833251953125,34.058998687744136,48.119951953124996,34.058998687744136,48.119951953124996C33.95629868774414,48.219951953125,33.83299868774414,48.259951953125,33.688998687744146,48.259951953125C33.688998687744146,48.259951953125,7.300998687744141,48.259951953125,7.300998687744141,48.259951953125C7.300998687744141,48.259951953125,7.300998687744141,34.833251953125,7.300998687744141,34.833251953125C7.300998687744141,34.833251953125,35.39369868774414,34.833251953125,35.39369868774414,34.833251953125C35.98899868774414,34.833251953125,36.48169868774414,35.326584953125,36.48169868774414,35.926581953125C36.48169868774414,35.926581953125,36.48169868774414,45.459951953125,36.48169868774414,45.459951953125C36.48169868774414,45.606551953125,36.44099868774414,45.726551953124996,36.33829868774414,45.833251953125C36.33829868774414,45.833251953125,36.33829868774414,45.833251953125,36.33829868774414,45.833251953125Z" fill="#AAB9CC" fill-opacity="1"/></g><g style="mix-blend-mode:passthrough"><path d="M7.136896436767579,50.279833203125C6.972236436767578,50.279833203125,6.828896436767578,50.139833203125,6.828896436767578,49.973233203125005C6.828896436767578,49.973233203125005,6.828896436767578,32.566533203125,6.828896436767578,32.566533203125C6.828896436767578,32.566533203125,4.631566436767578,32.566533203125,4.631566436767578,32.566533203125C4.466899436767578,32.566533203125,4.323566436767578,32.419866203125,4.323566436767578,32.259866203125C4.323566436767578,32.093200203125,4.466899436767578,31.946533203125,4.631566436767578,31.946533203125C4.631566436767578,31.946533203125,7.136896436767579,31.946533203125,7.136896436767579,31.946533203125C7.300896436767578,31.946533203125,7.4448964367675785,32.093200203125,7.4448964367675785,32.259866203125C7.4448964367675785,32.259866203125,7.4448964367675785,49.973233203125005,7.4448964367675785,49.973233203125005C7.4448964367675785,50.139833203125,7.300896436767578,50.279833203125,7.136896436767579,50.279833203125C7.136896436767579,50.279833203125,7.136896436767579,50.279833203125,7.136896436767579,50.279833203125Z" fill="#68768C" fill-opacity="1"/></g><g style="mix-blend-mode:passthrough"><path d="M7.17800618725586,36.646728515625C7.17800618725586,36.646728515625,6.212673187255859,36.646728515625,6.212673187255859,36.646728515625C6.212673187255859,36.646728515625,6.212673187255859,40.253398515625,6.212673187255859,40.253398515625C6.212673187255859,40.253398515625,7.17800618725586,40.253398515625,7.17800618725586,40.253398515625C7.17800618725586,40.253398515625,7.17800618725586,36.646728515625,7.17800618725586,36.646728515625C7.17800618725586,36.646728515625,7.17800618725586,36.646728515625,7.17800618725586,36.646728515625Z" fill="#68768C" fill-opacity="1"/></g><g style="mix-blend-mode:passthrough"><path d="M7.17800618725586,41.1533203125C7.17800618725586,41.1533203125,6.212673187255859,41.1533203125,6.212673187255859,41.1533203125C6.212673187255859,41.1533203125,6.212673187255859,44.7599903125,6.212673187255859,44.7599903125C6.212673187255859,44.7599903125,7.17800618725586,44.7599903125,7.17800618725586,44.7599903125C7.17800618725586,44.7599903125,7.17800618725586,41.1533203125,7.17800618725586,41.1533203125C7.17800618725586,41.1533203125,7.17800618725586,41.1533203125,7.17800618725586,41.1533203125Z" fill="#68768C" fill-opacity="1"/></g><g style="mix-blend-mode:passthrough"><path d="M11.100516187744141,39.0132942199707C11.100516187744141,39.0132942199707,9.29318618774414,39.0132942199707,9.29318618774414,39.0132942199707C9.29318618774414,39.0132942199707,9.29318618774414,39.4866272199707,9.29318618774414,39.4866272199707C9.29318618774414,39.4866272199707,11.100516187744141,39.4866272199707,11.100516187744141,39.4866272199707C11.100516187744141,39.4866272199707,11.100516187744141,39.0132942199707,11.100516187744141,39.0132942199707C11.100516187744141,39.0132942199707,11.100516187744141,39.0132942199707,11.100516187744141,39.0132942199707Z" fill="#68768C" fill-opacity="1"/></g><g style="mix-blend-mode:passthrough"><path d="M11.100516187744141,40.2534065246582C11.100516187744141,40.2534065246582,9.29318618774414,40.2534065246582,9.29318618774414,40.2534065246582C9.29318618774414,40.2534065246582,9.29318618774414,40.7267395246582,9.29318618774414,40.7267395246582C9.29318618774414,40.7267395246582,11.100516187744141,40.7267395246582,11.100516187744141,40.7267395246582C11.100516187744141,40.7267395246582,11.100516187744141,40.2534065246582,11.100516187744141,40.2534065246582C11.100516187744141,40.2534065246582,11.100516187744141,40.2534065246582,11.100516187744141,40.2534065246582Z" fill="#68768C" fill-opacity="1"/></g><g style="mix-blend-mode:passthrough"><path d="M11.100516187744141,41.4865608215332C11.100516187744141,41.4865608215332,9.29318618774414,41.4865608215332,9.29318618774414,41.4865608215332C9.29318618774414,41.4865608215332,9.29318618774414,41.9598938215332,9.29318618774414,41.9598938215332C9.29318618774414,41.9598938215332,11.100516187744141,41.9598938215332,11.100516187744141,41.9598938215332C11.100516187744141,41.9598938215332,11.100516187744141,41.4865608215332,11.100516187744141,41.4865608215332C11.100516187744141,41.4865608215332,11.100516187744141,41.4865608215332,11.100516187744141,41.4865608215332Z" fill="#68768C" fill-opacity="1"/></g><g style="mix-blend-mode:passthrough"><path d="M11.100516187744141,42.7399787902832C11.100516187744141,42.7399787902832,9.29318618774414,42.7399787902832,9.29318618774414,42.7399787902832C9.29318618774414,42.7399787902832,9.29318618774414,43.2133117902832,9.29318618774414,43.2133117902832C9.29318618774414,43.2133117902832,11.100516187744141,43.2133117902832,11.100516187744141,43.2133117902832C11.100516187744141,43.2133117902832,11.100516187744141,42.7399787902832,11.100516187744141,42.7399787902832C11.100516187744141,42.7399787902832,11.100516187744141,42.7399787902832,11.100516187744141,42.7399787902832Z" fill="#68768C" fill-opacity="1"/></g><g style="mix-blend-mode:passthrough"><path d="M11.100516187744141,43.9799690246582C11.100516187744141,43.9799690246582,9.29318618774414,43.9799690246582,9.29318618774414,43.9799690246582C9.29318618774414,43.9799690246582,9.29318618774414,44.4533020246582,9.29318618774414,44.4533020246582C9.29318618774414,44.4533020246582,11.100516187744141,44.4533020246582,11.100516187744141,44.4533020246582C11.100516187744141,44.4533020246582,11.100516187744141,43.9799690246582,11.100516187744141,43.9799690246582C11.100516187744141,43.9799690246582,11.100516187744141,43.9799690246582,11.100516187744141,43.9799690246582Z" fill="#68768C" fill-opacity="1"/></g><g style="opacity:0.4000000059604645;"><path d="M17.424770874023437,46.366723554687496C20.04477087402344,46.366723554687496,22.168770874023437,44.2400635546875,22.168770874023437,41.6067235546875C22.168770874023437,38.9800635546875,20.04477087402344,36.8533935546875,17.424770874023437,36.8533935546875C14.804770874023438,36.8533935546875,12.680770874023438,38.9800635546875,12.680770874023438,41.6067235546875C12.680770874023438,44.2400635546875,14.804770874023438,46.366723554687496,17.424770874023437,46.366723554687496C17.424770874023437,46.366723554687496,17.424770874023437,46.366723554687496,17.424770874023437,46.366723554687496Z" fill="#68768C" fill-opacity="1"/></g><g style="mix-blend-mode:passthrough"><path d="M20.651642561035157,39.037714453125C20.789532561035156,39.177764453125,20.940762561035157,39.331354453125,21.018232561035155,39.526584453125C21.202892561035156,39.939914453125,21.387562561035157,40.373254453125,21.510892561035156,40.786584453125C21.510892561035156,40.786584453125,21.510892561035156,40.866574453125,21.510892561035156,40.866574453125C21.490472561035155,40.866574453125,21.469982561035156,40.868804453125,21.449462561035155,40.871034453125C21.40835256103516,40.875454453125,21.367142561035156,40.879944453125,21.326232561035155,40.866574453125C21.233912561035154,40.846584453125,21.141442561035156,40.816584453125,21.046382561035156,40.785764453125C20.951272561035157,40.754944453125,20.853582561035157,40.723264453125,20.750892561035158,40.699924453125C20.155562561035154,40.579924453125,19.539562561035154,40.579924453125,18.882232561035156,40.786584453125C18.917962561035157,40.814424453125,18.948762561035156,40.845484453125,18.977202561035156,40.874174453125C19.030472561035157,40.927914453125,19.075432561035157,40.973264453125,19.12889256103516,40.973264453125C19.868232561035157,41.013244453125,20.463562561035157,41.319914453125,20.976892561035157,41.813264453125C21.326232561035155,42.146574453125,21.449562561035158,42.579924453125,21.305562561035156,43.033264453125C21.079562561035157,43.733244453124996,20.668892561035157,44.306574453125,20.094232561035156,44.759914453125C20.094232561035156,44.759914453125,20.073562561035157,44.759914453125,20.073562561035157,44.759914453125C20.019612561035157,44.605074453125,19.971462561035157,44.451144453124996,19.923712561035156,44.298494453125C19.844022561035157,44.043734453125,19.765452561035154,43.792544453125004,19.662892561035157,43.546594453125C19.498232561035156,43.153254453125,19.231562561035155,42.806574453125,18.861562561035157,42.453244453125C18.850792561035156,42.486814453125,18.838512561035156,42.518494453125,18.827062561035156,42.548064453125C18.795292561035154,42.630094453125,18.769842561035155,42.695834453125,18.800232561035155,42.739924453125C19.087562561035156,43.299924453125,19.12889256103516,43.873264453125,19.066892561035157,44.473264453125C19.005562561035156,44.946594453125,18.820892561035155,45.339934453125,18.389562561035156,45.586574453124996C18.040232561035157,45.793244453125,16.972232561035156,45.913264453125,16.130892561035157,45.546594453124996C16.104422561035157,45.546594453124996,16.077952561035158,45.527434453125,16.051662561035158,45.508424453125C16.036892561035156,45.497744453125,16.022182561035155,45.487124453125,16.007562561035158,45.479914453125C16.007562561035158,45.479914453125,16.009402561035156,45.476344453125,16.009402561035156,45.476344453125C16.029432561035158,45.437534453125,16.049452561035157,45.398744453125,16.089562561035155,45.359924453125004C16.356232561035156,45.093264453125,16.623562561035158,44.819914453125,16.849562561035157,44.533264453125C17.116232561035154,44.186584453125,17.280892561035156,43.773254453125,17.362892561035157,43.319914453125C17.362892561035157,43.319914453125,17.342012561035155,43.323944453125,17.342012561035155,43.323944453125C17.244072561035157,43.342804453125,17.134122561035156,43.363954453125004,17.095562561035155,43.419924453125C16.705562561035155,44.059904453125,16.110232561035158,44.413264453125,15.411562561035156,44.619934453125C14.898232561035156,44.759914453125,14.467562561035155,44.593264453125,14.138895561035156,44.186584453125C13.994895561035156,44.019924453125,13.871562561035157,43.833254453125,13.789562561035156,43.646574453125C13.749050561035157,43.546114453125,13.707235561035157,43.447694453125,13.665687561035156,43.349914453125C13.539042561035156,43.051814453125,13.414867761035156,42.759524453124996,13.337562561035156,42.433254453125C13.337562561035156,42.433254453125,13.337562561035156,42.306574453125,13.337562561035156,42.306574453125C13.395745561035156,42.325344453125,13.463835561035156,42.340814453125,13.527655561035155,42.355314453125C13.554510561035157,42.361414453125,13.580609561035157,42.367334453125,13.604895561035157,42.373264453125C14.364232561035156,42.639924453125,15.124232561035157,42.679934453125,15.925562561035157,42.433254453125C15.915042561035156,42.419674453125,15.904552561035157,42.405334453125,15.893962561035156,42.390864453125C15.842162561035156,42.320124453125,15.788322561035155,42.246584453125,15.720232561035157,42.246584453125C14.960232561035156,42.206574453125,14.344232561035156,41.879914453125,13.830895561035156,41.359924453125004C13.542895561035156,41.053254453125,13.420229261035157,40.679934453125,13.522895561035156,40.273254453125C13.707562561035155,39.546594453125,14.158895561035155,38.973264453125,14.713562561035156,38.479914453125C14.734232561035157,38.459924453125,14.775562561035157,38.459924453125,14.816232561035156,38.459924453125C14.939562561035157,39.346584453125,15.308892561035156,40.126584453125,15.986892561035155,40.786584453125C15.998982561035156,40.743714453125,16.012772561035156,40.704834453125,16.025212561035158,40.669764453125C16.055312561035155,40.584864453125,16.077482561035158,40.522364453125,16.048232561035157,40.479914453125C15.740232561035157,39.919924453125,15.699562561035156,39.319914453125,15.781562561035155,38.706574453125C15.904892561035156,37.633238453125,16.705562561035155,37.326598453125,17.794232561035155,37.466581953125C17.994422561035158,37.479582353125,18.194612561035157,37.529203953125,18.394792561035157,37.578825453125C18.502612561035157,37.605528453125,18.610422561035158,37.632262453125,18.71823256103516,37.653258453125C18.861562561035157,37.673247453125,18.861562561035157,37.739928453125,18.758892561035157,37.839903453125C18.553562561035157,38.026579453125,18.348232561035157,38.233244453125,18.163562561035157,38.439914453125C17.814232561035155,38.873254453125,17.568232561035156,39.346584453125,17.444892561035157,39.879914453125C17.586052561035157,39.917384453125,17.639042561035154,39.931454453125,17.673882561035157,39.912384453125C17.694822561035156,39.900904453125,17.709202561035156,39.877474453125004,17.732232561035154,39.839934453125C18.122232561035155,39.199924453125,18.738892561035158,38.826594453125,19.436892561035158,38.646574453125C19.908892561035156,38.519924453125,20.299562561035156,38.666594453125,20.627562561035155,39.013244453125C20.627562561035155,39.013244453125,20.651642561035157,39.037714453125,20.651642561035157,39.037714453125C20.651642561035157,39.037714453125,20.651642561035157,39.037714453125,20.651642561035157,39.037714453125ZM16.069202561035155,41.566554453125C16.048532561035156,42.306544453125,16.644532561035156,42.926544453125,17.363202561035155,42.946534453125C18.122542561035157,42.966554453125,18.739202561035157,42.393214453125,18.739202561035157,41.673214453125C18.759202561035156,40.886534453125,18.18454256103516,40.293214453125,17.424542561035157,40.273224453125C16.705872561035157,40.253204453125,16.089872561035158,40.826534453125,16.069202561035155,41.566554453125C16.069202561035155,41.566554453125,16.069202561035155,41.566554453125,16.069202561035155,41.566554453125Z" fill-rule="evenodd" fill="#68768C" fill-opacity="1"/></g><g style="mix-blend-mode:passthrough"><path d="M17.42426506225586,43.033437578125C18.20692506225586,43.033437578125,18.84159506225586,42.393437578125,18.84159506225586,41.606767578125C18.84159506225586,40.826767578125,18.20692506225586,40.186767578125,17.42426506225586,40.186767578125C16.64159506225586,40.186767578125,16.00759506225586,40.826767578125,16.00759506225586,41.606767578125C16.00759506225586,42.393437578125,16.64159506225586,43.033437578125,17.42426506225586,43.033437578125C17.42426506225586,43.033437578125,17.42426506225586,43.033437578125,17.42426506225586,43.033437578125Z" fill="#AAB9CC" fill-opacity="1"/></g><g style="opacity:0.4000000059604645;"><path d="M29.109212873535157,46.366723554687496C31.729212873535158,46.366723554687496,33.853212873535156,44.2400635546875,33.853212873535156,41.6067235546875C33.853212873535156,38.9800635546875,31.729212873535158,36.8533935546875,29.109212873535157,36.8533935546875C26.489882873535155,36.8533935546875,24.365882873535156,38.9800635546875,24.365882873535156,41.6067235546875C24.365882873535156,44.2400635546875,26.489882873535155,46.366723554687496,29.109212873535157,46.366723554687496C29.109212873535157,46.366723554687496,29.109212873535157,46.366723554687496,29.109212873535157,46.366723554687496Z" fill="#68768C" fill-opacity="1"/></g><g style="mix-blend-mode:passthrough"><path d="M32.3357275,39.035914453125C32.4740375,39.176454453125,32.6256775,39.330504453125,32.7041075,39.526584453125C32.8887675,39.939914453125,33.0734375,40.373254453125,33.1967675,40.786584453125C33.1967675,40.786584453125,33.1967675,40.866574453125,33.1967675,40.866574453125C33.1760575,40.866574453125,33.1554075,40.868804453125,33.1348175,40.871034453125C33.0937875,40.875484453125,33.0529475,40.879914453125,33.0121075,40.866574453125C32.9192175,40.846524453125,32.8264975,40.816434453125,32.7312575,40.785554453125C32.6364675,40.754794453125,32.5391875,40.723204453125,32.4367675,40.699924453125C31.841437499999998,40.579924453125,31.225437499999998,40.579924453125,30.5681075,40.786584453125C30.6038475,40.814454453125,30.6345775,40.845514453125,30.6629475,40.874204453125C30.7160675,40.927914453125,30.7608875,40.973264453125,30.814767500000002,40.973264453125C31.5541075,41.013244453125,32.1494375,41.319914453125,32.6627675,41.813264453125C33.0121075,42.146574453125,33.1347675,42.579924453125,32.9914375,43.033264453125C32.7654375,43.733244453124996,32.3547675,44.306574453125,31.7794375,44.759914453125C31.7794375,44.759914453125,31.7594375,44.759914453125,31.7594375,44.759914453125C31.7054875,44.605074453125,31.6573375,44.451144453124996,31.6095875,44.298494453125C31.5298975,44.043734453125,31.451327499999998,43.792544453125004,31.3487675,43.546594453125C31.1841075,43.153254453125,30.9174375,42.806574453125,30.5474375,42.453244453125C30.5366675,42.486814453125,30.5243875,42.518494453125,30.5129375,42.548064453125C30.481167499999998,42.630094453125,30.4557175,42.695834453125,30.4861075,42.739924453125C30.7734375,43.299924453125,30.814767500000002,43.873264453125,30.7527675,44.473264453125C30.6914375,44.946594453125,30.5067675,45.339934453125,30.0754375,45.586574453124996C29.7261075,45.793244453125,28.6581075,45.913264453125,27.8161075,45.546594453124996C27.7901575,45.546594453124996,27.7639375,45.527584453125,27.7377975,45.508634453125C27.7229675,45.497894453125,27.7081575,45.487154453125,27.6934375,45.479914453125C27.7134375,45.439914453125,27.7341075,45.399934453125,27.7754375,45.359924453125004C28.0421075,45.093264453125,28.3094375,44.819914453125,28.5354375,44.533264453125C28.802107499999998,44.186584453125,28.9661075,43.773254453125,29.0487675,43.319914453125C29.0487675,43.319914453125,29.0278875,43.323944453125,29.0278875,43.323944453125C28.9299475,43.342804453125,28.8199975,43.363954453125004,28.7814375,43.419924453125C28.3914375,44.059904453125,27.7961075,44.413264453125,27.097437499999998,44.619934453125C26.584107500000002,44.759914453125,26.1527675,44.593264453125,25.8247705,44.186584453125C25.6807705,44.019924453125,25.5574375,43.833254453125,25.4754375,43.646574453125C25.4357315,43.548524453125,25.3948635,43.452394453125,25.3542625,43.356904453125C25.2264825,43.056394453125,25.1013485,42.762084453125,25.0234375,42.433254453125C25.0234375,42.433254453125,25.0234375,42.306574453125,25.0234375,42.306574453125C25.0819595,42.325624453125,25.1510075,42.341244453125,25.2158005,42.355894453125C25.2417935,42.361784453125,25.2671015,42.367524453125,25.2907705,42.373264453125C26.0501075,42.639924453125,26.8101075,42.679934453125,27.6107675,42.433254453125C27.6007275,42.420164453125,27.590677499999998,42.406344453125,27.5805375,42.392394453125C27.5287675,42.321164453125,27.4745675,42.246584453125,27.4054375,42.246584453125C26.6461075,42.206574453125,26.0301075,41.879914453125,25.5161045,41.359924453125004C25.2287705,41.053254453125,25.1054375,40.679934453125,25.2081045,40.273254453125C25.3934375,39.546594453125,25.8447705,38.973264453125,26.3994375,38.479914453125C26.4201075,38.459924453125,26.4607675,38.459924453125,26.5021075,38.459924453125C26.6254375,39.346584453125,26.994767500000002,40.126584453125,27.6727675,40.786584453125C27.6848875,40.742854453125,27.6989075,40.703274453125,27.7115175,40.667694453125C27.7412175,40.583864453125,27.7631175,40.522034453125,27.7341075,40.479914453125C27.4261075,39.919924453125,27.385437500000002,39.319914453125,27.4674375,38.706574453125C27.5907675,37.633238453125,28.3914375,37.326598453125,29.4794375,37.466581953125C29.6801975,37.479582353125,29.8806675,37.529265053125,30.0810475,37.578917453125C30.188747499999998,37.605620453125,30.2964275,37.632292453125,30.404107500000002,37.653258453125C30.5474375,37.673247453125,30.5474375,37.739928453125,30.4447675,37.839903453125C30.2394375,38.026579453125,30.0341075,38.233244453125,29.8494375,38.439914453125C29.5001075,38.873254453125,29.2541075,39.346584453125,29.1307675,39.879914453125C29.2719275,39.917384453125,29.324917499999998,39.931454453125,29.3597575,39.912384453125C29.3806975,39.900904453125,29.3950775,39.877474453125004,29.418107499999998,39.839934453125C29.8081075,39.199924453125,30.424107499999998,38.826594453125,31.122767500000002,38.646574453125C31.5947675,38.519924453125,31.9847675,38.666594453125,32.3134375,39.013244453125C32.3134375,39.013244453125,32.3357275,39.035914453125,32.3357275,39.035914453125C32.3357275,39.035914453125,32.3357275,39.035914453125,32.3357275,39.035914453125ZM27.7550775,41.566554453125C27.7344075,42.306544453125,28.3304075,42.926544453125,29.0490775,42.946534453125C29.8084175,42.966554453125,30.4244175,42.393214453125,30.4244175,41.673214453125C30.4450775,40.886534453125,29.870417500000002,40.293214453125,29.1104175,40.273224453125C28.3917475,40.253204453125,27.7757475,40.826534453125,27.7550775,41.566554453125C27.7550775,41.566554453125,27.7550775,41.566554453125,27.7550775,41.566554453125Z" fill-rule="evenodd" fill="#68768C" fill-opacity="1"/></g><g style="mix-blend-mode:passthrough"><path d="M29.109380876464844,43.033437578125C29.892040876464844,43.033437578125,30.526710876464843,42.393437578125,30.526710876464843,41.606767578125C30.526710876464843,40.826767578125,29.892040876464844,40.186767578125,29.109380876464844,40.186767578125C28.326710876464844,40.186767578125,27.692710876464844,40.826767578125,27.692710876464844,41.606767578125C27.692710876464844,42.393437578125,28.326710876464844,43.033437578125,29.109380876464844,43.033437578125C29.109380876464844,43.033437578125,29.109380876464844,43.033437578125,29.109380876464844,43.033437578125Z" fill="#AAB9CC" fill-opacity="1"/></g><g style="mix-blend-mode:passthrough"><path d="M20.833156812744143,28.50666984375C20.833156812744143,28.50666984375,11.531159812744141,28.50666984375,11.531159812744141,28.50666984375C11.28449381274414,28.50666984375,11.09982681274414,28.32666984375,11.09982681274414,28.10000684375C11.09982681274414,28.10000684375,11.09982681274414,27.17333984375,11.09982681274414,27.17333984375C11.09982681274414,27.17333984375,21.26452681274414,27.17333984375,21.26452681274414,27.17333984375C21.26452681274414,27.17333984375,21.26452681274414,28.10000684375,21.26452681274414,28.10000684375C21.26452681274414,28.32666984375,21.07982681274414,28.50666984375,20.833156812744143,28.50666984375C20.833156812744143,28.50666984375,20.833156812744143,28.50666984375,20.833156812744143,28.50666984375Z" fill="#CED7E2" fill-opacity="1"/></g><g style="mix-blend-mode:passthrough"><path d="M25.14605024902344,28.50666984375C25.14605024902344,28.50666984375,21.902047249023436,28.50666984375,21.902047249023436,28.50666984375C21.758047249023438,28.50666984375,21.655380249023438,28.38666984375,21.655380249023438,28.26000984375C21.655380249023438,28.26000984375,21.655380249023438,27.17333984375,21.655380249023438,27.17333984375C21.655380249023438,27.17333984375,25.413380249023437,27.17333984375,25.413380249023437,27.17333984375C25.413380249023437,27.17333984375,25.413380249023437,28.26000984375,25.413380249023437,28.26000984375C25.413380249023437,28.40666984375,25.290050249023437,28.50666984375,25.14605024902344,28.50666984375C25.14605024902344,28.50666984375,25.14605024902344,28.50666984375,25.14605024902344,28.50666984375Z" fill="#CED7E2" fill-opacity="1"/></g><g style="mix-blend-mode:passthrough"><path d="M36.33829868774414,24.88673828125C36.33829868774414,24.88673828125,34.058998687744136,27.166738281249998,34.058998687744136,27.166738281249998C33.95629868774414,27.27343828125,33.83299868774414,27.31343828125,33.688998687744146,27.31343828125C33.688998687744146,27.31343828125,7.300998687744141,27.31343828125,7.300998687744141,27.31343828125C7.300998687744141,27.31343828125,7.300998687744141,13.90673828125,7.300998687744141,13.90673828125C7.300998687744141,13.90673828125,35.39369868774414,13.90673828125,35.39369868774414,13.90673828125C35.98899868774414,13.90673828125,36.48169868774414,14.40007128125,36.48169868774414,14.99340828125C36.48169868774414,14.99340828125,36.48169868774414,24.53343828125,36.48169868774414,24.53343828125C36.48169868774414,24.66003828125,36.44099868774414,24.78003828125,36.33829868774414,24.88673828125C36.33829868774414,24.88673828125,36.33829868774414,24.88673828125,36.33829868774414,24.88673828125Z" fill="#AAB9CC" fill-opacity="1"/></g><g style="mix-blend-mode:passthrough"><path d="M7.136896436767579,29.3333C6.972236436767578,29.3333,6.828896436767578,29.1867,6.828896436767578,29.0267C6.828896436767578,29.0267,6.828896436767578,11.62,6.828896436767578,11.62C6.828896436767578,11.62,4.631566436767578,11.62,4.631566436767578,11.62C4.466899436767578,11.62,4.323566436767578,11.473333,4.323566436767578,11.306667000000001C4.323566436767578,11.146667,4.466899436767578,11,4.631566436767578,11C4.631566436767578,11,7.136896436767579,11,7.136896436767579,11C7.300896436767578,11,7.4448964367675785,11.146667,7.4448964367675785,11.306667000000001C7.4448964367675785,11.306667000000001,7.4448964367675785,29.0267,7.4448964367675785,29.0267C7.4448964367675785,29.1867,7.300896436767578,29.3333,7.136896436767579,29.3333C7.136896436767579,29.3333,7.136896436767579,29.3333,7.136896436767579,29.3333Z" fill="#68768C" fill-opacity="1"/></g><g style="mix-blend-mode:passthrough"><path d="M7.17800618725586,15.7200927734375C7.17800618725586,15.7200927734375,6.212673187255859,15.7200927734375,6.212673187255859,15.7200927734375C6.212673187255859,15.7200927734375,6.212673187255859,19.3200927734375,6.212673187255859,19.3200927734375C6.212673187255859,19.3200927734375,7.17800618725586,19.3200927734375,7.17800618725586,19.3200927734375C7.17800618725586,19.3200927734375,7.17800618725586,15.7200927734375,7.17800618725586,15.7200927734375C7.17800618725586,15.7200927734375,7.17800618725586,15.7200927734375,7.17800618725586,15.7200927734375Z" fill="#68768C" fill-opacity="1"/></g><g style="mix-blend-mode:passthrough"><path d="M7.17800618725586,20.2066650390625C7.17800618725586,20.2066650390625,6.212673187255859,20.2066650390625,6.212673187255859,20.2066650390625C6.212673187255859,20.2066650390625,6.212673187255859,23.8133350390625,6.212673187255859,23.8133350390625C6.212673187255859,23.8133350390625,7.17800618725586,23.8133350390625,7.17800618725586,23.8133350390625C7.17800618725586,23.8133350390625,7.17800618725586,20.2066650390625,7.17800618725586,20.2066650390625C7.17800618725586,20.2066650390625,7.17800618725586,20.2066650390625,7.17800618725586,20.2066650390625Z" fill="#68768C" fill-opacity="1"/></g><g style="mix-blend-mode:passthrough"><path d="M11.100516187744141,18.06675910949707C11.100516187744141,18.06675910949707,9.29318618774414,18.06675910949707,9.29318618774414,18.06675910949707C9.29318618774414,18.06675910949707,9.29318618774414,18.54009210949707,9.29318618774414,18.54009210949707C9.29318618774414,18.54009210949707,11.100516187744141,18.54009210949707,11.100516187744141,18.54009210949707C11.100516187744141,18.54009210949707,11.100516187744141,18.06675910949707,11.100516187744141,18.06675910949707C11.100516187744141,18.06675910949707,11.100516187744141,18.06675910949707,11.100516187744141,18.06675910949707Z" fill="#68768C" fill-opacity="1"/></g><g style="mix-blend-mode:passthrough"><path d="M11.100516187744141,19.32005500793457C11.100516187744141,19.32005500793457,9.29318618774414,19.32005500793457,9.29318618774414,19.32005500793457C9.29318618774414,19.32005500793457,9.29318618774414,19.79338800793457,9.29318618774414,19.79338800793457C9.29318618774414,19.79338800793457,11.100516187744141,19.79338800793457,11.100516187744141,19.79338800793457C11.100516187744141,19.79338800793457,11.100516187744141,19.32005500793457,11.100516187744141,19.32005500793457C11.100516187744141,19.32005500793457,11.100516187744141,19.32005500793457,11.100516187744141,19.32005500793457Z" fill="#68768C" fill-opacity="1"/></g><g style="mix-blend-mode:passthrough"><path d="M11.100516187744141,20.56004524230957C11.100516187744141,20.56004524230957,9.29318618774414,20.56004524230957,9.29318618774414,20.56004524230957C9.29318618774414,20.56004524230957,9.29318618774414,21.03337824230957,9.29318618774414,21.03337824230957C9.29318618774414,21.03337824230957,11.100516187744141,21.03337824230957,11.100516187744141,21.03337824230957C11.100516187744141,21.03337824230957,11.100516187744141,20.56004524230957,11.100516187744141,20.56004524230957C11.100516187744141,20.56004524230957,11.100516187744141,20.56004524230957,11.100516187744141,20.56004524230957Z" fill="#68768C" fill-opacity="1"/></g><g style="mix-blend-mode:passthrough"><path d="M11.100516187744141,21.79332160949707C11.100516187744141,21.79332160949707,9.29318618774414,21.79332160949707,9.29318618774414,21.79332160949707C9.29318618774414,21.79332160949707,9.29318618774414,22.26665460949707,9.29318618774414,22.26665460949707C9.29318618774414,22.26665460949707,11.100516187744141,22.26665460949707,11.100516187744141,22.26665460949707C11.100516187744141,22.26665460949707,11.100516187744141,21.79332160949707,11.100516187744141,21.79332160949707C11.100516187744141,21.79332160949707,11.100516187744141,21.79332160949707,11.100516187744141,21.79332160949707Z" fill="#68768C" fill-opacity="1"/></g><g style="mix-blend-mode:passthrough"><path d="M11.100516187744141,23.05333137512207C11.100516187744141,23.05333137512207,9.29318618774414,23.05333137512207,9.29318618774414,23.05333137512207C9.29318618774414,23.05333137512207,9.29318618774414,23.52666437512207,9.29318618774414,23.52666437512207C9.29318618774414,23.52666437512207,11.100516187744141,23.52666437512207,11.100516187744141,23.52666437512207C11.100516187744141,23.52666437512207,11.100516187744141,23.05333137512207,11.100516187744141,23.05333137512207C11.100516187744141,23.05333137512207,11.100516187744141,23.05333137512207,11.100516187744141,23.05333137512207Z" fill="#68768C" fill-opacity="1"/></g><g style="opacity:0.4000000059604645;"><path d="M17.424770874023437,25.439921875C20.04477087402344,25.439921875,22.168770874023437,23.306591875,22.168770874023437,20.679921874999998C22.168770874023437,18.053251875,20.04477087402344,15.919921875,17.424770874023437,15.919921875C14.804770874023438,15.919921875,12.680770874023438,18.053251875,12.680770874023438,20.679921874999998C12.680770874023438,23.306591875,14.804770874023438,25.439921875,17.424770874023437,25.439921875C17.424770874023437,25.439921875,17.424770874023437,25.439921875,17.424770874023437,25.439921875Z" fill="#68768C" fill-opacity="1"/></g><g style="mix-blend-mode:passthrough"><path d="M20.627562561035155,18.0665919140625C20.771562561035157,18.2065919140625,20.936232561035155,18.3732619140625,21.018232561035155,18.5799319140625C21.202892561035156,18.9932619140625,21.387562561035157,19.446591914062502,21.510892561035156,19.8399319140625C21.510892561035156,19.8399319140625,21.510892561035156,19.9199319140625,21.510892561035156,19.9199319140625C21.490472561035155,19.9199319140625,21.469982561035156,19.9221419140625,21.449462561035155,19.9243619140625C21.40835256103516,19.9288119140625,21.367142561035156,19.9332719140625,21.326232561035155,19.9199319140625C21.240272561035155,19.9013119140625,21.154182561035157,19.8725819140625,21.065992561035156,19.8431519140625C20.964702561035157,19.8093619140625,20.860662561035156,19.7746419140625,20.750892561035158,19.7532619140625C20.155562561035154,19.6332619140625,19.539562561035154,19.6332619140625,18.882232561035156,19.8399319140625C18.916382561035157,19.866541914062502,18.946032561035157,19.8953619140625,18.973412561035154,19.9219819140625C19.028352561035156,19.9753919140625,19.074172561035155,20.0199319140625,19.12889256103516,20.0199319140625C19.868232561035157,20.0665919140625,20.463562561035157,20.3732619140625,20.976892561035157,20.8665919140625C21.326232561035155,21.1932619140625,21.449562561035158,21.6265919140625,21.305562561035156,22.0799319140625C21.079562561035157,22.7799319140625,20.668892561035157,23.3599319140625,20.094232561035156,23.8132619140625C20.094232561035156,23.8132619140625,20.073562561035157,23.8132619140625,20.073562561035157,23.8132619140625C20.019922561035155,23.6592919140625,19.972022561035157,23.505331914062502,19.924542561035157,23.3527419140625C19.844562561035154,23.095701914062502,19.765802561035155,22.8425619140625,19.662892561035157,22.599931914062502C19.498232561035156,22.2065919140625,19.231562561035155,21.8532619140625,18.861562561035157,21.5065919140625C18.851892561035157,21.5351419140625,18.841002561035157,21.5629419140625,18.830592561035157,21.5895319140625C18.797242561035155,21.6747019140625,18.768732561035158,21.7475319140625,18.800232561035155,21.793261914062498C19.087562561035156,22.3465919140625,19.12889256103516,22.9265919140625,19.066892561035157,23.5265919140625C19.005562561035156,23.9999319140625,18.820892561035155,24.3865919140625,18.389562561035156,24.6332619140625C18.040232561035157,24.8399319140625,16.972232561035156,24.966591914062498,16.130892561035157,24.593261914062502C16.103142561035156,24.593261914062502,16.075382561035156,24.5752219140625,16.047832561035158,24.5573219140625C16.034352561035156,24.5485619140625,16.020922561035157,24.5398319140625,16.007562561035158,24.5332619140625C16.007562561035158,24.5332619140625,16.009782561035156,24.5289619140625,16.009782561035156,24.5289619140625C16.029692561035155,24.4903819140625,16.049712561035157,24.4515919140625,16.089562561035155,24.4065919140625C16.089562561035155,24.4065919140625,16.098162561035156,24.3979919140625,16.098162561035156,24.3979919140625C16.361972561035156,24.134191914062498,16.625992561035154,23.8701819140625,16.849562561035157,23.5865919140625C17.116232561035154,23.2332619140625,17.280892561035156,22.8265919140625,17.362892561035157,22.3732619140625C17.356062561035156,22.3745919140625,17.34914256103516,22.375921914062502,17.342162561035156,22.3772619140625C17.244182561035156,22.3961019140625,17.134142561035155,22.4172519140625,17.095562561035155,22.4732619140625C16.705562561035155,23.113261914062498,16.110232561035158,23.4599319140625,15.411562561035156,23.6665919140625C14.898232561035156,23.8132619140625,14.467562561035155,23.6465919140625,14.138895561035156,23.2332619140625C13.994895561035156,23.0732619140625,13.871562561035157,22.8865919140625,13.789562561035156,22.6999319140625C13.745217561035156,22.5881619140625,13.699313561035156,22.479811914062502,13.653904561035157,22.3726319140625C13.531380561035157,22.0834319140625,13.412468661035156,21.8027519140625,13.337562561035156,21.4865919140625C13.337562561035156,21.4865919140625,13.337562561035156,21.3599319140625,13.337562561035156,21.3599319140625C13.378220561035157,21.3697619140625,13.423716461035156,21.3796019140625,13.469212561035157,21.389441914062502C13.516219561035156,21.3996019140625,13.563225561035157,21.4097619140625,13.604895561035157,21.419931914062502C14.364232561035156,21.6932619140625,15.124232561035157,21.7332619140625,15.925562561035157,21.4865919140625C15.919402561035156,21.4779819140625,15.913242561035156,21.4692319140625,15.907072561035157,21.4604619140625C15.851162561035157,21.3810319140625,15.794072561035156,21.2999319140625,15.720232561035157,21.2999319140625C14.960232561035156,21.2599319140625,14.344232561035156,20.9265919140625,13.830895561035156,20.4132619140625C13.542895561035156,20.1065919140625,13.420229261035157,19.7332619140625,13.522895561035156,19.3199319140625C13.707562561035155,18.599931914062502,14.158895561035155,18.0265919140625,14.713562561035156,17.5265919140625C14.734232561035157,17.5065919140625,14.775562561035157,17.5065919140625,14.816232561035156,17.5065919140625C14.939562561035157,18.3932619140625,15.308892561035156,19.1799319140625,15.986892561035155,19.8399319140625C15.998532561035155,19.7986519140625,16.011742561035156,19.7605419140625,16.023812561035157,19.7257519140625C16.054622561035156,19.6369219140625,16.077932561035155,19.569711914062502,16.048232561035157,19.5265919140625C15.740232561035157,18.9732619140625,15.699562561035156,18.3732619140625,15.781562561035155,17.7532619140625C15.904892561035156,16.6865949140625,16.705562561035155,16.3732619140625,17.794232561035155,16.5199281140625C17.994432561035154,16.5329282140625,18.194632561035156,16.5825449140625,18.394832561035155,16.6321619140625C18.502632561035156,16.6588779140625,18.610432561035157,16.6855949140625,18.71823256103516,16.7065949140625C18.861562561035157,16.7265949140625,18.861562561035157,16.7865949140625,18.758892561035157,16.8932619140625C18.553562561035157,17.0732619140625,18.348232561035157,17.2799279140625,18.163562561035157,17.4865919140625C17.814232561035155,17.9199319140625,17.568232561035156,18.3932619140625,17.444892561035157,18.9332619140625C17.583912561035156,18.9701719140625,17.637422561035155,18.9843719140625,17.672282561035157,18.9650119140625C17.694102561035155,18.9529019140625,17.708622561035156,18.9276519140625,17.732232561035154,18.8865919140625C18.122232561035155,18.2532619140625,18.738892561035158,17.8799319140625,19.436892561035158,17.6932619140625C19.908892561035156,17.5732619140625,20.299562561035156,17.7132619140625,20.627562561035155,18.0665919140625C20.627562561035155,18.0665919140625,20.627562561035155,18.0665919140625,20.627562561035155,18.0665919140625ZM16.069202561035155,20.6399819140625C16.048532561035156,21.3799819140625,16.644532561035156,21.999981914062502,17.363202561035155,22.019981914062498C18.122542561035157,22.0399819140625,18.739202561035157,21.4666419140625,18.739202561035157,20.7399819140625C18.759202561035156,19.9599819140625,18.18454256103516,19.3599819140625,17.424542561035157,19.3399819140625C16.705872561035157,19.3199819140625,16.089872561035158,19.8999819140625,16.069202561035155,20.6399819140625C16.069202561035155,20.6399819140625,16.069202561035155,20.6399819140625,16.069202561035155,20.6399819140625Z" fill-rule="evenodd" fill="#68768C" fill-opacity="1"/></g><g style="mix-blend-mode:passthrough"><path d="M17.42426506225586,22.100009765625C18.20692506225586,22.100009765625,18.84159506225586,21.466679765625,18.84159506225586,20.680009765625C18.84159506225586,19.893342765625,18.20692506225586,19.260009765625,17.42426506225586,19.260009765625C16.64159506225586,19.260009765625,16.00759506225586,19.893342765625,16.00759506225586,20.680009765625C16.00759506225586,21.466679765625,16.64159506225586,22.100009765625,17.42426506225586,22.100009765625C17.42426506225586,22.100009765625,17.42426506225586,22.100009765625,17.42426506225586,22.100009765625Z" fill="#AAB9CC" fill-opacity="1"/></g><g style="opacity:0.4000000059604645;"><path d="M29.109212873535157,25.439921875C31.729212873535158,25.439921875,33.853212873535156,23.306591875,33.853212873535156,20.679921874999998C33.853212873535156,18.053251875,31.729212873535158,15.919921875,29.109212873535157,15.919921875C26.489882873535155,15.919921875,24.365882873535156,18.053251875,24.365882873535156,20.679921874999998C24.365882873535156,23.306591875,26.489882873535155,25.439921875,29.109212873535157,25.439921875C29.109212873535157,25.439921875,29.109212873535157,25.439921875,29.109212873535157,25.439921875Z" fill="#68768C" fill-opacity="1"/></g><g style="mix-blend-mode:passthrough"><path d="M32.3134375,18.0665919140625C32.4574375,18.2065919140625,32.6214375,18.3732619140625,32.7041075,18.5799319140625C32.8887675,18.9932619140625,33.0734375,19.446591914062502,33.1967675,19.8399319140625C33.1967675,19.8399319140625,33.1967675,19.9199319140625,33.1967675,19.9199319140625C33.1760575,19.9199319140625,33.1554075,19.9221619140625,33.1348175,19.9243919140625C33.0937875,19.9288319140625,33.0529475,19.9332419140625,33.0121075,19.9199319140625C32.9255975,19.9012619140625,32.8392375,19.8724219140625,32.7508475,19.8429119140625C32.6498775,19.8091919140625,32.5462675,19.7745919140625,32.4367675,19.7532619140625C31.841437499999998,19.6332619140625,31.225437499999998,19.6332619140625,30.5681075,19.8399319140625C30.6022875,19.8665619140625,30.6318875,19.8954119140625,30.6592175,19.9220519140625C30.7139775,19.9754319140625,30.7596275,20.0199319140625,30.814767500000002,20.0199319140625C31.5541075,20.0665919140625,32.1494375,20.3732619140625,32.6627675,20.8665919140625C33.0121075,21.1932619140625,33.1347675,21.6265919140625,32.9914375,22.0799319140625C32.7654375,22.7799319140625,32.3547675,23.3599319140625,31.7794375,23.8132619140625C31.7794375,23.8132619140625,31.7594375,23.8132619140625,31.7594375,23.8132619140625C31.7057975,23.6592919140625,31.6578975,23.505331914062502,31.6104175,23.3527419140625C31.530437499999998,23.095701914062502,31.4516775,22.8425619140625,31.3487675,22.599931914062502C31.1841075,22.2065919140625,30.9174375,21.8532619140625,30.5474375,21.5065919140625C30.5377675,21.5351419140625,30.5268775,21.5629419140625,30.5164675,21.5895319140625C30.4831175,21.6747019140625,30.4546075,21.7475319140625,30.4861075,21.793261914062498C30.7734375,22.3465919140625,30.814767500000002,22.9265919140625,30.7527675,23.5265919140625C30.6914375,23.9999319140625,30.5067675,24.3865919140625,30.0754375,24.6332619140625C29.7261075,24.8399319140625,28.6581075,24.966591914062498,27.8161075,24.593261914062502C27.7888975,24.593261914062502,27.7613875,24.5753519140625,27.7339775,24.557511914062502C27.7204275,24.5486819140625,27.7068975,24.539881914062498,27.6934375,24.5332619140625C27.7134375,24.4932619140625,27.7341075,24.4532619140625,27.7754375,24.4065919140625C27.7754375,24.4065919140625,27.7840375,24.3979919140625,27.7840375,24.3979919140625C28.0478475,24.134191914062498,28.311867499999998,23.8701819140625,28.5354375,23.5865919140625C28.802107499999998,23.2332619140625,28.9661075,22.8265919140625,29.0487675,22.3732619140625C29.0419375,22.3745919140625,29.035017500000002,22.375921914062502,29.0280375,22.3772619140625C28.9300575,22.3961019140625,28.8200175,22.4172519140625,28.7814375,22.4732619140625C28.3914375,23.113261914062498,27.7961075,23.4599319140625,27.097437499999998,23.6665919140625C26.584107500000002,23.8132619140625,26.1527675,23.6465919140625,25.8247705,23.2332619140625C25.6807705,23.0732619140625,25.5574375,22.8865919140625,25.4754375,22.6999319140625C25.4317775,22.5903419140625,25.3867125,22.4840319140625,25.3421425,22.3788819140625C25.2186105,22.0874719140625,25.0988832,21.8050319140625,25.0234375,21.4865919140625C25.0234375,21.4865919140625,25.0234375,21.3599319140625,25.0234375,21.3599319140625C25.0651118,21.3700919140625,25.1121241,21.380251914062498,25.1591365,21.3904219140625C25.2046265,21.4002519140625,25.2501175,21.410091914062498,25.2907705,21.419931914062502C26.0501075,21.6932619140625,26.8101075,21.7332619140625,27.6107675,21.4865919140625C27.6050875,21.4785619140625,27.599407499999998,21.4704219140625,27.5937075,21.4622519140625C27.5378875,21.3822519140625,27.4804475,21.2999319140625,27.4054375,21.2999319140625C26.6461075,21.2599319140625,26.0301075,20.9265919140625,25.5161045,20.4132619140625C25.2287705,20.1065919140625,25.1054375,19.7332619140625,25.2081045,19.3199319140625C25.3934375,18.599931914062502,25.8447705,18.0265919140625,26.3994375,17.5265919140625C26.4201075,17.5065919140625,26.4607675,17.5065919140625,26.5021075,17.5065919140625C26.6254375,18.3932619140625,26.994767500000002,19.1799319140625,27.6727675,19.8399319140625C27.6844675,19.7977519140625,27.6979175,19.7588919140625,27.7101775,19.7234919140625C27.740547499999998,19.6357819140625,27.7635475,19.5693419140625,27.7341075,19.5265919140625C27.4261075,18.9732619140625,27.385437500000002,18.3732619140625,27.4674375,17.7532619140625C27.5907675,16.6865949140625,28.3914375,16.3732619140625,29.4794375,16.5199281140625C29.6802075,16.5329368140625,29.8806875,16.5826110140625,30.0810775,16.6322609140625C30.1887675,16.6589449140625,30.2964375,16.6856209140625,30.404107500000002,16.7065949140625C30.5474375,16.7265949140625,30.5474375,16.7865949140625,30.4447675,16.8932619140625C30.2394375,17.0732619140625,30.0341075,17.2799279140625,29.8494375,17.4865919140625C29.5001075,17.9199319140625,29.2541075,18.3932619140625,29.1307675,18.9332619140625C29.2697875,18.9701719140625,29.3232975,18.9843719140625,29.3581575,18.9650119140625C29.3799775,18.9529019140625,29.3944975,18.9276519140625,29.418107499999998,18.8865919140625C29.8081075,18.2532619140625,30.424107499999998,17.8799319140625,31.122767500000002,17.6932619140625C31.5947675,17.5732619140625,31.9847675,17.7132619140625,32.3134375,18.0665919140625C32.3134375,18.0665919140625,32.3134375,18.0665919140625,32.3134375,18.0665919140625ZM27.7550775,20.6399819140625C27.7344075,21.3799819140625,28.3304075,21.999981914062502,29.0490775,22.019981914062498C29.8084175,22.0399819140625,30.4244175,21.4666419140625,30.4244175,20.7399819140625C30.4450775,19.9599819140625,29.870417500000002,19.3599819140625,29.1104175,19.3399819140625C28.3917475,19.3199819140625,27.7757475,19.8999819140625,27.7550775,20.6399819140625C27.7550775,20.6399819140625,27.7550775,20.6399819140625,27.7550775,20.6399819140625Z" fill-rule="evenodd" fill="#68768C" fill-opacity="1"/></g><g style="mix-blend-mode:passthrough"><path d="M29.109380876464844,22.100009765625C29.892040876464844,22.100009765625,30.526710876464843,21.466679765625,30.526710876464843,20.680009765625C30.526710876464843,19.893342765625,29.892040876464844,19.260009765625,29.109380876464844,19.260009765625C28.326710876464844,19.260009765625,27.692710876464844,19.893342765625,27.692710876464844,20.680009765625C27.692710876464844,21.466679765625,28.326710876464844,22.100009765625,29.109380876464844,22.100009765625C29.109380876464844,22.100009765625,29.109380876464844,22.100009765625,29.109380876464844,22.100009765625Z" fill="#AAB9CC" fill-opacity="1"/></g><g style="mix-blend-mode:passthrough"><g style="mix-blend-mode:passthrough"><path d="M74.59250081589218,43.77359989878484C74.44160081589217,44.63339989878484,74.13930081589217,45.44789989878484,73.78690081589218,46.20709989878483C73.73620081589218,46.35789989878484,73.63550081589219,46.51379989878484,73.53470081589218,46.714899898784836C73.23290081589218,47.323199898784836,72.88040081589219,47.83099989878484,72.52750081589218,48.389099898784835C72.37660081589217,48.59019989878483,72.22570081589218,48.791299898784835,72.07430081589217,48.99749989878484C71.11770081589218,50.11359989878484,69.90900081589217,51.07389989878483,68.59950081589218,51.73249989878484C68.34780081589219,51.83809989878483,68.09610081589219,51.98899989878484,67.84390081589218,52.08949989878484C67.44140081589218,52.24029989878484,66.98810081589218,52.446499898784836,66.53490081589217,52.54699989878483C64.82280081589218,53.054799898784836,62.95930081589218,53.155399898784836,61.09584081589218,52.74809989878484C54.95188081589218,51.48119989878484,50.97372081589218,45.39759989878483,52.23259081589218,39.15817989878484C53.49146081589218,32.97405989878484,59.53466081589218,28.966959898784836,65.72930081589217,30.233947898784837C67.89460081589218,30.691471898784837,69.90900081589217,31.757349898784835,71.47010081589218,33.37627989878484C74.24010081589218,36.066119898784834,75.39820081589218,39.96763989878484,74.59250081589218,43.77359989878484C74.59250081589218,43.77359989878484,74.59250081589218,43.77359989878484,74.59250081589218,43.77359989878484Z" fill="url(#master_svg3_0_685)" fill-opacity="1"/></g><g style="mix-blend-mode:passthrough"><path d="M61.49810194705963,50.86366726360321C62.15285194705963,51.01406726360321,62.807101947059635,51.06416726360321,63.46186194705963,51.06416726360321C64.31816194705964,51.06416726360321,65.22456194705963,50.963867263603206,66.13106194705964,50.813467263603215C66.37386194705962,50.74436726360321,66.61676194705963,50.64916726360321,66.87626194705963,50.547367263603206C66.99326194705964,50.50146726360321,67.11366194705963,50.45416726360321,67.23896194705964,50.40746726360321C67.44056194705963,50.30716726360321,67.64206194705963,50.206867263603215,67.84306194705962,50.106667263603214C68.95106194705963,49.49996726360321,69.95826194705964,48.73796726360321,70.76446194705963,47.78036726360321C70.83826194705964,47.70436726360321,70.90016194705963,47.61746726360321,70.96176194705963,47.53096726360321C71.02596194705963,47.44066726360321,71.08996194705963,47.35086726360321,71.16696194705963,47.274067263603214C71.46936194705964,46.81776726360321,71.77166194705963,46.36156726360321,72.02326194705964,45.86026726360321C72.09226194705963,45.75376726360321,72.13756194705962,45.64976726360321,72.17546194705963,45.56246726360321C72.19296194705963,45.522367263603215,72.20886194705963,45.48576726360321,72.22486194705962,45.45416726360321C72.52666194705964,44.797367263603206,72.72816194705963,44.09046726360321,72.87906194705963,43.37856726360321C73.53386194705963,40.19505726360321,72.57726194705964,36.90623726360321,70.26056194705963,34.58000726360321C68.95106194705963,33.26648726360321,67.28916194705963,32.35905526360321,65.42616194705963,31.95296726360321C62.90787194705963,31.39647526360321,60.33949194705963,31.90283226360321,58.17419194705963,33.31661726360321C56.059021947059634,34.73542726360321,54.54847294705963,36.90623726360321,54.04462194705963,39.43802726360321C52.936652947059635,44.641967263603206,56.31069194705963,49.800767263603205,61.49810194705963,50.86366726360321C61.49810194705963,50.86366726360321,61.49810194705963,50.86366726360321,61.49810194705963,50.86366726360321ZM58.62742194705963,34.07887726360321C60.08784194705963,33.11629726360321,61.69916194705963,32.60993726360321,63.41175194705963,32.60993726360321C64.01586194705963,32.60993726360321,64.62046194705962,32.66007126360321,65.17446194705963,32.86561726360321C66.83596194705963,33.21656726360321,68.39706194705963,34.02873726360321,69.60586194705964,35.24198726360321C71.67086194705963,37.36267726360321,72.57726194705964,40.34566726360321,71.97266194705963,43.27856726360321C71.87196194705963,43.93526726360321,71.67086194705963,44.54186726360321,71.36856194705963,45.14856726360321C71.34346194705964,45.19866726360321,71.31826194705963,45.26256726360321,71.29316194705963,45.32656726360321C71.26796194705963,45.39046726360321,71.24276194705963,45.45436726360321,71.21766194705964,45.50446726360321C70.96546194705962,45.96066726360321,70.71386194705963,46.36176726360321,70.41146194705964,46.76786726360321C70.36106194705962,46.84346726360321,70.29776194705963,46.92036726360321,70.23446194705963,46.99726726360321C70.17186194705963,47.07326726360321,70.10916194705963,47.14926726360321,70.05906194705963,47.22406726360321C69.30406194705964,48.08136726360321,68.39706194705963,48.78826726360321,67.38986194705963,49.29466726360321C67.30046194705963,49.35406726360321,67.19316194705964,49.39766726360321,67.07866194705963,49.444167263603205C67.00006194705963,49.47616726360321,66.91796194705964,49.50946726360321,66.83596194705963,49.550367263603206C66.56866194705964,49.66436726360321,66.30146194705964,49.74956726360321,66.05606194705963,49.82786726360321C65.97786194705964,49.85276726360321,65.90186194705963,49.87706726360321,65.82876194705963,49.90126726360321C64.46906194705963,50.30736726360321,63.00866194705963,50.35746726360321,61.64902194705963,50.05666726360321C56.915331947059634,49.04396726360321,53.84310296705963,44.39146726360321,54.850301947059634,39.63877726360321C55.30351194705963,37.36267726360321,56.663161947059635,35.39239726360321,58.62742194705963,34.07887726360321C58.62742194705963,34.07887726360321,58.62742194705963,34.07887726360321,58.62742194705963,34.07887726360321Z" fill-rule="evenodd" fill="#F9B400" fill-opacity="1"/></g><g style="mix-blend-mode:passthrough"><path d="M73.76554558105468,46.791972308349614C73.46124558105468,47.348672308349606,73.15644558105468,47.85537230834961,72.8010455810547,48.36197230834961C72.64844558105469,48.56257230834961,72.4962455810547,48.76327230834961,72.34404558105469,48.96887230834961C71.37904558105468,50.08247230834961,70.16032558105469,51.04047230834961,68.84045558105468,51.697572308349606C68.58618558105469,51.79787230834961,68.3324255810547,51.953372308349614,68.0786655810547,52.05377230834961C67.6722355810547,52.20417230834961,66.74434558105469,52.73837230834961,66.28736558105469,52.84367230834961C66.28736558105469,52.84367230834961,61.23234558105469,47.32607230834961,61.23234558105469,47.32607230834961C61.23234558105469,47.32607230834961,62.422075581054685,46.791972308349614,62.422075581054685,46.791972308349614C62.422075581054685,46.791972308349614,63.50710558105469,45.47775230834961,63.50710558105469,45.47775230834961C63.50710558105469,45.47775230834961,63.50710558105469,43.56408230834961,63.50710558105469,43.56408230834961C63.50710558105469,43.56408230834961,63.75985558105469,42.31008230834961,63.75985558105469,42.31008230834961C63.75985558105469,42.31008230834961,64.01260558105469,40.05288230834961,62.92757558105469,40.05288230834961C64.01260558105469,40.05288230834961,64.01260558105469,38.54807230834961,64.01260558105469,38.54807230834961C64.01260558105469,38.54807230834961,65.02361558105468,36.29087330834961,65.02361558105468,36.29087330834961C65.02361558105468,36.29087330834961,67.29837558105469,35.78927230834961,67.29837558105469,35.78927230834961C67.29837558105469,35.78927230834961,74.37524558105468,45.47775230834961,74.37524558105468,45.47775230834961C74.3241455810547,45.62823230834961,73.81664558105469,46.59127230834961,73.76554558105468,46.791972308349614C73.76554558105468,46.791972308349614,73.76554558105468,46.791972308349614,73.76554558105468,46.791972308349614Z" fill="url(#master_svg4_0_691)" fill-opacity="1"/></g><g style="mix-blend-mode:passthrough" transform="matrix(1,0,0,-1,0,95.0479736328125)"><path d="M66.84130085205078,59.57158681640625C65.94928085205078,59.57158681640625,65.22245085205078,59.24918681640625,64.66081085205079,58.60238681640625C64.09917085205078,57.95548681640625,63.762970852050785,57.06112681640625,63.65025085205078,55.91528681640625C63.65025085205078,55.91528681640625,63.634700852050784,55.78093681640625,63.634700852050784,55.78093681640625C63.634700852050784,55.78093681640625,61.14910085205078,55.78093681640625,61.14910085205078,55.78093681640625C61.14910085205078,55.78093681640625,60.45530985205078,54.83270681640625,60.45530985205078,54.83270681640625C60.45530985205078,54.83270681640625,63.560850852050784,54.83270681640625,63.560850852050784,54.83270681640625C63.560850852050784,54.83270681640625,63.47534085205078,54.15909681640625,63.47534085205078,54.15909681640625C63.47534085205078,54.15909681640625,60.206549852050784,54.15909681640625,60.206549852050784,54.15909681640625C60.206549852050784,54.15909681640625,59.51081085205078,53.21087681640625,59.51081085205078,53.21087681640625C59.51081085205078,53.21087681640625,63.393720852050784,53.21087681640625,63.393720852050784,53.21087681640625C63.393720852050784,53.21087681640625,63.17801085205078,51.27818681640625,63.17801085205078,51.27818681640625C63.17801085205078,51.27818681640625,63.05751085205078,50.14578681640625,63.05751085205078,50.14578681640625C62.92147085205078,48.84256681640625,62.42785085205078,48.18999381640625,61.57664085205078,48.18999381640625C61.57664085205078,48.18999381640625,61.11023085205078,48.27252281640625,61.11023085205078,48.27252281640625C61.11023085205078,48.27252281640625,61.11023085205078,47.52398681640625,61.11023085205078,47.52398681640625C61.11023085205078,47.52398681640625,61.844830852050784,47.66217881640625,61.844830852050784,47.66217881640625C62.17521085205078,47.79461181640625,62.48809085205078,47.99422481640625,62.781550852050785,48.25909181640625C63.179940852050784,48.61800681640625,63.46951085205078,49.02297681640625,63.648310852050784,49.47210681640625C63.82710085205078,49.91930681640625,63.95731085205078,50.56611681640625,64.04088085205078,51.41062681640625C64.04088085205078,51.41062681640625,64.23715085205077,53.21087681640625,64.23715085205077,53.21087681640625C64.23715085205077,53.21087681640625,64.93880085205078,53.21087681640625,64.93880085205078,53.21087681640625C64.93880085205078,53.21087681640625,65.63259085205078,54.15909681640625,65.63259085205078,54.15909681640625C65.63259085205078,54.15909681640625,64.31878085205078,54.15909681640625,64.31878085205078,54.15909681640625C64.31878085205078,54.15909681640625,64.40040085205078,54.98057681640625,64.40040085205078,54.98057681640625C64.40040085205078,54.98057681640625,65.73356085205079,54.98057681640625,65.73356085205079,54.98057681640625C65.73356085205079,54.98057681640625,66.42736085205078,55.78093681640625,66.42736085205078,55.78093681640625C66.42736085205078,55.78093681640625,64.48007085205079,55.78093681640625,64.48007085205079,55.78093681640625C64.48007085205079,55.78093681640625,64.54032085205078,56.30299681640625,64.54032085205078,56.30299681640625C64.64137085205078,57.316396816406254,64.79685085205078,57.99198681640625,65.00868085205079,58.33368681640625C65.22051085205078,58.67528681640625,65.57227085205078,58.84608681640625,66.06589085205079,58.84608681640625C66.27383085205078,58.84608681640625,66.50898085205078,58.80198681640625,66.76940085205078,58.71368681640625C66.76940085205078,58.71368681640625,67.49040085205078,59.49678681640625,67.49040085205078,59.49678681640625C67.22416085205079,59.54668681640625,67.00843085205078,59.57158681640625,66.84130085205078,59.57158681640625C66.84130085205078,59.57158681640625,66.84130085205078,59.57158681640625,66.84130085205078,59.57158681640625Z" fill="url(#master_svg5_0_694)" fill-opacity="1"/></g></g></g></svg>