<svg xmlns="http://www.w3.org/2000/svg" xmlns:xlink="http://www.w3.org/1999/xlink" fill="none" version="1.1" width="70.4571533203125" height="80" viewBox="0 0 70.4571533203125 80"><defs><linearGradient x1="0.019147932529449463" y1="0.9743287563323975" x2="0.9862556457519531" y2="0.9743287563323975" id="master_svg0_0_972"><stop offset="0%" stop-color="#FFD44F" stop-opacity="1"/><stop offset="100%" stop-color="#FFA607" stop-opacity="1"/></linearGradient><linearGradient x1="-1.4688514471054077" y1="-0.005975131876766682" x2="-1.4688514471054077" y2="3.9326083660125732" id="master_svg1_0_977"><stop offset="0%" stop-color="#808BA3" stop-opacity="0.00009999999747378752"/><stop offset="100%" stop-color="#586782" stop-opacity="1"/></linearGradient><linearGradient x1="-1.43777596950531" y1="-1.4903712272644043" x2="-1.43777596950531" y2="2.385026693344116" id="master_svg2_0_980"><stop offset="0%" stop-color="#808BA3" stop-opacity="0.00009999999747378752"/><stop offset="100%" stop-color="#586782" stop-opacity="1"/></linearGradient><linearGradient x1="-1.485976219177246" y1="-3.039670467376709" x2="-1.485976219177246" y2="0.8989130258560181" id="master_svg3_0_983"><stop offset="0%" stop-color="#808BA3" stop-opacity="0.00009999999747378752"/><stop offset="100%" stop-color="#586782" stop-opacity="1"/></linearGradient><linearGradient x1="-1.427154302597046" y1="0.01122102327644825" x2="-1.427154302597046" y2="3.882478713989258" id="master_svg4_0_986"><stop offset="0%" stop-color="#808BA3" stop-opacity="0.00009999999747378752"/><stop offset="100%" stop-color="#586782" stop-opacity="1"/></linearGradient><linearGradient x1="-1.4292243719100952" y1="-1.4903712272644043" x2="-1.4292243719100952" y2="2.385026693344116" id="master_svg5_0_989"><stop offset="0%" stop-color="#808BA3" stop-opacity="0.00009999999747378752"/><stop offset="100%" stop-color="#586782" stop-opacity="1"/></linearGradient><linearGradient x1="-1.4742865562438965" y1="-3.039670467376709" x2="-1.4742865562438965" y2="0.8989130258560181" id="master_svg6_0_992"><stop offset="0%" stop-color="#808BA3" stop-opacity="0.00009999999747378752"/><stop offset="100%" stop-color="#586782" stop-opacity="1"/></linearGradient><linearGradient x1="-1.4437952041625977" y1="0.01122102327644825" x2="-1.4437952041625977" y2="3.882478713989258" id="master_svg7_0_995"><stop offset="0%" stop-color="#808BA3" stop-opacity="0.00009999999747378752"/><stop offset="100%" stop-color="#586782" stop-opacity="1"/></linearGradient><linearGradient x1="-1.4823306798934937" y1="-1.5337293148040771" x2="-1.4823306798934937" y2="2.4091403484344482" id="master_svg8_0_998"><stop offset="0%" stop-color="#808BA3" stop-opacity="0.00009999999747378752"/><stop offset="100%" stop-color="#586782" stop-opacity="1"/></linearGradient><linearGradient x1="-1.4437952041625977" y1="-2.98771071434021" x2="-1.4437952041625977" y2="0.8835470676422119" id="master_svg9_0_1001"><stop offset="0%" stop-color="#808BA3" stop-opacity="0.00009999999747378752"/><stop offset="100%" stop-color="#586782" stop-opacity="1"/></linearGradient><linearGradient x1="-1.4350125789642334" y1="0.01122102327644825" x2="-1.4350125789642334" y2="3.882478713989258" id="master_svga_0_1004"><stop offset="0%" stop-color="#808BA3" stop-opacity="0.00009999999747378752"/><stop offset="100%" stop-color="#586782" stop-opacity="1"/></linearGradient><linearGradient x1="-1.4701138734817505" y1="-1.5337293148040771" x2="-1.4701138734817505" y2="2.4091403484344482" id="master_svgb_0_1007"><stop offset="0%" stop-color="#808BA3" stop-opacity="0.00009999999747378752"/><stop offset="100%" stop-color="#586782" stop-opacity="1"/></linearGradient><linearGradient x1="-1.4350125789642334" y1="-2.98771071434021" x2="-1.4350125789642334" y2="0.8835470676422119" id="master_svgc_0_1010"><stop offset="0%" stop-color="#808BA3" stop-opacity="0.00009999999747378752"/><stop offset="100%" stop-color="#586782" stop-opacity="1"/></linearGradient><linearGradient x1="-1.4557545185089111" y1="-0.005975131876766682" x2="-1.4557545185089111" y2="3.9326083660125732" id="master_svgd_0_1013"><stop offset="0%" stop-color="#808BA3" stop-opacity="0.00009999999747378752"/><stop offset="100%" stop-color="#586782" stop-opacity="1"/></linearGradient><linearGradient x1="-1.4285296201705933" y1="-1.4903712272644043" x2="-1.4285296201705933" y2="2.385026693344116" id="master_svge_0_1016"><stop offset="0%" stop-color="#808BA3" stop-opacity="0.00009999999747378752"/><stop offset="100%" stop-color="#586782" stop-opacity="1"/></linearGradient><linearGradient x1="-1.4734363555908203" y1="-3.039670467376709" x2="-1.4734363555908203" y2="0.8989130258560181" id="master_svgf_0_1019"><stop offset="0%" stop-color="#808BA3" stop-opacity="0.00009999999747378752"/><stop offset="100%" stop-color="#586782" stop-opacity="1"/></linearGradient><linearGradient x1="0.01787700690329075" y1="0.022153552621603012" x2="0.01787700690329075" y2="0.9858065247535706" id="master_svgg_0_1031"><stop offset="0%" stop-color="#606673" stop-opacity="0.00009999999747378752"/><stop offset="100%" stop-color="#373C47" stop-opacity="1"/></linearGradient><linearGradient x1="0.005013622343540192" y1="0.9948570728302002" x2="1.0007526874542236" y2="0.9948570728302002" id="master_svgh_0_685"><stop offset="0%" stop-color="#FFD44F" stop-opacity="1"/><stop offset="100%" stop-color="#FFA607" stop-opacity="1"/></linearGradient><linearGradient x1="-0.04540882632136345" y1="0.5145052671432495" x2="0.3587898015975952" y2="0.8224464058876038" id="master_svgi_0_691"><stop offset="0%" stop-color="#FAA404" stop-opacity="1"/><stop offset="100%" stop-color="#FF7904" stop-opacity="0.00009999999747378752"/></linearGradient><linearGradient x1="-1.1770882935024929e-8" y1="0.5416666865348816" x2="1.40625" y2="-0.2916666567325592" id="master_svgj_0_694"><stop offset="0%" stop-color="#FFFFFF" stop-opacity="1"/><stop offset="99.98999834060669%" stop-color="#FFB93C" stop-opacity="1"/><stop offset="100%" stop-color="#FFA607" stop-opacity="1"/></linearGradient></defs><g style="mix-blend-mode:passthrough"><g style="mix-blend-mode:passthrough"><path d="M62.5014,60.926775564575195C62.5014,60.926775564575195,63.2988,61.5302755645752,63.2988,61.5302755645752C63.2988,61.5302755645752,63.301,61.5272755645752,63.301,61.5272755645752C63.301,61.5272755645752,62.5014,60.926775564575195,62.5014,60.926775564575195C62.5014,60.926775564575195,62.5014,60.926775564575195,62.5014,60.926775564575195ZM53.8926,68.8329755645752C53.8926,68.8329755645752,53.3513,67.9920755645752,53.3513,67.9920755645752C53.3513,67.9920755645752,53.3456,67.9957755645752,53.3456,67.9957755645752C53.3456,67.9957755645752,53.8926,68.8329755645752,53.8926,68.8329755645752C53.8926,68.8329755645752,53.8926,68.8329755645752,53.8926,68.8329755645752ZM53.8926,11.483295564575196C53.8926,11.483295564575196,54.435,10.643185564575194,54.435,10.643185564575194C54.435,10.643185564575194,54.4314,10.640895564575196,54.4314,10.640895564575196C54.4314,10.640895564575196,53.8926,11.483295564575196,53.8926,11.483295564575196C53.8926,11.483295564575196,53.8926,11.483295564575196,53.8926,11.483295564575196ZM62.5014,19.463275564575195C62.5014,19.463275564575195,63.2962,18.856275564575196,63.2962,18.856275564575196C63.2962,18.856275564575196,63.2902,18.848575564575196,63.2902,18.848575564575196C63.2902,18.848575564575196,62.5014,19.463275564575195,62.5014,19.463275564575195C62.5014,19.463275564575195,62.5014,19.463275564575195,62.5014,19.463275564575195ZM70.4572,40.228575564575195C70.4572,40.0462755645752,70.4558,39.864275564575195,70.4531,39.682575564575195C70.4531,39.682575564575195,68.4533,39.71247556457519,68.4533,39.71247556457519C68.4559,39.884175564575195,68.4572,40.056275564575195,68.4572,40.228575564575195C68.4572,40.228575564575195,70.4572,40.228575564575195,70.4572,40.228575564575195C70.4572,40.228575564575195,70.4572,40.228575564575195,70.4572,40.228575564575195ZM69.7614,33.1759755645752C69.6897,32.8181755645752,69.6126,32.462275564575194,69.5302,32.108275564575194C69.5302,32.108275564575194,67.5823,32.56157556457519,67.5823,32.56157556457519C67.66,32.89547556457519,67.7327,33.2312755645752,67.8003,33.568875564575194C67.8003,33.568875564575194,69.7614,33.1759755645752,69.7614,33.1759755645752C69.7614,33.1759755645752,69.7614,33.1759755645752,69.7614,33.1759755645752ZM67.458,25.897575564575195C67.3107,25.563975564575195,67.1583,25.233075564575195,67.0009,24.904875564575196C67.0009,24.904875564575196,65.1976,25.769775564575195,65.1976,25.769775564575195C65.3459,26.079075564575195,65.4896,26.390975564575196,65.6284,26.705475564575195C65.6284,26.705475564575195,67.458,25.897575564575195,67.458,25.897575564575195C67.458,25.897575564575195,67.458,25.897575564575195,67.458,25.897575564575195ZM63.6244,19.293375564575193C63.5162,19.146875564575197,63.4067,19.001175564575195,63.2962,18.856375564575195C63.2962,18.856375564575195,61.7066,20.070175564575194,61.7066,20.070175564575194C61.8108,20.206575564575196,61.9139,20.343775564575196,62.0159,20.481875564575198C62.0159,20.481875564575198,63.6244,19.293375564575193,63.6244,19.293375564575193C63.6244,19.293375564575193,63.6244,19.293375564575193,63.6244,19.293375564575193ZM63.2902,18.848575564575196C63.2017,18.735075564575197,63.1126,18.621975564575195,63.0228,18.509275564575198C63.0228,18.509275564575198,61.4586,19.755575564575196,61.4586,19.755575564575196C61.5438,19.862575564575195,61.6285,19.969975564575194,61.7126,20.077875564575194C61.7126,20.077875564575194,63.2902,18.848575564575196,63.2902,18.848575564575196C63.2902,18.848575564575196,63.2902,18.848575564575196,63.2902,18.848575564575196ZM59.5279,14.677985564575195C59.3192,14.478575564575195,59.1081,14.281575564575196,58.8946,14.087105564575195C58.8946,14.087105564575195,57.5478,15.565675564575196,57.5478,15.565675564575196C57.7495,15.749375564575196,57.949,15.935575564575196,58.1463,16.124075564575193C58.1463,16.124075564575193,59.5279,14.677985564575195,59.5279,14.677985564575195C59.5279,14.677985564575195,59.5279,14.677985564575195,59.5279,14.677985564575195ZM54.7985,10.881395564575195C54.6779,10.801205564575195,54.5567,10.721795564575196,54.435,10.643195564575194C54.435,10.643195564575194,53.3501,12.323385564575196,53.3501,12.323385564575196C53.4643,12.397115564575195,53.578,12.471625564575195,53.6912,12.546885564575195C53.6912,12.546885564575195,54.7985,10.881395564575195,54.7985,10.881395564575195C54.7985,10.881395564575195,54.7985,10.881395564575195,54.7985,10.881395564575195ZM54.4314,10.640895564575196C54.2959,10.554235564575196,54.1598,10.468415564575196,54.0231,10.383455564575195C54.0231,10.383455564575195,52.9676,12.082285564575194,52.9676,12.082285564575194C53.0969,12.162615564575194,53.2256,12.243745564575196,53.3537,12.325685564575195C53.3537,12.325685564575195,54.4314,10.640895564575196,54.4314,10.640895564575196C54.4314,10.640895564575196,54.4314,10.640895564575196,54.4314,10.640895564575196ZM48.8785,7.7288855645751955C48.5818,7.604745564575195,48.283,7.484425564575195,47.9823,7.3679855645751955C47.9823,7.3679855645751955,47.2602,9.233105564575196,47.2602,9.233105564575196C47.5442,9.343035564575196,47.8263,9.456655564575195,48.1065,9.573885564575196C48.1065,9.573885564575196,48.8785,7.7288855645751955,48.8785,7.7288855645751955C48.8785,7.7288855645751955,48.8785,7.7288855645751955,48.8785,7.7288855645751955ZM42.4281,5.723265564575195C42.1133,5.657509564575196,41.7971,5.595928564575195,41.4793,5.538596564575196C41.4793,5.538596564575196,41.1242,7.506815564575195,41.1242,7.506815564575195C41.4239,7.560895564575196,41.7222,7.618975564575195,42.0191,7.680995564575195C42.0191,7.680995564575195,42.4281,5.723265564575195,42.4281,5.723265564575195C42.4281,5.723265564575195,42.4281,5.723265564575195,42.4281,5.723265564575195ZM35.7121,4.983178564575195C35.5512,4.980979564575195,35.39,4.979875564575195,35.2286,4.979875564575195C35.2286,4.979875564575195,35.2286,6.979875564575195,35.2286,6.979875564575195C35.3809,6.979875564575195,35.533,6.980915564575195,35.6848,6.982995564575195C35.6848,6.982995564575195,35.7121,4.983178564575195,35.7121,4.983178564575195C35.7121,4.983178564575195,35.7121,4.983178564575195,35.7121,4.983178564575195ZM35.2286,4.979875564575195C35.0629,4.979875564575195,34.8976,4.981015564575196,34.7325,4.983289564575196C34.7325,4.983289564575196,34.76,6.983095564575195,34.76,6.983095564575195C34.9159,6.980955564575195,35.0721,6.979875564575195,35.2286,6.979875564575195C35.2286,6.979875564575195,35.2286,4.979875564575195,35.2286,4.979875564575195C35.2286,4.979875564575195,35.2286,4.979875564575195,35.2286,4.979875564575195ZM28.8364,5.557224564575195C28.5118,5.616621564575196,28.1887,5.680462564575195,27.8673,5.748682564575195C27.8673,5.748682564575195,28.2825,7.705105564575195,28.2825,7.705105564575195C28.5856,7.640785564575195,28.8903,7.580575564575195,29.1964,7.524565564575195C29.1964,7.524565564575195,28.8364,5.557224564575195,28.8364,5.557224564575195C28.8364,5.557224564575195,28.8364,5.557224564575195,28.8364,5.557224564575195ZM22.1948,7.465735564575196C21.8883,7.587725564575195,21.5839,7.713895564575195,21.2818,7.844165564575196C21.2818,7.844165564575196,22.0736,9.680745564575195,22.0736,9.680745564575195C22.3585,9.557925564575196,22.6454,9.438975564575195,22.9344,9.323955564575195C22.9344,9.323955564575195,22.1948,7.465735564575196,22.1948,7.465735564575196C22.1948,7.465735564575196,22.1948,7.465735564575196,22.1948,7.465735564575196ZM16.0578,10.641695564575194C15.7813,10.821295564575195,15.5075,11.004665564575195,15.2365,11.191735564575195C15.2365,11.191735564575195,16.3726,12.837725564575194,16.3726,12.837725564575194C16.6282,12.661265564575196,16.8865,12.488305564575196,17.1473,12.318905564575196C17.1473,12.318905564575196,16.0578,10.641695564575194,16.0578,10.641695564575194C16.0578,10.641695564575194,16.0578,10.641695564575194,16.0578,10.641695564575194ZM10.66,14.954265564575195C10.4239,15.184075564575195,10.191,15.417275564575196,9.96142,15.653575564575196C9.96142,15.653575564575196,11.396,17.047175564575195,11.396,17.047175564575195C11.6126,16.824175564575196,11.8323,16.604175564575193,12.0551,16.387375564575194C12.0551,16.387375564575194,10.66,14.954265564575195,10.66,14.954265564575195C10.66,14.954265564575195,10.66,14.954265564575195,10.66,14.954265564575195ZM6.20354,20.233775564575197C6.01672,20.504975564575197,5.83361,20.778875564575195,5.65426,21.055575564575197C5.65426,21.055575564575197,7.33244,22.143475564575194,7.33244,22.143475564575194C7.50162,21.882575564575195,7.67436,21.624175564575197,7.85059,21.368275564575196C7.85059,21.368275564575196,6.20354,20.233775564575197,6.20354,20.233775564575197C6.20354,20.233775564575197,6.20354,20.233775564575197,6.20354,20.233775564575197ZM2.86081,26.281375564575196C2.73073,26.583575564575195,2.60474,26.888075564575196,2.48293,27.194575564575196C2.48293,27.194575564575196,4.34156,27.933175564575194,4.34156,27.933175564575194C4.45642,27.644075564575196,4.57521,27.357075564575194,4.69788,27.072075564575194C4.69788,27.072075564575194,2.86081,26.281375564575196,2.86081,26.281375564575196C2.86081,26.281375564575196,2.86081,26.281375564575196,2.86081,26.281375564575196ZM0.768143,32.8673755645752C0.699993,33.1888755645752,0.636217,33.511975564575195,0.576881,33.8365755645752C0.576881,33.8365755645752,2.54429,34.1961755645752,2.54429,34.1961755645752C2.60025,33.8900755645752,2.66039,33.585375564575195,2.72466,33.2821755645752C2.72466,33.2821755645752,0.768143,32.8673755645752,0.768143,32.8673755645752C0.768143,32.8673755645752,0.768143,32.8673755645752,0.768143,32.8673755645752ZM0.003412,39.73257556457519C0.00114,39.8975755645752,0,40.0629755645752,0,40.228575564575195C0,40.228575564575195,2,40.228575564575195,2,40.228575564575195C2,40.0721755645752,2.00108,39.9159755645752,2.00322,39.760075564575196C2.00322,39.760075564575196,0.003412,39.73257556457519,0.003412,39.73257556457519C0.003412,39.73257556457519,0.003412,39.73257556457519,0.003412,39.73257556457519ZM0,40.228575564575195C0,40.39397556457519,0.001146,40.5591755645752,0.003431,40.724075564575195C0.003431,40.724075564575195,2.00324,40.6963755645752,2.00324,40.6963755645752C2.00108,40.54077556457519,2,40.38477556457519,2,40.228575564575195C2,40.228575564575195,0,40.228575564575195,0,40.228575564575195C0,40.228575564575195,0,40.228575564575195,0,40.228575564575195ZM0.579666,46.61357556457519C0.639264,46.9377755645752,0.70332,47.260475564575195,0.771766,47.581575564575196C0.771766,47.581575564575196,2.72782,47.1646755645752,2.72782,47.1646755645752C2.66329,46.8619755645752,2.6029,46.5576755645752,2.54671,46.2519755645752C2.54671,46.2519755645752,0.579666,46.61357556457519,0.579666,46.61357556457519C0.579666,46.61357556457519,0.579666,46.61357556457519,0.579666,46.61357556457519ZM2.49255,53.2457755645752C2.61472,53.551775564575195,2.74107,53.85567556457519,2.87153,54.1573755645752C2.87153,54.1573755645752,4.70727,53.36357556457519,4.70727,53.36357556457519C4.58428,53.079175564575195,4.46516,52.7926755645752,4.34998,52.50417556457519C4.34998,52.50417556457519,2.49255,53.2457755645752,2.49255,53.2457755645752C2.49255,53.2457755645752,2.49255,53.2457755645752,2.49255,53.2457755645752ZM5.67075,59.3722755645752C5.85036,59.648275564575194,6.03375,59.92157556457519,6.22083,60.1920755645752C6.22083,60.1920755645752,7.86589,59.0546755645752,7.86589,59.0546755645752C7.68942,58.7994755645752,7.51644,58.54167556457519,7.34702,58.281275564575196C7.34702,58.281275564575196,5.67075,59.3722755645752,5.67075,59.3722755645752C5.67075,59.3722755645752,5.67075,59.3722755645752,5.67075,59.3722755645752ZM9.98182,64.76047556457519C10.2115,64.9961755645752,10.4445,65.2286755645752,10.6806,65.4578755645752C10.6806,65.4578755645752,12.0735,64.0226755645752,12.0735,64.0226755645752C11.8507,63.8063755645752,11.6309,63.5869755645752,11.4142,63.364675564575194C11.4142,63.364675564575194,9.98182,64.76047556457519,9.98182,64.76047556457519C9.98182,64.76047556457519,9.98182,64.76047556457519,9.98182,64.76047556457519ZM15.2566,69.20957556457519C15.5275,69.3960755645752,15.8012,69.5788755645752,16.0775,69.75797556457519C16.0775,69.75797556457519,17.1651,68.0795755645752,17.1651,68.0795755645752C16.9044,67.9105755645752,16.6463,67.73817556457519,16.3907,67.5621755645752C16.3907,67.5621755645752,15.2566,69.20957556457519,15.2566,69.20957556457519C15.2566,69.20957556457519,15.2566,69.20957556457519,15.2566,69.20957556457519ZM21.2976,72.5472755645752C21.5995,72.67707556457519,21.9036,72.80287556457519,22.2098,72.92457556457519C22.2098,72.92457556457519,22.9481,71.06577556457519,22.9481,71.06577556457519C22.6594,70.9511755645752,22.3727,70.8325755645752,22.0881,70.71007556457519C22.0881,70.71007556457519,21.2976,72.5472755645752,21.2976,72.5472755645752C21.2976,72.5472755645752,21.2976,72.5472755645752,21.2976,72.5472755645752ZM27.8761,74.6366755645752C28.1972,74.7047755645752,28.5199,74.7683755645752,28.8441,74.8276755645752C28.8441,74.8276755645752,29.2036,72.8601755645752,29.2036,72.8601755645752C28.8978,72.8043755645752,28.5935,72.74427556457519,28.2907,72.6801755645752C28.2907,72.6801755645752,27.8761,74.6366755645752,27.8761,74.6366755645752C27.8761,74.6366755645752,27.8761,74.6366755645752,27.8761,74.6366755645752ZM34.7331,75.40007556457519C34.898,75.4023755645752,35.0631,75.40347556457519,35.2286,75.40347556457519C35.2286,75.40347556457519,35.2286,73.40347556457519,35.2286,73.40347556457519C35.0723,73.40347556457519,34.9163,73.4023755645752,34.7606,73.4002755645752C34.7606,73.4002755645752,34.7331,75.40007556457519,34.7331,75.40007556457519C34.7331,75.40007556457519,34.7331,75.40007556457519,34.7331,75.40007556457519ZM35.2286,75.40347556457519C35.3902,75.40347556457519,35.5517,75.4023755645752,35.7128,75.40017556457519C35.7128,75.40017556457519,35.6855,73.4003755645752,35.6855,73.4003755645752C35.5335,73.4024755645752,35.3811,73.40347556457519,35.2286,73.40347556457519C35.2286,73.40347556457519,35.2286,75.40347556457519,35.2286,75.40347556457519C35.2286,75.40347556457519,35.2286,75.40347556457519,35.2286,75.40347556457519ZM41.4888,74.8424755645752C41.8071,74.7847755645752,42.1239,74.7227755645752,42.4391,74.65647556457519C42.4391,74.65647556457519,42.0278,72.69927556457519,42.0278,72.69927556457519C41.7307,72.7616755645752,41.4321,72.8201755645752,41.1321,72.8745755645752C41.1321,72.8745755645752,41.4888,74.8424755645752,41.4888,74.8424755645752C41.4888,74.8424755645752,41.4888,74.8424755645752,41.4888,74.8424755645752ZM47.9997,72.9943755645752C48.3005,72.8763755645752,48.5994,72.7544755645752,48.8961,72.6285755645752C48.8961,72.6285755645752,48.1151,70.7873755645752,48.1151,70.7873755645752C47.8352,70.90607556457519,47.5534,71.0210755645752,47.2697,71.1322755645752C47.2697,71.1322755645752,47.9997,72.9943755645752,47.9997,72.9943755645752C47.9997,72.9943755645752,47.9997,72.9943755645752,47.9997,72.9943755645752ZM54.0327,69.9319755645752C54.169,69.8455755645752,54.3046,69.7582755645752,54.4396,69.6700755645752C54.4396,69.6700755645752,53.3456,67.9957755645752,53.3456,67.9957755645752C53.2181,68.07907556457519,53.0901,68.1614755645752,52.9615,68.2430755645752C52.9615,68.2430755645752,54.0327,69.9319755645752,54.0327,69.9319755645752C54.0327,69.9319755645752,54.0327,69.9319755645752,54.0327,69.9319755645752ZM54.4338,69.6737755645752C54.5547,69.5959755645752,54.6752,69.5174755645752,54.7952,69.43817556457519C54.7952,69.43817556457519,53.6928,67.7693755645752,53.6928,67.7693755645752C53.5794,67.8442755645752,53.4656,67.9184755645752,53.3513,67.9920755645752C53.3513,67.9920755645752,54.4338,69.6737755645752,54.4338,69.6737755645752C54.4338,69.6737755645752,54.4338,69.6737755645752,54.4338,69.6737755645752ZM58.8974,66.28357556457519C59.1124,66.09187556457519,59.325,65.89757556457519,59.5351,65.70067556457519C59.5351,65.70067556457519,58.1673,64.2414755645752,58.1673,64.2414755645752C57.9694,64.4269755645752,57.7691,64.6101755645752,57.5663,64.7909755645752C57.5663,64.7909755645752,58.8974,66.28357556457519,58.8974,66.28357556457519C58.8974,66.28357556457519,58.8974,66.28357556457519,58.8974,66.28357556457519ZM63.0349,61.8739755645752C63.1237,61.75997556457519,63.2116,61.6453755645752,63.2988,61.5302755645752C63.2988,61.5302755645752,61.704,60.323375564575194,61.704,60.323375564575194C61.6224,60.4311755645752,61.54,60.538475564575194,61.4569,60.64527556457519C61.4569,60.64527556457519,63.0349,61.8739755645752,63.0349,61.8739755645752C63.0349,61.8739755645752,63.0349,61.8739755645752,63.0349,61.8739755645752ZM63.301,61.5272755645752C63.4099,61.382275564575195,63.5177,61.2365755645752,63.6244,61.089875564575195C63.6244,61.089875564575195,62.0074,59.9129755645752,62.0074,59.9129755645752C61.9065,60.051575564575195,61.8046,60.189375564575194,61.7017,60.326375564575194C61.7017,60.326375564575194,63.301,61.5272755645752,63.301,61.5272755645752C63.301,61.5272755645752,63.301,61.5272755645752,63.301,61.5272755645752ZM66.9723,55.4944755645752C67.1294,55.1678755645752,67.2818,54.8384755645752,67.4292,54.5064755645752C67.4292,54.5064755645752,65.6013,53.694775564575195,65.6013,53.694775564575195C65.4622,54.00807556457519,65.3184,54.3189755645752,65.17,54.62727556457519C65.17,54.62727556457519,66.9723,55.4944755645752,66.9723,55.4944755645752C66.9723,55.4944755645752,66.9723,55.4944755645752,66.9723,55.4944755645752ZM69.5151,48.32397556457519C69.5985,47.971475564575194,69.6766,47.616875564575196,69.7493,47.2603755645752C69.7493,47.2603755645752,67.7897,46.86057556457519,67.7897,46.86057556457519C67.7211,47.196675564575195,67.6475,47.53097556457519,67.5688,47.86337556457519C67.5688,47.86337556457519,69.5151,48.32397556457519,69.5151,48.32397556457519C69.5151,48.32397556457519,69.5151,48.32397556457519,69.5151,48.32397556457519ZM70.453,40.773275564575194C70.4558,40.5920755645752,70.4572,40.410475564575194,70.4572,40.228575564575195C70.4572,40.228575564575195,68.4572,40.228575564575195,68.4572,40.228575564575195C68.4572,40.400275564575196,68.4558,40.571675564575195,68.4532,40.742675564575194C68.4532,40.742675564575194,70.453,40.773275564575194,70.453,40.773275564575194C70.453,40.773275564575194,70.453,40.773275564575194,70.453,40.773275564575194Z" fill="#EAEEF9" fill-opacity="1"/></g><g style="mix-blend-mode:passthrough"><path d="M63.07948294335937,10.758555903015136C63.57814694335938,10.758555903015136,63.98284694335938,10.349155903015136,63.98284694335938,9.845796903015136C63.98284694335938,9.349146903015138,63.57814694335938,8.939745903015137,63.07948294335937,8.939745903015137C62.58081994335937,8.939745903015137,62.176116943359375,9.349146903015138,62.176116943359375,9.845796903015136C62.176116943359375,10.349155903015136,62.58081994335937,10.758555903015136,63.07948294335937,10.758555903015136C63.07948294335937,10.758555903015136,63.07948294335937,10.758555903015136,63.07948294335937,10.758555903015136Z" fill="url(#master_svg0_0_972)" fill-opacity="1"/></g><g style="mix-blend-mode:passthrough"><path d="M4.813694640655518,55.59117524780273C5.182154640655518,55.24888524780273,5.207654640655518,54.67841024780274,4.871404640655518,54.30927824780274C4.5344946406555175,53.93343544780274,3.9633446406555177,53.906589247802735,3.5948836406555174,54.24887524780274C3.2270947406555175,54.58444924780274,3.2009196406555174,55.161635247802735,3.5378366406555175,55.530765247802734C3.8740816406555174,55.899905247802735,4.445904640655518,55.926745247802735,4.813694640655518,55.59117524780273C4.813694640655518,55.59117524780273,4.813694640655518,55.59117524780273,4.813694640655518,55.59117524780273Z" fill="#FFBE2C" fill-opacity="1"/></g><g style="mix-blend-mode:passthrough"><path d="M60.742190986328126,70.88673614013672C61.110650986328125,70.55115614013671,61.136150986328126,69.97396914013672,60.79991098632812,69.60483814013672C60.46299098632812,69.23570594013673,59.89184598632812,69.20886014013672,59.52405598632812,69.55114614013672C59.155595586328126,69.88672014013672,59.130091886328124,70.46390614013671,59.46633698632812,70.83303614013671C59.802582986328126,71.20217614013671,60.374400986328126,71.22901614013672,60.742190986328126,70.88673614013672C60.742190986328126,70.88673614013672,60.742190986328126,70.88673614013672,60.742190986328126,70.88673614013672Z" fill="#32D697" fill-opacity="1"/></g><g style="mix-blend-mode:passthrough"><path d="M18.016160410766602,2.704674793934822C18.016160410766602,2.704674793934822,18.016160410766602,6.281894793934822,18.016160410766602,6.281894793934822C18.016160410766602,6.281894793934822,19.3228904107666,6.281894793934822,19.3228904107666,6.281894793934822C19.3228904107666,6.281894793934822,19.3228904107666,0.10732479393482208,19.3228904107666,0.10732479393482208C19.3228904107666,0.10732479393482208,18.2342804107666,0.10732479393482208,18.2342804107666,0.10732479393482208C18.2342804107666,0.10732479393482208,16.2745304107666,1.731504793934822,16.2745304107666,1.731504793934822C16.2745304107666,1.731504793934822,16.9275584107666,2.489904793934822,16.9275584107666,2.489904793934822C16.9275584107666,2.489904793934822,17.6899804107666,1.9462747939348222,17.6899804107666,1.9462747939348222C17.6899804107666,1.838884793934822,17.798710410766603,1.731504793934822,18.016160410766602,1.5167347939348221C18.016160410766602,1.5167347939348221,18.016160410766602,2.1677547939348223,18.016160410766602,2.1677547939348223C18.016160410766602,2.1677547939348223,18.016160410766602,2.704674793934822,18.016160410766602,2.704674793934822C18.016160410766602,2.704674793934822,18.016160410766602,2.704674793934822,18.016160410766602,2.704674793934822Z" fill="url(#master_svg1_0_977)" fill-opacity="1"/></g><g style="mix-blend-mode:passthrough"><path d="M16.600214017822264,10.18145364880371C16.927063017822267,9.63782364880371,17.471362017822265,9.423055648803711,18.233122017822264,9.423055648803711C18.995542017822267,9.423055648803711,19.539842017822266,9.63782364880371,19.866692017822267,10.18145364880371C20.193542017822267,10.718375648803711,20.410992017822267,11.476765648803712,20.410992017822267,12.56403564880371C20.410992017822267,13.64458564880371,20.193542017822267,14.40297564880371,19.866692017822267,14.946605648803711C19.539842017822266,15.48352564880371,18.995542017822267,15.698295648803711,18.233122017822264,15.698295648803711C17.471362017822265,15.698295648803711,16.927063017822267,15.48352564880371,16.600214017822264,14.946605648803711C16.273364017822267,14.40297564880371,16.055912017822266,13.64458564880371,16.055912017822266,12.56403564880371C16.055912017822266,11.476765648803712,16.273364017822267,10.718375648803711,16.600214017822264,10.18145364880371C16.600214017822264,10.18145364880371,16.600214017822264,10.18145364880371,16.600214017822264,10.18145364880371ZM18.233292017822265,14.72509564880371C18.560142017822265,14.72509564880371,18.778272017822268,14.510325648803711,18.886992017822266,14.18817564880371C18.995722017822267,13.859315648803712,19.104452017822265,13.322395648803711,19.104452017822265,12.563995648803711C19.104452017822265,11.805595648803711,18.995722017822267,11.261965648803711,18.886992017822266,10.93981564880371C18.778272017822268,10.61095564880371,18.560142017822265,10.396188648803712,18.233292017822265,10.396188648803712C17.907122017822267,10.396188648803712,17.688992017822265,10.61095564880371,17.580272017822267,10.93981564880371C17.471542017822266,11.261965648803711,17.362812017822264,11.805595648803711,17.362812017822264,12.563995648803711C17.362812017822264,13.322395648803711,17.471542017822266,13.859315648803712,17.580272017822267,14.18817564880371C17.688992017822265,14.510325648803711,17.907122017822267,14.72509564880371,18.233292017822265,14.72509564880371C18.233292017822265,14.72509564880371,18.233292017822265,14.72509564880371,18.233292017822265,14.72509564880371Z" fill-rule="evenodd" fill="url(#master_svg2_0_980)" fill-opacity="1"/></g><g style="mix-blend-mode:passthrough"><path d="M16.27387523651123,20.46336762207031C16.27387523651123,20.46336762207031,16.92757423651123,21.221767622070313,16.92757423651123,21.221767622070313C16.92757423651123,21.221767622070313,17.68932523651123,20.68484762207031,17.68932523651123,20.68484762207031C17.79872523651123,20.577457622070312,17.90745523651123,20.46336762207031,18.124905236511232,20.248597622070314C18.124905236511232,20.248597622070314,18.124905236511232,20.899617622070313,18.124905236511232,20.899617622070313C18.124905236511232,20.899617622070313,18.124905236511232,21.443247622070313,18.124905236511232,21.443247622070313C18.124905236511232,21.443247622070313,18.124905236511232,25.01375762207031,18.124905236511232,25.01375762207031C18.124905236511232,25.01375762207031,19.43162523651123,25.01375762207031,19.43162523651123,25.01375762207031C19.43162523651123,25.01375762207031,19.43162523651123,18.839187622070312,19.43162523651123,18.839187622070312C19.43162523651123,18.839187622070312,18.34302523651123,18.839187622070312,18.34302523651123,18.839187622070312C18.34302523651123,18.839187622070312,16.27387523651123,20.46336762207031,16.27387523651123,20.46336762207031C16.27387523651123,20.46336762207031,16.27387523651123,20.46336762207031,16.27387523651123,20.46336762207031Z" fill="url(#master_svg3_0_983)" fill-opacity="1"/></g><g style="mix-blend-mode:passthrough"><path d="M24.984693540527342,0.758398C25.311542540527345,0.214768,25.855841540527344,0,26.618271540527346,0C27.380691540527344,0,27.924991540527344,0.322151,28.251841540527344,0.865782C28.578021540527345,1.40941,28.796141540527344,2.16781,28.796141540527344,3.24836C28.796141540527344,4.32891,28.687421540527343,5.08731,28.251841540527344,5.52355C27.924991540527344,6.06718,27.380691540527344,6.28195,26.618271540527346,6.28195C25.855841540527344,6.28195,25.311542540527345,6.06718,24.984693540527342,5.52355C24.658514540527342,4.97992,24.440391540527344,4.22153,24.440391540527344,3.14098C24.440391540527344,2.06043,24.658514540527342,1.30203,24.984693540527342,0.758398C24.984693540527342,0.758398,24.984693540527342,0.758398,24.984693540527342,0.758398ZM26.618411540527344,5.41624C26.945261540527344,5.41624,27.162711540527344,5.19476,27.271431540527345,4.87261C27.489561540527344,4.55046,27.489561540527344,4.00683,27.489561540527344,3.24843C27.489561540527344,2.49003,27.380831540527343,1.9464,27.271431540527345,1.62425C27.162711540527344,1.3021,26.945261540527344,1.08062,26.618411540527344,1.08062C26.291561540527344,1.08062,26.074111540527344,1.18801,25.965381540527343,1.62425C25.855981540527345,1.9464,25.747261540527344,2.49003,25.747261540527344,3.24843C25.747261540527344,4.00683,25.855981540527345,4.55046,25.965381540527343,4.87261C26.074111540527344,5.19476,26.291561540527344,5.41624,26.618411540527344,5.41624C26.618411540527344,5.41624,26.618411540527344,5.41624,26.618411540527344,5.41624Z" fill-rule="evenodd" fill="url(#master_svg4_0_986)" fill-opacity="1"/></g><g style="mix-blend-mode:passthrough"><path d="M24.984693540527342,10.181351605651855C25.311542540527345,9.637721605651855,25.855841540527344,9.422953605651855,26.618271540527346,9.422953605651855C27.380691540527344,9.422953605651855,27.924991540527344,9.637721605651855,28.251841540527344,10.181351605651855C28.578021540527345,10.718273605651856,28.796141540527344,11.476663605651856,28.796141540527344,12.563933605651854C28.796141540527344,13.644483605651855,28.578021540527345,14.402873605651855,28.251841540527344,14.946503605651856C27.924991540527344,15.483423605651854,27.380691540527344,15.698193605651856,26.618271540527346,15.698193605651856C25.855841540527344,15.698193605651856,25.311542540527345,15.483423605651854,24.984693540527342,14.946503605651856C24.658514540527342,14.402873605651855,24.440391540527344,13.644483605651855,24.440391540527344,12.563933605651854C24.440391540527344,11.476663605651856,24.658514540527342,10.718273605651856,24.984693540527342,10.181351605651855C24.984693540527342,10.181351605651855,24.984693540527342,10.181351605651855,24.984693540527342,10.181351605651855ZM26.618411540527344,14.725093605651855C26.945261540527344,14.725093605651855,27.162711540527344,14.510333605651855,27.271431540527345,14.188173605651855C27.489561540527344,13.859313605651856,27.489561540527344,13.322393605651856,27.489561540527344,12.563993605651856C27.489561540527344,11.805603605651855,27.380831540527343,11.261973605651855,27.271431540527345,10.939813605651855C27.162711540527344,10.610953605651856,26.945261540527344,10.396187605651855,26.618411540527344,10.396187605651855C26.291561540527344,10.396187605651855,26.074111540527344,10.610953605651856,25.965381540527343,10.939813605651855C25.855981540527345,11.261973605651855,25.747261540527344,11.805603605651855,25.747261540527344,12.563993605651856C25.747261540527344,13.322393605651856,25.855981540527345,13.859313605651856,25.965381540527343,14.188173605651855C26.074111540527344,14.510333605651855,26.291561540527344,14.725093605651855,26.618411540527344,14.725093605651855C26.618411540527344,14.725093605651855,26.618411540527344,14.725093605651855,26.618411540527344,14.725093605651855Z" fill-rule="evenodd" fill="url(#master_svg5_0_989)" fill-opacity="1"/></g><g style="mix-blend-mode:passthrough"><path d="M24.658645629882812,20.46336762207031C24.658645629882812,20.46336762207031,25.31167362988281,21.221767622070313,25.31167362988281,21.221767622070313C25.31167362988281,21.221767622070313,26.074095629882812,20.68484762207031,26.074095629882812,20.68484762207031C26.182825629882814,20.577457622070312,26.291545629882812,20.46336762207031,26.509675629882814,20.248597622070314C26.509675629882814,20.248597622070314,26.509675629882814,20.899617622070313,26.509675629882814,20.899617622070313C26.509675629882814,20.899617622070313,26.509675629882814,21.443247622070313,26.509675629882814,21.443247622070313C26.509675629882814,21.443247622070313,26.509675629882814,25.01375762207031,26.509675629882814,25.01375762207031C26.509675629882814,25.01375762207031,27.816395629882813,25.01375762207031,27.816395629882813,25.01375762207031C27.816395629882813,25.01375762207031,27.816395629882813,18.839187622070312,27.816395629882813,18.839187622070312C27.816395629882813,18.839187622070312,26.727125629882813,18.839187622070312,26.727125629882813,18.839187622070312C26.727125629882813,18.839187622070312,24.658645629882812,20.46336762207031,24.658645629882812,20.46336762207031C24.658645629882812,20.46336762207031,24.658645629882812,20.46336762207031,24.658645629882812,20.46336762207031Z" fill="url(#master_svg6_0_992)" fill-opacity="1"/></g><g style="mix-blend-mode:passthrough"><path d="M33.478628171875,0.758398C33.805477171875,0.214768,34.349776171875,0,35.112206171875,0C35.765226171875,0,36.310206171875,0.322151,36.745776171875,0.865782C37.071956171875,1.40941,37.290076171875,2.16781,37.290076171875,3.24836C37.290076171875,4.32891,37.071956171875,5.08731,36.745776171875,5.52355C36.418926171875,6.06718,35.874626171875,6.28195,35.112206171875,6.28195C34.349776171875,6.28195,33.805477171875,6.06718,33.478628171875,5.52355C33.152449171875,4.97992,32.934326171875,4.22153,32.934326171875,3.14098C32.934326171875,2.06043,33.152449171875,1.30203,33.478628171875,0.758398C33.478628171875,0.758398,33.478628171875,0.758398,33.478628171875,0.758398ZM35.112386171875,5.41624C35.439226171875,5.41624,35.656686171875,5.19476,35.765406171875,4.87261C35.874806171875,4.55046,35.983536171875,4.00683,35.983536171875,3.24843C35.983536171875,2.49003,35.874806171875,1.9464,35.765406171875,1.62425C35.656686171875,1.3021,35.439226171875,1.08062,35.112386171875,1.08062C34.785536171875,1.08062,34.568076171875,1.18801,34.458686171875,1.62425C34.349956171875,1.9464,34.241226171875,2.49003,34.241226171875,3.24843C34.241226171875,4.00683,34.349956171875,4.55046,34.458686171875,4.87261C34.568076171875,5.19476,34.785536171875,5.41624,35.112386171875,5.41624C35.112386171875,5.41624,35.112386171875,5.41624,35.112386171875,5.41624Z" fill-rule="evenodd" fill="url(#master_svg7_0_995)" fill-opacity="1"/></g><g style="mix-blend-mode:passthrough"><path d="M34.89385792236328,12.127628205871583C34.89385792236328,12.127628205871583,34.89385792236328,15.698138205871583,34.89385792236328,15.698138205871583C34.89385792236328,15.698138205871583,36.20058792236328,15.698138205871583,36.20058792236328,15.698138205871583C36.20058792236328,15.698138205871583,36.20058792236328,9.530278205871582,36.20058792236328,9.530278205871582C36.20058792236328,9.530278205871582,35.11130792236328,9.530278205871582,35.11130792236328,9.530278205871582C35.11130792236328,9.530278205871582,33.15155792236328,11.154458205871581,33.15155792236328,11.154458205871581C33.15155792236328,11.154458205871581,33.805256922363284,11.912858205871583,33.805256922363284,11.912858205871583C33.805256922363284,11.912858205871583,34.56700792236328,11.369228205871583,34.56700792236328,11.369228205871583C34.67573792236328,11.261838205871582,34.78513792236328,11.154458205871581,35.00258792236328,10.939688205871581C35.00258792236328,10.939688205871581,35.00258792236328,11.583988205871583,35.00258792236328,11.583988205871583C35.00258792236328,11.583988205871583,34.89385792236328,12.127628205871583,34.89385792236328,12.127628205871583C34.89385792236328,12.127628205871583,34.89385792236328,12.127628205871583,34.89385792236328,12.127628205871583Z" fill="url(#master_svg8_0_998)" fill-opacity="1"/></g><g style="mix-blend-mode:passthrough"><path d="M33.478628171875,19.597661916015625C33.805477171875,19.060742916015624,34.349776171875,18.839263916015625,35.112206171875,18.839263916015625C35.765226171875,18.839263916015625,36.310206171875,19.060742916015624,36.745776171875,19.597661916015625C37.071956171875,20.141293916015623,37.290076171875,20.899693916015625,37.290076171875,21.980243916015624C37.290076171875,23.067503916015625,37.071956171875,23.825893916015623,36.745776171875,24.362813916015625C36.418926171875,24.906443916015625,35.874626171875,25.121213916015627,35.112206171875,25.121213916015627C34.349776171875,25.121213916015627,33.805477171875,24.906443916015625,33.478628171875,24.362813916015625C33.152449171875,23.825893916015623,32.934326171875,23.067503916015625,32.934326171875,21.980243916015624C32.934326171875,20.899693916015625,33.152449171875,20.141293916015623,33.478628171875,19.597661916015625C33.478628171875,19.597661916015625,33.478628171875,19.597661916015625,33.478628171875,19.597661916015625ZM35.112386171875,24.148023916015624C35.439226171875,24.148023916015624,35.656686171875,23.933253916015623,35.765406171875,23.604393916015624C35.874806171875,23.282243916015624,35.983536171875,22.738613916015623,35.983536171875,21.980213916015625C35.983536171875,21.221813916015627,35.874806171875,20.684893916015625,35.765406171875,20.356033916015626C35.656686171875,20.033883916015625,35.439226171875,19.819114916015625,35.112386171875,19.819114916015625C34.785536171875,19.819114916015625,34.568076171875,20.033883916015625,34.458686171875,20.356033916015626C34.349956171875,20.684893916015625,34.241226171875,21.221813916015627,34.241226171875,21.980213916015625C34.241226171875,22.738613916015623,34.349956171875,23.282243916015624,34.458686171875,23.604393916015624C34.568076171875,23.933253916015623,34.785536171875,24.148023916015624,35.112386171875,24.148023916015624C35.112386171875,24.148023916015624,35.112386171875,24.148023916015624,35.112386171875,24.148023916015624Z" fill-rule="evenodd" fill="url(#master_svg9_0_1001)" fill-opacity="1"/></g><g style="mix-blend-mode:passthrough"><path d="M41.862760170410155,0.758398C42.188938170410154,0.214768,42.733237170410156,0,43.49566717041016,0C44.25808717041016,0,44.80238717041016,0.322151,45.12923717041016,0.865782C45.45541717041016,1.40941,45.67353717041016,2.16781,45.67353717041016,3.24836C45.67353717041016,4.32891,45.45541717041016,5.08731,45.12923717041016,5.52355C44.80238717041016,6.06718,44.25808717041016,6.28195,43.49566717041016,6.28195C42.733237170410156,6.28195,42.188938170410154,6.06718,41.862760170410155,5.52355C41.535910170410155,4.97992,41.317787170410156,4.22153,41.317787170410156,3.14098C41.317787170410156,2.06043,41.535910170410155,1.30203,41.862760170410155,0.758398C41.862760170410155,0.758398,41.862760170410155,0.758398,41.862760170410155,0.758398ZM43.49584717041016,5.41624C43.822687170410155,5.41624,44.04014717041016,5.19476,44.149537170410156,4.87261C44.25826717041016,4.55046,44.36699717041016,4.00683,44.36699717041016,3.24843C44.36699717041016,2.49003,44.25826717041016,1.9464,44.149537170410156,1.62425C44.04014717041016,1.3021,43.822687170410155,1.08062,43.49584717041016,1.08062C43.16899717041016,1.08062,42.951537170410155,1.18801,42.84281717041016,1.62425C42.733417170410156,1.9464,42.624687170410155,2.49003,42.624687170410155,3.24843C42.624687170410155,4.00683,42.733417170410156,4.55046,42.84281717041016,4.87261C42.951537170410155,5.19476,43.16899717041016,5.41624,43.49584717041016,5.41624C43.49584717041016,5.41624,43.49584717041016,5.41624,43.49584717041016,5.41624Z" fill-rule="evenodd" fill="url(#master_svga_0_1004)" fill-opacity="1"/></g><g style="mix-blend-mode:passthrough"><path d="M43.27863117675781,12.127628205871583C43.27863117675781,12.127628205871583,43.27863117675781,15.698138205871583,43.27863117675781,15.698138205871583C43.27863117675781,15.698138205871583,44.584691176757815,15.698138205871583,44.584691176757815,15.698138205871583C44.584691176757815,15.698138205871583,44.584691176757815,9.530278205871582,44.584691176757815,9.530278205871582C44.584691176757815,9.530278205871582,43.49608117675781,9.530278205871582,43.49608117675781,9.530278205871582C43.49608117675781,9.530278205871582,41.53633117675781,11.154458205871581,41.53633117675781,11.154458205871581C41.53633117675781,11.154458205871581,42.18935917675781,11.912858205871583,42.18935917675781,11.912858205871583C42.18935917675781,11.912858205871583,42.95178117675781,11.369228205871583,42.95178117675781,11.369228205871583C43.060511176757814,11.261838205871582,43.16923117675781,11.154458205871581,43.387361176757814,10.939688205871581C43.387361176757814,10.939688205871581,43.387361176757814,11.583988205871583,43.387361176757814,11.583988205871583C43.387361176757814,11.583988205871583,43.27863117675781,12.127628205871583,43.27863117675781,12.127628205871583C43.27863117675781,12.127628205871583,43.27863117675781,12.127628205871583,43.27863117675781,12.127628205871583Z" fill="url(#master_svgb_0_1007)" fill-opacity="1"/></g><g style="mix-blend-mode:passthrough"><path d="M41.862760170410155,19.597661916015625C42.188938170410154,19.060742916015624,42.733237170410156,18.839263916015625,43.49566717041016,18.839263916015625C44.25808717041016,18.839263916015625,44.80238717041016,19.060742916015624,45.12923717041016,19.597661916015625C45.45541717041016,20.141293916015623,45.67353717041016,20.899693916015625,45.67353717041016,21.980243916015624C45.67353717041016,23.067503916015625,45.45541717041016,23.825893916015623,45.12923717041016,24.362813916015625C44.80238717041016,24.906443916015625,44.25808717041016,25.121213916015627,43.49566717041016,25.121213916015627C42.733237170410156,25.121213916015627,42.188938170410154,24.906443916015625,41.862760170410155,24.362813916015625C41.535910170410155,23.825893916015623,41.317787170410156,23.067503916015625,41.317787170410156,21.980243916015624C41.317787170410156,20.899693916015625,41.535910170410155,20.141293916015623,41.862760170410155,19.597661916015625C41.862760170410155,19.597661916015625,41.862760170410155,19.597661916015625,41.862760170410155,19.597661916015625ZM43.49584717041016,24.148023916015624C43.822687170410155,24.148023916015624,44.04014717041016,23.933253916015623,44.149537170410156,23.604393916015624C44.25826717041016,23.282243916015624,44.36699717041016,22.738613916015623,44.36699717041016,21.980213916015625C44.36699717041016,21.221813916015627,44.25826717041016,20.684893916015625,44.149537170410156,20.356033916015626C44.04014717041016,20.033883916015625,43.822687170410155,19.819114916015625,43.49584717041016,19.819114916015625C43.16899717041016,19.819114916015625,42.951537170410155,20.033883916015625,42.84281717041016,20.356033916015626C42.733417170410156,20.684893916015625,42.624687170410155,21.221813916015627,42.624687170410155,21.980213916015625C42.624687170410155,22.738613916015623,42.733417170410156,23.282243916015624,42.84281717041016,23.604393916015624C42.951537170410155,23.933253916015623,43.16899717041016,24.148023916015624,43.49584717041016,24.148023916015624C43.49584717041016,24.148023916015624,43.49584717041016,24.148023916015624,43.49584717041016,24.148023916015624Z" fill-rule="evenodd" fill="url(#master_svgc_0_1010)" fill-opacity="1"/></g><g style="mix-blend-mode:passthrough"><path d="M51.6620883605957,2.704674793934822C51.6620883605957,2.704674793934822,51.6620883605957,6.281894793934822,51.6620883605957,6.281894793934822C51.6620883605957,6.281894793934822,52.968818360595705,6.281894793934822,52.968818360595705,6.281894793934822C52.968818360595705,6.281894793934822,52.968818360595705,0.10732479393482208,52.968818360595705,0.10732479393482208C52.968818360595705,0.10732479393482208,51.8795383605957,0.10732479393482208,51.8795383605957,0.10732479393482208C51.8795383605957,0.10732479393482208,49.9197883605957,1.731504793934822,49.9197883605957,1.731504793934822C49.9197883605957,1.731504793934822,50.573487360595706,2.489904793934822,50.573487360595706,2.489904793934822C50.573487360595706,2.489904793934822,51.3352383605957,1.9462747939348222,51.3352383605957,1.9462747939348222C51.443968360595704,1.838884793934822,51.553368360595705,1.731504793934822,51.770818360595705,1.5167347939348221C51.770818360595705,1.5167347939348221,51.770818360595705,2.1677547939348223,51.770818360595705,2.1677547939348223C51.770818360595705,2.1677547939348223,51.6620883605957,2.704674793934822,51.6620883605957,2.704674793934822C51.6620883605957,2.704674793934822,51.6620883605957,2.704674793934822,51.6620883605957,2.704674793934822Z" fill="url(#master_svgd_0_1013)" fill-opacity="1"/></g><g style="mix-blend-mode:passthrough"><path d="M50.24687005419922,10.18145364880371C50.57304805419922,9.63782364880371,51.11801805419922,9.423055648803711,51.87977805419922,9.423055648803711C52.64219805419922,9.423055648803711,53.18649805419922,9.63782364880371,53.51334805419922,10.18145364880371C53.84019805419922,10.718375648803711,54.05764805419922,11.476765648803712,54.05764805419922,12.56403564880371C54.05764805419922,13.64458564880371,53.84019805419922,14.40297564880371,53.51334805419922,14.946605648803711C53.18649805419922,15.48352564880371,52.64219805419922,15.698295648803711,51.87977805419922,15.698295648803711C51.11801805419922,15.698295648803711,50.57304805419922,15.48352564880371,50.24687005419922,14.946605648803711C49.92002005419922,14.40297564880371,49.70256805419922,13.64458564880371,49.70256805419922,12.56403564880371C49.70256805419922,11.476765648803712,49.92002005419922,10.718375648803711,50.24687005419922,10.18145364880371C50.24687005419922,10.18145364880371,50.24687005419922,10.18145364880371,50.24687005419922,10.18145364880371ZM51.87996805419922,14.72509564880371C52.20681805419922,14.72509564880371,52.42493805419922,14.510325648803711,52.53366805419922,14.18817564880371C52.75111805419922,13.859315648803712,52.75111805419922,13.322395648803711,52.75111805419922,12.563995648803711C52.75111805419922,11.805595648803711,52.64239805419922,11.261965648803711,52.53366805419922,10.93981564880371C52.42493805419922,10.61095564880371,52.20681805419922,10.396188648803712,51.87996805419922,10.396188648803712C51.55378805419922,10.396188648803712,51.33566805419922,10.61095564880371,51.226938054199216,10.93981564880371C51.11821805419922,11.261965648803711,51.00881805419922,11.805595648803711,51.00881805419922,12.563995648803711C51.00881805419922,13.322395648803711,51.11821805419922,13.859315648803712,51.226938054199216,14.18817564880371C51.33566805419922,14.510325648803711,51.55378805419922,14.72509564880371,51.87996805419922,14.72509564880371C51.87996805419922,14.72509564880371,51.87996805419922,14.72509564880371,51.87996805419922,14.72509564880371Z" fill-rule="evenodd" fill="url(#master_svge_0_1016)" fill-opacity="1"/></g><g style="mix-blend-mode:passthrough"><path d="M49.9197883605957,20.46336762207031C49.9197883605957,20.46336762207031,50.573487360595706,21.221767622070313,50.573487360595706,21.221767622070313C50.573487360595706,21.221767622070313,51.3352383605957,20.68484762207031,51.3352383605957,20.68484762207031C51.443968360595704,20.577457622070312,51.553368360595705,20.46336762207031,51.770818360595705,20.248597622070314C51.770818360595705,20.248597622070314,51.770818360595705,20.899617622070313,51.770818360595705,20.899617622070313C51.770818360595705,20.899617622070313,51.770818360595705,21.443247622070313,51.770818360595705,21.443247622070313C51.770818360595705,21.443247622070313,51.770818360595705,25.01375762207031,51.770818360595705,25.01375762207031C51.770818360595705,25.01375762207031,53.0775383605957,25.01375762207031,53.0775383605957,25.01375762207031C53.0775383605957,25.01375762207031,53.0775383605957,18.839187622070312,53.0775383605957,18.839187622070312C53.0775383605957,18.839187622070312,51.988938360595704,18.839187622070312,51.988938360595704,18.839187622070312C51.988938360595704,18.839187622070312,49.9197883605957,20.46336762207031,49.9197883605957,20.46336762207031C49.9197883605957,20.46336762207031,49.9197883605957,20.46336762207031,49.9197883605957,20.46336762207031Z" fill="url(#master_svgf_0_1019)" fill-opacity="1"/></g><g style="mix-blend-mode:passthrough"><path d="M43.05999065246582,42.77228927612305C43.931190652465816,42.77228927612305,44.693590652465815,43.53068727612305,44.693590652465815,44.39646927612305C44.693590652465815,44.39646927612305,44.693590652465815,54.248889276123045,44.693590652465815,54.248889276123045C44.693590652465815,55.114689276123045,43.931190652465816,55.873089276123046,43.05999065246582,55.873089276123046C43.05999065246582,55.873089276123046,25.96517065246582,55.873089276123046,25.96517065246582,55.873089276123046C25.09401565246582,55.873089276123046,24.33159065246582,55.114689276123045,24.33159065246582,54.248889276123045C24.33159065246582,54.248889276123045,24.33159065246582,44.39646927612305,24.33159065246582,44.39646927612305C24.33159065246582,43.53068727612305,25.09401565246582,42.77228927612305,25.96517065246582,42.77228927612305C25.96517065246582,42.77228927612305,44.693590652465815,43.53068727612305,43.05999065246582,42.77228927612305C43.05999065246582,42.77228927612305,43.05999065246582,42.77228927612305,43.05999065246582,42.77228927612305Z" fill="#9599A8" fill-opacity="1"/></g><g style="opacity:0.20000000298023224;"><path d="M44.80229065246582,44.39646927612305C44.80229065246582,44.39646927612305,44.80229065246582,46.564279276123045,44.80229065246582,46.564279276123045C38.81359065246582,46.564279276123045,30.211520652465822,46.564279276123045,24.33159065246582,46.564279276123045C24.33159065246582,46.564279276123045,24.33159065246582,44.39646927612305,24.33159065246582,44.39646927612305C24.33159065246582,43.53068727612305,25.09401565246582,42.77228927612305,25.96517065246582,42.77228927612305C25.96517065246582,42.77228927612305,43.05999065246582,42.77228927612305,43.05999065246582,42.77228927612305C44.03989065246582,42.77228927612305,44.80229065246582,43.53068727612305,44.80229065246582,44.39646927612305C44.80229065246582,44.39646927612305,44.80229065246582,44.39646927612305,44.80229065246582,44.39646927612305Z" fill="#474C54" fill-opacity="1"/></g><g style="mix-blend-mode:passthrough"><path d="M11.483076865649414,25.449984122924803C11.483076865649414,25.449984122924803,14.858279165649414,39.84610412292481,14.858279165649414,39.84610412292481C15.076409165649414,40.933404122924806,15.838159165649415,41.799204122924806,16.927439165649414,42.121304122924805C16.927439165649414,42.121304122924805,25.638279165649415,45.047504122924806,25.638279165649415,45.047504122924806C30.864479165649414,45.047504122924806,38.377979165649414,45.047504122924806,43.495479165649414,45.047504122924806C43.495479165649414,45.047504122924806,52.09767916564942,42.2287041229248,52.09767916564942,42.2287041229248C53.077479165649414,41.906604122924804,53.948679165649416,41.040804122924804,54.166079165649414,39.96020412292481C54.166079165649414,39.96020412292481,57.541979165649416,25.557374122924806,57.541979165649416,25.557374122924806C57.650679165649414,24.906358122924804,57.21517916564942,24.255344222924805,56.452679165649414,24.255344222924805C56.452679165649414,24.255344222924805,12.571679165649414,24.255344222924805,12.571679165649414,24.255344222924805C11.809255165649414,24.147960422924804,11.373679565649415,24.691591122924805,11.483076865649414,25.449984122924803C11.483076865649414,25.449984122924803,11.483076865649414,25.449984122924803,11.483076865649414,25.449984122924803Z" fill="#CAD1E0" fill-opacity="1"/></g><g style="opacity:0.30000001192092896;"><path d="M11.483076865649414,25.449984122924803C11.483076865649414,25.449984122924803,14.858279165649414,39.84610412292481,14.858279165649414,39.84610412292481C15.076409165649414,40.933404122924806,15.838159165649415,41.799204122924806,16.927439165649414,42.121304122924805C16.927439165649414,42.121304122924805,25.638279165649415,45.047504122924806,25.638279165649415,45.047504122924806C30.864479165649414,45.047504122924806,38.377979165649414,45.047504122924806,43.495479165649414,45.047504122924806C43.495479165649414,45.047504122924806,52.09767916564942,42.2287041229248,52.09767916564942,42.2287041229248C53.077479165649414,41.906604122924804,53.948679165649416,41.040804122924804,54.166079165649414,39.96020412292481C54.166079165649414,39.96020412292481,57.541979165649416,25.557374122924806,57.541979165649416,25.557374122924806C57.650679165649414,24.906358122924804,57.21517916564942,24.255344222924805,56.452679165649414,24.255344222924805C56.452679165649414,24.255344222924805,12.571679165649414,24.255344222924805,12.571679165649414,24.255344222924805C11.809255165649414,24.147960422924804,11.373679565649415,24.691591122924805,11.483076865649414,25.449984122924803C11.483076865649414,25.449984122924803,11.483076865649414,25.449984122924803,11.483076865649414,25.449984122924803Z" fill="url(#master_svgg_0_1031)" fill-opacity="1"/></g><g style="mix-blend-mode:passthrough"><path d="M27.92507716796875,42.34274560791015C28.64655716796875,42.34274560791015,29.23179716796875,41.75884560791015,29.23179716796875,41.04071560791016C29.23179716796875,40.32258460791016,28.64655716796875,39.738685607910156,27.92507716796875,39.738685607910156C27.20358916796875,39.738685607910156,26.61834716796875,40.32258460791016,26.61834716796875,41.04071560791016C26.61834716796875,41.75884560791015,27.20358916796875,42.34274560791015,27.92507716796875,42.34274560791015C27.92507716796875,42.34274560791015,27.92507716796875,42.34274560791015,27.92507716796875,42.34274560791015Z" fill="#EAEEF9" fill-opacity="1"/></g><g style="mix-blend-mode:passthrough"><path d="M41.10030147216797,42.34274560791015C41.82178147216797,42.34274560791015,42.40702147216797,41.75884560791015,42.40702147216797,41.04071560791016C42.40702147216797,40.32258460791016,41.82178147216797,39.738685607910156,41.10030147216797,39.738685607910156C40.37881347216797,39.738685607910156,39.79357147216797,40.32258460791016,39.79357147216797,41.04071560791016C39.79357147216797,41.75884560791015,40.37881347216797,42.34274560791015,41.10030147216797,42.34274560791015C41.10030147216797,42.34274560791015,41.10030147216797,42.34274560791015,41.10030147216797,42.34274560791015Z" fill="#EAEEF9" fill-opacity="1"/></g><g style="mix-blend-mode:passthrough"><path d="M17.580605236511232,29.993683694458007C18.302085236511232,29.993683694458007,18.88732523651123,29.409783694458007,18.88732523651123,28.698363694458006C18.88732523651123,27.980232694458007,18.302085236511232,27.396333694458008,17.580605236511232,27.396333694458008C16.85911723651123,27.396333694458008,16.27387523651123,27.980232694458007,16.27387523651123,28.698363694458006C16.27387523651123,29.409783694458007,16.85911723651123,29.993683694458007,17.580605236511232,29.993683694458007C17.580605236511232,29.993683694458007,17.580605236511232,29.993683694458007,17.580605236511232,29.993683694458007Z" fill="#EAEEF9" fill-opacity="1"/></g><g style="mix-blend-mode:passthrough"><path d="M51.335317341308595,29.993683694458007C52.057467341308595,29.993683694458007,52.642037341308594,29.41649369445801,52.642037341308594,28.698363694458006C52.642037341308594,27.980232694458007,52.057467341308595,27.396333694458008,51.335317341308595,27.396333694458008C50.613829341308595,27.396333694458008,50.028587341308594,27.980232694458007,50.028587341308594,28.698363694458006C50.028587341308594,29.41649369445801,50.613829341308595,29.993683694458007,51.335317341308595,29.993683694458007C51.335317341308595,29.993683694458007,51.335317341308595,29.993683694458007,51.335317341308595,29.993683694458007Z" fill="#EAEEF9" fill-opacity="1"/></g><g style="mix-blend-mode:passthrough"><path d="M43.20146032348633,60.853097564697265C43.20146032348633,60.853097564697265,43.20146032348633,57.933597564697266,43.20146032348633,57.933597564697266C43.20146032348633,57.933597564697266,41.61330032348633,57.933597564697266,41.61330032348633,57.933597564697266C41.61330032348633,57.933597564697266,41.61330032348633,60.853097564697265,41.61330032348633,60.853097564697265C41.61330032348633,60.853097564697265,43.20146032348633,60.853097564697265,43.20146032348633,60.853097564697265C43.20146032348633,60.853097564697265,43.20146032348633,60.853097564697265,43.20146032348633,60.853097564697265Z" fill="#F9B400" fill-opacity="1"/></g><g style="mix-blend-mode:passthrough"><path d="M40.80524679199219,59.01414756469727C40.80524679199219,59.01414756469727,40.80524679199219,57.933597564697266,40.80524679199219,57.933597564697266C40.80524679199219,57.933597564697266,39.21708679199219,57.933597564697266,39.21708679199219,57.933597564697266C39.21708679199219,57.933597564697266,39.21708679199219,59.01414756469727,39.21708679199219,59.01414756469727C39.21708679199219,59.01414756469727,40.80524679199219,59.01414756469727,40.80524679199219,59.01414756469727C40.80524679199219,59.01414756469727,40.80524679199219,59.01414756469727,40.80524679199219,59.01414756469727Z" fill="#F9B400" fill-opacity="1"/></g><g style="mix-blend-mode:passthrough"><path d="M28.50107809082031,60.31617756469726C28.50107809082031,60.31617756469726,28.50107809082031,57.933597564697266,28.50107809082031,57.933597564697266C28.50107809082031,57.933597564697266,26.912918090820312,57.933597564697266,26.912918090820312,57.933597564697266C26.912918090820312,57.933597564697266,26.912918090820312,60.31617756469726,26.912918090820312,60.31617756469726C26.912918090820312,60.31617756469726,28.50107809082031,60.31617756469726,28.50107809082031,60.31617756469726C28.50107809082031,60.31617756469726,28.50107809082031,60.31617756469726,28.50107809082031,60.31617756469726Z" fill="#F9B400" fill-opacity="1"/></g><g style="mix-blend-mode:passthrough"><g style="mix-blend-mode:passthrough"><path d="M44.41075242055654,72.13887715453026C44.28225242055654,72.87137715453026,44.024652420556535,73.56537715453027,43.72435242055654,74.21227715453026C43.68115242055654,74.34077715453026,43.59535242055654,74.47357715453026,43.50945242055654,74.64487715453026C43.25235242055654,75.16317715453026,42.95205242055654,75.59587715453026,42.651352420556535,76.07137715453027C42.52275242055654,76.24277715453026,42.39415242055654,76.41407715453026,42.26515242055654,76.58967715453026C41.450152420556535,77.54067715453026,40.42025242055654,78.35887715453026,39.30455242055654,78.92007715453026C39.09005242055654,79.01007715453026,38.87565242055654,79.13857715453025,38.66085242055654,79.22427715453026C38.31775242055654,79.35277715453026,37.93165242055654,79.52837715453026,37.54545242055654,79.61407715453026C36.086752420556536,80.04667715453026,34.499002420556536,80.13237715453026,32.911252420556536,79.78537715453027C27.67643242055654,78.70587715453026,24.28693242055654,73.52257715453027,25.35952642055654,68.20638715453026C26.43212242055654,62.93735715453026,31.58108242055654,59.52319815453026,36.85905242055654,60.602707154530265C38.70395242055654,60.992530154530264,40.42025242055654,61.90068715453026,41.75045242055654,63.28005715453026C44.11045242055654,65.57187715453026,45.09725242055654,68.89607715453026,44.41075242055654,72.13887715453026C44.41075242055654,72.13887715453026,44.41075242055654,72.13887715453026,44.41075242055654,72.13887715453026Z" fill="url(#master_svgh_0_685)" fill-opacity="1"/></g><g style="mix-blend-mode:passthrough"><path d="M33.254228430404666,78.17978262996674C33.812088430404664,78.30798262996674,34.36953843040466,78.35068262996674,34.927398430404665,78.35068262996674C35.65698843040467,78.35068262996674,36.42928843040466,78.26528262996673,37.20158843040466,78.13708262996673C37.40848843040466,78.07828262996674,37.61548843040467,77.99708262996674,37.836488430404664,77.91028262996673C37.93628843040466,77.87118262996674,38.03888843040466,77.83098262996674,38.145588430404665,77.79108262996674C38.145588430404665,77.79108262996674,38.14788843040466,77.78998262996673,38.14788843040466,77.78998262996673C38.31888843040466,77.70488262996673,38.489788430404666,77.61988262996674,38.660388430404666,77.53478262996674C39.60438843040466,77.01798262996674,40.46248843040466,76.36868262996674,41.14938843040466,75.55278262996674C41.21228843040466,75.48798262996674,41.264988430404664,75.41398262996674,41.317488430404666,75.34028262996674C41.37218843040466,75.26338262996674,41.42678843040466,75.18678262996673,41.49238843040466,75.12138262996673C41.74998843040466,74.73268262996673,42.00758843040467,74.34398262996673,42.221988430404664,73.91678262996673C42.28078843040466,73.82608262996673,42.319388430404665,73.73748262996673,42.351688430404664,73.66308262996674C42.36658843040466,73.62888262996674,42.38008843040466,73.59768262996674,42.393688430404666,73.57078262996674C42.65088843040466,73.01118262996674,42.822588430404664,72.40888262996674,42.95118843040466,71.80236262996674C43.50898843040466,69.08990262996673,42.693988430404666,66.28774262996674,40.720088430404665,64.30573262996674C39.60438843040466,63.18657262996673,38.18828843040466,62.41341962996674,36.60100843040466,62.06742062996673C34.45538843040466,61.59327562996673,32.26705843040466,62.02470562996674,30.422168430404664,63.229292629966736C28.619988430404664,64.43815262996674,27.332956430404664,66.28774262996674,26.903661430404664,68.44489262996673C25.959642430404664,72.87878262996674,28.834418430404664,77.27428262996673,33.254228430404666,78.17978262996674C33.254228430404666,78.17978262996674,33.254228430404666,78.17978262996674,33.254228430404666,78.17978262996674ZM30.808808430404664,63.87874262996674C32.05312843040466,63.058602629966735,33.426008430404664,62.627170629966734,34.88518843040466,62.627170629966734C35.399908430404665,62.627170629966734,35.91505843040466,62.669885629966736,36.38706843040466,62.84502062996673C37.802688430404665,63.14403262996674,39.13288843040466,63.83603262996674,40.162688430404664,64.86975262996674C41.92218843040466,66.67663262996673,42.69448843040466,69.21822262996673,42.17928843040466,71.71710262996673C42.09348843040466,72.27668262996673,41.92218843040466,72.79358262996674,41.66458843040466,73.31038262996674C41.64328843040467,73.35308262996674,41.62178843040466,73.40758262996674,41.60028843040466,73.46208262996673C41.57888843040466,73.51648262996673,41.557388430404664,73.57098262996674,41.535988430404664,73.61368262996673C41.32118843040466,74.00238262996673,41.10678843040466,74.34408262996673,40.849188430404666,74.69008262996674C40.80618843040466,74.75458262996673,40.75228843040466,74.82008262996673,40.69828843040466,74.88548262996673C40.644988430404666,74.95028262996674,40.59158843040466,75.01508262996674,40.54888843040466,75.07888262996674C39.90558843040466,75.80928262996673,39.13288843040466,76.41158262996673,38.274688430404666,76.84298262996674C38.198488430404666,76.89368262996673,38.10708843040466,76.93078262996673,38.00948843040466,76.97038262996674C37.942488430404666,76.99768262996673,37.87258843040466,77.02608262996674,37.802688430404665,77.06088262996674C37.57498843040466,77.15798262996674,37.34728843040466,77.23058262996673,37.13818843040466,77.29728262996673C37.07158843040466,77.31858262996674,37.00678843040466,77.33918262996673,36.94448843040466,77.35988262996673C35.786058430404665,77.70588262996674,34.54174843040467,77.74858262996673,33.383298430404665,77.49228262996674C29.35006843040466,76.62938262996674,26.732441680404662,72.66538262996673,27.59060243040466,68.61593262996674C27.97675843040466,66.67663262996673,29.135208430404663,64.99790262996673,30.808808430404664,63.87874262996674C30.808808430404664,63.87874262996674,30.808808430404664,63.87874262996674,30.808808430404664,63.87874262996674Z" fill-rule="evenodd" fill="#F9B400" fill-opacity="1"/></g><g style="mix-blend-mode:passthrough"><path d="M43.70584933624268,74.71052180511475C43.44664933624267,75.18491180511475,43.18684933624267,75.61655180511474,42.88410933624267,76.04825180511475C42.75403933624268,76.21915180511475,42.624399336242675,76.39015180511474,42.49475933624268,76.56535180511474C41.672549336242675,77.51415180511475,40.63412933624268,78.33045180511475,39.50956933624268,78.89025180511474C39.292919336242676,78.97575180511474,39.07670933624267,79.10825180511475,38.860499336242675,79.19375180511474C38.51420933624267,79.32195180511475,37.72361933624268,79.77705180511475,37.33426933624268,79.86675180511475C37.33426933624268,79.86675180511475,33.027249336242676,75.16563180511474,33.027249336242676,75.16563180511474C33.027249336242676,75.16563180511474,34.04092933624268,74.71052180511475,34.04092933624268,74.71052180511475C34.04092933624268,74.71052180511475,34.96540933624268,73.59079180511475,34.96540933624268,73.59079180511475C34.96540933624268,73.59079180511475,34.96540933624268,71.96030180511474,34.96540933624268,71.96030180511474C34.96540933624268,71.96030180511474,35.18075933624267,70.89185180511474,35.18075933624267,70.89185180511474C35.18075933624267,70.89185180511474,35.396109336242674,68.96866180511475,34.47162933624268,68.96866180511475C35.396109336242674,68.96866180511475,35.396109336242674,67.68653180511474,35.396109336242674,67.68653180511474C35.396109336242674,67.68653180511474,36.25750933624268,65.76332880511475,36.25750933624268,65.76332880511475C36.25750933624268,65.76332880511475,38.19566933624267,65.33595180511475,38.19566933624267,65.33595180511475C38.19566933624267,65.33595180511475,44.22534933624267,73.59079180511475,44.22534933624267,73.59079180511475C44.18184933624268,73.71901180511475,43.74934933624267,74.53957180511475,43.70584933624268,74.71052180511475C43.70584933624268,74.71052180511475,43.70584933624268,74.71052180511475,43.70584933624268,74.71052180511475Z" fill="url(#master_svgi_0_691)" fill-opacity="1"/></g><g style="mix-blend-mode:passthrough" transform="matrix(1,0,0,-1,0,150.66839790344238)"><path d="M37.806202420501705,85.59909895172119C37.04617242050171,85.59909895172119,36.42689242050171,85.3243589517212,35.94836242050171,84.77325895172119C35.46982242050171,84.22215895172118,35.18337242050171,83.46009895172119,35.087342420501706,82.48380895172119C35.087342420501706,82.48380895172119,35.07409242050171,82.36933895172119,35.07409242050171,82.36933895172119C35.07409242050171,82.36933895172119,32.95629242050171,82.36933895172119,32.95629242050171,82.36933895172119C32.95629242050171,82.36933895172119,32.36516142050171,81.5614289517212,32.36516142050171,81.5614289517212C32.36516142050171,81.5614289517212,35.01116242050171,81.5614289517212,35.01116242050171,81.5614289517212C35.01116242050171,81.5614289517212,34.93831242050171,80.9874989517212,34.93831242050171,80.9874989517212C34.93831242050171,80.9874989517212,32.15321042050171,80.9874989517212,32.15321042050171,80.9874989517212C32.15321042050171,80.9874989517212,31.56042242050171,80.1795789517212,31.56042242050171,80.1795789517212C31.56042242050171,80.1795789517212,34.868772420501706,80.1795789517212,34.868772420501706,80.1795789517212C34.868772420501706,80.1795789517212,34.68497242050171,78.53287895172119,34.68497242050171,78.53287895172119C34.68497242050171,78.53287895172119,34.58230242050171,77.5680489517212,34.58230242050171,77.5680489517212C34.466392420501705,76.45765895172119,34.04581242050171,75.90165495172118,33.32056242050171,75.90165495172118C33.32056242050171,75.90165495172118,32.92317242050171,75.97197195172119,32.92317242050171,75.97197195172119C32.92317242050171,75.97197195172119,32.92317242050171,75.33419895172119,32.92317242050171,75.33419895172119C32.92317242050171,75.33419895172119,33.54907242050171,75.4519419517212,33.54907242050171,75.4519419517212C33.83056242050171,75.5647789517212,34.09715242050171,75.73485495172119,34.34718242050171,75.96052895172119C34.686622420501706,76.2663329517212,34.93334242050171,76.61137895172119,35.08568242050171,76.9940489517212C35.23801242050171,77.37507895172119,35.34896242050171,77.9261789517212,35.42016242050171,78.6457189517212C35.42016242050171,78.6457189517212,35.58739242050171,80.1795789517212,35.58739242050171,80.1795789517212C35.58739242050171,80.1795789517212,36.185212420501706,80.1795789517212,36.185212420501706,80.1795789517212C36.185212420501706,80.1795789517212,36.776342420501706,80.9874989517212,36.776342420501706,80.9874989517212C36.776342420501706,80.9874989517212,35.65694242050171,80.9874989517212,35.65694242050171,80.9874989517212C35.65694242050171,80.9874989517212,35.72648242050171,81.6874089517212,35.72648242050171,81.6874089517212C35.72648242050171,81.6874089517212,36.86237242050171,81.6874089517212,36.86237242050171,81.6874089517212C36.86237242050171,81.6874089517212,37.45351242050171,82.36933895172119,37.45351242050171,82.36933895172119C37.45351242050171,82.36933895172119,35.79437242050171,82.36933895172119,35.79437242050171,82.36933895172119C35.79437242050171,82.36933895172119,35.84570242050171,82.8141489517212,35.84570242050171,82.8141489517212C35.93180242050171,83.6775989517212,36.06427242050171,84.25322895172118,36.24475242050171,84.54430895172119C36.42524242050171,84.83539895172119,36.72495242050171,84.98094895172119,37.145522420501706,84.98094895172119C37.322702420501706,84.98094895172119,37.523052420501706,84.94332895172118,37.74493242050171,84.8681089517212C37.74493242050171,84.8681089517212,38.35925242050171,85.53529895172119,38.35925242050171,85.53529895172119C38.132402420501705,85.57779895172119,37.94860242050171,85.59909895172119,37.806202420501705,85.59909895172119C37.806202420501705,85.59909895172119,37.806202420501705,85.59909895172119,37.806202420501705,85.59909895172119Z" fill="url(#master_svgj_0_694)" fill-opacity="1"/></g></g></g></svg>