<svg xmlns="http://www.w3.org/2000/svg" xmlns:xlink="http://www.w3.org/1999/xlink" fill="none" version="1.1" width="80" height="79.333251953125" viewBox="0 0 80 79.333251953125"><defs><linearGradient x1="0.019141247496008873" y1="0.9769106507301331" x2="0.9863853454589844" y2="0.9769106507301331" id="master_svg0_0_563"><stop offset="0%" stop-color="#FFD44F" stop-opacity="1"/><stop offset="100%" stop-color="#FFA607" stop-opacity="1"/></linearGradient><linearGradient x1="1.0804370641708374" y1="0.5011299848556519" x2="0.6431262493133545" y2="-0.07192138582468033" id="master_svg1_0_605"><stop offset="0%" stop-color="#51DFD4" stop-opacity="1"/><stop offset="100%" stop-color="#1BE068" stop-opacity="1"/></linearGradient></defs><g style="mix-blend-mode:passthrough"><g style="mix-blend-mode:passthrough"><path d="M13.304000554504395,3.3331713671875C13.970670554504395,3.1198413671875,14.335330554504395,2.3998413671875003,14.118670554504394,1.7265083671875C13.902000554504394,1.0531753671875,13.186000554504394,0.6865083671875,12.519333554504394,0.9065082671875C11.852666554504394,1.1265083671875,11.487333554504394,1.8465113671875,11.704000154504394,2.5131713671875C11.920666554504395,3.1865113671875,12.637333554504394,3.5531713671875,13.304000554504395,3.3331713671875C13.304000554504395,3.3331713671875,13.304000554504395,3.3331713671875,13.304000554504395,3.3331713671875Z" fill="#EAEEF9" fill-opacity="1"/></g><g style="mix-blend-mode:passthrough"><path d="M6.457340335845947,23.41987130432129C7.124010335845947,23.199871304321288,7.488670335845947,22.47987130432129,7.272010335845947,21.80654130432129C7.055340335845948,21.13987430432129,6.3393403358459475,20.77320730432129,5.672674335845947,20.98654110432129C5.005341335845947,21.206541304321288,4.640674335845947,21.92654130432129,4.857341635845947,22.59987130432129C5.074008335845948,23.27321130432129,5.790674335845948,23.63987130432129,6.457340335845947,23.41987130432129C6.457340335845947,23.41987130432129,6.457340335845947,23.41987130432129,6.457340335845947,23.41987130432129Z" fill="#EAEEF9" fill-opacity="1"/></g><g style="mix-blend-mode:passthrough"><path d="M74.53132732373047,13.99317978088379C75.07266432373046,13.99317978088379,75.51066432373047,13.55317978088379,75.51066432373047,12.999842780883789C75.51066432373047,12.453176780883789,75.07266432373046,12.006509780883789,74.53132732373047,12.006509780883789C73.99066132373046,12.006509780883789,73.55199432373047,12.453176780883789,73.55199432373047,12.999842780883789C73.55199432373047,13.55317978088379,73.99066132373046,13.99317978088379,74.53132732373047,13.99317978088379C74.53132732373047,13.99317978088379,74.53132732373047,13.99317978088379,74.53132732373047,13.99317978088379Z" fill="url(#master_svg0_0_563)" fill-opacity="1"/></g><g style="mix-blend-mode:passthrough"><path d="M9.120678804321289,57.779848068847656C9.520018804321289,57.41317806884766,9.54801880432129,56.77984706884766,9.18267880432129,56.37984706884765C8.818018804321289,55.973180268847656,8.19868380432129,55.946514068847655,7.799349804321289,56.31318006884766C7.4000171043212895,56.68651406884766,7.372016804321289,57.313178068847655,7.736683804321289,57.719848068847654C8.10201680432129,58.11984806884766,8.72134880432129,58.15317806884766,9.120678804321289,57.779848068847656C9.120678804321289,57.779848068847656,9.120678804321289,57.779848068847656,9.120678804321289,57.779848068847656Z" fill="#FFBE2C" fill-opacity="1"/></g><g style="mix-blend-mode:passthrough"><path d="M36.733328721923826,2.1665119281482697C37.13266872192383,1.7931819281482697,37.16066872192383,1.1665109281482695,36.79532872192383,0.7598439281482696C36.43066872192383,0.35317772814826964,35.81133372192383,0.32651092814826965,35.41199972192383,0.6998439281482697C35.012667021923825,1.0665109281482696,34.98466672192383,1.6931819281482696,35.34933372192383,2.09984192814827C35.71466672192383,2.5065119281482695,36.33399872192383,2.5331819281482697,36.733328721923826,2.1665119281482697C36.733328721923826,2.1665119281482697,36.733328721923826,2.1665119281482697,36.733328721923826,2.1665119281482697Z" fill="#32D697" fill-opacity="1"/></g><g style="mix-blend-mode:passthrough"><path d="M74.84199955566406,67.64652812988281C75.24132955566407,67.27319812988281,75.26932955566406,66.64652712988281,74.90399955566406,66.23986012988281C74.53932955566407,65.83319392988281,73.91999555566406,65.80652712988281,73.52066155566406,66.17986012988281C73.12132885566406,66.54652712988282,73.09332855566406,67.1731981298828,73.45866255566406,67.57985812988281C73.82332855566406,67.98652812988281,74.44265955566406,68.01319812988281,74.84199955566406,67.64652812988281C74.84199955566406,67.64652812988281,74.84199955566406,67.64652812988281,74.84199955566406,67.64652812988281Z" fill="#32D697" fill-opacity="1"/></g><g style="mix-blend-mode:passthrough"><path d="M39.954005401611326,9.146527843475342C39.954005401611326,9.146527843475342,39.954005401611326,21.939827843475342,39.954005401611326,21.939827843475342C39.954005401611326,23.05322784347534,39.306705401611325,24.166527843475343,38.38130540161133,24.719827843475343C38.38130540161133,24.719827843475343,28.57800540161133,30.379827843475343,28.57800540161133,30.379827843475343C28.023335401611327,30.74652784347534,27.283338401611328,30.933227843475343,26.636005401611328,30.933227843475343C26.636005401611328,30.933227843475343,26.636005401611328,14.986527843475342,26.636005401611328,14.986527843475342C26.636005401611328,14.986527843475342,39.49130540161133,7.566527843475342,39.49130540161133,7.566527843475342C39.86130540161133,8.033194843475341,39.954005401611326,8.586527843475341,39.954005401611326,9.146527843475342C39.954005401611326,9.146527843475342,39.954005401611326,9.146527843475342,39.954005401611326,9.146527843475342Z" fill="#DBDFE6" fill-opacity="1"/></g><g style="mix-blend-mode:passthrough"><path d="M26.63599221038818,14.986527843475342C26.63599221038818,14.986527843475342,26.63599221038818,30.933227843475343,26.63599221038818,30.933227843475343C25.988692210388184,30.933227843475343,25.341292210388183,30.74652784347534,24.69399221038818,30.379827843475343C24.69399221038818,30.379827843475343,14.889992210388183,24.719827843475343,14.889992210388183,24.719827843475343C13.872659210388184,24.166527843475343,13.317992210388184,23.14652784347534,13.317992210388184,21.939827843475342C13.317992210388184,21.939827843475342,13.317992210388184,9.146527843475342,13.317992210388184,9.146527843475342C13.317992210388184,8.586527843475341,13.502659210388183,8.033194843475341,13.780659210388183,7.566527843475342C13.780659210388183,7.566527843475342,26.63599221038818,14.986527843475342,26.63599221038818,14.986527843475342C26.63599221038818,14.986527843475342,26.63599221038818,14.986527843475342,26.63599221038818,14.986527843475342Z" fill="#EAEEF9" fill-opacity="1"/></g><g style="mix-blend-mode:passthrough"><path d="M39.49130831604004,7.566506203665734C39.49130831604004,7.566506203665734,26.63600831604004,14.986466203665733,26.63600831604004,14.986466203665733C26.63600831604004,14.986466203665733,13.780008316040039,7.473176203665734,13.780008316040039,7.473176203665734C14.05800831604004,7.013176203665734,14.428008316040039,6.546506203665733,14.982678316040039,6.2731762036657335C14.982678316040039,6.2731762036657335,24.971308316040037,0.5198402036657334,24.971308316040037,0.5198402036657334C25.89600831604004,-0.03349379633426666,27.098008316040037,-0.03349379633426666,28.11530831604004,0.42650620366573333C28.11530831604004,0.42650620366573333,38.47400831604004,6.453176203665733,38.47400831604004,6.453176203665733C38.47400831604004,6.453176203665733,38.47400831604004,6.453176203665733,38.566708316040035,6.453176203665733C38.93670831604004,6.733176203665733,39.306008316040035,7.106506203665734,39.49130831604004,7.566506203665734C39.49130831604004,7.566506203665734,39.49130831604004,7.566506203665734,39.49130831604004,7.566506203665734Z" fill="#F3F6FA" fill-opacity="1"/></g><g style="mix-blend-mode:passthrough"><path d="M66.58998791503906,9.146527843475342C66.58998791503906,9.146527843475342,66.58998791503906,21.939827843475342,66.58998791503906,21.939827843475342C66.58998791503906,23.05322784347534,65.94268791503906,24.166527843475343,65.01728791503906,24.719827843475343C65.01728791503906,24.719827843475343,55.21398791503906,30.379827843475343,55.21398791503906,30.379827843475343C54.65931791503906,30.74652784347534,53.919320915039066,30.933227843475343,53.27198791503906,30.933227843475343C53.27198791503906,30.933227843475343,53.27198791503906,14.986527843475342,53.27198791503906,14.986527843475342C53.27198791503906,14.986527843475342,66.12728791503906,7.566527843475342,66.12728791503906,7.566527843475342C66.49728791503907,8.033194843475341,66.58998791503906,8.586527843475341,66.58998791503906,9.146527843475342C66.58998791503906,9.146527843475342,66.58998791503906,9.146527843475342,66.58998791503906,9.146527843475342Z" fill="#DBDFE6" fill-opacity="1"/></g><g style="mix-blend-mode:passthrough"><path d="M53.271997619628905,14.986527843475342C53.271997619628905,14.986527843475342,53.271997619628905,30.933227843475343,53.271997619628905,30.933227843475343C52.624697619628904,30.933227843475343,51.97669761962891,30.74652784347534,51.3292976196289,30.379827843475343C51.3292976196289,30.379827843475343,41.61866761962891,24.719827843475343,41.61866761962891,24.719827843475343C40.601330619628904,24.166527843475343,40.045997619628906,23.14652784347534,40.045997619628906,21.939827843475342C40.045997619628906,21.939827843475342,40.045997619628906,9.146527843475342,40.045997619628906,9.146527843475342C40.045997619628906,8.586527843475341,40.231330619628906,8.033194843475341,40.50866461962891,7.566527843475342C40.50866461962891,7.566527843475342,53.271997619628905,14.986527843475342,53.271997619628905,14.986527843475342C53.271997619628905,14.986527843475342,53.271997619628905,14.986527843475342,53.271997619628905,14.986527843475342Z" fill="#EAEEF9" fill-opacity="1"/></g><g style="mix-blend-mode:passthrough"><path d="M66.21929273681641,7.566519818243623C66.21929273681641,7.566519818243623,53.36399273681641,14.986499818243622,53.36399273681641,14.986499818243622C53.36399273681641,14.986499818243622,40.415992736816406,7.473189818243623,40.415992736816406,7.473189818243623C40.693325736816405,7.013189818243623,41.06332573681641,6.546519818243623,41.618662736816404,6.2731898182436225C41.618662736816404,6.2731898182436225,51.6992927368164,0.42652381824362295,51.6992927368164,0.42652381824362295C52.623992736816405,-0.12680918175637707,53.826692736816405,-0.12680918175637707,54.8439927368164,0.33985781824362293C54.8439927368164,0.33985781824362293,65.20199273681641,6.366519818243623,65.20199273681641,6.366519818243623C65.20199273681641,6.366519818243623,65.20199273681641,6.366519818243623,65.2946927368164,6.366519818243623C65.57199273681641,6.7331898182436225,65.9419927368164,7.106519818243623,66.21929273681641,7.566519818243623C66.21929273681641,7.566519818243623,66.21929273681641,7.566519818243623,66.21929273681641,7.566519818243623Z" fill="#F3F6FA" fill-opacity="1"/></g><g style="mix-blend-mode:passthrough"><path d="M40.04595676879883,57.54650695800781C40.04595676879883,57.54650695800781,40.04595676879883,70.33980695800781,40.04595676879883,70.33980695800781C40.04595676879883,71.45320695800781,39.39865676879883,72.5665069580078,38.47395676879883,73.11980695800781C38.47395676879883,73.11980695800781,28.67065676879883,78.77980695800781,28.67065676879883,78.77980695800781C28.115326768798827,79.14650695800782,27.375989768798828,79.33320695800782,26.728656768798828,79.33320695800782C26.728656768798828,79.33320695800782,26.728656768798828,63.386506958007814,26.728656768798828,63.386506958007814C26.728656768798828,63.386506958007814,39.58395676879883,55.96650695800781,39.58395676879883,55.96650695800781C39.86135676879883,56.433173958007814,40.04595676879883,56.986506958007816,40.04595676879883,57.54650695800781C40.04595676879883,57.54650695800781,40.04595676879883,57.54650695800781,40.04595676879883,57.54650695800781Z" fill="#DBDFE6" fill-opacity="1"/></g><g style="mix-blend-mode:passthrough"><path d="M26.727963604736328,63.386506958007814C26.727963604736328,63.386506958007814,26.727963604736328,79.33320695800782,26.727963604736328,79.33320695800782C26.08066360473633,79.33320695800782,25.43336360473633,79.14650695800782,24.785963604736327,78.77980695800781C24.785963604736327,78.77980695800781,14.982663604736327,73.11980695800781,14.982663604736327,73.11980695800781C13.965330604736328,72.5665069580078,13.410663604736328,71.54650695800781,13.410663604736328,70.33980695800781C13.410663604736328,70.33980695800781,13.410663604736328,57.54650695800781,13.410663604736328,57.54650695800781C13.410663604736328,56.986506958007816,13.595330604736327,56.433173958007814,13.872663604736328,55.96650695800781C13.872663604736328,55.96650695800781,26.727963604736328,63.386506958007814,26.727963604736328,63.386506958007814C26.727963604736328,63.386506958007814,26.727963604736328,63.386506958007814,26.727963604736328,63.386506958007814Z" fill="#EAEEF9" fill-opacity="1"/></g><g style="mix-blend-mode:passthrough"><path d="M39.58395872192383,55.966514036865235C39.58395872192383,55.966514036865235,26.72865872192383,63.38654403686523,26.72865872192383,63.38654403686523C26.72865872192383,63.38654403686523,13.780658721923828,55.87318403686523,13.780658721923828,55.87318403686523C14.057991721923829,55.41318403686523,14.427991721923828,54.94651403686523,14.982658721923828,54.67318403686524C14.982658721923828,54.67318403686524,25.063358721923827,48.82651803686523,25.063358721923827,48.82651803686523C25.988658721923827,48.27318403686523,27.19065872192383,48.27318403686523,28.20795872192383,48.73318403686523C28.20795872192383,48.73318403686523,38.56665872192383,54.759854036865235,38.56665872192383,54.759854036865235C38.56665872192383,54.759854036865235,38.56665872192383,54.759854036865235,38.65865872192383,54.759854036865235C39.02865872192383,55.13318403686523,39.39865872192382,55.506514036865234,39.58395872192383,55.966514036865235C39.58395872192383,55.966514036865235,39.58395872192383,55.966514036865235,39.58395872192383,55.966514036865235Z" fill="#F3F6FA" fill-opacity="1"/></g><g style="mix-blend-mode:passthrough"><path d="M66.6819907836914,57.54650695800781C66.6819907836914,57.54650695800781,66.6819907836914,70.33980695800781,66.6819907836914,70.33980695800781C66.6819907836914,71.45320695800781,66.0346907836914,72.5665069580078,65.1099907836914,73.11980695800781C65.1099907836914,73.11980695800781,55.306660783691406,78.77980695800781,55.306660783691406,78.77980695800781C54.751320783691405,79.14650695800782,54.01132378369141,79.33320695800782,53.363990783691406,79.33320695800782C53.363990783691406,79.33320695800782,53.363990783691406,63.386506958007814,53.363990783691406,63.386506958007814C53.363990783691406,63.386506958007814,66.2199907836914,55.96650695800781,66.2199907836914,55.96650695800781C66.49729078369141,56.433173958007814,66.6819907836914,56.986506958007816,66.6819907836914,57.54650695800781C66.6819907836914,57.54650695800781,66.6819907836914,57.54650695800781,66.6819907836914,57.54650695800781Z" fill="#DBDFE6" fill-opacity="1"/></g><g style="mix-blend-mode:passthrough"><path d="M53.363997619628904,63.386506958007814C53.363997619628904,63.386506958007814,53.363997619628904,79.33320695800782,53.363997619628904,79.33320695800782C52.7166976196289,79.33320695800782,52.069297619628905,79.14650695800782,51.421997619628904,78.77980695800781C51.421997619628904,78.77980695800781,41.61866761962891,73.11980695800781,41.61866761962891,73.11980695800781C40.601330619628904,72.5665069580078,40.045997619628906,71.54650695800781,40.045997619628906,70.33980695800781C40.045997619628906,70.33980695800781,40.045997619628906,57.54650695800781,40.045997619628906,57.54650695800781C40.045997619628906,56.986506958007816,40.231330619628906,56.433173958007814,40.50866461962891,55.96650695800781C40.50866461962891,55.96650695800781,53.363997619628904,63.386506958007814,53.363997619628904,63.386506958007814C53.363997619628904,63.386506958007814,53.363997619628904,63.386506958007814,53.363997619628904,63.386506958007814Z" fill="#EAEEF9" fill-opacity="1"/></g><g style="mix-blend-mode:passthrough"><path d="M66.21929273681641,55.966514036865235C66.21929273681641,55.966514036865235,53.36399273681641,63.38654403686523,53.36399273681641,63.38654403686523C53.36399273681641,63.38654403686523,40.415992736816406,55.87318403686523,40.415992736816406,55.87318403686523C40.693325736816405,55.41318403686523,41.06332573681641,54.94651403686523,41.618662736816404,54.67318403686524C41.618662736816404,54.67318403686524,51.6992927368164,48.82651803686523,51.6992927368164,48.82651803686523C52.623992736816405,48.27318403686523,53.826692736816405,48.27318403686523,54.8439927368164,48.73318403686523C54.8439927368164,48.73318403686523,65.20199273681641,54.759854036865235,65.20199273681641,54.759854036865235C65.20199273681641,54.759854036865235,65.20199273681641,54.759854036865235,65.2946927368164,54.759854036865235C65.6646927368164,55.13318403686523,66.03469273681641,55.506514036865234,66.21929273681641,55.966514036865235C66.21929273681641,55.966514036865235,66.21929273681641,55.966514036865235,66.21929273681641,55.966514036865235Z" fill="#F3F6FA" fill-opacity="1"/></g><g style="mix-blend-mode:passthrough"><path d="M26.63599221038818,33.346517639160155C26.63599221038818,33.346517639160155,26.63599221038818,46.13981763916016,26.63599221038818,46.13981763916016C26.63599221038818,47.253217639160155,25.988692210388184,48.36651763916016,25.063292210388184,48.91981763916016C25.063292210388184,48.91981763916016,15.259992210388184,54.579817639160154,15.259992210388184,54.579817639160154C14.705322210388184,54.946517639160156,13.965325210388183,55.13321763916016,13.317992210388184,55.13321763916016C13.317992210388184,55.13321763916016,13.317992210388184,39.18651763916016,13.317992210388184,39.18651763916016C13.317992210388184,39.18651763916016,26.173292210388183,31.766517639160156,26.173292210388183,31.766517639160156C26.543292210388184,32.23318463916016,26.63599221038818,32.78651763916016,26.63599221038818,33.346517639160155C26.63599221038818,33.346517639160155,26.63599221038818,33.346517639160155,26.63599221038818,33.346517639160155Z" fill="#DBDFE6" fill-opacity="1"/></g><g style="mix-blend-mode:passthrough"><path d="M13.318000000000056,39.18651763916016C13.318000000000056,39.18651763916016,13.318000000000056,55.13321763916016,13.318000000000056,55.13321763916016C12.670700000000057,55.13321763916016,12.023300000000058,54.946517639160156,11.376000000000056,54.579817639160154C11.376000000000056,54.579817639160154,1.572000000000057,48.91981763916016,1.572000000000057,48.91981763916016C0.5546670000000569,48.36651763916016,5.684341886080802e-14,47.346517639160155,5.684341886080802e-14,46.13981763916016C5.684341886080802e-14,46.13981763916016,5.684341886080802e-14,33.346517639160155,5.684341886080802e-14,33.346517639160155C5.684341886080802e-14,32.78651763916016,0.18466700000005684,32.23318463916016,0.46266700000005684,31.766517639160156C0.46266700000005684,31.766517639160156,13.318000000000056,39.18651763916016,13.318000000000056,39.18651763916016C13.318000000000056,39.18651763916016,13.318000000000056,39.18651763916016,13.318000000000056,39.18651763916016Z" fill="#EAEEF9" fill-opacity="1"/></g><g style="mix-blend-mode:passthrough"><path d="M26.265946454572678,31.76652471801758C26.265946454572678,31.76652471801758,13.410646454572678,39.186554718017575,13.410646454572678,39.186554718017575C13.410646454572678,39.186554718017575,0.4626464545726776,31.673194718017577,0.4626464545726776,31.673194718017577C0.7399794545726777,31.21319471801758,1.1099794545726778,30.74652471801758,1.6646464545726776,30.473194718017577C1.6646464545726776,30.473194718017577,11.745346454572678,24.62652871801758,11.745346454572678,24.62652871801758C12.670646454572678,24.07319471801758,13.872646454572678,24.07319471801758,14.889946454572678,24.53319471801758C14.889946454572678,24.53319471801758,25.15594645457268,30.653194718017577,25.15594645457268,30.653194718017577C25.15594645457268,30.653194718017577,25.15594645457268,30.653194718017577,25.24864645457268,30.653194718017577C25.618646454572676,30.933194718017578,25.988646454572677,31.306524718017577,26.265946454572678,31.76652471801758C26.265946454572678,31.76652471801758,26.265946454572678,31.76652471801758,26.265946454572678,31.76652471801758Z" fill="#F3F6FA" fill-opacity="1"/></g><g style="mix-blend-mode:passthrough"><path d="M79.99999920654297,33.346517639160155C79.99999920654297,33.346517639160155,79.99999920654297,46.13981763916016,79.99999920654297,46.13981763916016C79.99999920654297,47.253217639160155,79.35269920654297,48.36651763916016,78.42799920654296,48.91981763916016C78.42799920654296,48.91981763916016,68.62399920654296,54.579817639160154,68.62399920654296,54.579817639160154C68.06932920654297,54.946517639160156,67.32933220654297,55.13321763916016,66.68199920654297,55.13321763916016C66.68199920654297,55.13321763916016,66.68199920654297,39.18651763916016,66.68199920654297,39.18651763916016C66.68199920654297,39.18651763916016,79.53729920654297,31.766517639160156,79.53729920654297,31.766517639160156C79.81529920654297,32.23318463916016,79.99999920654297,32.78651763916016,79.99999920654297,33.346517639160155C79.99999920654297,33.346517639160155,79.99999920654297,33.346517639160155,79.99999920654297,33.346517639160155Z" fill="#DBDFE6" fill-opacity="1"/></g><g style="mix-blend-mode:passthrough"><path d="M66.6819907836914,39.18651763916016C66.6819907836914,39.18651763916016,66.6819907836914,55.13321763916016,66.6819907836914,55.13321763916016C66.0346907836914,55.13321763916016,65.38729078369141,54.946517639160156,64.73999078369141,54.579817639160154C64.73999078369141,54.579817639160154,54.93666078369141,48.91981763916016,54.93666078369141,48.91981763916016C53.919323783691404,48.36651763916016,53.363990783691406,47.346517639160155,53.363990783691406,46.13981763916016C53.363990783691406,46.13981763916016,53.363990783691406,33.346517639160155,53.363990783691406,33.346517639160155C53.363990783691406,32.78651763916016,53.549323783691406,32.23318463916016,53.82665778369141,31.766517639160156C53.82665778369141,31.766517639160156,66.6819907836914,39.18651763916016,66.6819907836914,39.18651763916016C66.6819907836914,39.18651763916016,66.6819907836914,39.18651763916016,66.6819907836914,39.18651763916016Z" fill="#EAEEF9" fill-opacity="1"/></g><g style="mix-blend-mode:passthrough"><path d="M79.53730497436524,31.76652471801758C79.53730497436524,31.76652471801758,66.68200497436524,39.186554718017575,66.68200497436524,39.186554718017575C66.68200497436524,39.186554718017575,53.734004974365234,31.673194718017577,53.734004974365234,31.673194718017577C54.01133797436523,31.21319471801758,54.38133797436524,30.74652471801758,54.93667497436523,30.473194718017577C54.93667497436523,30.473194718017577,65.01730497436523,24.62652871801758,65.01730497436523,24.62652871801758C65.94200497436523,24.07319471801758,67.14470497436524,24.07319471801758,68.16200497436523,24.53319471801758C68.16200497436523,24.53319471801758,78.42800497436524,30.653194718017577,78.42800497436524,30.653194718017577C78.42800497436524,30.653194718017577,78.42800497436524,30.653194718017577,78.52000497436524,30.653194718017577C78.98270497436523,30.933194718017578,79.26000497436523,31.306524718017577,79.53730497436524,31.76652471801758C79.53730497436524,31.76652471801758,79.53730497436524,31.76652471801758,79.53730497436524,31.76652471801758Z" fill="#F3F6FA" fill-opacity="1"/></g><g style="mix-blend-mode:passthrough"><path d="M55.02869761962891,33.066502912597656C55.02869761962891,33.066502912597656,55.02869761962891,47.346472912597655,55.02869761962891,47.346472912597655C55.02869761962891,48.64647291259766,54.38129761962891,49.846472912597655,53.179297619628905,50.49987291259765C53.179297619628905,50.49987291259765,42.17332761962891,56.893172912597656,42.17332761962891,56.893172912597656C41.5259976196289,57.266472912597656,40.78599761962891,57.45317291259765,40.045997619628906,57.45317291259765C40.045997619628906,57.45317291259765,40.045997619628906,39.55984291259766,40.045997619628906,39.55984291259766C40.045997619628906,39.55984291259766,54.566697619628904,31.213172912597656,54.566697619628904,31.213172912597656C54.84399761962891,31.766505912597655,55.02869761962891,32.41984291259766,55.02869761962891,33.066502912597656C55.02869761962891,33.066502912597656,55.02869761962891,33.066502912597656,55.02869761962891,33.066502912597656Z" fill="#36C65F" fill-opacity="1"/></g><g style="mix-blend-mode:passthrough"><path d="M40.04603255004883,39.559871139526365C40.04603255004883,39.559871139526365,40.04603255004883,50.86657113952637,40.04603255004883,50.86657113952637C40.04603255004883,50.86657113952637,40.04603255004883,57.45317113952637,40.04603255004883,57.45317113952637C39.30663255004883,57.45317113952637,38.56663255004883,57.26657113952636,37.91933255004883,56.893171139526366C37.91933255004883,56.893171139526366,33.110002550048826,54.11317113952637,33.110002550048826,54.11317113952637C33.110002550048826,54.11317113952637,26.820662550048826,50.49987113952636,26.820662550048826,50.49987113952636C25.710665550048827,49.84657113952637,25.063332550048827,48.64657113952637,24.971332550048828,47.43987113952637C24.971332550048828,47.43987113952637,24.971332550048828,32.97320113952637,24.971332550048828,32.97320113952637C24.971332550048828,32.32654113952637,25.15599955004883,31.673204139526366,25.433332550048828,31.119871139526367C25.433332550048828,31.119871139526367,40.04603255004883,39.559871139526365,40.04603255004883,39.559871139526365C40.04603255004883,39.559871139526365,40.04603255004883,39.559871139526365,40.04603255004883,39.559871139526365Z" fill="#7AE9A0" fill-opacity="1"/></g><g style="mix-blend-mode:passthrough"><path d="M54.47402672119141,31.21317686645508C54.47402672119141,31.21317686645508,39.954026721191404,39.55980686645508,39.954026721191404,39.55980686645508C39.954026721191404,39.55980686645508,25.433326721191406,31.119846866455077,25.433326721191406,31.119846866455077C25.710659721191405,30.55984686645508,26.173326721191405,30.099846866455078,26.727996721191406,29.81984686645508C26.727996721191406,29.81984686645508,38.01132672119141,23.23984686645508,38.01132672119141,23.23984686645508C39.12132672119141,22.58651386645508,40.41602672119141,22.58651386645508,41.52602672119141,23.146513866455077C41.52602672119141,23.146513866455077,53.1793267211914,29.91317686645508,53.1793267211914,29.91317686645508C53.1793267211914,29.91317686645508,53.27202672119141,29.91317686645508,53.27202672119141,30.00651686645508C53.8266267211914,30.37984686645508,54.19662672119141,30.746516866455078,54.47402672119141,31.21317686645508C54.47402672119141,31.21317686645508,54.47402672119141,31.21317686645508,54.47402672119141,31.21317686645508Z" fill="#5BE1A1" fill-opacity="1"/></g><g style="mix-blend-mode:passthrough"><path d="M46.70531633911133,41.506535404052734C46.70531633911133,41.599865404052736,46.70531633911133,41.686535404052734,46.61271633911133,41.779865404052735C46.52001633911133,42.059865404052736,46.42801633911133,42.33986540405273,46.33531633911133,42.61986540405273C46.33531633911133,42.61986540405273,46.33531633911133,42.61986540405273,46.33531633911133,42.70653540405274C45.41071633911133,44.933245404052734,43.46801633911133,46.51324540405273,41.15600633911133,46.97324540405273C41.15600633911133,46.97324540405273,41.06333633911133,46.97324540405273,41.06333633911133,46.97324540405273C40.23133633911133,47.15984540405273,39.39866633911133,47.06654540405273,38.56666633911133,46.97324540405273C34.77466633911133,46.139845404052735,32.46267133911133,42.52653540405274,33.202004339111326,38.813195404052735C33.94200433911133,35.01319540405274,37.64133633911133,32.59986740405274,41.34133633911133,33.43986640405274C42.636006339111326,33.713200404052735,43.83801633911133,34.36653540405273,44.855316339111326,35.29319540405273C46.52001633911133,36.86653540405273,47.26001633911133,39.279865404052735,46.70531633911133,41.506535404052734C46.70531633911133,41.506535404052734,46.70531633911133,41.506535404052734,46.70531633911133,41.506535404052734Z" fill="#FFFFFF" fill-opacity="1"/></g><g style="mix-blend-mode:passthrough"><path d="M39.12133702270508,42.706512834472655C38.93666702270508,42.706512834472655,38.658667022705075,42.61317283447266,38.47399702270508,42.43317283447266C38.47399702270508,42.43317283447266,36.71666702270508,40.666512834472655,36.71666702270508,40.666512834472655C36.34666702270508,40.299842834472656,36.34666702270508,39.833172834472656,36.71666702270508,39.46651283447265C37.08666702270508,39.093172834472654,37.549337022705075,39.093172834472654,37.91933702270508,39.46651283447265C37.91933702270508,39.46651283447265,39.02866702270508,40.57984283447266,39.02866702270508,40.57984283447266C39.02866702270508,40.57984283447266,41.895997022705075,37.699842834472655,41.895997022705075,37.699842834472655C42.26599702270508,37.33317613447266,42.727997022705075,37.33317613447266,43.09799702270508,37.699842834472655C43.46799702270508,38.07317583447266,43.46799702270508,38.53984283447266,43.09799702270508,38.90651283447266C43.09799702270508,38.90651283447266,39.76866702270508,42.526512834472655,39.76866702270508,42.526512834472655C39.58399702270508,42.61317283447266,39.39866702270508,42.706512834472655,39.12133702270508,42.706512834472655C39.12133702270508,42.706512834472655,39.12133702270508,42.706512834472655,39.12133702270508,42.706512834472655Z" fill="url(#master_svg1_0_605)" fill-opacity="1"/></g></g></svg>