<svg xmlns="http://www.w3.org/2000/svg" xmlns:xlink="http://www.w3.org/1999/xlink" fill="none" version="1.1" width="91.7705078125" height="86.333251953125" viewBox="0 0 91.7705078125 86.333251953125"><defs><linearGradient x1="0.018927324563264847" y1="0.9755644798278809" x2="0.9861334562301636" y2="0.9755644798278809" id="master_svg0_0_1054"><stop offset="0%" stop-color="#FFD44F" stop-opacity="1"/><stop offset="100%" stop-color="#FFA607" stop-opacity="1"/></linearGradient><linearGradient x1="0.0026752548292279243" y1="0.9993202090263367" x2="0.9991545677185059" y2="0.9993202090263367" id="master_svg1_0_1079"><stop offset="0%" stop-color="#FFD44F" stop-opacity="1"/><stop offset="100%" stop-color="#FFA607" stop-opacity="1"/></linearGradient><linearGradient x1="0.005013622343540192" y1="0.9948570728302002" x2="1.0007526874542236" y2="0.9948570728302002" id="master_svg2_0_685"><stop offset="0%" stop-color="#FFD44F" stop-opacity="1"/><stop offset="100%" stop-color="#FFA607" stop-opacity="1"/></linearGradient><linearGradient x1="-0.04540882632136345" y1="0.5145052671432495" x2="0.3587898015975952" y2="0.8224464058876038" id="master_svg3_0_691"><stop offset="0%" stop-color="#FAA404" stop-opacity="1"/><stop offset="100%" stop-color="#FF7904" stop-opacity="0.00009999999747378752"/></linearGradient><linearGradient x1="-1.1770882935024929e-8" y1="0.5416666865348816" x2="1.40625" y2="-0.2916666567325592" id="master_svg4_0_694"><stop offset="0%" stop-color="#FFFFFF" stop-opacity="1"/><stop offset="99.98999834060669%" stop-color="#FFB93C" stop-opacity="1"/><stop offset="100%" stop-color="#FFA607" stop-opacity="1"/></linearGradient><linearGradient x1="0.005013622343540192" y1="0.9948570728302002" x2="1.0007526874542236" y2="0.9948570728302002" id="master_svg5_0_685"><stop offset="0%" stop-color="#FFD44F" stop-opacity="1"/><stop offset="100%" stop-color="#FFA607" stop-opacity="1"/></linearGradient><linearGradient x1="-0.04540882632136345" y1="0.5145052671432495" x2="0.3587898015975952" y2="0.8224464058876038" id="master_svg6_0_691"><stop offset="0%" stop-color="#FAA404" stop-opacity="1"/><stop offset="100%" stop-color="#FF7904" stop-opacity="0.00009999999747378752"/></linearGradient><linearGradient x1="-1.1770882935024929e-8" y1="0.5416666865348816" x2="1.40625" y2="-0.2916666567325592" id="master_svg7_0_694"><stop offset="0%" stop-color="#FFFFFF" stop-opacity="1"/><stop offset="99.98999834060669%" stop-color="#FFB93C" stop-opacity="1"/><stop offset="100%" stop-color="#FFA607" stop-opacity="1"/></linearGradient><linearGradient x1="0.005013622343540192" y1="0.9948570728302002" x2="1.0007526874542236" y2="0.9948570728302002" id="master_svg8_0_685"><stop offset="0%" stop-color="#FFD44F" stop-opacity="1"/><stop offset="100%" stop-color="#FFA607" stop-opacity="1"/></linearGradient><linearGradient x1="-0.04540882632136345" y1="0.5145052671432495" x2="0.3587898015975952" y2="0.8224464058876038" id="master_svg9_0_691"><stop offset="0%" stop-color="#FAA404" stop-opacity="1"/><stop offset="100%" stop-color="#FF7904" stop-opacity="0.00009999999747378752"/></linearGradient><linearGradient x1="-1.1770882935024929e-8" y1="0.5416666865348816" x2="1.40625" y2="-0.2916666567325592" id="master_svga_0_694"><stop offset="0%" stop-color="#FFFFFF" stop-opacity="1"/><stop offset="99.98999834060669%" stop-color="#FFB93C" stop-opacity="1"/><stop offset="100%" stop-color="#FFA607" stop-opacity="1"/></linearGradient></defs><g style="mix-blend-mode:passthrough"><g style="mix-blend-mode:passthrough"><path d="M17.2675,78.7722C18.0478,78.1469,18.0478,78.1469,18.0478,78.1469C18.0478,78.1469,18.0478,78.1469,18.0478,78.1469C18.0478,78.1469,18.0478,78.1469,18.0479,78.1469C18.0479,78.147,18.0479,78.147,18.0479,78.147C18.0478,78.1469,18.0478,78.1469,18.0477,78.1468C18.0476,78.1466,18.0474,78.1463,18.047,78.1459C18.0463,78.145,18.0451,78.1435,18.0435,78.1415C18.0403,78.1375,18.0353,78.1312,18.0285,78.1227C18.015,78.1057,17.9946,78.08,17.9675,78.0457C17.9133,77.9771,17.8326,77.8742,17.7277,77.7393C17.7277,77.7393,16.1484,78.9664,16.1484,78.9664C16.2566,79.1056,16.3405,79.2125,16.3978,79.285C16.4264,79.3213,16.4484,79.349,16.4634,79.3678C16.4709,79.3773,16.4766,79.3845,16.4806,79.3894C16.4826,79.3919,16.4841,79.3939,16.4852,79.3952C16.4858,79.3959,16.4862,79.3964,16.4865,79.3968C16.4867,79.397,16.4868,79.3972,16.4869,79.3973C16.487,79.3974,16.487,79.3974,16.487,79.3975C16.4871,79.3975,16.4871,79.3975,16.4871,79.3975C16.4871,79.3976,16.4871,79.3976,16.4871,79.3976C16.4871,79.3976,16.4871,79.3976,17.2675,78.7722C17.2675,78.7722,17.2675,78.7722,17.2675,78.7722ZM13.9011,72.4722C13.7017,72.1814,13.4981,71.8818,13.2909,71.5741C13.2909,71.5741,11.6317,72.6907,11.6317,72.6907C11.8421,73.0034,12.049,73.3078,12.2516,73.6033C12.2516,73.6033,13.9011,72.4722,13.9011,72.4722C13.9011,72.4722,13.9011,72.4722,13.9011,72.4722ZM9.80423,66.0724C9.62077,65.7634,9.43748,65.451,9.25474,65.1355C9.25474,65.1355,7.52412,66.138,7.52412,66.138C7.71053,66.4598,7.89743,66.7783,8.08442,67.0933C8.08442,67.0933,9.80423,66.0724,9.80423,66.0724C9.80423,66.0724,9.80423,66.0724,9.80423,66.0724ZM6.20819,59.4075C6.05222,59.0833,5.8988,58.758,5.74825,58.4319C5.74825,58.4319,3.93249,59.2704,3.93249,59.2704C4.08758,59.6062,4.24547,59.941,4.40582,60.2744C4.40582,60.2744,6.20819,59.4075,6.20819,59.4075C6.20819,59.4075,6.20819,59.4075,6.20819,59.4075ZM3.38588,52.4419C3.27713,52.1004,3.17382,51.7603,3.07628,51.4217C3.07628,51.4217,1.15443,51.9752,1.15443,51.9752C1.25732,52.3324,1.36605,52.6904,1.4802,53.0488C1.4802,53.0488,3.38588,52.4419,3.38588,52.4419C3.38588,52.4419,3.38588,52.4419,3.38588,52.4419ZM2.00778,45.21C2.00261,45.0379,2,44.8671,2,44.6976C2,44.6976,0,44.6976,0,44.6976C0,44.8876,0.002927,45.0785,0.008685,45.2701C0.008685,45.2701,2.00778,45.21,2.00778,45.21C2.00778,45.21,2.00778,45.21,2.00778,45.21ZM2,44.6976C2,44.5372,2.00088,44.3769,2.00264,44.2169C2.00264,44.2169,0.002756,44.195,0.002756,44.195C0.00092,44.3623,0,44.5299,0,44.6976C0,44.6976,2,44.6976,2,44.6976C2,44.6976,2,44.6976,2,44.6976ZM2.44461,38.4982C2.49042,38.1818,2.53968,37.8666,2.59235,37.5525C2.59235,37.5525,0.619895,37.2217,0.619895,37.2217C0.564756,37.5505,0.513193,37.8805,0.465246,38.2117C0.465246,38.2117,2.44461,38.4982,2.44461,38.4982C2.44461,38.4982,2.44461,38.4982,2.44461,38.4982ZM3.91893,31.9754C4.01372,31.6701,4.11183,31.3663,4.21322,31.064C4.21322,31.064,2.31702,30.428,2.31702,30.428C2.21085,30.7446,2.10812,31.0627,2.00887,31.3824C2.00887,31.3824,3.91893,31.9754,3.91893,31.9754C3.91893,31.9754,3.91893,31.9754,3.91893,31.9754ZM6.39908,25.7635C6.54036,25.4774,6.68475,25.1931,6.8322,24.9106C6.8322,24.9106,5.05923,23.9851,5.05923,23.9851C4.90485,24.2808,4.75368,24.5785,4.60576,24.8781C4.60576,24.8781,6.39908,25.7635,6.39908,25.7635C6.39908,25.7635,6.39908,25.7635,6.39908,25.7635ZM9.82156,20.0167C10.0057,19.7563,10.1926,19.4981,10.3823,19.2421C10.3823,19.2421,8.77555,18.0512,8.77555,18.0512C8.57696,18.3192,8.38129,18.5894,8.18858,18.862C8.18858,18.862,9.82156,20.0167,9.82156,20.0167C9.82156,20.0167,9.82156,20.0167,9.82156,20.0167ZM14.0981,14.8731C14.3205,14.6445,14.5454,14.4184,14.7728,14.1949C14.7728,14.1949,13.3708,12.7686,13.3708,12.7686C13.1328,13.0026,12.8974,13.2392,12.6647,13.4784C12.6647,13.4784,14.0981,14.8731,14.0981,14.8731C14.0981,14.8731,14.0981,14.8731,14.0981,14.8731ZM19.1229,10.4571C19.3779,10.2661,19.6352,10.0779,19.8946,9.89257C19.8946,9.89257,18.7319,8.26527,18.7319,8.26527C18.4603,8.45931,18.191,8.65633,17.924,8.85628C17.924,8.85628,19.1229,10.4571,19.1229,10.4571C19.1229,10.4571,19.1229,10.4571,19.1229,10.4571ZM24.774,6.88058C25.0558,6.73191,25.3394,6.58632,25.6249,6.44387C25.6249,6.44387,24.7317,4.65437,24.7317,4.65437C24.4328,4.80356,24.1358,4.95601,23.8407,5.1117C23.8407,5.1117,24.774,6.88058,24.774,6.88058C24.774,6.88058,24.774,6.88058,24.774,6.88058ZM30.916,4.23774C31.2179,4.13536,31.5212,4.03628,31.826,3.94056C31.826,3.94056,31.2269,2.03243,31.2269,2.03243C30.9075,2.1327,30.5898,2.23648,30.2736,2.34373C30.2736,2.34373,30.916,4.23774,30.916,4.23774C30.916,4.23774,30.916,4.23774,30.916,4.23774ZM37.3985,2.59949C37.7125,2.5462,38.0276,2.49636,38.3438,2.45001C38.3438,2.45001,38.0538,0.471147,38.0538,0.471147C37.7226,0.519685,37.3926,0.571884,37.0638,0.627702C37.0638,0.627702,37.3985,2.59949,37.3985,2.59949C37.3985,2.59949,37.3985,2.59949,37.3985,2.59949ZM44.0603,2.00267C44.2203,2.00089,44.3804,2,44.5408,2C44.5408,2,44.5408,0,44.5408,0C44.373,0,44.2054,0.000932,44.0381,0.002793C44.0381,0.002793,44.0603,2.00267,44.0603,2.00267C44.0603,2.00267,44.0603,2.00267,44.0603,2.00267ZM44.5408,2C44.7012,2,44.8614,2.0009,45.0214,2.00268C45.0214,2.00268,45.0438,0.002806,45.0438,0.002806C44.8763,0.000937,44.7087,0,44.5408,0C44.5408,0,44.5408,2,44.5408,2C44.5408,2,44.5408,2,44.5408,2ZM50.7402,2.45176C51.0566,2.49827,51.3718,2.54828,51.6859,2.60175C51.6859,2.60175,52.0216,0.630121,52.0216,0.630121C51.6926,0.574116,51.3624,0.521738,51.0311,0.473031C51.0311,0.473031,50.7402,2.45176,50.7402,2.45176C50.7402,2.45176,50.7402,2.45176,50.7402,2.45176ZM57.2604,3.94639C57.5653,4.04231,57.8688,4.14159,58.1708,4.24417C58.1708,4.24417,58.8141,2.35047,58.8141,2.35047C58.4978,2.24302,58.18,2.13904,57.8606,2.03857C57.8606,2.03857,57.2604,3.94639,57.2604,3.94639C57.2604,3.94639,57.2604,3.94639,57.2604,3.94639ZM63.4641,6.45337C63.7496,6.59596,64.0334,6.74167,64.3153,6.89046C64.3153,6.89046,65.2488,5.12167,65.2488,5.12167C64.9536,4.96589,64.6565,4.81333,64.3575,4.66403C64.3575,4.66403,63.4641,6.45337,63.4641,6.45337C63.4641,6.45337,63.4641,6.45337,63.4641,6.45337ZM69.1981,9.90348C69.4578,10.0888,69.7153,10.277,69.9706,10.468C69.9706,10.468,71.1686,8.86652,71.1686,8.86652C70.9014,8.66663,70.6319,8.46967,70.3601,8.27567C70.3601,8.27567,69.1981,9.90348,69.1981,9.90348C69.1981,9.90348,69.1981,9.90348,69.1981,9.90348ZM74.3266,14.2044C74.5543,14.4278,74.7797,14.6537,75.0024,14.8821C75.0024,14.8821,76.4341,13.4856,76.4341,13.4856C76.201,13.2466,75.9653,13.0102,75.7269,12.7764C75.7269,12.7764,74.3266,14.2044,74.3266,14.2044C74.3266,14.2044,74.3266,14.2044,74.3266,14.2044ZM78.7273,19.248C78.9176,19.5038,79.1051,19.7618,79.2898,20.022C79.2898,20.022,80.9206,18.8642,80.9206,18.8642C80.7273,18.5919,80.531,18.3219,80.3319,18.0542C80.3319,18.0542,78.7273,19.248,78.7273,19.248C78.7273,19.248,78.7273,19.248,78.7273,19.248ZM82.2909,24.9124C82.4391,25.1947,82.5842,25.4788,82.7261,25.7648C82.7261,25.7648,84.5175,24.8754,84.5175,24.8754C84.3688,24.576,84.217,24.2785,84.0619,23.983C84.0619,23.983,82.2909,24.9124,82.2909,24.9124C82.2909,24.9124,82.2909,24.9124,82.2909,24.9124ZM84.9246,31.063C85.0267,31.3652,85.1255,31.6689,85.2209,31.9741C85.2209,31.9741,87.1297,31.3772,87.1297,31.3772C87.0298,31.0576,86.9264,30.7395,86.8195,30.4231C86.8195,30.4231,84.9246,31.063,84.9246,31.063C84.9246,31.063,84.9246,31.063,84.9246,31.063ZM86.5579,37.551C86.611,37.8652,86.6607,38.1805,86.7069,38.4969C86.7069,38.4969,88.686,38.2079,88.686,38.2079C88.6376,37.8765,88.5855,37.5464,88.5299,37.2174C88.5299,37.2174,86.5579,37.551,86.5579,37.551C86.5579,37.551,86.5579,37.551,86.5579,37.551ZM87.1532,44.2169C87.155,44.3769,87.1558,44.5372,87.1558,44.6976C87.1558,44.6976,89.1558,44.6976,89.1558,44.6976C89.1558,44.5298,89.1549,44.3621,89.1531,44.1947C89.1531,44.1947,87.1532,44.2169,87.1532,44.2169C87.1532,44.2169,87.1532,44.2169,87.1532,44.2169ZM87.1558,44.6976C87.1558,44.8516,87.155,45.0053,87.1534,45.1589C87.1534,45.1589,89.1533,45.18,89.1533,45.18C89.155,45.0194,89.1558,44.8586,89.1558,44.6976C89.1558,44.6976,87.1558,44.6976,87.1558,44.6976C87.1558,44.6976,87.1558,44.6976,87.1558,44.6976ZM86.7443,50.6615C86.7019,50.9659,86.6564,51.2693,86.6076,51.5715C86.6076,51.5715,88.5821,51.8899,88.5821,51.8899C88.6331,51.5735,88.6808,51.256,88.7252,50.9373C88.7252,50.9373,86.7443,50.6615,86.7443,50.6615C86.7443,50.6615,86.7443,50.6615,86.7443,50.6615ZM85.3785,56.9481C85.2908,57.2425,85.2,57.5355,85.1061,57.8271C85.1061,57.8271,87.0098,58.44,87.0098,58.44C87.1082,58.1346,87.2033,57.8278,87.2952,57.5195C87.2952,57.5195,85.3785,56.9481,85.3785,56.9481C85.3785,56.9481,85.3785,56.9481,85.3785,56.9481ZM83.0778,62.9562C82.9466,63.2336,82.8126,63.5094,82.6756,63.7834C82.6756,63.7834,84.4648,64.6773,84.4648,64.6773C84.6082,64.3903,84.7485,64.1015,84.8859,63.8111C84.8859,63.8111,83.0778,62.9562,83.0778,62.9562C83.0778,62.9562,83.0778,62.9562,83.0778,62.9562ZM79.8957,68.548C79.7242,68.8024,79.5501,69.0549,79.3733,69.3054C79.3733,69.3054,81.0075,70.4585,81.0075,70.4585C81.1925,70.1963,81.3748,69.9319,81.5543,69.6656C81.5543,69.6656,79.8957,68.548,79.8957,68.548C79.8957,68.548,79.8957,68.548,79.8957,68.548ZM75.9086,73.5986C75.701,73.8243,75.491,74.0479,75.2786,74.2692C75.2786,74.2692,76.7215,75.6542,76.7215,75.6542C76.9438,75.4226,77.1636,75.1886,77.3809,74.9522C77.3809,74.9522,75.9086,73.5986,75.9086,73.5986C75.9086,73.5986,75.9086,73.5986,75.9086,73.5986ZM71.2099,77.9953C71.0904,78.0914,70.9703,78.1868,70.8497,78.2817C70.8497,78.2817,72.086,79.8538,72.086,79.8538C72.2122,79.7546,72.3379,79.6547,72.463,79.5541C72.463,79.5541,71.2099,77.9953,71.2099,77.9953C71.2099,77.9953,71.2099,77.9953,71.2099,77.9953Z" fill="#EAEEF9" fill-opacity="1"/></g><g style="mix-blend-mode:passthrough"><path d="M20.440176844482423,15.510140879211425C21.40399684448242,15.191900879211426,21.931366844482422,14.153830879211426,21.61842684448242,13.191530879211426C21.30473684448242,12.221645879211426,20.268926844482422,11.691242879211426,19.305116844482423,12.009484979211425C18.34053584448242,12.320149879211426,17.81316384448242,13.358220879211427,18.126859644482423,14.328100879211426C18.43979784448242,15.297980879211426,19.47559684448242,15.820810879211425,20.440176844482423,15.510140879211425C20.440176844482423,15.510140879211425,20.440176844482423,15.510140879211425,20.440176844482423,15.510140879211425Z" fill="#EAEEF9" fill-opacity="1"/></g><g style="mix-blend-mode:passthrough"><path d="M24.51624732727051,9.478773064727783C25.17167732727051,9.266613064727784,25.530077327270508,8.554363064727783,25.317157327270507,7.895145064727783C25.104237327270507,7.243507064727783,24.400317327270507,6.879802064727783,23.74413432727051,7.091963664727783C23.088708327270506,7.3117020647277835,22.73030732727051,8.016380064727784,22.943225627270508,8.675593064727783C23.156144327270507,9.327233064727784,23.860065327270508,9.690943064727783,24.51624732727051,9.478773064727783C24.51624732727051,9.478773064727783,24.51624732727051,9.478773064727783,24.51624732727051,9.478773064727783Z" fill="#EAEEF9" fill-opacity="1"/></g><g style="mix-blend-mode:passthrough"><path d="M56.1421228112793,7.114744739303589C56.7907328112793,7.114744739303589,57.3173528112793,6.584334739303589,57.3173528112793,5.940274739303589C57.3173528112793,5.288637739303589,56.7907328112793,4.758234739303589,56.1421228112793,4.758234739303589C55.4935198112793,4.758234739303589,54.9676628112793,5.288637739303589,54.9676628112793,5.940274739303589C54.9676628112793,6.584334739303589,55.4935198112793,7.114744739303589,56.1421228112793,7.114744739303589C56.1421228112793,7.114744739303589,56.1421228112793,7.114744739303589,56.1421228112793,7.114744739303589Z" fill="url(#master_svg0_0_1054)" fill-opacity="1"/></g><g style="mix-blend-mode:passthrough"><path d="M4.652536722602845,19.48074607849121C5.1321767226028445,19.041266078491212,5.1655167226028444,18.29112907849121,4.727556722602844,17.81376707849121C4.289596722602845,17.33640377849121,3.5470297226028444,17.29851807849121,3.068151722602844,17.73799507849121C2.588515822602844,18.17747207849121,2.5551757226028444,18.92003607849121,2.993137722602844,19.40497607849121C3.431098722602844,19.88233607849121,4.173666722602844,19.92022607849121,4.652536722602845,19.48074607849121C4.652536722602845,19.48074607849121,4.652536722602845,19.48074607849121,4.652536722602845,19.48074607849121Z" fill="#32D697" fill-opacity="1"/></g><g style="mix-blend-mode:passthrough"><path d="M81.89823160888672,14.373783180236817C82.37711160888672,13.934303180236817,82.41045160888672,13.191742180236817,81.97325160888671,12.706802180236817C81.53529160888672,12.229439580236816,80.79196560888671,12.199131180236817,80.31308760888672,12.631030180236817C79.83420970888672,13.070507180236817,79.80086960888671,13.820653180236816,80.23883160888671,14.298013180236817C80.67603460888672,14.782953180236817,81.41936160888672,14.813263180236817,81.89823160888672,14.373783180236817C81.89823160888672,14.373783180236817,81.89823160888672,14.373783180236817,81.89823160888672,14.373783180236817Z" fill="#32D697" fill-opacity="1"/></g><g style="mix-blend-mode:passthrough"><path d="M22.53469479904175,64.04222124023437C22.53469479904175,64.04222124023437,7.884975799041748,36.332421240234375,7.884975799041748,36.332421240234375C7.264403799041748,34.96095124023437,7.884975799041748,33.33943024023438,9.374654799041748,32.71810024023438C10.616554799041747,32.218006240234374,12.106224799041748,32.58928854023438,12.851064799041747,33.839521240234376C12.851064799041747,33.839521240234376,30.852194799041747,59.677721240234376,30.852194799041747,59.677721240234376C32.21839479904175,61.920621240234375,31.59699479904175,64.79232124023437,29.362494799041748,66.16382124023437C27.127994799041748,67.53532124023437,24.272894799041747,66.91392124023437,22.906794799041748,64.67112124023438C22.78249479904175,64.42102124023438,22.65899479904175,64.17102124023438,22.53469479904175,64.04222124023437C22.53469479904175,64.04222124023437,22.53469479904175,64.04222124023437,22.53469479904175,64.04222124023437Z" fill="#949DAD" fill-opacity="1"/></g><g style="mix-blend-mode:passthrough"><path d="M25.017563966674807,69.90697276611328C29.336593966674805,69.90697276611328,32.8386939666748,66.39107276611328,32.8386939666748,62.04939276611328C32.8386939666748,57.70008276611328,29.336593966674805,54.18427276611328,25.017563966674807,54.18427276611328C20.697813966674804,54.18427276611328,17.196393966674805,57.70008276611328,17.196393966674805,62.04939276611328C17.196393966674805,66.39107276611328,20.697813966674804,69.90697276611328,25.017563966674807,69.90697276611328C25.017563966674807,69.90697276611328,25.017563966674807,69.90697276611328,25.017563966674807,69.90697276611328Z" fill="#BDC3CF" fill-opacity="1"/></g><g style="mix-blend-mode:passthrough"><path d="M33.83188095474243,17.116710250549318C33.83188095474243,17.116710250549318,12.477870954742432,37.21143025054931,12.477870954742432,37.21143025054931C11.360990954742432,38.33283025054932,9.498520954742432,38.204030250549316,8.381639954742433,37.082630250549315C7.2640039547424315,35.96123025054932,7.388269954742432,34.08963025054932,8.505147954742432,32.96823025054931C8.505147954742432,32.96823025054931,8.629410954742431,32.83933025054932,8.629410954742431,32.83933025054932C8.629410954742431,32.83933025054932,31.473080954742432,14.366196250549317,31.473080954742432,14.366196250549317C32.21798095474243,13.744867250549316,33.45908095474243,13.866102250549316,34.07968095474243,14.616243250549317C34.57678095474243,15.366380250549316,34.57678095474243,16.487810250549316,33.83188095474243,17.116710250549318C33.83188095474243,17.116710250549318,33.83188095474243,17.116710250549318,33.83188095474243,17.116710250549318Z" fill="#949DAD" fill-opacity="1"/></g><g style="mix-blend-mode:passthrough"><path d="M48.729010494995116,25.353230032348634C48.10841049499511,25.603230032348634,47.48781049499512,25.603230032348634,46.86731049499512,25.353230032348634C46.86731049499512,25.353230032348634,32.09327049499512,17.866960032348633,32.09327049499512,17.866960032348633C31.099899494995118,17.366870032348633,30.603593494995117,15.987820032348633,31.099899494995118,14.995210032348632C31.596962494995118,13.995019032348633,32.96237049499512,13.494925032348632,33.95574049499512,13.995019032348633C33.95574049499512,13.995019032348633,48.729010494995116,21.481280032348632,48.729010494995116,21.481280032348632C49.722310494995114,21.981380032348632,50.21861049499512,23.352850032348634,49.722310494995114,24.353030032348634C49.59811049499512,24.85313003234863,49.226010494995116,25.224430032348632,48.729010494995116,25.353230032348634C48.729010494995116,25.353230032348634,48.729010494995116,25.353230032348634,48.729010494995116,25.353230032348634Z" fill="#949DAD" fill-opacity="1"/></g><g style="mix-blend-mode:passthrough"><path d="M10.86517447418213,40.704485122680666C14.087754474182129,40.704485122680666,16.69958447418213,38.075185122680665,16.69958447418213,34.83972512268066C16.69958447418213,31.596695122680664,14.087754474182129,28.974985122680664,10.86517447418213,28.974985122680664C7.642594474182129,28.974985122680664,5.029984474182129,31.596695122680664,5.029984474182129,34.83972512268066C5.029984474182129,38.075185122680665,7.642594474182129,40.704485122680666,10.86517447418213,40.704485122680666C10.86517447418213,40.704485122680666,10.86517447418213,40.704485122680666,10.86517447418213,40.704485122680666Z" fill="#BDC3CF" fill-opacity="1"/></g><g style="mix-blend-mode:passthrough"><path d="M10.865217428283692,37.58262473388672C12.373077428283692,37.58262473388672,13.59602742828369,36.35512473388672,13.59602742828369,34.83968473388672C13.59602742828369,33.324244733886715,12.373077428283692,32.08916473388672,10.865217428283692,32.08916473388672C9.356597428283692,32.08916473388672,8.133637428283691,33.324244733886715,8.133637428283691,34.83968473388672C8.133637428283691,36.35512473388672,9.356597428283692,37.58262473388672,10.865217428283692,37.58262473388672C10.865217428283692,37.58262473388672,10.865217428283692,37.58262473388672,10.865217428283692,37.58262473388672Z" fill="#949DAD" fill-opacity="1"/></g><g style="mix-blend-mode:passthrough"><path d="M32.83894938415527,21.859967584228514C36.06152938415527,21.859967584228514,38.674159384155274,19.230647584228514,38.674159384155274,15.987607584228517C38.674159384155274,12.752147584228515,36.06152938415527,10.122867584228516,32.83894938415527,10.122867584228516C29.616369384155274,10.122867584228516,27.003759384155273,12.752147584228515,27.003759384155273,15.987607584228517C27.003759384155273,19.230647584228514,29.616369384155274,21.859967584228514,32.83894938415527,21.859967584228514C32.83894938415527,21.859967584228514,32.83894938415527,21.859967584228514,32.83894938415527,21.859967584228514Z" fill="#BDC3CF" fill-opacity="1"/></g><g style="mix-blend-mode:passthrough"><path d="M32.83823424560547,18.7382634286499C34.34685424560547,18.7382634286499,35.56980424560547,17.510763428649902,35.56980424560547,15.987743428649903C35.56980424560547,14.472303428649901,34.34685424560547,13.244803428649902,32.83823424560547,13.244803428649902C31.32961424560547,13.244803428649902,30.10741424560547,14.472303428649901,30.10741424560547,15.987743428649903C30.10741424560547,17.510763428649902,31.32961424560547,18.7382634286499,32.83823424560547,18.7382634286499C32.83823424560547,18.7382634286499,32.83823424560547,18.7382634286499,32.83823424560547,18.7382634286499Z" fill="#949DAD" fill-opacity="1"/></g><g style="mix-blend-mode:passthrough"><path d="M47.61223191650391,22.73138999938965C45.501231916503905,23.60276599938965,43.76302191650391,25.35309999938965,42.770408916503904,27.59593999938965C41.404241916503906,30.967789999389648,42.39761091650391,34.71088999938965,44.88065191650391,37.08258999938965C44.88065191650391,37.08258999938965,47.115171916503904,34.46088999938965,47.115171916503904,34.46088999938965C45.74976191650391,32.96818999938965,45.252691916503906,30.846559999389648,45.99829191650391,28.846179999389648C46.49459191650391,27.47470999938965,47.487961916503906,26.47451999938965,48.7291119165039,25.97442999938965C48.7291119165039,25.97442999938965,43.76302191650391,25.35309999938965,47.61223191650391,22.73138999938965C47.61223191650391,22.73138999938965,47.61223191650391,22.73138999938965,47.61223191650391,22.73138999938965Z" fill="#BDC3CF" fill-opacity="1"/></g><g style="mix-blend-mode:passthrough"><path d="M52.82592905151367,25.853071347045898C55.06043905151367,26.724441347045897,56.30158905151367,28.846061347045897,56.17807905151367,31.0964813470459C56.17807905151367,31.0964813470459,59.52950905151367,31.2177113470459,59.52950905151367,31.2177113470459C59.77800905151367,27.5958213470459,57.543489051513674,24.1027413470459,54.06706905151367,22.602455347045897C51.95682905151367,21.731078347045898,49.59804905151367,21.859890347045898,47.61130905151367,22.731267347045897C47.61130905151367,22.731267347045897,48.72894905151367,25.9743013470459,48.72894905151367,25.9743013470459C49.970089051513675,25.352971347045898,51.46051905151367,25.2241613470459,52.82592905151367,25.853071347045898C52.82592905151367,25.853071347045898,52.82592905151367,25.853071347045898,52.82592905151367,25.853071347045898Z" fill="#BDC3CF" fill-opacity="1"/></g><g style="mix-blend-mode:passthrough"><path d="M34.45215660896301,78.8935564453125C34.45215660896301,78.8935564453125,13.098866608963013,78.8935564453125,13.098866608963013,78.8935564453125C7.885006608963013,78.8935564453125,3.6637566089630127,74.6503564453125,3.6637566089630127,69.4069164453125C3.6637566089630127,64.1710864453125,7.885006608963013,59.9278564453125,13.098866608963013,59.9278564453125C13.098866608963013,59.9278564453125,34.45215660896301,59.9278564453125,34.45215660896301,59.9278564453125C39.66675660896301,59.9278564453125,43.887256608963014,64.1710864453125,43.887256608963014,69.4069164453125C43.887256608963014,74.6503564453125,39.66675660896301,78.8935564453125,34.45215660896301,78.8935564453125C34.45215660896301,78.8935564453125,34.45215660896301,78.8935564453125,34.45215660896301,78.8935564453125Z" fill="#FFFFFF" fill-opacity="1"/></g><g style="mix-blend-mode:passthrough"><path d="M13.09913679409027,80.272628125C13.09913679409027,80.272628125,34.45323679409027,80.272628125,34.45323679409027,80.272628125C40.41193679409027,80.272628125,45.25373679409027,75.400528125,45.25373679409027,69.40692812500001C45.25373679409027,63.420958125,40.41193679409027,58.548828125,34.45323679409027,58.548828125C34.45323679409027,58.548828125,13.09913679409027,58.548828125,13.09913679409027,58.548828125C7.140456794090271,58.548828125,2.298636794090271,63.420958125,2.298636794090271,69.40692812500001C2.298636794090271,75.400528125,7.140456794090271,80.272628125,13.09913679409027,80.272628125C13.09913679409027,80.272628125,13.09913679409027,80.272628125,13.09913679409027,80.272628125ZM5.028686794090271,69.40692812500001C5.028686794090271,64.913638125,8.62936679409027,61.299318125,13.09843679409027,61.299318125C5.028686794090271,64.913638125,34.45243679409027,61.299318125,34.45243679409027,61.299318125C38.92143679409027,61.299318125,42.521336794090274,64.913638125,42.521336794090274,69.40692812500001C42.521336794090274,73.900128125,38.92143679409027,77.52202812499999,34.45243679409027,77.52202812499999C34.45243679409027,77.52202812499999,13.09843679409027,77.52202812499999,13.09843679409027,77.52202812499999C8.62936679409027,77.52202812499999,5.028686794090271,73.900128125,5.028686794090271,69.40692812500001C5.028686794090271,69.40692812500001,5.028686794090271,69.40692812500001,5.028686794090271,69.40692812500001Z" fill-rule="evenodd" fill="#BDC3CF" fill-opacity="1"/></g><g style="mix-blend-mode:passthrough"><path d="M34.20425912658691,75.15025647583008C37.358639126586915,75.15025647583008,39.91518912658691,72.58162647583008,39.91518912658691,69.40678647583007C39.91518912658691,66.23952647583008,37.358639126586915,63.67085647583008,34.20425912658691,63.67085647583008C31.050629126586912,63.67085647583008,28.494089126586914,66.23952647583008,28.494089126586914,69.40678647583007C28.494089126586914,72.58162647583008,31.050629126586912,75.15025647583008,34.20425912658691,75.15025647583008C34.20425912658691,75.15025647583008,34.20425912658691,75.15025647583008,34.20425912658691,75.15025647583008Z" fill="#BDC3CF" fill-opacity="1"/></g><g style="mix-blend-mode:passthrough"><path d="M34.20384735595703,72.52853098632812C35.91780735595703,72.52853098632812,37.307457355957034,71.13433098632812,37.307457355957034,69.40673098632813C37.307457355957034,67.68671098632812,35.91780735595703,66.29251098632812,34.20384735595703,66.29251098632812C32.48988735595703,66.29251098632812,31.10022735595703,67.68671098632812,31.10022735595703,69.40673098632813C31.10022735595703,71.13433098632812,32.48988735595703,72.52853098632812,34.20384735595703,72.52853098632812C34.20384735595703,72.52853098632812,34.20384735595703,72.52853098632812,34.20384735595703,72.52853098632812Z" fill="#949DAD" fill-opacity="1"/></g><g style="mix-blend-mode:passthrough"><path d="M13.844567428283693,75.15025647583008C16.998187428283693,75.15025647583008,19.555537428283692,72.58162647583008,19.555537428283692,69.40678647583007C19.555537428283692,66.23952647583008,16.998187428283693,63.67085647583008,13.844567428283693,63.67085647583008C10.690177428283691,63.67085647583008,8.133637428283691,66.23952647583008,8.133637428283691,69.40678647583007C8.133637428283691,72.58162647583008,10.690177428283691,75.15025647583008,13.844567428283693,75.15025647583008C13.844567428283693,75.15025647583008,13.844567428283693,75.15025647583008,13.844567428283693,75.15025647583008Z" fill="#BDC3CF" fill-opacity="1"/></g><g style="mix-blend-mode:passthrough"><path d="M13.844503827209472,72.52853098632812C15.558463827209472,72.52853098632812,16.948113827209472,71.13433098632812,16.948113827209472,69.40673098632813C16.948113827209472,67.68671098632812,15.558463827209472,66.29251098632812,13.844503827209472,66.29251098632812C12.130543827209472,66.29251098632812,10.740883827209473,67.68671098632812,10.740883827209473,69.40673098632813C10.740883827209473,71.13433098632812,12.130543827209472,72.52853098632812,13.844503827209472,72.52853098632812C13.844503827209472,72.52853098632812,13.844503827209472,72.52853098632812,13.844503827209472,72.52853098632812Z" fill="#949DAD" fill-opacity="1"/></g><g style="mix-blend-mode:passthrough"><path d="M66.25222645263672,54.07075916748047C66.25222645263672,54.19955916748047,66.12802645263672,54.44965916748047,66.12802645263672,54.57085916748047C66.00372645263673,55.19215916748047,65.75592645263671,55.94235916748047,65.38312645263672,56.563659167480466C65.38312645263672,56.692459167480465,65.25892645263671,56.94255916748047,65.13462645263672,57.06375916748047C64.88682645263671,57.69265916748047,64.51402645263673,58.19275916748047,64.14202645263671,58.692859167480464C64.01772645263672,58.93535916748047,63.89352645263672,59.06415916748047,63.64492645263672,59.31415916748047C62.652326452636714,60.43555916748047,61.41042645263672,61.43575916748047,60.04502645263672,62.057159167480464C59.79652645263672,62.18595916748047,59.548726452636714,62.307159167480464,59.30022645263672,62.43595916748047C58.927426452636716,62.557159167480464,58.43112645263672,62.80725916748047,57.934026452636715,62.936059167480465C57.43772645263672,63.05725916748047,56.94142645263672,63.18615916748047,56.444326452636716,63.30735916748047C55.20322645263672,63.42855916748047,53.83782645263672,63.42855916748047,52.47164645263672,63.18615916748047C46.14014645263672,61.80705916748047,42.16742645263672,55.69225916748047,43.40932745263672,49.32743916748047C44.774736452636716,42.96259916748047,50.858456452636716,38.96941916748047,57.18992645263672,40.21966116748047C59.42442645263672,40.71975616748047,61.41042645263672,41.84117916748047,63.02442645263672,43.341459167480465C65.75592645263671,46.20563916748047,66.99712645263672,50.19885916748047,66.25222645263672,54.07075916748047C66.25222645263672,54.07075916748047,66.25222645263672,54.07075916748047,66.25222645263672,54.07075916748047Z" fill="url(#master_svg1_0_1079)" fill-opacity="1"/></g><g style="mix-blend-mode:passthrough"><path d="M51.380423020019535,25.444088159790038C52.02903302001953,23.769538159790038,51.207673020019534,21.89039115979004,49.54750302001953,21.23875315979004C47.88658302001953,20.587115159790038,46.01502202001953,21.413028159790038,45.36641502001953,23.08000815979004C44.71856602001953,24.74698815979004,45.539175020019535,26.63370815979004,47.20009302001953,27.28534815979004C48.861013020019534,27.93698815979004,50.73258302001953,27.11106815979004,51.380423020019535,25.444088159790038C51.380423020019535,25.444088159790038,51.380423020019535,25.444088159790038,51.380423020019535,25.444088159790038Z" fill="#BDC3CF" fill-opacity="1"/></g><g style="mix-blend-mode:passthrough"><path d="M49.76091977783203,24.807436536254883C50.05945977783203,24.034566536254882,49.68060977783203,23.16319153625488,48.91454977783203,22.86768153625488C48.14773977783203,22.564593536254883,47.28394077783203,22.943453536254882,46.98464177783203,23.716326536254883C46.68534377783203,24.489196536254884,47.06420277783203,25.35299653625488,47.831013777832034,25.656086536254882C48.59782977783203,25.959176536254883,49.461619777832034,25.572736536254883,49.76091977783203,24.807436536254883C49.76091977783203,24.807436536254883,49.76091977783203,24.807436536254883,49.76091977783203,24.807436536254883Z" fill="#949DAD" fill-opacity="1"/></g><g style="mix-blend-mode:passthrough"><path d="M2.7950439453125,81.62118530273438C2.7950439453125,81.62118530273438,91.0641439453125,81.62118530273438,91.0641439453125,81.62118530273438C91.0641439453125,81.62118530273438,91.0641439453125,79.62118530273438,91.0641439453125,79.62118530273438C91.0641439453125,79.62118530273438,2.7950439453125,79.62118530273438,2.7950439453125,79.62118530273438C2.7950439453125,79.62118530273438,2.7950439453125,81.62118530273438,2.7950439453125,81.62118530273438C2.7950439453125,81.62118530273438,2.7950439453125,81.62118530273438,2.7950439453125,81.62118530273438Z" fill="#D6DEE8" fill-opacity="1"/></g><g style="mix-blend-mode:passthrough"><g style="mix-blend-mode:passthrough"><path d="M65.7616472946429,54.01411574508202C65.6125472946429,54.86381574508203,65.3137472946429,55.66881574508203,64.9654472946429,56.419115745082024C64.9153472946429,56.56821574508203,64.8157472946429,56.722215745082025,64.7161472946429,56.92101574508203C64.4179472946429,57.52221574508202,64.0695472946429,58.02411574508203,63.7207472946429,58.57571574508202C63.5716472946429,58.774415745082024,63.42244729464289,58.97321574508203,63.2728472946429,59.17691574508203C62.327447294642894,60.28011574508203,61.1327472946429,61.22911574508203,59.83854729464289,61.88011574508202C59.589847294642894,61.98441574508203,59.3410472946429,62.13351574508202,59.091847294642896,62.232915745082025C58.693947294642896,62.38201574508203,58.2460472946429,62.58571574508203,57.798147294642895,62.68511574508203C56.1060472946429,63.18701574508202,54.2642472946429,63.28631574508203,52.4225272946429,62.88381574508203C46.3502772946429,61.63161574508203,42.4185472946429,55.61911574508203,43.6627222946429,49.45250574508203C44.9069072946429,43.340565745082024,50.8795672946429,39.380235745082025,57.0018472946429,40.63243274508203C59.1419472946429,41.08461674508203,61.1327472946429,42.13805574508203,62.675747294642896,43.73809574508203C65.4133472946429,46.396535745082026,66.5579472946429,50.252525745082025,65.7616472946429,54.01411574508202C65.7616472946429,54.01411574508202,65.7616472946429,54.01411574508202,65.7616472946429,54.01411574508202Z" fill="url(#master_svg2_0_685)" fill-opacity="1"/></g><g style="mix-blend-mode:passthrough"><path d="M52.819886935501096,61.021854275512695C53.4670069355011,61.1704542755127,54.1136169355011,61.220054275512695,54.7607369355011,61.220054275512695C55.6070069355011,61.220054275512695,56.5029069355011,61.120954275512695,57.398706935501096,60.9722542755127C57.6388069355011,60.903954275512696,57.878806935501096,60.80985427551269,58.1352069355011,60.70925427551269C58.2509069355011,60.66385427551269,58.3699069355011,60.617154275512696,58.4938069355011,60.57095427551269C58.6930069355011,60.4718542755127,58.8921069355011,60.37275427551269,59.0908069355011,60.2736542755127C60.185906935501094,59.674054275512695,61.1813069355011,58.9209542755127,61.9781069355011,57.974554275512695C62.051106935501096,57.89935427551269,62.1122069355011,57.81355427551269,62.1730069355011,57.7280542755127C62.2366069355011,57.6388542755127,62.299806935501095,57.55005427551269,62.3759069355011,57.474154275512696C62.6747069355011,57.0232542755127,62.9735069355011,56.572354275512694,63.2222069355011,56.076854275512694C63.290406935501096,55.97165427551269,63.3352069355011,55.86875427551269,63.3727069355011,55.782554275512695C63.3899069355011,55.7428542755127,63.4057069355011,55.706754275512694,63.421406935501096,55.67545427551269C63.719706935501094,55.026354275512695,63.9189069355011,54.327754275512696,64.0681069355011,53.624154275512694C64.7152069355011,50.4777642755127,63.769806935501094,47.227334275512696,61.4801069355011,44.9282442755127C60.185906935501094,43.630064275512694,58.5433069355011,42.7332182755127,56.7021069355011,42.33187027551269C54.213216935501094,41.781873275512694,51.674806935501095,42.282320275512696,49.5347769355011,43.679604275512695C47.4442969355011,45.0818542755127,45.9513769355011,47.227334275512696,45.4534069355011,49.72956427551269C44.3583699355011,54.8727542755127,47.6930369355011,59.971354275512695,52.819886935501096,61.021854275512695C52.819886935501096,61.021854275512695,52.819886935501096,61.021854275512695,52.819886935501096,61.021854275512695ZM49.9827669355011,44.4327242755127C51.4261369355011,43.481384275512696,53.018646935501096,42.9809362755127,54.711246935501094,42.9809362755127C55.3083069355011,42.9809362755127,55.9059069355011,43.030485275512696,56.4534069355011,43.23363427551269C58.0955069355011,43.580484275512696,59.638406935501095,44.383174275512694,60.833006935501096,45.582274275512695C62.8740069355011,47.6782042755127,63.769806935501094,50.62638427551269,63.1723069355011,53.525054275512694C63.0727069355011,54.17415427551269,62.8740069355011,54.7736542755127,62.5752069355011,55.3731542755127C62.5504069355011,55.422754275512695,62.5255069355011,55.4859542755127,62.5006069355011,55.549054275512695C62.475706935501094,55.6122542755127,62.4508069355011,55.67545427551269,62.426106935501096,55.724954275512694C62.1768069355011,56.17585427551269,61.9281069355011,56.57225427551269,61.6293069355011,56.97365427551269C61.5795069355011,57.04835427551269,61.5169069355011,57.124354275512694,61.454306935501094,57.200354275512694C61.3924069355011,57.27545427551269,61.3305069355011,57.350654275512696,61.2810069355011,57.4245542755127C60.534806935501095,58.271854275512695,59.638406935501095,58.970454275512694,58.6430069355011,59.470954275512696C58.5546069355011,59.5296542755127,58.4486069355011,59.57275427551269,58.3354069355011,59.6187542755127C58.2577069355011,59.6503542755127,58.1766069355011,59.683254275512695,58.0955069355011,59.7236542755127C57.8313069355011,59.83635427551269,57.5672069355011,59.9205542755127,57.3247069355011,59.997854275512694C57.2474069355011,60.0225542755127,57.172206935501094,60.04655427551269,57.1000069355011,60.070454275512695C55.7562069355011,60.4718542755127,54.3128669355011,60.52135427551269,52.9690969355011,60.2240542755127C48.2906569355011,59.2231542755127,45.2542803555011,54.625054275512696,46.2497269355011,49.9277342755127C46.6976469355011,47.6782042755127,48.0414269355011,45.730914275512696,49.9827669355011,44.4327242755127C49.9827669355011,44.4327242755127,49.9827669355011,44.4327242755127,49.9827669355011,44.4327242755127Z" fill-rule="evenodd" fill="#F9B400" fill-opacity="1"/></g><g style="mix-blend-mode:passthrough"><path d="M64.94478040161133,56.997586247253416C64.64408040161133,57.54778624725342,64.34278040161132,58.04848624725342,63.99158040161133,58.54918624725342C63.84068040161133,58.74748624725342,63.69028040161133,58.945786247253416,63.53998040161133,59.14908624725342C62.58618040161133,60.24968624725342,61.38166040161133,61.19648624725342,60.077190401611325,61.84598624725342C59.82589040161133,61.945086247253414,59.57509040161133,62.098786247253415,59.32429040161133,62.19788624725342C58.92261040161133,62.346686247253416,58.00555040161133,62.87458624725342,57.553910401611326,62.97868624725342C57.553910401611326,62.97868624725342,52.55788040161133,57.52548624725342,52.55788040161133,57.52548624725342C52.55788040161133,57.52548624725342,53.73372040161133,56.997586247253416,53.73372040161133,56.997586247253416C53.73372040161133,56.997586247253416,54.80609040161133,55.69868624725342,54.80609040161133,55.69868624725342C54.80609040161133,55.69868624725342,54.80609040161133,53.807356247253416,54.80609040161133,53.807356247253416C54.80609040161133,53.807356247253416,55.05589040161133,52.567986247253415,55.05589040161133,52.567986247253415C55.05589040161133,52.567986247253415,55.30569040161133,50.337126247253416,54.23332040161133,50.337126247253416C55.30569040161133,50.337126247253416,55.30569040161133,48.849886247253416,55.30569040161133,48.849886247253416C55.30569040161133,48.849886247253416,56.30490040161133,46.619032247253415,56.30490040161133,46.619032247253415C56.30490040161133,46.619032247253415,58.55311040161133,46.12328624725342,58.55311040161133,46.12328624725342C58.55311040161133,46.12328624725342,65.54738040161132,55.69868624725342,65.54738040161132,55.69868624725342C65.49688040161132,55.84740624725342,64.99528040161132,56.79928624725342,64.94478040161133,56.997586247253416C64.94478040161133,56.997586247253416,64.94478040161133,56.997586247253416,64.94478040161133,56.997586247253416Z" fill="url(#master_svg3_0_691)" fill-opacity="1"/></g><g style="mix-blend-mode:passthrough" transform="matrix(1,0,0,-1,0,115.44197463989258)"><path d="M58.10196085494995,69.62798731994629C57.22035085494995,69.62798731994629,56.502000854949955,69.30928731994629,55.94691085494995,68.67008731994629C55.39182085494995,68.03078731994628,55.059550854949954,67.1468173199463,54.94815085494995,66.0143473199463C54.94815085494995,66.0143473199463,54.932780854949954,65.88156731994629,54.932780854949954,65.88156731994629C54.932780854949954,65.88156731994629,52.47619085494995,65.88156731994629,52.47619085494995,65.88156731994629C52.47619085494995,65.88156731994629,51.79049585494995,64.9444073199463,51.79049585494995,64.9444073199463C51.79049585494995,64.9444073199463,54.85979085494995,64.9444073199463,54.85979085494995,64.9444073199463C54.85979085494995,64.9444073199463,54.775280854949955,64.27865731994629,54.775280854949955,64.27865731994629C54.775280854949955,64.27865731994629,51.54463985494995,64.27865731994629,51.54463985494995,64.27865731994629C51.54463985494995,64.27865731994629,50.85702085494995,63.34149731994629,50.85702085494995,63.34149731994629C50.85702085494995,63.34149731994629,54.69461085494995,63.34149731994629,54.69461085494995,63.34149731994629C54.69461085494995,63.34149731994629,54.48142085494995,61.431377319946286,54.48142085494995,61.431377319946286C54.48142085494995,61.431377319946286,54.36232085494995,60.31218731994629,54.36232085494995,60.31218731994629C54.22787085494995,59.02417731994629,53.74001085494995,58.37922131994629,52.89874085494995,58.37922131994629C52.89874085494995,58.37922131994629,52.43777085494995,58.46078731994629,52.43777085494995,58.46078731994629C52.43777085494995,58.46078731994629,52.43777085494995,57.72098731994629,52.43777085494995,57.72098731994629C52.43777085494995,57.72098731994629,53.163800854949955,57.85756631994629,53.163800854949955,57.85756631994629C53.49032085494995,57.98845431994629,53.79956085494995,58.18573731994629,54.08958085494995,58.44751331994629C54.483330854949955,58.802237319946286,54.76952085494995,59.202487319946286,54.94623085494995,59.646367319946286C55.12293085494995,60.08834731994629,55.25162085494995,60.72761731994629,55.33421085494995,61.56225731994629C55.33421085494995,61.56225731994629,55.52820085494995,63.34149731994629,55.52820085494995,63.34149731994629C55.52820085494995,63.34149731994629,56.22166085494995,63.34149731994629,56.22166085494995,63.34149731994629C56.22166085494995,63.34149731994629,56.907350854949954,64.27865731994629,56.907350854949954,64.27865731994629C56.907350854949954,64.27865731994629,55.60887085494995,64.27865731994629,55.60887085494995,64.27865731994629C55.60887085494995,64.27865731994629,55.68954085494995,65.0905473199463,55.68954085494995,65.0905473199463C55.68954085494995,65.0905473199463,57.00715085494995,65.0905473199463,57.00715085494995,65.0905473199463C57.00715085494995,65.0905473199463,57.69284085494995,65.88156731994629,57.69284085494995,65.88156731994629C57.69284085494995,65.88156731994629,55.76828085494995,65.88156731994629,55.76828085494995,65.88156731994629C55.76828085494995,65.88156731994629,55.82783085494995,66.39752731994629,55.82783085494995,66.39752731994629C55.927700854949954,67.3991073199463,56.08137085494995,68.06678731994629,56.29072085494995,68.40448731994628C56.50008085494995,68.7420873199463,56.84773085494995,68.91098731994629,57.33559085494995,68.91098731994629C57.54111085494995,68.91098731994629,57.77352085494995,68.86728731994629,58.03089085494995,68.78008731994629C58.03089085494995,68.78008731994629,58.74348085494995,69.55398731994629,58.74348085494995,69.55398731994629C58.48034085494995,69.60328731994629,58.26714085494995,69.62798731994629,58.10196085494995,69.62798731994629C58.10196085494995,69.62798731994629,58.10196085494995,69.62798731994629,58.10196085494995,69.62798731994629Z" fill="url(#master_svg4_0_694)" fill-opacity="1"/></g></g><g style="mix-blend-mode:passthrough"><g style="mix-blend-mode:passthrough"><path d="M91.52234370577571,53.25682204391015C91.3732437057757,54.106522043910154,91.0744437057757,54.91152204391015,90.72614370577571,55.66182204391015C90.67604370577571,55.81092204391015,90.57644370577572,55.96492204391015,90.4768437057757,56.163722043910155C90.17864370577571,56.76492204391015,89.83024370577571,57.26682204391015,89.48144370577572,57.81842204391015C89.33234370577571,58.01712204391015,89.1831437057757,58.215922043910155,89.03354370577571,58.41962204391015C88.0881437057757,59.52282204391015,86.89344370577571,60.47182204391015,85.5992437057757,61.12282204391015C85.3505437057757,61.22712204391016,85.1017437057757,61.37622204391015,84.85254370577572,61.47562204391015C84.45464370577571,61.624722043910154,84.0067437057757,61.82842204391015,83.55884370577571,61.927822043910155C81.8667437057757,62.42972204391015,80.02494370577571,62.52902204391015,78.1832237057757,62.12652204391016C72.1109737057757,60.874322043910155,68.1792437057757,54.86182204391015,69.42341870577572,48.69521204391015C70.6676037057757,42.58327204391015,76.64026370577571,38.62294204391015,82.76254370577571,39.87513904391015C84.90264370577572,40.327323043910155,86.89344370577571,41.38076204391015,88.4364437057757,42.98080204391015C91.17404370577572,45.63924204391015,92.31864370577571,49.49523204391015,91.52234370577571,53.25682204391015C91.52234370577571,53.25682204391015,91.52234370577571,53.25682204391015,91.52234370577571,53.25682204391015Z" fill="url(#master_svg5_0_685)" fill-opacity="1"/></g><g style="mix-blend-mode:passthrough"><path d="M78.57973421886444,60.26412975196838C79.22685421886445,60.412729751968385,79.87346421886444,60.46232975196838,80.52058421886444,60.46232975196838C81.36685421886445,60.46232975196838,82.26275421886444,60.36322975196838,83.15855421886444,60.214529751968385C83.39865421886444,60.146229751968384,83.63865421886445,60.05212975196838,83.89505421886444,59.95152975196838C84.01075421886443,59.90612975196838,84.12975421886443,59.859429751968385,84.25365421886444,59.81322975196838C84.45285421886445,59.714129751968386,84.65195421886445,59.61502975196838,84.85065421886443,59.515929751968386C85.94575421886444,58.916329751968384,86.94115421886444,58.16322975196839,87.73795421886445,57.21682975196838C87.81095421886444,57.14162975196838,87.87205421886443,57.05582975196838,87.93285421886443,56.970329751968386C87.99645421886444,56.88112975196839,88.05965421886444,56.79232975196838,88.13575421886443,56.716429751968384C88.43455421886443,56.26552975196839,88.73335421886443,55.81462975196838,88.98205421886445,55.31912975196838C89.05025421886444,55.21392975196838,89.09505421886445,55.11102975196838,89.13255421886444,55.02482975196838C89.14975421886444,54.98512975196839,89.16555421886444,54.94902975196838,89.18125421886444,54.91772975196838C89.47955421886444,54.26862975196838,89.67875421886444,53.570029751968384,89.82795421886445,52.86642975196838C90.47505421886444,49.720039751968386,89.52965421886444,46.469609751968385,87.23995421886444,44.170519751968385C85.94575421886444,42.87233975196838,84.30315421886444,41.975493751968386,82.46195421886443,41.57414575196838C79.97306421886444,41.02414875196838,77.43465421886444,41.524595751968384,75.29462421886444,42.92187975196838C73.20414421886444,44.324129751968385,71.71122421886444,46.469609751968385,71.21325421886444,48.97183975196838C70.11821721886444,54.115029751968386,73.45288421886444,59.213629751968384,78.57973421886444,60.26412975196838C78.57973421886444,60.26412975196838,78.57973421886444,60.26412975196838,78.57973421886444,60.26412975196838ZM75.74261421886445,43.674999751968386C77.18598421886443,42.723659751968384,78.77849421886444,42.223211751968385,80.47109421886444,42.223211751968385C81.06815421886444,42.223211751968385,81.66575421886444,42.272760751968384,82.21325421886444,42.47590975196838C83.85535421886445,42.822759751968384,85.39825421886444,43.62544975196838,86.59285421886445,44.824549751968384C88.63385421886444,46.92047975196839,89.52965421886444,49.86865975196838,88.93215421886444,52.76732975196838C88.83255421886444,53.41642975196838,88.63385421886444,54.015929751968386,88.33505421886444,54.615429751968385C88.31025421886444,54.66502975196838,88.28535421886444,54.728229751968385,88.26045421886444,54.791329751968384C88.23555421886444,54.854529751968386,88.21065421886445,54.91772975196838,88.18595421886444,54.96722975196838C87.93665421886445,55.41812975196838,87.68795421886443,55.81452975196838,87.38915421886443,56.21592975196838C87.33935421886444,56.29062975196838,87.27675421886444,56.36662975196838,87.21415421886444,56.44262975196838C87.15225421886444,56.51772975196838,87.09035421886443,56.592929751968384,87.04085421886444,56.666829751968386C86.29465421886444,57.51412975196838,85.39825421886444,58.21272975196838,84.40285421886443,58.713229751968385C84.31445421886444,58.771929751968386,84.20845421886445,58.81502975196838,84.09525421886444,58.86102975196839C84.01755421886445,58.892629751968386,83.93645421886444,58.925529751968384,83.85535421886445,58.96592975196839C83.59115421886445,59.07862975196838,83.32705421886445,59.16282975196839,83.08455421886444,59.24012975196838C83.00725421886445,59.264829751968385,82.93205421886444,59.28882975196838,82.85985421886444,59.312729751968384C81.51605421886444,59.714129751968386,80.07271421886443,59.76362975196838,78.72894421886444,59.46632975196839C74.05050421886445,58.46542975196839,71.01412763886444,53.867329751968384,72.00957421886444,49.17000975196839C72.45749421886444,46.92047975196839,73.80127421886444,44.973189751968384,75.74261421886445,43.674999751968386C75.74261421886445,43.674999751968386,75.74261421886445,43.674999751968386,75.74261421886445,43.674999751968386Z" fill-rule="evenodd" fill="#F9B400" fill-opacity="1"/></g><g style="mix-blend-mode:passthrough"><path d="M90.70524983825683,56.24020051651001C90.40454983825684,56.79040051651001,90.10324983825683,57.291100516510014,89.75204983825684,57.79180051651001C89.60114983825683,57.99010051651001,89.45074983825684,58.18840051651001,89.30044983825684,58.391700516510014C88.34664983825684,59.492300516510014,87.14212983825684,60.43910051651001,85.83765983825684,61.08860051651001C85.58635983825684,61.187700516510006,85.33555983825684,61.34140051651001,85.08475983825683,61.44050051651001C84.68307983825683,61.58930051651001,83.76601983825684,62.11720051651001,83.31437983825684,62.22130051651001C83.31437983825684,62.22130051651001,78.31834983825684,56.76810051651001,78.31834983825684,56.76810051651001C78.31834983825684,56.76810051651001,79.49418983825683,56.24020051651001,79.49418983825683,56.24020051651001C79.49418983825683,56.24020051651001,80.56655983825684,54.94130051651001,80.56655983825684,54.94130051651001C80.56655983825684,54.94130051651001,80.56655983825684,53.04997051651001,80.56655983825684,53.04997051651001C80.56655983825684,53.04997051651001,80.81635983825683,51.81060051651001,80.81635983825683,51.81060051651001C80.81635983825683,51.81060051651001,81.06615983825684,49.57974051651001,79.99378983825683,49.57974051651001C81.06615983825684,49.57974051651001,81.06615983825684,48.09250051651001,81.06615983825684,48.09250051651001C81.06615983825684,48.09250051651001,82.06536983825684,45.86164651651001,82.06536983825684,45.86164651651001C82.06536983825684,45.86164651651001,84.31357983825684,45.36590051651001,84.31357983825684,45.36590051651001C84.31357983825684,45.36590051651001,91.30784983825683,54.94130051651001,91.30784983825683,54.94130051651001C91.25734983825683,55.09002051651001,90.75574983825683,56.04190051651001,90.70524983825683,56.24020051651001C90.70524983825683,56.24020051651001,90.70524983825683,56.24020051651001,90.70524983825683,56.24020051651001Z" fill="url(#master_svg6_0_691)" fill-opacity="1"/></g><g style="mix-blend-mode:passthrough" transform="matrix(1,0,0,-1,0,113.92720413208008)"><path d="M83.8624298147583,68.87060206604004C82.9808198147583,68.87060206604004,82.2624698147583,68.55190206604004,81.7073798147583,67.91270206604004C81.1522898147583,67.27340206604003,80.8200198147583,66.38943206604004,80.7086198147583,65.25696206604005C80.7086198147583,65.25696206604005,80.6932498147583,65.12418206604004,80.6932498147583,65.12418206604004C80.6932498147583,65.12418206604004,78.2366598147583,65.12418206604004,78.2366598147583,65.12418206604004C78.2366598147583,65.12418206604004,77.5509648147583,64.18702206604004,77.5509648147583,64.18702206604004C77.5509648147583,64.18702206604004,80.6202598147583,64.18702206604004,80.6202598147583,64.18702206604004C80.6202598147583,64.18702206604004,80.5357498147583,63.52127206604004,80.5357498147583,63.52127206604004C80.5357498147583,63.52127206604004,77.3051088147583,63.52127206604004,77.3051088147583,63.52127206604004C77.3051088147583,63.52127206604004,76.6174898147583,62.58411206604004,76.6174898147583,62.58411206604004C76.6174898147583,62.58411206604004,80.4550798147583,62.58411206604004,80.4550798147583,62.58411206604004C80.4550798147583,62.58411206604004,80.2418898147583,60.673992066040036,80.2418898147583,60.673992066040036C80.2418898147583,60.673992066040036,80.1227898147583,59.55480206604004,80.1227898147583,59.55480206604004C79.9883398147583,58.26679206604004,79.50047981475831,57.62183606604004,78.6592098147583,57.62183606604004C78.6592098147583,57.62183606604004,78.1982398147583,57.70340206604004,78.1982398147583,57.70340206604004C78.1982398147583,57.70340206604004,78.1982398147583,56.96360206604004,78.1982398147583,56.96360206604004C78.1982398147583,56.96360206604004,78.9242698147583,57.10018106604004,78.9242698147583,57.10018106604004C79.2507898147583,57.23106906604004,79.5600298147583,57.42835206604004,79.85004981475831,57.69012806604004C80.2437998147583,58.044852066040036,80.5299898147583,58.445102066040036,80.7066998147583,58.888982066040036C80.8833998147583,59.33096206604004,81.0120898147583,59.97023206604004,81.09467981475831,60.80487206604004C81.09467981475831,60.80487206604004,81.2886698147583,62.58411206604004,81.2886698147583,62.58411206604004C81.2886698147583,62.58411206604004,81.9821298147583,62.58411206604004,81.9821298147583,62.58411206604004C81.9821298147583,62.58411206604004,82.6678198147583,63.52127206604004,82.6678198147583,63.52127206604004C82.6678198147583,63.52127206604004,81.3693398147583,63.52127206604004,81.3693398147583,63.52127206604004C81.3693398147583,63.52127206604004,81.4500098147583,64.33316206604005,81.4500098147583,64.33316206604005C81.4500098147583,64.33316206604005,82.7676198147583,64.33316206604005,82.7676198147583,64.33316206604005C82.7676198147583,64.33316206604005,83.4533098147583,65.12418206604004,83.4533098147583,65.12418206604004C83.4533098147583,65.12418206604004,81.5287498147583,65.12418206604004,81.5287498147583,65.12418206604004C81.5287498147583,65.12418206604004,81.5882998147583,65.64014206604004,81.5882998147583,65.64014206604004C81.6881698147583,66.64172206604005,81.8418398147583,67.30940206604004,82.0511898147583,67.64710206604003C82.2605498147583,67.98470206604004,82.60819981475831,68.15360206604004,83.0960598147583,68.15360206604004C83.3015798147583,68.15360206604004,83.5339898147583,68.10990206604004,83.7913598147583,68.02270206604004C83.7913598147583,68.02270206604004,84.5039498147583,68.79660206604004,84.5039498147583,68.79660206604004C84.24080981475831,68.84590206604004,84.0276098147583,68.87060206604004,83.8624298147583,68.87060206604004C83.8624298147583,68.87060206604004,83.8624298147583,68.87060206604004,83.8624298147583,68.87060206604004Z" fill="url(#master_svg7_0_694)" fill-opacity="1"/></g></g><g style="mix-blend-mode:passthrough"><g style="mix-blend-mode:passthrough"><path d="M78.64198024142024,70.68390029098046C78.49288024142024,71.53360029098046,78.19408024142024,72.33860029098047,77.84578024142024,73.08890029098046C77.79568024142024,73.23800029098047,77.69608024142025,73.39200029098046,77.59648024142024,73.59080029098047C77.29828024142024,74.19200029098046,76.94988024142025,74.69390029098047,76.60108024142025,75.24550029098046C76.45198024142024,75.44420029098046,76.30278024142024,75.64300029098047,76.15318024142024,75.84670029098046C75.20778024142024,76.94990029098047,74.01308024142024,77.89890029098046,72.71888024142024,78.54990029098046C72.47018024142024,78.65420029098047,72.22138024142023,78.80330029098046,71.97218024142025,78.90270029098046C71.57428024142024,79.05180029098047,71.12638024142024,79.25550029098046,70.67848024142025,79.35490029098047C68.98638024142024,79.85680029098046,67.14458024142024,79.95610029098046,65.30286024142023,79.55360029098047C59.230610241420244,78.30140029098047,55.29888024142024,72.28890029098046,56.54305524142024,66.12229029098046C57.78724024142024,60.01035029098046,63.75990024142024,56.05002029098046,69.88218024142024,57.302217290980465C72.02228024142025,57.75440129098047,74.01308024142024,58.807840290980465,75.55608024142023,60.407880290980465C78.29368024142025,63.066320290980464,79.43828024142024,66.92231029098046,78.64198024142024,70.68390029098046C78.64198024142024,70.68390029098046,78.64198024142024,70.68390029098046,78.64198024142024,70.68390029098046Z" fill="url(#master_svg8_0_685)" fill-opacity="1"/></g><g style="mix-blend-mode:passthrough"><path d="M65.70010413005829,77.6914337814331C66.3472241300583,77.8400337814331,66.99383413005829,77.8896337814331,67.64095413005829,77.8896337814331C68.4872241300583,77.8896337814331,69.38312413005829,77.79053378143311,70.27892413005829,77.6418337814331C70.51902413005828,77.5735337814331,70.7590241300583,77.4794337814331,71.01542413005829,77.3788337814331C71.13112413005828,77.3334337814331,71.25012413005828,77.2867337814331,71.37402413005829,77.2405337814331C71.57322413005829,77.14143378143311,71.7723241300583,77.0423337814331,71.97102413005828,76.94323378143311C73.06612413005828,76.34363378143311,74.06152413005829,75.59053378143311,74.85832413005829,74.64413378143311C74.93132413005829,74.5689337814331,74.99242413005828,74.48313378143311,75.05322413005828,74.3976337814331C75.11682413005829,74.30843378143311,75.18002413005829,74.2196337814331,75.25612413005828,74.1437337814331C75.55492413005828,73.69283378143311,75.85372413005828,73.2419337814331,76.1024241300583,72.74643378143311C76.17062413005829,72.6412337814331,76.2154241300583,72.53833378143311,76.25292413005829,72.4521337814331C76.27012413005829,72.41243378143311,76.28592413005829,72.3763337814331,76.30162413005829,72.3450337814331C76.59992413005828,71.6959337814331,76.79912413005829,70.9973337814331,76.9483241300583,70.2937337814331C77.59542413005829,67.14734378143311,76.65002413005828,63.896913781433106,74.36032413005829,61.59782378143311C73.06612413005828,60.299643781433105,71.42352413005828,59.40279778143311,69.58232413005828,59.0014497814331C67.09343413005828,58.451452781433105,64.55502413005829,58.951899781433106,62.41499413005829,60.349183781433105C60.32451413005829,61.75143378143311,58.83159413005829,63.896913781433106,58.33362413005829,66.39914378143311C57.23858713005829,71.5423337814331,60.57325413005829,76.6409337814331,65.70010413005829,77.6914337814331C65.70010413005829,77.6914337814331,65.70010413005829,77.6914337814331,65.70010413005829,77.6914337814331ZM62.86298413005829,61.10230378143311C64.30635413005828,60.150963781433106,65.89886413005829,59.65051578143311,67.59146413005828,59.65051578143311C68.18852413005828,59.65051578143311,68.78612413005828,59.700064781433106,69.33362413005828,59.9032137814331C70.9757241300583,60.250063781433106,72.51862413005829,61.052753781433104,73.7132241300583,62.251853781433105C75.75422413005829,64.34778378143311,76.65002413005828,67.2959637814331,76.05252413005829,70.19463378143311C75.95292413005829,70.8437337814331,75.75422413005829,71.44323378143311,75.45542413005829,72.0427337814331C75.43062413005829,72.0923337814331,75.40572413005829,72.1555337814331,75.38082413005829,72.21863378143311C75.35592413005828,72.28183378143311,75.3310241300583,72.3450337814331,75.30632413005829,72.39453378143311C75.0570241300583,72.8454337814331,74.80832413005828,73.2418337814331,74.50952413005828,73.64323378143311C74.45972413005829,73.7179337814331,74.39712413005829,73.79393378143311,74.33452413005828,73.8699337814331C74.27262413005829,73.94503378143311,74.21072413005828,74.0202337814331,74.16122413005829,74.0941337814331C73.41502413005828,74.9414337814331,72.51862413005829,75.6400337814331,71.52322413005828,76.1405337814331C71.43482413005829,76.19923378143311,71.3288241300583,76.2423337814331,71.21562413005829,76.28833378143311C71.1379241300583,76.31993378143311,71.05682413005829,76.3528337814331,70.9757241300583,76.39323378143311C70.7115241300583,76.5059337814331,70.4474241300583,76.59013378143311,70.20492413005829,76.6674337814331C70.1276241300583,76.69213378143311,70.05242413005828,76.7161337814331,69.98022413005829,76.74003378143311C68.63642413005829,77.14143378143311,67.19308413005828,77.1909337814331,65.84931413005829,76.89363378143311C61.17087413005829,75.89273378143311,58.13449750005829,71.2946337814331,59.12994413005829,66.5973137814331C59.57786413005829,64.34778378143311,60.92164413005829,62.400493781433106,62.86298413005829,61.10230378143311C62.86298413005829,61.10230378143311,62.86298413005829,61.10230378143311,62.86298413005829,61.10230378143311Z" fill-rule="evenodd" fill="#F9B400" fill-opacity="1"/></g><g style="mix-blend-mode:passthrough"><path d="M77.82488542022705,73.66727876358033C77.52418542022706,74.21747876358032,77.22288542022704,74.71817876358033,76.87168542022705,75.21887876358032C76.72078542022705,75.41717876358032,76.57038542022705,75.61547876358033,76.42008542022705,75.81877876358033C75.46628542022705,76.91937876358033,74.26176542022705,77.86617876358032,72.95729542022706,78.51567876358033C72.70599542022705,78.61477876358032,72.45519542022706,78.76847876358032,72.20439542022704,78.86757876358033C71.80271542022705,79.01637876358032,70.88565542022705,79.54427876358032,70.43401542022706,79.64837876358033C70.43401542022706,79.64837876358033,65.43798542022705,74.19517876358032,65.43798542022705,74.19517876358032C65.43798542022705,74.19517876358032,66.61382542022704,73.66727876358033,66.61382542022704,73.66727876358033C66.61382542022704,73.66727876358033,67.68619542022705,72.36837876358032,67.68619542022705,72.36837876358032C67.68619542022705,72.36837876358032,67.68619542022705,70.47704876358033,67.68619542022705,70.47704876358033C67.68619542022705,70.47704876358033,67.93599542022704,69.23767876358032,67.93599542022704,69.23767876358032C67.93599542022704,69.23767876358032,68.18579542022705,67.00681876358033,67.11342542022705,67.00681876358033C68.18579542022705,67.00681876358033,68.18579542022705,65.51957876358033,68.18579542022705,65.51957876358033C68.18579542022705,65.51957876358033,69.18500542022706,63.28872476358032,69.18500542022706,63.28872476358032C69.18500542022706,63.28872476358032,71.43321542022706,62.79297876358032,71.43321542022706,62.79297876358032C71.43321542022706,62.79297876358032,78.42748542022704,72.36837876358032,78.42748542022704,72.36837876358032C78.37698542022704,72.51709876358032,77.87538542022705,73.46897876358032,77.82488542022705,73.66727876358033C77.82488542022705,73.66727876358033,77.82488542022705,73.66727876358033,77.82488542022705,73.66727876358033Z" fill="url(#master_svg9_0_691)" fill-opacity="1"/></g><g style="mix-blend-mode:passthrough" transform="matrix(1,0,0,-1,0,148.7813606262207)"><path d="M70.98206635040283,86.29768031311035C70.10045635040284,86.29768031311035,69.38210635040284,85.97898031311036,68.82701635040283,85.33978031311035C68.27192635040284,84.70048031311035,67.93965635040283,83.81651031311036,67.82825635040282,82.68404031311036C67.82825635040282,82.68404031311036,67.81288635040283,82.55126031311035,67.81288635040283,82.55126031311035C67.81288635040283,82.55126031311035,65.35629635040283,82.55126031311035,65.35629635040283,82.55126031311035C65.35629635040283,82.55126031311035,64.67060135040283,81.61410031311036,64.67060135040283,81.61410031311036C64.67060135040283,81.61410031311036,67.73989635040283,81.61410031311036,67.73989635040283,81.61410031311036C67.73989635040283,81.61410031311036,67.65538635040284,80.94835031311035,67.65538635040284,80.94835031311035C67.65538635040284,80.94835031311035,64.42474535040283,80.94835031311035,64.42474535040283,80.94835031311035C64.42474535040283,80.94835031311035,63.73712635040283,80.01119031311035,63.73712635040283,80.01119031311035C63.73712635040283,80.01119031311035,67.57471635040284,80.01119031311035,67.57471635040284,80.01119031311035C67.57471635040284,80.01119031311035,67.36152635040283,78.10107031311036,67.36152635040283,78.10107031311036C67.36152635040283,78.10107031311036,67.24242635040284,76.98188031311035,67.24242635040284,76.98188031311035C67.10797635040284,75.69387031311035,66.62011635040284,75.04891431311034,65.77884635040283,75.04891431311034C65.77884635040283,75.04891431311034,65.31787635040283,75.13048031311035,65.31787635040283,75.13048031311035C65.31787635040283,75.13048031311035,65.31787635040283,74.39068031311035,65.31787635040283,74.39068031311035C65.31787635040283,74.39068031311035,66.04390635040284,74.52725931311035,66.04390635040284,74.52725931311035C66.37042635040284,74.65814731311035,66.67966635040283,74.85543031311035,66.96968635040284,75.11720631311036C67.36343635040284,75.47193031311035,67.64962635040283,75.87218031311035,67.82633635040283,76.31606031311036C68.00303635040284,76.75804031311036,68.13172635040283,77.39731031311035,68.21431635040284,78.23195031311035C68.21431635040284,78.23195031311035,68.40830635040282,80.01119031311035,68.40830635040282,80.01119031311035C68.40830635040282,80.01119031311035,69.10176635040283,80.01119031311035,69.10176635040283,80.01119031311035C69.10176635040283,80.01119031311035,69.78745635040283,80.94835031311035,69.78745635040283,80.94835031311035C69.78745635040283,80.94835031311035,68.48897635040284,80.94835031311035,68.48897635040284,80.94835031311035C68.48897635040284,80.94835031311035,68.56964635040283,81.76024031311036,68.56964635040283,81.76024031311036C68.56964635040283,81.76024031311036,69.88725635040284,81.76024031311036,69.88725635040284,81.76024031311036C69.88725635040284,81.76024031311036,70.57294635040283,82.55126031311035,70.57294635040283,82.55126031311035C70.57294635040283,82.55126031311035,68.64838635040283,82.55126031311035,68.64838635040283,82.55126031311035C68.64838635040283,82.55126031311035,68.70793635040283,83.06722031311035,68.70793635040283,83.06722031311035C68.80780635040283,84.06880031311036,68.96147635040283,84.73648031311035,69.17082635040283,85.07418031311035C69.38018635040284,85.41178031311036,69.72783635040284,85.58068031311035,70.21569635040284,85.58068031311035C70.42121635040283,85.58068031311035,70.65362635040283,85.53698031311035,70.91099635040283,85.44978031311035C70.91099635040283,85.44978031311035,71.62358635040283,86.22368031311035,71.62358635040283,86.22368031311035C71.36044635040284,86.27298031311035,71.14724635040284,86.29768031311035,70.98206635040283,86.29768031311035C70.98206635040283,86.29768031311035,70.98206635040283,86.29768031311035,70.98206635040283,86.29768031311035Z" fill="url(#master_svga_0_694)" fill-opacity="1"/></g></g></g></svg>